<svg xmlns="http://www.w3.org/2000/svg" width="1080" height="1080" version="1.0" viewBox="0 0 810 810"><defs><clipPath id="a"><path d="M2 4h804v803.75H2Zm0 0"/></clipPath></defs><g clip-path="url(#a)"><path fill="#fb653e" d="M784.527 170.84c-16.363-22.488-40.445-49.93-67.8-77.27-27.36-27.343-54.817-51.41-77.313-67.761C610.766 4.98 595.648-.078 587.22 8.344c-.117.117-.196.25-.305.37-.601.583-1.156 1.235-1.582 2.009-37.7 68.37-118.98 170.351-218.176 273.902l-22.015-22.008a8.69 8.69 0 0 0-12.274 0l-72.746 72.711a8.667 8.667 0 0 0 0 12.266l22.02 22.008C180.875 466.492 80.535 546.71 12.16 585.34c-2.122.613-3.954 1.719-5.548 3.312-.047.043-.074.098-.12.145-.032.027-.06.062-.09.094-.071.07-.16.117-.231.187-.164.164-.29.352-.445.52-.11.129-.227.25-.329.382-7.25 8.582-1.875 23.606 18.254 51.266 16.368 22.488 40.45 49.93 67.805 77.274 27.352 27.335 54.805 51.402 77.305 67.753 19.925 14.489 33.308 21.352 42.445 21.348 3.996 0 7.184-1.312 9.746-3.875.055-.055.09-.121.145-.176.074-.07.156-.133.226-.207.02-.015.043-.027.063-.047.113-.117.199-.246.308-.363.149-.164.297-.328.434-.504a12.613 12.613 0 0 0 2.203-3.71c31.922-56.981 94.367-138.083 171.844-223.231 3.746.762 7.57 1.11 11.195 1.426 4.961.437 10.094.89 13.055 2.398 3.238 1.648 6.762 5.664 10.176 9.547.921 1.05 1.863 2.117 2.832 3.183l-7.418 88.133c-.012.102.007.203.004.301-.016.324-.004.645.015.969.016.254.027.504.067.75.043.3.117.594.195.887.066.261.133.515.223.765.097.27.222.528.347.79.125.257.25.511.399.757.058.098.093.207.16.305a8.2 8.2 0 0 0 .586.773c.011.012.015.024.027.031.34.407.715.766 1.113 1.09l.164.13a8.594 8.594 0 0 0 2.77 1.448c.07.024.137.043.207.067a8.363 8.363 0 0 0 1.582.293l.059.011c.125.012.25.012.37.016.122.004.243.024.36.024a8.72 8.72 0 0 0 1.524-.153c.105-.02.21-.047.316-.07a8.38 8.38 0 0 0 1.125-.328c.125-.043.246-.086.367-.137a8.505 8.505 0 0 0 1.047-.531c.09-.051.187-.098.277-.156.043-.024.086-.043.13-.07l47.413-31.391 41.48 38.867c.087.078.18.133.266.203.215.187.438.355.672.52.227.16.453.316.692.453.234.136.476.25.726.363a8.3 8.3 0 0 0 .797.324 8.774 8.774 0 0 0 1.648.379c.141.02.27.066.415.078a8.482 8.482 0 0 0 2.441-.145c.027-.003.055-.019.086-.023a8.412 8.412 0 0 0 1.516-.469c.132-.054.257-.132.386-.195a9.09 9.09 0 0 0 1.102-.605c.144-.102.281-.215.422-.325a8.46 8.46 0 0 0 .918-.793c.058-.058.129-.097.183-.156.078-.082.13-.18.203-.265.243-.278.47-.57.672-.883.114-.168.219-.336.32-.508.172-.3.317-.613.454-.938.082-.199.164-.394.234-.597.102-.305.176-.621.246-.946.051-.23.098-.46.13-.695.015-.125.054-.242.066-.37l10.953-130.036c.543-.785 1.101-1.5 1.687-2.086.59-.586 1.3-1.145 2.086-1.688l130.11-10.949c.132-.008.253-.054.386-.07a9.5 9.5 0 0 0 .93-.176c.25-.058.496-.125.738-.207a9.21 9.21 0 0 0 .797-.324c.25-.113.496-.23.734-.367.23-.133.45-.285.664-.438.247-.172.485-.347.711-.547.075-.066.164-.113.239-.183.109-.106.187-.227.293-.336.222-.235.437-.473.636-.727a9.598 9.598 0 0 0 .887-1.418 8.691 8.691 0 0 0 .598-1.57c.066-.254.12-.508.168-.766.05-.289.093-.578.113-.879.02-.28.02-.562.016-.843-.004-.172.02-.344.007-.516-.011-.117-.05-.223-.062-.336-.035-.281-.098-.562-.16-.844a8.301 8.301 0 0 0-.215-.828 8.675 8.675 0 0 0-.3-.742c-.126-.277-.247-.55-.395-.812-.125-.22-.274-.426-.422-.637a8.26 8.26 0 0 0-.578-.758c-.067-.078-.114-.168-.184-.246l-38.89-41.465 31.406-47.39c.062-.086.093-.184.148-.274.164-.266.3-.543.434-.828.117-.238.226-.477.32-.723.094-.27.168-.543.238-.824.07-.277.14-.55.184-.832.039-.262.055-.527.07-.793.016-.312.031-.617.016-.93-.008-.105.011-.207.004-.312-.012-.16-.067-.309-.086-.469a9.07 9.07 0 0 0-.168-.898 8.63 8.63 0 0 0-.242-.782 7.89 7.89 0 0 0-.703-1.516 9.052 9.052 0 0 0-.481-.73 8.648 8.648 0 0 0-.508-.625 8.29 8.29 0 0 0-.61-.62 9.224 9.224 0 0 0-.675-.552c-.133-.097-.242-.218-.383-.312-.094-.063-.195-.094-.289-.152a8.45 8.45 0 0 0-.789-.418 8.648 8.648 0 0 0-.762-.332c-.257-.094-.523-.16-.789-.23-.289-.075-.574-.15-.863-.192-.254-.04-.512-.051-.77-.067a8.568 8.568 0 0 0-.949-.015c-.101.004-.199-.016-.304-.008l-88.188 7.418c-1.062-.965-2.133-1.906-3.18-2.828-3.886-3.41-7.906-6.934-9.554-10.16-1.508-2.965-1.961-8.094-2.399-13.055-.32-3.649-.668-7.496-1.437-11.262 86.972-79.113 169.472-142.422 226.886-174.035.149-.082.266-.191.407-.281.14-.09.273-.188.41-.281.351-.25.683-.516.988-.81.043-.042.098-.073.14-.116.095-.09.161-.192.247-.285.203-.223.402-.438.578-.676 7.172-8.598 1.781-23.617-18.305-51.211ZM588.242 493.867c.551-3.492 3.27-8.043 5.89-12.441 4.571-7.656 9.747-16.332 8.196-26.172-.164-1.04-.41-2.04-.703-3.008l59.91-5.039-25.3 38.176c-.11.164-.176.344-.27.512-.172.3-.352.597-.485.914-.101.246-.164.496-.246.742-.09.285-.187.566-.25.855-.058.278-.078.555-.105.836-.031.274-.07.543-.074.82-.004.278.027.551.05.829.024.28.04.558.09.836.047.265.133.52.203.78.079.278.149.555.254.825.102.266.243.516.371.766.125.246.239.492.387.726.172.274.383.52.59.774.137.164.238.347.387.504l31.324 33.402-79.438 6.683c.239-.402.473-.8.688-1.226 4.59-8.996 2.312-18.906.305-27.652-1.137-4.938-2.309-10.04-1.774-13.442ZM278.527 341.461l60.477-60.45 77.32 77.278c-.804.305-1.597.629-2.36 1.02-8.667 4.414-12.605 13.562-16.081 21.632-2.078 4.825-4.227 9.813-6.887 12.477-2.668 2.664-7.66 4.809-12.484 6.887-8.075 3.472-17.23 7.41-21.649 16.074a24.204 24.204 0 0 0-1.023 2.351l-55.035-55.007c-.008-.004-.012-.012-.016-.016-.008-.008-.016-.012-.023-.023ZM103.73 706.258c-52.71-52.684-77.878-89.57-83.007-103.067 13.5 5.118 50.402 30.262 103.117 82.954 52.765 52.734 77.926 89.636 83.02 103.097-14.614-5.469-54.438-34.32-103.13-82.984Zm115.004 67.687c-3.492-6.453-8.402-13.98-14.82-22.797-16.367-22.484-40.445-49.925-67.8-77.27-27.36-27.343-54.813-51.405-77.31-67.757-8.765-6.375-16.253-11.254-22.683-14.742 69.274-42.149 161.871-117.192 258.29-209.512l62.136 62.102.012.058c1.132 4.938 2.304 10.04 1.77 13.442-.548 3.496-3.267 8.047-5.892 12.445-4.566 7.652-9.742 16.328-8.187 26.172 1.535 9.754 9.09 16.387 15.758 22.238 3.887 3.41 7.906 6.938 9.555 10.172 1.511 2.957 1.964 8.09 2.402 13.047.765 8.703 1.652 18.516 8.265 25.715-70.863 78.156-127.347 150.484-161.496 206.687Zm308.418-103.21-33.418-31.313c-.148-.14-.32-.238-.48-.367-.262-.215-.52-.434-.8-.614-.227-.14-.466-.246-.696-.37-.266-.137-.524-.278-.801-.387-.262-.102-.527-.164-.793-.243-.27-.078-.539-.16-.816-.21-.262-.047-.528-.063-.793-.086-.29-.024-.578-.06-.871-.055-.258.004-.512.043-.77.066-.3.032-.594.055-.89.117-.274.055-.532.149-.801.235-.266.082-.536.152-.793.262-.305.128-.586.3-.88.46-.179.106-.366.172-.542.29l-38.192 25.289 5.04-59.871c.972.292 1.968.535 3.003.699 1.172.183 2.371.277 3.579.277 8.414 0 15.957-4.496 22.613-8.465 4.402-2.625 8.953-5.336 12.445-5.886.567-.09 1.207-.137 1.91-.137 3.25 0 7.278.926 11.543 1.906 5.082 1.164 10.332 2.371 15.664 2.371 4.547 0 8.473-.875 12-2.672.426-.215.828-.453 1.23-.691Zm47.961-224.692c4.672 4.105 9.508 8.348 10.07 11.91.575 3.649-2.742 9.211-5.953 14.59-3.468 5.812-7.054 11.82-8.128 18.621-1.059 6.719.492 13.484 1.996 20.027 1.414 6.153 2.875 12.516 1.148 15.895-1.57 3.082-7.398 5.586-13.035 8.012-3.348 1.437-6.938 3-10.332 4.945-.121.062-.238.14-.36.21-2.593 1.517-5.07 3.263-7.207 5.4-2.218 2.21-3.992 4.734-5.53 7.394-.016.027-.036.055-.052.086-1.925 3.344-3.476 6.906-4.984 10.41-2.426 5.633-4.933 11.46-8.02 13.031-1.027.528-2.374.781-4.117.781-3.367 0-7.457-.937-11.785-1.93-5.02-1.152-10.207-2.343-15.426-2.343-1.601 0-3.152.113-4.605.344-6.805 1.07-12.82 4.656-18.637 8.125-5.379 3.207-10.96 6.55-14.597 5.949-3.567-.559-7.809-5.39-11.914-10.063-4.489-5.109-9.133-10.398-15.332-13.554-5.965-3.04-12.801-3.64-19.415-4.227-6.355-.558-12.921-1.136-15.718-3.93-2.793-2.792-3.371-9.359-3.93-15.706-.586-6.614-1.188-13.446-4.23-19.407-3.16-6.195-8.45-10.836-13.563-15.328-4.676-4.098-9.508-8.344-10.066-11.898-.579-3.653 2.742-9.211 5.953-14.59 3.469-5.817 7.054-11.828 8.125-18.629 1.058-6.719-.496-13.48-1.996-20.02-1.414-6.152-2.875-12.515-1.149-15.894 1.57-3.086 7.403-5.594 13.043-8.016 6.328-2.726 12.875-5.539 17.895-10.554 5.02-5.016 7.836-11.559 10.562-17.887 2.426-5.637 4.934-11.461 8.02-13.035 1.031-.524 2.379-.778 4.117-.778 3.363 0 7.453.938 11.777 1.926 5.02 1.152 10.207 2.344 15.422 2.344 1.61 0 3.164-.117 4.617-.348 6.805-1.07 12.825-4.656 18.641-8.12 5.379-3.208 10.977-6.524 14.594-5.95 3.562.562 7.808 5.39 11.91 10.062 4.492 5.114 9.137 10.399 15.336 13.559 5.965 3.035 12.797 3.637 19.41 4.219 6.355.562 12.93 1.14 15.727 3.933 2.793 2.793 3.37 9.36 3.933 15.711.582 6.61 1.184 13.442 4.223 19.407 3.16 6.187 8.449 10.832 13.562 15.316Zm-10.23-63.426c-7.2-6.57-16.996-7.453-25.688-8.219-4.965-.437-10.093-.89-13.054-2.394-3.23-1.649-6.762-5.668-10.176-9.55-5.852-6.665-12.485-14.216-22.25-15.755a22.995 22.995 0 0 0-3.567-.277c-8.418 0-15.96 4.496-22.617 8.46-4.398 2.626-8.953 5.337-12.453 5.888-.566.09-1.21.136-1.918.136-3.246 0-7.273-.926-11.535-1.902-.02 0-.04-.008-.059-.012l-62.132-62.097C478.312 193.695 559.75 91.71 598.84 22.094c10.894 2.511 49.2 27.355 105.613 83.738 56.184 56.156 81.07 94.352 83.754 105.418-58.34 32.785-137.207 93.305-223.324 171.367Zm0 0"/></g><path fill="#fb653e" d="M473.285 389.531c-47.515 0-86.176 38.64-86.176 86.133 0 47.492 38.66 86.129 86.176 86.129 47.52 0 86.18-38.637 86.18-86.129 0-47.492-38.66-86.133-86.18-86.133Zm0 154.918c-37.945 0-68.82-30.86-68.82-68.785 0-37.93 30.875-68.785 68.82-68.785 37.95 0 68.824 30.855 68.824 68.785 0 37.926-30.875 68.785-68.824 68.785Zm0 0"/></svg>