<svg xmlns="http://www.w3.org/2000/svg" xmlns:xlink="http://www.w3.org/1999/xlink" width="1080" zoomAndPan="magnify" viewBox="0 0 810 809.999993" height="1080" preserveAspectRatio="xMidYMid meet" version="1.0"><defs><clipPath id="0db11c85be"><path d="M 2 4 L 806 4 L 806 807.75 L 2 807.75 Z M 2 4 " clip-rule="nonzero"/></clipPath></defs><g clip-path="url(#0db11c85be)"><path fill="#fb653e" d="M 784.527344 170.839844 C 768.164062 148.351562 744.082031 120.910156 716.726562 93.570312 C 689.367188 66.226562 661.910156 42.160156 639.414062 25.808594 C 610.765625 4.980469 595.648438 -0.078125 587.21875 8.34375 C 587.101562 8.460938 587.023438 8.59375 586.914062 8.714844 C 586.3125 9.296875 585.757812 9.949219 585.332031 10.722656 C 547.632812 79.09375 466.351562 181.074219 367.15625 284.625 L 345.140625 262.617188 C 341.75 259.234375 336.257812 259.234375 332.867188 262.617188 L 260.121094 335.328125 C 256.730469 338.714844 256.730469 344.207031 260.121094 347.59375 L 282.140625 369.601562 C 180.875 466.492188 80.535156 546.710938 12.160156 585.339844 C 10.039062 585.953125 8.207031 587.058594 6.613281 588.652344 C 6.566406 588.695312 6.539062 588.75 6.492188 588.796875 C 6.460938 588.824219 6.433594 588.859375 6.402344 588.890625 C 6.332031 588.960938 6.242188 589.007812 6.171875 589.078125 C 6.007812 589.242188 5.882812 589.429688 5.726562 589.597656 C 5.617188 589.726562 5.5 589.847656 5.398438 589.980469 C -1.851562 598.5625 3.523438 613.585938 23.652344 641.246094 C 40.019531 663.734375 64.101562 691.175781 91.457031 718.519531 C 118.808594 745.855469 146.261719 769.921875 168.761719 786.273438 C 188.6875 800.761719 202.070312 807.625 211.207031 807.621094 C 215.203125 807.621094 218.390625 806.308594 220.953125 803.746094 C 221.007812 803.691406 221.042969 803.625 221.097656 803.570312 C 221.171875 803.5 221.253906 803.4375 221.324219 803.363281 C 221.34375 803.347656 221.367188 803.335938 221.386719 803.316406 C 221.5 803.199219 221.585938 803.070312 221.695312 802.953125 C 221.84375 802.789062 221.992188 802.625 222.128906 802.449219 C 223.082031 801.328125 223.816406 800.09375 224.332031 798.738281 C 256.253906 741.757812 318.699219 660.65625 396.175781 575.507812 C 399.921875 576.269531 403.746094 576.617188 407.371094 576.933594 C 412.332031 577.371094 417.464844 577.824219 420.425781 579.332031 C 423.664062 580.980469 427.1875 584.996094 430.601562 588.878906 C 431.523438 589.929688 432.464844 590.996094 433.433594 592.0625 L 426.015625 680.195312 C 426.003906 680.296875 426.023438 680.398438 426.019531 680.496094 C 426.003906 680.820312 426.015625 681.140625 426.035156 681.464844 C 426.050781 681.71875 426.0625 681.96875 426.101562 682.214844 C 426.144531 682.515625 426.21875 682.808594 426.296875 683.101562 C 426.363281 683.363281 426.429688 683.617188 426.519531 683.867188 C 426.617188 684.136719 426.742188 684.394531 426.867188 684.65625 C 426.992188 684.914062 427.117188 685.167969 427.265625 685.414062 C 427.324219 685.511719 427.359375 685.621094 427.425781 685.71875 C 427.605469 685.992188 427.804688 686.246094 428.011719 686.492188 C 428.023438 686.503906 428.027344 686.515625 428.039062 686.523438 C 428.378906 686.929688 428.753906 687.289062 429.152344 687.613281 C 429.207031 687.65625 429.261719 687.699219 429.316406 687.742188 C 430.15625 688.398438 431.09375 688.886719 432.085938 689.191406 C 432.15625 689.214844 432.222656 689.234375 432.292969 689.257812 C 432.808594 689.40625 433.339844 689.503906 433.875 689.550781 C 433.894531 689.554688 433.914062 689.558594 433.933594 689.5625 C 434.058594 689.574219 434.183594 689.574219 434.304688 689.578125 C 434.425781 689.582031 434.546875 689.601562 434.664062 689.601562 C 435.171875 689.601562 435.683594 689.539062 436.1875 689.449219 C 436.292969 689.429688 436.398438 689.402344 436.503906 689.378906 C 436.882812 689.296875 437.257812 689.1875 437.628906 689.050781 C 437.753906 689.007812 437.875 688.964844 437.996094 688.914062 C 438.351562 688.765625 438.699219 688.585938 439.042969 688.382812 C 439.132812 688.332031 439.230469 688.285156 439.320312 688.226562 C 439.363281 688.203125 439.40625 688.183594 439.449219 688.15625 L 486.863281 656.765625 L 528.34375 695.632812 C 528.429688 695.710938 528.523438 695.765625 528.609375 695.835938 C 528.824219 696.023438 529.046875 696.191406 529.28125 696.355469 C 529.507812 696.515625 529.734375 696.671875 529.972656 696.808594 C 530.207031 696.945312 530.449219 697.058594 530.699219 697.171875 C 530.960938 697.292969 531.222656 697.402344 531.496094 697.496094 C 531.742188 697.578125 531.992188 697.648438 532.25 697.710938 C 532.546875 697.78125 532.84375 697.835938 533.144531 697.875 C 533.285156 697.894531 533.414062 697.941406 533.558594 697.953125 C 533.808594 697.972656 534.054688 697.984375 534.296875 697.984375 C 534.878906 697.984375 535.445312 697.921875 536 697.808594 C 536.027344 697.804688 536.054688 697.789062 536.085938 697.785156 C 536.609375 697.675781 537.113281 697.519531 537.601562 697.316406 C 537.734375 697.261719 537.859375 697.183594 537.988281 697.121094 C 538.371094 696.9375 538.742188 696.746094 539.089844 696.515625 C 539.234375 696.414062 539.371094 696.300781 539.511719 696.191406 C 539.835938 695.945312 540.144531 695.6875 540.429688 695.398438 C 540.488281 695.339844 540.558594 695.300781 540.613281 695.242188 C 540.691406 695.160156 540.742188 695.0625 540.816406 694.976562 C 541.058594 694.699219 541.285156 694.40625 541.488281 694.09375 C 541.601562 693.925781 541.707031 693.757812 541.808594 693.585938 C 541.980469 693.285156 542.125 692.972656 542.261719 692.648438 C 542.34375 692.449219 542.425781 692.253906 542.496094 692.050781 C 542.597656 691.746094 542.671875 691.429688 542.742188 691.105469 C 542.792969 690.875 542.839844 690.644531 542.871094 690.410156 C 542.886719 690.285156 542.925781 690.167969 542.9375 690.039062 L 553.890625 560.003906 C 554.433594 559.21875 554.992188 558.503906 555.578125 557.917969 C 556.167969 557.332031 556.878906 556.773438 557.664062 556.230469 L 687.773438 545.28125 C 687.90625 545.273438 688.027344 545.226562 688.160156 545.210938 C 688.472656 545.167969 688.78125 545.109375 689.089844 545.035156 C 689.339844 544.976562 689.585938 544.910156 689.828125 544.828125 C 690.097656 544.734375 690.359375 544.625 690.625 544.503906 C 690.875 544.390625 691.121094 544.273438 691.359375 544.136719 C 691.589844 544.003906 691.808594 543.851562 692.023438 543.699219 C 692.269531 543.527344 692.507812 543.351562 692.734375 543.152344 C 692.808594 543.085938 692.898438 543.039062 692.972656 542.96875 C 693.082031 542.863281 693.160156 542.742188 693.265625 542.632812 C 693.488281 542.398438 693.703125 542.160156 693.902344 541.90625 C 694.0625 541.695312 694.203125 541.484375 694.34375 541.269531 C 694.503906 541.015625 694.652344 540.757812 694.789062 540.488281 C 694.90625 540.253906 695.007812 540.011719 695.105469 539.769531 C 695.210938 539.492188 695.308594 539.210938 695.386719 538.917969 C 695.453125 538.664062 695.507812 538.410156 695.554688 538.152344 C 695.605469 537.863281 695.648438 537.574219 695.667969 537.273438 C 695.6875 536.992188 695.6875 536.710938 695.683594 536.429688 C 695.679688 536.257812 695.703125 536.085938 695.691406 535.914062 C 695.679688 535.796875 695.640625 535.691406 695.628906 535.578125 C 695.59375 535.296875 695.53125 535.015625 695.46875 534.734375 C 695.40625 534.453125 695.34375 534.175781 695.253906 533.90625 C 695.167969 533.652344 695.0625 533.410156 694.953125 533.164062 C 694.828125 532.886719 694.707031 532.613281 694.558594 532.351562 C 694.433594 532.132812 694.285156 531.925781 694.136719 531.714844 C 693.957031 531.453125 693.769531 531.199219 693.558594 530.957031 C 693.492188 530.878906 693.445312 530.789062 693.375 530.710938 L 654.484375 489.246094 L 685.890625 441.855469 C 685.953125 441.769531 685.984375 441.671875 686.039062 441.582031 C 686.203125 441.316406 686.339844 441.039062 686.472656 440.753906 C 686.589844 440.515625 686.699219 440.277344 686.792969 440.03125 C 686.886719 439.761719 686.960938 439.488281 687.03125 439.207031 C 687.101562 438.929688 687.171875 438.65625 687.214844 438.375 C 687.253906 438.113281 687.269531 437.847656 687.285156 437.582031 C 687.300781 437.269531 687.316406 436.964844 687.300781 436.652344 C 687.292969 436.546875 687.3125 436.445312 687.304688 436.339844 C 687.292969 436.179688 687.238281 436.03125 687.21875 435.871094 C 687.175781 435.570312 687.125 435.273438 687.050781 434.972656 C 686.980469 434.707031 686.902344 434.445312 686.808594 434.191406 C 686.714844 433.917969 686.609375 433.65625 686.488281 433.394531 C 686.371094 433.144531 686.246094 432.910156 686.105469 432.675781 C 685.957031 432.421875 685.796875 432.183594 685.625 431.945312 C 685.464844 431.726562 685.296875 431.523438 685.117188 431.320312 C 684.925781 431.105469 684.726562 430.898438 684.507812 430.699219 C 684.292969 430.503906 684.066406 430.324219 683.832031 430.148438 C 683.699219 430.050781 683.589844 429.929688 683.449219 429.835938 C 683.355469 429.773438 683.253906 429.742188 683.160156 429.683594 C 682.90625 429.527344 682.640625 429.394531 682.371094 429.265625 C 682.117188 429.144531 681.867188 429.027344 681.609375 428.933594 C 681.351562 428.839844 681.085938 428.773438 680.820312 428.703125 C 680.53125 428.628906 680.246094 428.554688 679.957031 428.511719 C 679.703125 428.472656 679.445312 428.460938 679.1875 428.445312 C 678.867188 428.425781 678.554688 428.414062 678.238281 428.429688 C 678.136719 428.433594 678.039062 428.414062 677.933594 428.421875 L 589.746094 435.839844 C 588.683594 434.875 587.613281 433.933594 586.566406 433.011719 C 582.679688 429.601562 578.660156 426.078125 577.011719 422.851562 C 575.503906 419.886719 575.050781 414.757812 574.613281 409.796875 C 574.292969 406.148438 573.945312 402.300781 573.175781 398.535156 C 660.148438 319.421875 742.648438 256.113281 800.0625 224.5 C 800.210938 224.417969 800.328125 224.308594 800.46875 224.21875 C 800.609375 224.128906 800.742188 224.03125 800.878906 223.9375 C 801.230469 223.6875 801.5625 223.421875 801.867188 223.128906 C 801.910156 223.085938 801.964844 223.054688 802.007812 223.011719 C 802.101562 222.921875 802.167969 222.820312 802.253906 222.726562 C 802.457031 222.503906 802.65625 222.289062 802.832031 222.050781 C 810.003906 213.453125 804.613281 198.433594 784.527344 170.839844 Z M 588.242188 493.867188 C 588.792969 490.375 591.511719 485.824219 594.132812 481.425781 C 598.703125 473.769531 603.878906 465.09375 602.328125 455.253906 C 602.164062 454.214844 601.917969 453.214844 601.625 452.246094 L 661.535156 447.207031 L 636.234375 485.382812 C 636.125 485.546875 636.058594 485.726562 635.964844 485.894531 C 635.792969 486.195312 635.613281 486.492188 635.480469 486.808594 C 635.378906 487.054688 635.316406 487.304688 635.234375 487.550781 C 635.144531 487.835938 635.046875 488.117188 634.984375 488.40625 C 634.925781 488.683594 634.90625 488.960938 634.878906 489.242188 C 634.847656 489.515625 634.808594 489.785156 634.804688 490.0625 C 634.800781 490.339844 634.832031 490.613281 634.855469 490.890625 C 634.878906 491.171875 634.894531 491.449219 634.945312 491.726562 C 634.992188 491.992188 635.078125 492.246094 635.148438 492.507812 C 635.226562 492.785156 635.296875 493.0625 635.402344 493.332031 C 635.503906 493.597656 635.644531 493.847656 635.773438 494.097656 C 635.898438 494.34375 636.011719 494.589844 636.160156 494.824219 C 636.332031 495.097656 636.542969 495.34375 636.75 495.597656 C 636.886719 495.761719 636.988281 495.945312 637.136719 496.101562 L 668.460938 529.503906 L 589.023438 536.1875 C 589.261719 535.785156 589.496094 535.386719 589.710938 534.960938 C 594.300781 525.964844 592.023438 516.054688 590.015625 507.308594 C 588.878906 502.371094 587.707031 497.269531 588.242188 493.867188 Z M 278.527344 341.460938 L 339.003906 281.011719 L 416.324219 358.289062 C 415.519531 358.59375 414.726562 358.917969 413.964844 359.308594 C 405.296875 363.722656 401.359375 372.871094 397.882812 380.941406 C 395.804688 385.765625 393.65625 390.753906 390.996094 393.417969 C 388.328125 396.082031 383.335938 398.226562 378.511719 400.304688 C 370.4375 403.777344 361.28125 407.714844 356.863281 416.378906 C 356.46875 417.15625 356.140625 417.941406 355.839844 418.730469 L 300.804688 363.722656 C 300.796875 363.71875 300.792969 363.710938 300.789062 363.707031 C 300.78125 363.699219 300.773438 363.695312 300.765625 363.683594 Z M 103.730469 706.257812 C 51.019531 653.574219 25.851562 616.6875 20.722656 603.191406 C 34.222656 608.308594 71.125 633.453125 123.839844 686.144531 C 176.605469 738.878906 201.765625 775.78125 206.859375 789.242188 C 192.246094 783.773438 152.421875 754.921875 103.730469 706.257812 Z M 218.734375 773.945312 C 215.242188 767.492188 210.332031 759.964844 203.914062 751.148438 C 187.546875 728.664062 163.46875 701.222656 136.113281 673.878906 C 108.753906 646.535156 81.300781 622.472656 58.804688 606.121094 C 50.039062 599.746094 42.550781 594.867188 36.121094 591.378906 C 105.394531 549.230469 197.992188 474.1875 294.410156 381.867188 L 356.546875 443.96875 C 356.550781 443.988281 356.554688 444.007812 356.558594 444.027344 C 357.691406 448.964844 358.863281 454.066406 358.328125 457.46875 C 357.78125 460.964844 355.0625 465.515625 352.4375 469.914062 C 347.871094 477.566406 342.695312 486.242188 344.25 496.085938 C 345.785156 505.839844 353.339844 512.472656 360.007812 518.324219 C 363.894531 521.734375 367.914062 525.261719 369.5625 528.496094 C 371.074219 531.453125 371.527344 536.585938 371.964844 541.542969 C 372.730469 550.246094 373.617188 560.058594 380.230469 567.257812 C 309.367188 645.414062 252.882812 717.742188 218.734375 773.945312 Z M 527.152344 670.734375 L 493.734375 639.421875 C 493.585938 639.28125 493.414062 639.183594 493.253906 639.054688 C 492.992188 638.839844 492.734375 638.621094 492.453125 638.441406 C 492.226562 638.300781 491.988281 638.195312 491.757812 638.070312 C 491.492188 637.933594 491.234375 637.792969 490.957031 637.683594 C 490.695312 637.582031 490.429688 637.519531 490.164062 637.441406 C 489.894531 637.363281 489.625 637.28125 489.347656 637.230469 C 489.085938 637.183594 488.820312 637.167969 488.554688 637.144531 C 488.265625 637.121094 487.976562 637.085938 487.683594 637.089844 C 487.425781 637.09375 487.171875 637.132812 486.914062 637.15625 C 486.613281 637.1875 486.320312 637.210938 486.023438 637.273438 C 485.75 637.328125 485.492188 637.421875 485.222656 637.507812 C 484.957031 637.589844 484.6875 637.660156 484.429688 637.769531 C 484.125 637.898438 483.84375 638.070312 483.550781 638.230469 C 483.371094 638.335938 483.183594 638.402344 483.007812 638.519531 L 444.816406 663.808594 L 449.855469 603.9375 C 450.828125 604.230469 451.824219 604.472656 452.859375 604.636719 C 454.03125 604.820312 455.230469 604.914062 456.4375 604.914062 C 464.851562 604.914062 472.394531 600.417969 479.050781 596.449219 C 483.453125 593.824219 488.003906 591.113281 491.496094 590.5625 C 492.0625 590.472656 492.703125 590.425781 493.40625 590.425781 C 496.65625 590.425781 500.683594 591.351562 504.949219 592.332031 C 510.03125 593.496094 515.28125 594.703125 520.613281 594.703125 C 525.160156 594.703125 529.085938 593.828125 532.613281 592.03125 C 533.039062 591.816406 533.441406 591.578125 533.84375 591.339844 Z M 575.113281 446.042969 C 579.785156 450.148438 584.621094 454.390625 585.183594 457.953125 C 585.757812 461.601562 582.441406 467.164062 579.230469 472.542969 C 575.761719 478.355469 572.175781 484.363281 571.101562 491.164062 C 570.042969 497.882812 571.59375 504.648438 573.097656 511.191406 C 574.511719 517.34375 575.972656 523.707031 574.246094 527.085938 C 572.675781 530.167969 566.847656 532.671875 561.210938 535.097656 C 557.863281 536.535156 554.273438 538.097656 550.878906 540.042969 C 550.757812 540.105469 550.640625 540.183594 550.519531 540.253906 C 547.925781 541.769531 545.449219 543.515625 543.3125 545.652344 C 541.09375 547.863281 539.320312 550.386719 537.78125 553.046875 C 537.765625 553.074219 537.746094 553.101562 537.730469 553.132812 C 535.804688 556.476562 534.253906 560.039062 532.746094 563.542969 C 530.320312 569.175781 527.8125 575.003906 524.726562 576.574219 C 523.699219 577.101562 522.351562 577.355469 520.609375 577.355469 C 517.242188 577.355469 513.152344 576.417969 508.824219 575.425781 C 503.804688 574.273438 498.617188 573.082031 493.398438 573.082031 C 491.796875 573.082031 490.246094 573.195312 488.792969 573.425781 C 481.988281 574.496094 475.972656 578.082031 470.15625 581.550781 C 464.777344 584.757812 459.195312 588.101562 455.558594 587.5 C 451.992188 586.941406 447.75 582.109375 443.644531 577.4375 C 439.15625 572.328125 434.511719 567.039062 428.3125 563.882812 C 422.347656 560.84375 415.511719 560.242188 408.898438 559.65625 C 402.542969 559.097656 395.976562 558.519531 393.179688 555.726562 C 390.386719 552.933594 389.808594 546.367188 389.25 540.019531 C 388.664062 533.40625 388.0625 526.574219 385.019531 520.613281 C 381.859375 514.417969 376.570312 509.777344 371.457031 505.285156 C 366.78125 501.1875 361.949219 496.941406 361.390625 493.386719 C 360.8125 489.734375 364.132812 484.175781 367.34375 478.796875 C 370.8125 472.980469 374.398438 466.96875 375.46875 460.167969 C 376.527344 453.449219 374.972656 446.6875 373.472656 440.148438 C 372.058594 433.996094 370.597656 427.632812 372.324219 424.253906 C 373.894531 421.167969 379.726562 418.660156 385.367188 416.238281 C 391.695312 413.511719 398.242188 410.699219 403.261719 405.683594 C 408.28125 400.667969 411.097656 394.125 413.824219 387.796875 C 416.25 382.160156 418.757812 376.335938 421.84375 374.761719 C 422.875 374.238281 424.222656 373.984375 425.960938 373.984375 C 429.324219 373.984375 433.414062 374.921875 437.738281 375.910156 C 442.757812 377.0625 447.945312 378.253906 453.160156 378.253906 C 454.769531 378.253906 456.324219 378.136719 457.777344 377.90625 C 464.582031 376.835938 470.601562 373.25 476.417969 369.785156 C 481.796875 366.578125 487.394531 363.261719 491.011719 363.835938 C 494.574219 364.398438 498.820312 369.226562 502.921875 373.898438 C 507.414062 379.011719 512.058594 384.296875 518.257812 387.457031 C 524.222656 390.492188 531.054688 391.09375 537.667969 391.675781 C 544.023438 392.238281 550.597656 392.816406 553.394531 395.609375 C 556.1875 398.402344 556.765625 404.96875 557.328125 411.320312 C 557.910156 417.929688 558.511719 424.761719 561.550781 430.726562 C 564.710938 436.914062 570 441.558594 575.113281 446.042969 Z M 564.882812 382.617188 C 557.683594 376.046875 547.886719 375.164062 539.195312 374.398438 C 534.230469 373.960938 529.101562 373.507812 526.140625 372.003906 C 522.910156 370.355469 519.378906 366.335938 515.964844 362.453125 C 510.113281 355.789062 503.480469 348.238281 493.714844 346.699219 C 492.550781 346.515625 491.347656 346.421875 490.148438 346.421875 C 481.730469 346.421875 474.1875 350.917969 467.53125 354.882812 C 463.132812 357.507812 458.578125 360.21875 455.078125 360.769531 C 454.511719 360.859375 453.867188 360.90625 453.160156 360.90625 C 449.914062 360.90625 445.886719 359.980469 441.625 359.003906 C 441.605469 359.003906 441.585938 358.996094 441.566406 358.992188 L 379.433594 296.894531 C 478.3125 193.695312 559.75 91.710938 598.839844 22.09375 C 609.734375 24.605469 648.039062 49.449219 704.453125 105.832031 C 760.636719 161.988281 785.523438 200.183594 788.207031 211.25 C 729.867188 244.035156 651 304.554688 564.882812 382.617188 Z M 564.882812 382.617188 " fill-opacity="1" fill-rule="nonzero"/></g><path fill="#fb653e" d="M 473.285156 389.53125 C 425.769531 389.53125 387.109375 428.171875 387.109375 475.664062 C 387.109375 523.15625 425.769531 561.792969 473.285156 561.792969 C 520.804688 561.792969 559.464844 523.15625 559.464844 475.664062 C 559.464844 428.171875 520.804688 389.53125 473.285156 389.53125 Z M 473.285156 544.449219 C 435.339844 544.449219 404.464844 513.589844 404.464844 475.664062 C 404.464844 437.734375 435.339844 406.878906 473.285156 406.878906 C 511.234375 406.878906 542.109375 437.734375 542.109375 475.664062 C 542.109375 513.589844 511.234375 544.449219 473.285156 544.449219 Z M 473.285156 544.449219 " fill-opacity="1" fill-rule="nonzero"/></svg>