<svg xmlns="http://www.w3.org/2000/svg" width="1200" height="900" version="1.0" viewBox="0 0 900 675"><defs><clipPath id="a"><path d="M72 452h125v129.969H72Zm0 0"/></clipPath><clipPath id="b"><path d="M224 136h578v445.969H224Zm0 0"/></clipPath></defs><path fill="#fb653e" d="M608.191 141.402c-6.398 0-11.601 5.207-11.601 11.602 0 6.398 5.203 11.605 11.601 11.605 6.399 0 11.602-5.207 11.602-11.605 0-6.395-5.203-11.602-11.602-11.602Zm0 26.422c-8.171 0-14.82-6.648-14.82-14.82s6.649-14.82 14.82-14.82c8.172 0 14.817 6.648 14.817 14.82s-6.645 14.82-14.817 14.82"/><path fill="#fb653e" d="M607.879 160c-.559 0-1.078-.29-1.371-.766l-3.754-6.12a1.605 1.605 0 0 1 .527-2.212 1.611 1.611 0 0 1 2.215.532l2.223 3.625 3.984-8.133a1.601 1.601 0 0 1 2.149-.735 1.6 1.6 0 0 1 .738 2.149l-5.266 10.758a1.614 1.614 0 0 1-1.37.902h-.075M299.898 475.52a1.614 1.614 0 0 0-2.152.738l-2.82 5.758-1.395-2.278a1.606 1.606 0 1 0-2.738 1.684l2.922 4.77c.297.48.812.769 1.37.769.028 0 .052-.004.08-.004a1.611 1.611 0 0 0 1.366-.898l4.106-8.387a1.61 1.61 0 0 0-.739-2.152M299.898 494.5a1.614 1.614 0 0 0-2.152.738l-2.82 5.762-1.395-2.281a1.606 1.606 0 1 0-2.738 1.683l2.922 4.77c.297.476.812.765 1.37.765h.08a1.604 1.604 0 0 0 1.366-.898l4.106-8.387a1.612 1.612 0 0 0-.739-2.152M306.29 479.027h15.608a1.606 1.606 0 0 0 0-3.215H306.29a1.608 1.608 0 0 0 0 3.215M327.094 479.027h7.812c.887 0 1.61-.718 1.61-1.605 0-.89-.723-1.61-1.61-1.61h-7.812c-.887 0-1.606.72-1.606 1.61 0 .887.719 1.605 1.606 1.605M306.29 485.832h7.804c.89 0 1.61-.723 1.61-1.61 0-.886-.72-1.605-1.61-1.605h-7.805a1.608 1.608 0 0 0 0 3.215M343.172 482.996h-23.453a1.607 1.607 0 1 0 0 3.215h23.453a1.606 1.606 0 1 0 0-3.215M306.29 498.152h21.624c.887 0 1.61-.718 1.61-1.605 0-.89-.723-1.61-1.61-1.61H306.29a1.608 1.608 0 0 0 0 3.215M337.75 494.938h-4.352a1.61 1.61 0 0 0-1.609 1.609c0 .887.723 1.605 1.61 1.605h4.351c.887 0 1.605-.718 1.605-1.605 0-.89-.718-1.61-1.605-1.61M314.094 501.742h-7.805a1.609 1.609 0 0 0 0 3.219h7.805a1.61 1.61 0 0 0 0-3.219M333.113 502.121H319.72a1.606 1.606 0 1 0 0 3.215h13.394c.887 0 1.606-.719 1.606-1.61 0-.886-.719-1.605-1.606-1.605M210.68 378.898a1.614 1.614 0 0 0-2.153.739l-3.09 6.324-1.597-2.598a1.601 1.601 0 0 0-2.211-.527 1.605 1.605 0 0 0-.527 2.21l3.12 5.087c.298.48.813.765 1.376.765h.074a1.604 1.604 0 0 0 1.367-.898l4.379-8.95a1.612 1.612 0 0 0-.738-2.152M217.55 382.438h14.329c.887 0 1.605-.72 1.605-1.606 0-.89-.718-1.61-1.605-1.61H217.55a1.61 1.61 0 0 0-1.61 1.61c0 .887.723 1.606 1.61 1.606M221.715 386.48h-4.164a1.61 1.61 0 0 0 0 3.22h4.164c.887 0 1.605-.723 1.605-1.61 0-.89-.718-1.61-1.605-1.61M239.379 386.48l-11.078.41a1.61 1.61 0 0 0-1.551 1.669 1.607 1.607 0 0 0 1.605 1.546h.063l11.078-.406a1.613 1.613 0 0 0 1.55-1.668c-.034-.886-.788-1.597-1.667-1.55M809.813 314.21a1.61 1.61 0 0 0-2.153.74l-3.094 6.32-1.593-2.598a1.605 1.605 0 0 0-2.211-.527 1.605 1.605 0 0 0-.528 2.21l3.121 5.09c.297.48.813.77 1.372.77.027 0 .05-.004.078-.004a1.616 1.616 0 0 0 1.367-.899l4.375-8.949c.398-.8.066-1.761-.735-2.152M816.684 317.75h14.328c.883 0 1.61-.719 1.61-1.61 0-.886-.727-1.605-1.61-1.605h-14.328c-.891 0-1.606.719-1.606 1.606 0 .89.715 1.609 1.606 1.609M820.848 321.793h-4.164c-.891 0-1.606.723-1.606 1.605 0 .891.715 1.61 1.606 1.61h4.164c.882 0 1.609-.719 1.609-1.61 0-.882-.727-1.605-1.61-1.605M838.512 321.793l-11.078.41a1.608 1.608 0 0 0-1.555 1.664c.035.867.75 1.551 1.61 1.551h.058l11.078-.41a1.605 1.605 0 0 0 1.55-1.664c-.03-.89-.784-1.598-1.663-1.551M531.746 454.297h-3.445v-4.488a1.61 1.61 0 1 0-3.219 0v4.488h-3.445a1.607 1.607 0 1 0 0 3.215h3.445v4.504a1.61 1.61 0 0 0 3.219 0v-4.504h3.445a1.606 1.606 0 0 0 0-3.215M656.945 146.066h-10.11a1.61 1.61 0 0 1 0-3.218h10.11a1.609 1.609 0 0 1 0 3.219"/><path fill="#fb653e" d="M651.887 152.176a1.608 1.608 0 0 1-1.606-1.606v-12.21c0-.887.719-1.606 1.606-1.606.89 0 1.61.719 1.61 1.605v12.211c0 .883-.72 1.606-1.61 1.606M148.008 263.648h-10.113a1.61 1.61 0 1 1 0-3.219h10.113a1.61 1.61 0 1 1 0 3.219"/><path fill="#fb653e" d="M142.95 269.758a1.605 1.605 0 0 1-1.606-1.606v-12.21a1.606 1.606 0 0 1 3.215 0v12.21c0 .887-.72 1.606-1.61 1.606M814.36 242.887h-10.114a1.606 1.606 0 0 1-1.605-1.61c0-.886.718-1.605 1.605-1.605h10.113c.887 0 1.61.719 1.61 1.605 0 .891-.723 1.61-1.61 1.61"/><path fill="#fb653e" d="M809.3 248.996a1.61 1.61 0 0 1-1.609-1.61V235.18c0-.887.723-1.61 1.61-1.61.886 0 1.61.723 1.61 1.61v12.207c0 .89-.723 1.61-1.61 1.61M179.11 356.207a.697.697 0 0 0-.696.695.697.697 0 0 0 1.395 0 .698.698 0 0 0-.7-.695Zm0 3.219a2.527 2.527 0 0 1-2.52-2.524 2.526 2.526 0 0 1 2.52-2.52 2.527 2.527 0 0 1 2.523 2.52 2.527 2.527 0 0 1-2.524 2.524M179.11 338.203a.694.694 0 0 0-.696.692.7.7 0 0 0 .695.699c.387 0 .7-.317.7-.7a.694.694 0 0 0-.7-.69Zm0 3.215a2.524 2.524 0 0 1-2.52-2.523 2.522 2.522 0 0 1 5.043 0 2.525 2.525 0 0 1-2.524 2.523M186.988 343.277a.696.696 0 1 0 .01 1.392.696.696 0 0 0-.01-1.392Zm0 3.215a2.52 2.52 0 1 1 .009-5.04 2.52 2.52 0 0 1-.009 5.04M170.93 343.496a.7.7 0 0 0-.696.7c0 .382.313.69.696.69a.691.691 0 0 0 .695-.69c0-.384-.309-.7-.695-.7Zm0 3.219a2.523 2.523 0 0 1-2.52-2.52 2.524 2.524 0 0 1 2.52-2.523c1.39 0 2.52 1.133 2.52 2.523a2.523 2.523 0 0 1-2.52 2.52M186.988 351.746a.696.696 0 1 0 .01 1.397.696.696 0 0 0-.01-1.397Zm0 3.219a2.522 2.522 0 0 1-2.515-2.52 2.522 2.522 0 0 1 2.515-2.52 2.524 2.524 0 0 1 2.524 2.52 2.524 2.524 0 0 1-2.524 2.52M170.93 351.746a.697.697 0 0 0 0 1.395.698.698 0 0 0 0-1.395Zm0 3.219a2.523 2.523 0 0 1-2.52-2.52 2.523 2.523 0 0 1 2.52-2.52c1.39 0 2.52 1.134 2.52 2.52a2.523 2.523 0 0 1-2.52 2.52M831.59 374.395a.694.694 0 1 1 .691-.692.693.693 0 0 1-.691.692Zm0-3.215a2.525 2.525 0 0 0-2.524 2.523 2.523 2.523 0 0 0 2.524 2.516 2.522 2.522 0 0 0 2.515-2.516 2.523 2.523 0 0 0-2.515-2.523M831.59 356.395a.698.698 0 1 1 0-1.395.696.696 0 0 1 0 1.395Zm0-3.22a2.524 2.524 0 0 0-2.524 2.52 2.527 2.527 0 0 0 2.524 2.524 2.526 2.526 0 0 0 2.515-2.524c0-1.39-1.132-2.52-2.515-2.52M839.473 360.074c.375 0 .687.313.687.696 0 .386-.312.699-.687.699a.702.702 0 0 1-.703-.7c0-.382.316-.695.703-.695Zm0 3.215a2.517 2.517 0 0 0 0-5.035 2.524 2.524 0 0 0-2.528 2.516c0 1.39 1.133 2.52 2.528 2.52M823.406 361.688a.688.688 0 0 1-.691-.692c0-.387.305-.7.691-.7.387 0 .7.313.7.7a.694.694 0 0 1-.7.692Zm0-3.215a2.518 2.518 0 0 0-2.515 2.523 2.516 2.516 0 0 0 2.515 2.516 2.523 2.523 0 0 0 2.524-2.516 2.525 2.525 0 0 0-2.524-2.523M839.473 369.938a.698.698 0 0 1-.703-.692c0-.387.316-.7.703-.7a.696.696 0 0 1 0 1.392Zm0-3.215a2.528 2.528 0 0 0-2.528 2.523 2.527 2.527 0 0 0 2.528 2.52 2.52 2.52 0 0 0 2.515-2.52 2.52 2.52 0 0 0-2.515-2.523M823.406 369.938a.688.688 0 0 1-.691-.692c0-.387.305-.7.691-.7.387 0 .7.313.7.7a.694.694 0 0 1-.7.692Zm0-3.215a2.52 2.52 0 0 0-2.515 2.523 2.52 2.52 0 0 0 2.515 2.52 2.527 2.527 0 0 0 2.524-2.52 2.527 2.527 0 0 0-2.524-2.523M317.105 452.363a2.326 2.326 0 0 0-2.324 2.32 2.328 2.328 0 0 0 2.324 2.329 2.328 2.328 0 0 0 2.325-2.328 2.326 2.326 0 0 0-2.325-2.32Zm0 7.867a5.55 5.55 0 0 1-5.543-5.546 5.545 5.545 0 0 1 5.543-5.536c3.051 0 5.54 2.485 5.54 5.536 0 3.058-2.489 5.546-5.54 5.546M472.031 547.055a2.325 2.325 0 0 0-2.328 2.32 2.324 2.324 0 1 0 4.648 0 2.32 2.32 0 0 0-2.32-2.32Zm0 7.86a5.546 5.546 0 0 1-5.543-5.54 5.545 5.545 0 0 1 5.543-5.535 5.543 5.543 0 0 1 5.535 5.535 5.544 5.544 0 0 1-5.535 5.54M498.734 143.293a2.327 2.327 0 0 0-2.324 2.324 2.327 2.327 0 0 0 2.324 2.324 2.327 2.327 0 0 0 2.325-2.324 2.327 2.327 0 0 0-2.325-2.324Zm0 7.867a5.551 5.551 0 0 1-5.543-5.543 5.548 5.548 0 0 1 5.543-5.539 5.545 5.545 0 0 1 5.54 5.54 5.548 5.548 0 0 1-5.54 5.542M792.844 420.613a2.327 2.327 0 0 0-2.324 2.325 2.327 2.327 0 0 0 2.324 2.324 2.327 2.327 0 0 0 2.324-2.325 2.327 2.327 0 0 0-2.324-2.324Zm0 7.867a5.546 5.546 0 0 1-5.54-5.543 5.545 5.545 0 0 1 5.54-5.539 5.545 5.545 0 0 1 5.539 5.54 5.546 5.546 0 0 1-5.54 5.542M711.695 209.191a2.327 2.327 0 0 0-2.324 2.325 2.327 2.327 0 0 0 2.324 2.324 2.327 2.327 0 0 0 2.325-2.324 2.327 2.327 0 0 0-2.325-2.325Zm0 7.864a5.547 5.547 0 0 1-5.539-5.54 5.55 5.55 0 0 1 5.54-5.542 5.549 5.549 0 0 1 5.542 5.543 5.546 5.546 0 0 1-5.543 5.539M198.754 258.578a2.326 2.326 0 0 0-2.324 2.32 2.328 2.328 0 0 0 2.324 2.329 2.325 2.325 0 0 0 0-4.649Zm0 7.863a5.546 5.546 0 0 1-5.543-5.543 5.545 5.545 0 0 1 5.543-5.535 5.543 5.543 0 0 1 5.535 5.535 5.545 5.545 0 0 1-5.535 5.543M108.531 207.965a2.324 2.324 0 1 0 0 4.648 2.324 2.324 0 0 0 0-4.648Zm0 7.863a5.546 5.546 0 0 1-5.539-5.543 5.544 5.544 0 0 1 5.54-5.535 5.544 5.544 0 0 1 5.538 5.535 5.546 5.546 0 0 1-5.539 5.543M237.145 223.121c-.368 0-.739-.129-1.04-.387l-4.617-3.922-4.617 3.922a1.601 1.601 0 0 1-2.266-.183 1.605 1.605 0 0 1 .184-2.266l5.656-4.808a1.613 1.613 0 0 1 2.082 0l5.66 4.808c.676.574.758 1.59.184 2.266-.32.379-.77.57-1.226.57M237.145 214.633c-.368 0-.739-.125-1.04-.383l-4.617-3.918-4.617 3.918a1.605 1.605 0 0 1-2.266-.184 1.605 1.605 0 0 1 .184-2.265l5.656-4.809a1.613 1.613 0 0 1 2.082 0l5.66 4.809a1.608 1.608 0 0 1-1.042 2.832M421.605 491.621c.297.258.668.383 1.04.383.37 0 .742-.125 1.043-.383l5.656-4.805a1.61 1.61 0 1 0-2.082-2.453l-4.617 3.922-4.614-3.922a1.605 1.605 0 0 0-2.265.184 1.606 1.606 0 0 0 .183 2.27l5.656 4.804M427.262 492.848l-4.617 3.922-4.614-3.922a1.605 1.605 0 0 0-2.265.187 1.597 1.597 0 0 0 .183 2.262l5.656 4.808c.297.254.668.383 1.04.383.37 0 .742-.129 1.043-.383l5.656-4.808a1.6 1.6 0 0 0 .187-2.262 1.61 1.61 0 0 0-2.27-.187M236.172 419.691l3.922-4.617a1.608 1.608 0 0 0-2.45-2.082l-4.808 5.656a1.604 1.604 0 0 0 0 2.082l4.809 5.66c.316.376.77.567 1.222.567a1.609 1.609 0 0 0 1.227-2.648l-3.922-4.618M227.684 419.691l3.921-4.617a1.604 1.604 0 0 0-.18-2.265 1.606 1.606 0 0 0-2.269.183l-4.808 5.656a1.613 1.613 0 0 0 0 2.082l4.808 5.66a1.61 1.61 0 0 0 2.27.184c.676-.578.758-1.59.18-2.265l-3.922-4.618M74.043 307.156c-.457 0-.906-.191-1.227-.566l-4.804-5.66a1.595 1.595 0 0 1 0-2.082l4.804-5.657a1.609 1.609 0 0 1 2.454 2.082l-3.926 4.618 3.926 4.617a1.605 1.605 0 0 1-.188 2.265c-.3.258-.672.383-1.039.383M65.559 307.156c-.457 0-.91-.191-1.227-.566l-4.809-5.66a1.613 1.613 0 0 1 0-2.082l4.809-5.657a1.608 1.608 0 0 1 2.45 2.082l-3.923 4.618 3.922 4.617a1.608 1.608 0 0 1-1.222 2.648M657.828 400.223a1.608 1.608 0 0 1-1.223-2.648l3.922-4.618-3.922-4.617a1.604 1.604 0 0 1 .184-2.262 1.605 1.605 0 0 1 2.266.18l4.808 5.66c.508.602.508 1.48 0 2.082l-4.808 5.656c-.317.375-.77.567-1.227.567M666.313 400.223a1.605 1.605 0 0 1-1.223-2.648l3.922-4.618-3.922-4.617a1.6 1.6 0 0 1 .183-2.262 1.605 1.605 0 0 1 2.266.18l4.809 5.66c.511.602.511 1.48 0 2.082l-4.809 5.656c-.32.375-.77.567-1.226.567M856.844 319.523a1.605 1.605 0 0 0-2.266-.18 1.608 1.608 0 0 0-.187 2.262l3.925 4.618-3.925 4.617a1.612 1.612 0 0 0 1.234 2.648 1.6 1.6 0 0 0 1.219-.566l4.808-5.656a1.604 1.604 0 0 0 0-2.082l-4.808-5.66M870.137 325.184l-4.809-5.66a1.604 1.604 0 0 0-2.265-.18 1.596 1.596 0 0 0-.176 2.261l3.91 4.618-3.91 4.617a1.6 1.6 0 0 0 1.218 2.648c.45 0 .91-.191 1.223-.566l4.809-5.656a1.604 1.604 0 0 0 0-2.082M318.629 180.348h24.094l-24.094-33.309Zm27.242 3.214H317.02c-.891 0-1.61-.718-1.61-1.609v-39.879c0-.699.45-1.316 1.113-1.531a1.615 1.615 0 0 1 1.801.586l28.848 39.883a1.61 1.61 0 0 1-1.3 2.55M251.719 152.867c-1.54.363-2.867.446-3.668.047-1.649-.828-1.809-2.008-1.442-2.77.282-.585.887-1.023 1.746-1.023.415 0 .891.102 1.41.344.731.336 1.38 1.535 1.954 3.402Zm19.312.32c.727-2.304 1.602-3.757 2.617-4.027 1.633-.445 2.637.48 3.004 1.41.157.399.551 1.754-.941 2.547-1.297.688-2.938.578-4.68.07Zm14.281 2.653c-1.156 4.023-3.097 7.183-5.16 10.531-1.07 1.738-2.175 3.54-3.16 5.465-2.347 4.601-5.289 12.883-6.32 15.867h-2.266c-.367-11.644.254-23.902 1.824-31.398 2.422.683 4.829.8 6.989-.352 2.441-1.297 3.437-3.992 2.422-6.566-.891-2.254-3.41-4.258-6.829-3.336-1.476.398-3.265 1.586-4.746 6.004a60.073 60.073 0 0 1-2.136-1.04 17.76 17.76 0 0 1-1.672-.96c4.722-4.309 4.187-7.703 2.836-9.828-1.016-1.614-2.93-2.575-5.121-2.575h-.028c-2.187.012-4.093.98-5.097 2.602-.918 1.473-1.137 3.203-.633 5.008.433 1.558 1.418 3.148 2.797 4.613a33.37 33.37 0 0 1-4.293 2.035c-1.192-3.683-2.516-4.867-3.61-5.367-3.41-1.566-6.304-.078-7.402 2.21-1.074 2.231-.418 5.368 2.902 7.036 1.563.785 3.672.715 5.887.203 1.508 7.414 2.277 19.934 2.176 31.711h-1.645c-1.98-10.242-5.605-15.441-8.824-20.05-2.64-3.782-4.918-7.051-5.77-12.563-1.976-12.809 4.235-19.953 9.794-23.692 9.085-6.109 18.789-6.117 28.125.125 12.578 8.415 9.003 24.165 8.96 24.317Zm-28.074 55.484-.433-.777h9.468l-.351.777Zm-4.285-13.93.047-1.117h17.21v1.118Zm17.258 4.934-1.074.953h-15.352l-1.043-.926.07-1.746h17.399Zm-15.43 5.004v-.832h13.344v.832Zm15.43-16.414v2.14h-17.078l.094-2.14Zm-10.637-48.965c.414-.664 1.328-1.082 2.383-1.082h.016c1.047 0 1.992.418 2.406 1.074 1.027 1.621.121 3.664-2.684 6.086-1.207-1.18-2.054-2.445-2.382-3.633-.266-.941-.176-1.738.261-2.445Zm-2.21 27.703c-.434-6.566-1.075-11.25-1.813-14.61a35.834 35.834 0 0 0 5.992-2.956 21.41 21.41 0 0 0 2.93 1.797c.886.449 1.8.894 2.726 1.3-.754 3.313-1.375 7.82-1.738 13.981-.453 7.672-.348 15.266-.266 18.535h-7.308c.008-3.176-.032-10.543-.524-18.047Zm20.773-40.804c-10.414-6.965-21.543-6.954-31.703-.122-5.184 3.489-13.528 11.61-11.18 26.848.969 6.25 3.566 9.977 6.316 13.918 3.14 4.504 6.703 9.613 8.5 19.93l-.578 13.554c-.015.485.18.954.543 1.274l1.531 1.36v3.323c0 .872.696 1.575 1.559 1.602l1.766 3.172c.28.516.82.828 1.402.828h10.664c.629 0 1.207-.367 1.465-.941l1.39-3.059a1.602 1.602 0 0 0 1.528-1.601v-3.313l1.547-1.371c.343-.305.539-.742.539-1.203v-13.473c.566-1.652 3.926-11.371 6.43-16.281.925-1.813 2-3.555 3.035-5.242 2.086-3.383 4.238-6.88 5.515-11.332.047-.176 4.39-18.07-10.27-27.871M262.11 118.664c.89 0 1.609-.719 1.609-1.605v-5.961a1.607 1.607 0 1 0-3.215 0v5.96c0 .887.719 1.606 1.605 1.606M299.363 135.906h-5.96a1.606 1.606 0 1 0 0 3.215h5.96c.887 0 1.606-.719 1.606-1.61 0-.886-.719-1.605-1.606-1.605M231.125 135.906h-5.96a1.606 1.606 0 1 0 0 3.215h5.96c.887 0 1.605-.719 1.605-1.61 0-.886-.718-1.605-1.605-1.605M275.688 121.031a1.61 1.61 0 0 0 2.195-.59l2.98-5.164a1.61 1.61 0 0 0-.59-2.195 1.606 1.606 0 0 0-2.195.59l-2.98 5.164c-.446.77-.18 1.75.59 2.195M294.664 122.336a1.612 1.612 0 0 0-2.258-.27l-4.683 3.688a1.61 1.61 0 0 0 1.988 2.527l4.687-3.687a1.608 1.608 0 0 0 .266-2.258M232.152 124.594l4.684 3.687a1.607 1.607 0 1 0 1.988-2.527l-4.683-3.688c-.7-.55-1.711-.425-2.262.27-.547.7-.426 1.71.273 2.258M248.043 120.133a1.608 1.608 0 0 0 2.195.59 1.604 1.604 0 0 0 .586-2.196l-2.98-5.164a1.6 1.6 0 0 0-2.196-.586 1.608 1.608 0 0 0-.59 2.196l2.985 5.16M228.242 504a1.608 1.608 0 1 0-3.191.375c.668 5.703 3.273 11.05 7.344 15.05a1.61 1.61 0 0 0 2.257-2.292c-3.55-3.488-5.828-8.153-6.41-13.133Zm19.113 21.078a20.776 20.776 0 0 1-3.363.274c-10.21 0-18.816-7.329-20.46-17.418a20.602 20.602 0 0 1 3.636-15.461c3.238-4.5 8.035-7.465 13.508-8.364a21.189 21.189 0 0 1 3.363-.273c10.207 0 18.809 7.328 20.457 17.422 1.84 11.293-5.851 21.98-17.14 23.82Zm-3.316-44.457c-1.293 0-2.598.106-3.883.317-6.32 1.03-11.86 4.46-15.601 9.656-3.739 5.199-5.23 11.539-4.2 17.86 1.899 11.651 11.84 20.112 23.637 20.112 1.29 0 2.594-.105 3.88-.312 13.042-2.129 21.925-14.469 19.8-27.516-1.906-11.656-11.844-20.117-23.633-20.117Zm46.715 66.36-21.313-17.422-.488-2.989a1.63 1.63 0 0 0-.644-1.047l-2.184-1.57c.34-.387.668-.789.992-1.203l1.801 1.297c.281.2.621.297.969.3l3.16-.058 23.039 15.738Zm-25.496-27.098c-4.086 5.672-10.137 9.418-17.031 10.543a26.83 26.83 0 0 1-4.247.344c-12.875 0-23.722-9.239-25.8-21.965-2.32-14.243 7.379-27.72 21.62-30.04a26.304 26.304 0 0 1 4.247-.343c12.871 0 23.719 9.234 25.797 21.96 1.125 6.903-.504 13.825-4.586 19.5Zm34.722 19.52a1.6 1.6 0 0 0-.68-1.071l-24.866-16.992a1.652 1.652 0 0 0-.934-.278l-3.14.06-1.4-1.005c3.77-6.043 5.212-13.156 4.06-20.254-2.332-14.289-14.52-24.66-28.973-24.66-1.586 0-3.188.129-4.762.387-15.996 2.605-26.883 17.738-24.277 33.734 2.332 14.29 14.515 24.66 28.972 24.66 1.583 0 3.188-.129 4.758-.386 5.73-.93 10.934-3.477 15.114-7.317l2.035 1.469.48 2.93c.063.386.262.738.567.984l23.07 18.86a1.586 1.586 0 0 0 1.203.351c.43-.047.824-.273 1.09-.617l7.375-9.621a1.59 1.59 0 0 0 .308-1.235M542.957 177.992a13.813 13.813 0 0 0-10.586 1.102 13.81 13.81 0 0 0-6.707 8.27c-1.367 4.593-.297 9.491 2.852 13.113a1.616 1.616 0 0 0 2.273.152 1.611 1.611 0 0 0 .152-2.27 10.645 10.645 0 0 1-2.195-10.082 10.613 10.613 0 0 1 5.156-6.355 10.627 10.627 0 0 1 8.137-.848c5.652 1.68 8.883 7.645 7.203 13.297a10.588 10.588 0 0 1-2.207 4.008 1.6 1.6 0 0 0 .149 2.27c.304.269.68.402 1.054.402.45 0 .895-.188 1.211-.547a13.9 13.9 0 0 0 2.88-5.215c2.183-7.351-2.02-15.113-9.372-17.297"/><path fill="#fb653e" d="M579.277 191.934a1.595 1.595 0 0 0-.957-.778l-10.738-3.195a22.777 22.777 0 0 0-.488-2.727l8.504-4.93a1.605 1.605 0 0 0 .586-2.195L568.004 164a1.607 1.607 0 0 0-.977-.754 1.618 1.618 0 0 0-1.218.164l-8.594 4.98c-.48-.417-.977-.812-1.528-1.218l2.715-9.137a1.608 1.608 0 0 0-1.086-1.996l-7.816-2.324-7.582-2.25a1.607 1.607 0 0 0-2 1.082l-2.719 9.137c-.625.03-1.261.086-1.941.175L530.78 153a1.625 1.625 0 0 0-.933-.805 1.594 1.594 0 0 0-1.227.094l-14.566 7.356a1.605 1.605 0 0 0-.707 2.16l4.433 8.77c-.68.652-1.281 1.269-1.898 2.019l-10.738-3.192a1.614 1.614 0 0 0-2 1.086l-4.645 15.633a1.607 1.607 0 0 0 1.082 2l9.602 2.856c-.024 1.464.12 2.71.336 4.05l-7.23 3.54a1.608 1.608 0 1 0 1.414 2.887l7.523-3.68c.148-.07.277-.169.39-.282a1.6 1.6 0 0 0 1.262-1.836c-.36-2.129-.594-3.535-.438-5.605a1.605 1.605 0 0 0-1-1.606 1.55 1.55 0 0 0-.593-.328l-8.809-2.62 3.73-12.552 10.211 3.032v.003l.036.008c.14.043.273.059.41.063.015 0 .031.008.047.008.023 0 .05-.008.074-.008.074-.004.14-.016.215-.028.039-.007.082-.015.129-.027.066-.02.136-.043.203-.074l.117-.047c.098-.05.184-.11.266-.176a1.845 1.845 0 0 0 .266-.27c.003-.007.015-.015.023-.023.945-1.277 1.734-2.047 2.918-3.148a1.603 1.603 0 0 0 .359-1.836 1.6 1.6 0 0 0-.16-.844l-3.942-7.789 11.692-5.906 3.804 7.531c.075.152.176.277.29.39.003.04 0 .079.011.118a1.605 1.605 0 0 0 1.867 1.297c1.278-.235 2.317-.332 3.844-.367a1.598 1.598 0 0 0 1.563-1.512c.047-.086.101-.168.133-.27l2.398-8.066 6.273 1.863h.004l6.04 1.793-2.4 8.074a1.32 1.32 0 0 0-.058.34 1.601 1.601 0 0 0 .508 2.078c1.246.852 2.067 1.5 3.016 2.403a1.61 1.61 0 0 0 2.273-.059c.028-.031.047-.062.074-.094a1.59 1.59 0 0 0 .457-.172l7.297-4.23 6.567 11.328-7.551 4.379a1.586 1.586 0 0 0-.594.61 1.611 1.611 0 0 0-.703 1.738c.387 1.57.629 2.632.723 4.234.004.012.004.024.004.035.007.059.02.11.03.168.009.047.017.098.032.145.012.047.031.09.047.136.02.051.04.102.063.149.023.039.05.082.07.121.031.047.058.09.094.133a1.3 1.3 0 0 0 .097.11 1.538 1.538 0 0 0 .355.29c.044.026.083.041.126.065.054.027.113.047.164.066.023.008.047.02.062.023l10.25 3.051-1.715 5.77a1.607 1.607 0 1 0 3.082.918l2.176-7.313c.121-.41.074-.851-.129-1.222M471.531 188.566a9.724 9.724 0 0 0-7.441.774 9.736 9.736 0 0 0-4.715 5.812 9.801 9.801 0 0 0-.191 4.825 1.611 1.611 0 0 0 1.91 1.234 1.604 1.604 0 0 0 1.234-1.91 6.533 6.533 0 0 1 .133-3.235 6.504 6.504 0 0 1 3.16-3.894 6.506 6.506 0 0 1 4.992-.524c3.469 1.032 5.446 4.692 4.418 8.157a1.606 1.606 0 0 0 1.54 2.066c.695 0 1.335-.45 1.542-1.152 1.535-5.164-1.418-10.617-6.582-12.153"/><path fill="#fb653e" d="M495.96 198.082a1.614 1.614 0 0 0-.952-.777l-6.797-2.02a16.433 16.433 0 0 0-.2-1.125l5.301-3.07a1.609 1.609 0 0 0 .586-2.2l-5.425-9.367a1.634 1.634 0 0 0-.98-.75 1.641 1.641 0 0 0-1.22.165l-5.375 3.117a13.829 13.829 0 0 0-.449-.356l1.7-5.707a1.624 1.624 0 0 0-.13-1.222 1.616 1.616 0 0 0-.96-.778l-5.032-1.492v-.004l-5.191-1.543a1.608 1.608 0 0 0-1.996 1.086l-1.695 5.707c-.188.012-.38.031-.57.05l-2.798-5.542a1.572 1.572 0 0 0-.933-.805 1.593 1.593 0 0 0-1.227.09l-9.668 4.883a1.611 1.611 0 0 0-.715 2.16l2.77 5.469c-.27.265-.527.539-.785.832l-6.79-2.02a1.602 1.602 0 0 0-1.222.13 1.606 1.606 0 0 0-.777.956l-3.086 10.38a1.607 1.607 0 0 0 1.086 1.995l5.98 1.778c.008.546.078.945.184 1.523.039.203.082.438.133.727.132.789.808 1.343 1.582 1.343a1.613 1.613 0 0 0 1.59-1.875c-.055-.308-.102-.562-.141-.785-.14-.746-.172-.926-.098-1.91a1.606 1.606 0 0 0-.926-1.57 1.703 1.703 0 0 0-.515-.27l-5.332-1.582 2.164-7.297 6.285 1.867c.14.04.277.055.414.063.016 0 .031.008.043.008.023 0 .047-.012.066-.012a1.349 1.349 0 0 0 .57-.133c.036-.011.067-.023.102-.039a2.14 2.14 0 0 0 .29-.187c.003-.004.007-.012.015-.016.082-.07.16-.152.226-.242.008-.012.016-.016.024-.028.601-.812 1.11-1.3 1.871-2.011.488-.457.629-1.14.414-1.727a1.571 1.571 0 0 0-.168-.695l-2.371-4.688 6.797-3.43 2.281 4.516c.047.098.106.184.172.266.172.734.82 1.246 1.559 1.246.093 0 .191-.012.289-.031a14.24 14.24 0 0 1 2.465-.227 1.605 1.605 0 0 0 1.554-1.418c.024-.054.059-.097.078-.152l1.438-4.84 3.484 1.035.008.008 3.648 1.078-1.44 4.84c-.017.07-.028.14-.036.203a1.605 1.605 0 0 0 .547 2.004c.804.547 1.332.965 1.937 1.54a1.59 1.59 0 0 0 1.106.444c.402 0 .797-.16 1.105-.449.098-.035.2-.078.293-.137l4.375-2.535 3.817 6.586-4.543 2.633a1.536 1.536 0 0 0-.516.484 1.61 1.61 0 0 0-.602 1.672c.254 1.012.407 1.7.47 2.715 0 .012.003.028.007.035.004.055.016.11.023.168.012.047.02.098.032.145.011.047.03.09.05.133.02.054.04.105.063.156.02.039.047.078.07.113.032.047.059.094.09.137a1.3 1.3 0 0 0 .098.11c.035.038.07.073.11.109l.116.093c.043.032.09.063.133.086.04.024.082.047.125.067.055.023.11.047.168.066.02.008.04.02.063.028l6.332 1.882a1.59 1.59 0 0 0 1.144 1.602c.153.05.309.07.461.07.692 0 1.328-.453 1.54-1.148l.347-1.164a1.59 1.59 0 0 0-.13-1.223M623.543 399.875c.629.184 1.27.273 1.894.273 2.88 0 5.54-1.875 6.399-4.77a6.678 6.678 0 0 0-4.488-8.292 6.673 6.673 0 0 0-3.293-.133 1.61 1.61 0 0 0-1.242 1.91 1.603 1.603 0 0 0 1.91 1.235 3.447 3.447 0 0 1 1.703.066 3.466 3.466 0 0 1 2.332 4.297 3.468 3.468 0 0 1-4.301 2.328 1.613 1.613 0 0 0-2 1.082 1.615 1.615 0 0 0 1.086 2.004"/><path fill="#fb653e" d="M642.629 393.727a1.588 1.588 0 0 0-.957-.774l-2.524-.754 2.493-1.258c.386-.191.675-.527.804-.933a1.6 1.6 0 0 0-.09-1.223l-3.027-5.996a1.579 1.579 0 0 0-.933-.8 1.61 1.61 0 0 0-1.227.09l-2.902 1.464 1.109-3.727a1.608 1.608 0 0 0-1.086-2l-6.434-1.91a1.607 1.607 0 0 0-2 1.082l-.984 3.301a8.792 8.792 0 0 0-.59.098l-.441.078a1.608 1.608 0 0 0 .27 3.191c.085 0 .175-.004.265-.02.2-.034.36-.062.496-.09.442-.081.5-.093 1.024-.05a1.613 1.613 0 0 0 1.562-.898c.09-.133.164-.274.215-.434l.808-2.719 3.352.996-.984 3.309c-.004.012-.004.023-.008.035a1.578 1.578 0 0 0-.031.18 1.918 1.918 0 0 0-.02.137c-.008.054 0 .109 0 .164.004.046.004.097.008.148.008.055.02.106.031.156.012.047.02.094.04.145.015.05.038.101.062.156.02.04.039.082.058.125.028.047.059.09.094.137a.896.896 0 0 0 .191.223c.043.042.082.082.13.117.007.011.015.02.027.027.453.336.715.602 1.168 1.086.316.34.746.512 1.175.512.141 0 .278-.028.414-.059.211-.016.43-.066.633-.172l2.36-1.191 1.578 3.12-2.254 1.138c-.05.027-.098.062-.145.093a1.606 1.606 0 0 0-1.101 1.817c.086.472.12.847.133 1.43.015.777.578 1.41 1.316 1.546.031.012.063.028.094.04l2.414.718-.465 1.567c-.004.003-.004.007-.008.011l-.496 1.676-2.414-.719a.721.721 0 0 0-.09-.015 1.615 1.615 0 0 0-1.957.574c-.32.473-.555.77-.894 1.125a1.606 1.606 0 0 0-.075 2.113c.028.059.047.113.075.168l1.265 2.184-3.02 1.75-1.327-2.29a1.584 1.584 0 0 0-.438-.484 1.598 1.598 0 0 0-1.574-.492c-.652.16-1.02.238-1.574.27-.012.004-.02.007-.032.007-.066.008-.129.02-.195.032a1.1 1.1 0 0 0-.121.027c-.059.016-.113.04-.168.063a1.193 1.193 0 0 0-.125.05c-.05.028-.102.063-.152.094-.035.027-.07.047-.102.074-.05.04-.094.082-.14.125-.028.028-.055.055-.083.086-.039.047-.07.098-.105.145a.706.706 0 0 0-.074.113c-.028.043-.047.094-.067.14-.023.051-.047.102-.062.157-.008.012-.016.023-.016.035l-1.058 3.547a1.611 1.611 0 0 0-.02 3.094l.719.21a1.605 1.605 0 0 0 1.996-1.082l1.11-3.73 1.632 2.813c.3.515.836.8 1.39.8.274 0 .552-.07.805-.214l5.81-3.364a1.6 1.6 0 0 0 .745-.98c.11-.414.055-.848-.164-1.219l-1.402-2.418 2.531.75a1.594 1.594 0 0 0 1.223-.129c.375-.203.652-.547.773-.957l.926-3.11c0-.003.004-.003.004-.007l.957-3.219c.117-.41.074-.847-.13-1.222M223.75 346.145a3.407 3.407 0 0 1-2.629-.274 3.421 3.421 0 0 1-1.668-2.05 3.465 3.465 0 0 1 2.328-4.298 3.462 3.462 0 0 1 1.707-.066 1.604 1.604 0 0 0 1.907-1.238 1.602 1.602 0 0 0-1.239-1.906 6.623 6.623 0 0 0-3.293.128c-3.523 1.051-5.539 4.774-4.492 8.297a6.647 6.647 0 0 0 3.215 3.965 6.7 6.7 0 0 0 3.172.805c.637 0 1.281-.094 1.91-.278a1.61 1.61 0 0 0-.918-3.086"/><path fill="#fb653e" d="m224.484 357.07-1.054-3.547c-.004-.011-.012-.027-.012-.035l-.07-.172c-.024-.043-.04-.082-.059-.125l-.094-.136c-.03-.04-.054-.082-.086-.121-.039-.04-.078-.075-.117-.114-.035-.03-.066-.066-.101-.093-.051-.04-.098-.067-.145-.098-.039-.027-.078-.05-.113-.074-.051-.024-.106-.043-.156-.063-.047-.02-.09-.039-.137-.055-.047-.011-.094-.019-.14-.027-.063-.012-.118-.023-.18-.031-.012 0-.024-.004-.036-.004-.554-.035-.922-.113-1.57-.273a1.585 1.585 0 0 0-1.578.496c-.172.125-.324.289-.434.48l-1.332 2.293-3.023-1.754 1.27-2.183c.027-.055.046-.106.07-.164a1.603 1.603 0 0 0-.07-2.118 7.87 7.87 0 0 1-.895-1.12 1.606 1.606 0 0 0-1.953-.579c-.031.008-.063.008-.094.016l-2.414.719-.5-1.676c0-.004-.004-.008-.004-.016l-.465-1.562 2.414-.72c.035-.007.063-.026.094-.038a1.602 1.602 0 0 0 1.316-1.547c.012-.578.047-.953.137-1.43a1.605 1.605 0 0 0-1.105-1.816c-.047-.031-.09-.067-.145-.09l-2.254-1.14 1.578-3.122 2.36 1.196c.207.105.422.156.64.168.133.035.27.058.407.058.43 0 .859-.172 1.175-.508.453-.488.72-.754 1.172-1.09.008-.003.016-.015.024-.023.05-.039.09-.078.132-.121.036-.031.07-.063.102-.098l.094-.129c.031-.043.062-.086.086-.129.023-.043.043-.093.062-.136.02-.047.047-.094.063-.145.015-.05.023-.101.035-.148.012-.051.027-.102.031-.153.008-.05.008-.101.012-.152v-.16c-.004-.047-.016-.09-.02-.137-.011-.058-.02-.117-.035-.18-.004-.011-.004-.023-.008-.035l-.98-3.308 3.351-.996.805 2.718c.047.157.125.297.211.43.281.57.887.945 1.566.899.528-.043.583-.032 1.02.05.14.028.3.059.504.094a1.607 1.607 0 0 0 .527-3.172c-.175-.031-.32-.058-.441-.082-.215-.039-.395-.074-.586-.094l-.98-3.3a1.613 1.613 0 0 0-2-1.086l-6.438 1.914c-.406.12-.75.398-.953.773a1.59 1.59 0 0 0-.125 1.223l1.105 3.73-2.902-1.464a1.602 1.602 0 0 0-2.16.71l-3.031 5.993a1.61 1.61 0 0 0 .714 2.16l2.493 1.258-2.524.75c-.41.12-.754.398-.953.777a1.572 1.572 0 0 0-.129 1.223l.957 3.218s0 .004.004.004l.922 3.114c.121.41.398.753.777.957a1.583 1.583 0 0 0 1.219.128l2.531-.753-1.402 2.421a1.6 1.6 0 0 0 .586 2.196l5.805 3.367a1.597 1.597 0 0 0 1.218.16c.414-.11.766-.379.98-.746l1.63-2.816 1.11 3.73c.206.7.847 1.152 1.538 1.152.152 0 .305-.023.457-.07l.723-.21a1.612 1.612 0 0 0 1.086-1.997 1.61 1.61 0 0 0-1.11-1.094M366.766 444.219c1.027.304 2.078.457 3.12.457 1.79 0 3.56-.446 5.176-1.32a10.829 10.829 0 0 0 5.258-6.481c.52-1.746.594-3.605.215-5.379a1.61 1.61 0 0 0-3.148.672 7.661 7.661 0 0 1-.149 3.793 7.643 7.643 0 0 1-3.707 4.566 7.646 7.646 0 0 1-5.847.61 7.643 7.643 0 0 1-4.567-3.707 7.628 7.628 0 0 1-.61-5.848 1.604 1.604 0 0 0-1.085-1.996 1.598 1.598 0 0 0-1.996 1.082c-1.711 5.762 1.578 11.84 7.34 13.55"/><path fill="#fb653e" d="m399.754 435.813-6.961-2.07c-.004-.684-.082-1.153-.211-1.848-.043-.235-.094-.504-.148-.836a1.612 1.612 0 0 0-1.852-1.325 1.616 1.616 0 0 0-1.324 1.856l.164.894c.156.852.203 1.079.113 2.22-.05.69.344 1.312.942 1.581.156.125.336.227.543.29l6.277 1.863-2.59 8.73-7.367-2.191c-.012-.004-.024-.004-.035-.004-.055-.016-.114-.024-.168-.032a1.027 1.027 0 0 0-.153-.023c-.046-.004-.09 0-.136 0-.059.004-.121.004-.18.008-.04.008-.078.02-.117.027a.935.935 0 0 0-.18.047c-.043.012-.078.031-.121.05-.05.02-.105.044-.16.075-.035.023-.074.047-.113.074a1.2 1.2 0 0 0-.23.196.874.874 0 0 0-.13.14c-.012.012-.02.016-.027.031-.692.938-1.277 1.504-2.152 2.32a1.597 1.597 0 0 0-.399 1.759 1.57 1.57 0 0 0 .164.73l2.797 5.531-8.129 4.11-2.691-5.336a1.546 1.546 0 0 0-.2-.301 1.603 1.603 0 0 0-1.863-1.274c-.945.172-1.691.243-2.844.266-.804.02-1.449.625-1.55 1.399-.036.074-.075.148-.094.23l-1.703 5.719-4.168-1.239-.02-.007-4.363-1.293 1.703-5.723c.027-.078.035-.164.047-.246a1.601 1.601 0 0 0-.543-2.016c-.93-.632-1.531-1.113-2.227-1.777a1.607 1.607 0 0 0-2.265.05c-.11.036-.219.079-.324.141l-5.172 3-4.567-7.875 5.368-3.109c.226-.133.402-.316.535-.523a1.588 1.588 0 0 0 .629-1.688c-.286-1.164-.465-1.953-.54-3.125 0-.012 0-.027-.003-.039a1.213 1.213 0 0 0-.028-.172.91.91 0 0 0-.031-.148.698.698 0 0 0-.05-.125.792.792 0 0 0-.067-.168c-.016-.032-.031-.051-.047-.078-.043-.067-.082-.133-.129-.188a3.02 3.02 0 0 0-.223-.23h-.007a1.527 1.527 0 0 0-.555-.297h-.004l-7.379-2.196a1.61 1.61 0 0 0-1.133-1.777 1.601 1.601 0 0 0-1.996 1.082l-.398 1.324a1.613 1.613 0 0 0 1.086 2l7.867 2.34c.07.543.164 1.047.277 1.563l-6.172 3.574a1.609 1.609 0 0 0-.586 2.2l6.176 10.66a1.617 1.617 0 0 0 1.39.8c.282 0 .56-.074.81-.215l6.25-3.625c.238.196.484.395.742.59l-1.973 6.64c-.121.407-.074.848.125 1.223.207.38.55.657.96.778l5.708 1.691a.085.085 0 0 1 .02.012l5.906 1.75c.148.047.304.07.457.07.691 0 1.332-.453 1.539-1.152l1.976-6.64c.305-.02.618-.048.942-.087l3.258 6.45c.191.382.527.671.933.804.16.055.332.082.5.082.25 0 .496-.062.727-.172l11-5.562a1.63 1.63 0 0 0 .804-.93 1.623 1.623 0 0 0-.097-1.23l-3.219-6.364a17.11 17.11 0 0 0 1.09-1.156l7.863 2.34a1.654 1.654 0 0 0 1.223-.129c.379-.207.656-.547.777-.957l3.512-11.813a1.613 1.613 0 0 0-1.086-2M465.879 131.8l-15.031 9.473-1.051-1.668c-.004 0-.004-.003-.008-.007l-1.367-2.172 15.027-9.473c.79-.168 2.723-.39 3.32.559a.069.069 0 0 1 .016.02c.008.011.008.019.016.03.601.95-.438 2.606-.922 3.239Zm-20.703 10.016-1.766-2.8v-.004l-1-1.586c-.047-.285-.055-.817.406-1.11h.004c.461-.293.93-.058 1.168.106l2.77 4.394v.004l3.082 4.883c.047.297.055.817-.406 1.11h-.004c-.47.289-.934.054-1.172-.11Zm-31.488 23.114c-1.176.793-3.25 1.902-4.075 1.86-1.027-.032-2.164.554-4.09 1.585-1.12.605-3.402 1.824-4.23 1.8l-.043-.038c-.008-.02-.012-.04-.02-.059.325-.754 2.418-2.285 3.446-3.043 1.765-1.289 2.781-2.066 3.199-3.004.309-.691 2.023-2.047 3.473-2.902l30.199-19.04 1.219 1.934h.004l1.16 1.844Zm55.832-38.082c0-.012-.012-.016-.016-.024s-.008-.02-.016-.027c-1.644-2.613-5.246-2.418-7.11-1.895a1.57 1.57 0 0 0-.421.184l-15.25 9.617-.137-.219a1.755 1.755 0 0 0-.265-.32c-.856-.793-3.035-1.93-5.2-.57v.004c-2.168 1.363-2.085 3.824-1.734 4.937.04.133.098.258.176.38l.285.452-30.156 19.016c-.633.375-3.84 2.336-4.707 4.281-.227.336-1.406 1.207-2.192 1.781-2.71 1.985-6.082 4.457-4.355 7.192.035.062.086.11.133.164.035.082.07.16.117.238.625.984 1.5 1.363 2.512 1.363 1.78-.004 3.972-1.18 5.863-2.191.855-.461 2.148-1.152 2.484-1.207 2.18.082 5.344-1.996 5.914-2.379l30.2-19.04.035.06c.074.113.164.222.265.316.563.527 1.715 1.207 3.059 1.207.68 0 1.41-.176 2.137-.633.004 0 .004-.004.007-.004 2.168-1.367 2.075-3.828 1.727-4.941a1.71 1.71 0 0 0-.172-.375l-.14-.219 15.253-9.613c.13-.086.247-.188.348-.301 1.281-1.46 3.004-4.621 1.356-7.234M165.836 294.48c.09-1.609.656-4.867 3.75-5.43.59-.109 1.094-.515 1.621-.515 1.328 0 1.887.348 1.887.348v.004c.8.293 1.16.328 1.656.101.496-.226.969-.687 1.043-1.23.035-.242.922-5.93 6.371-5.938 5.934 0 6.16 7.535 6.168 7.852.012.773.57 1.469 1.336 1.601.758.137 1.504-.21 1.777-.933.016-.043 1.711-4.277 5.102-4.121 4.539.207 5.73 5.847 6.039 8.261Zm38.488 3.215c.887 0 1.61-1.07 1.61-1.957 0-.082-.008-.515-.02-.593-.074-4.313-2.062-12.157-9.223-12.48-2.636-.122-4.574 1.179-5.902 2.624-1.129-3.336-3.66-6.664-8.648-6.664-5.414.012-8.082 3.887-9.094 6.93-1.012-.188-2.484-.118-3.977.152-5.949 1.086-6.777 7.23-6.382 10.238.105.801.789 1.75 1.593 1.75h40.043M193.191 304.934c0 .886.723 1.605 1.61 1.605h18.492a1.606 1.606 0 1 0 0-3.215h-18.492a1.61 1.61 0 0 0-1.61 1.61M190.781 304.934c0-.891-.719-1.61-1.61-1.61H174.7c-.887 0-1.605.719-1.605 1.61 0 .886.719 1.605 1.605 1.605h14.473c.89 0 1.61-.719 1.61-1.605M226.156 312.973H202.04a1.607 1.607 0 1 0 0 3.214h24.117a1.606 1.606 0 1 0 0-3.214M194.809 312.973h-.016l-15.078-.184c-.887 0-1.606.438-1.598 1.328.008.883.727 2.07 1.61 2.07h.011l15.078-.312c.891-.008 1.606-.941 1.598-1.832-.004-.887-.723-1.07-1.605-1.07M649.777 193.172c-.07-3.215.559-11.035 7.875-12.367 1.235-.223 2.418-.688 3.524-.688 2.71 0 4.07.696 4.07.696a1.621 1.621 0 0 0 1.508.046c.476-.238.805-.691.879-1.218.066-.48 1.77-11.82 12.664-11.84 11.906 0 12.316 14.633 12.324 15.254.016.77.57 1.46 1.332 1.597.758.137 1.504-.199 1.777-.914.032-.082 3.364-8.328 10.391-7.996 9.906.446 11.793 13.41 12.156 17.43Zm71.797.668c-.066-7.39-3.328-21.117-15.308-21.656-5.336-.239-8.907 2.968-11.047 5.855-1.434-6.219-5.57-13.453-14.953-13.453-9.696.016-14.086 7.527-15.442 12.754-.906-.215-2.125-.356-3.648-.356-1.297 0-2.676.22-4.102.48-9.71 1.77-11.047 12.063-10.398 17.165.105.805.785 1.758 1.597 1.758h71.707c.895 0 1.61-1.07 1.61-1.957 0-.078-.004-.508-.016-.59M679.629 202.82h-22.512a1.607 1.607 0 1 0 0 3.215h22.512a1.606 1.606 0 1 0 0-3.215M633.8 206.035h16.884a1.606 1.606 0 1 0 0-3.215H633.8a1.607 1.607 0 1 0 0 3.215M676.414 210.86H649.88c-.887 0-1.606.722-1.606 1.609 0 .89.72 1.61 1.606 1.61h26.535c.887 0 1.606-.72 1.606-1.61 0-.887-.72-1.61-1.606-1.61M640.23 210.86h-17.687a1.61 1.61 0 1 0 0 3.219h17.687a1.61 1.61 0 1 0 0-3.219M526.547 534.078l-5.895-12.082 10.614-12.512 10.484 15.086c.11.153.242.278.39.38v9.128Zm-30.235-15.902 11.348-15.489 15.309 31.391h-26.657Zm45.829-29.926v31.246l-9.43-13.566a1.602 1.602 0 0 0-1.242-.688 1.642 1.642 0 0 0-1.305.567l-11.05 13.027-9.731-19.95a1.592 1.592 0 0 0-1.301-.898 1.598 1.598 0 0 0-1.441.653l-10.329 14.093V488.25Zm1.609-3.215h-49.047c-.89 0-1.61.719-1.61 1.606v49.046c0 .891.72 1.61 1.61 1.61h49.047c.887 0 1.605-.719 1.605-1.61v-49.046c0-.887-.718-1.606-1.605-1.606"/><path fill="#fb653e" d="M532.004 494.715a2.3 2.3 0 1 1-.008 4.601 2.3 2.3 0 0 1 .008-4.601Zm0 7.816a5.526 5.526 0 0 0 5.516-5.52 5.525 5.525 0 0 0-5.516-5.515c-3.043 0-5.524 2.477-5.524 5.516a5.53 5.53 0 0 0 5.524 5.52M380.297 379.36v3.85h-4.258v-3.85Zm-12.23 22.316v-4.524c0-.347-.114-.683-.32-.964l-9.454-12.645 18.266-30.738v23.34h-2.125a1.607 1.607 0 0 0-1.582 1.91c-.02.097-.028.199-.028.304v6.461c0 .887.719 1.61 1.61 1.61h7.468c.891 0 1.61-.723 1.61-1.61v-7.066c0-.89-.719-1.61-1.61-1.61h-2.129v-23.34l18.266 30.739-9.453 12.644c-.207.282-.32.618-.32.965v4.524Zm24.94 5.086h-27.784v-1.871h27.785Zm-4.741 10.965h-20.2v-7.75h20.2Zm12.996-33.122c.39-.52.425-1.222.093-1.78l-21.582-36.313v-2.407c0-.886-.718-1.605-1.605-1.605-.89 0-1.61.719-1.61 1.605v2.407l-21.581 36.312a1.601 1.601 0 0 0 .097 1.781l9.778 13.082v3.989h-1.235c-.89 0-1.61.722-1.61 1.61v5.081c0 .89.72 1.61 1.61 1.61h1.235v9.359c0 .89.718 1.61 1.605 1.61h23.418c.89 0 1.61-.72 1.61-1.61v-9.36h3.132a1.61 1.61 0 0 0 1.61-1.609v-5.082c0-.887-.723-1.61-1.61-1.61h-3.133v-3.988l9.778-13.082"/><path fill="#fb653e" d="M412.031 317.57h-4.258v-3.851h4.258Zm-31.734 23.64h-4.258v-3.85h4.258Zm-32.574 25.075h-4.258v-3.848h4.258Zm-118.72 87.473h-4.257v-3.848h4.258Zm198.044-155.45c-.383-.035-9.383-.828-14.809 4.106-2.258 2.055-3.554 4.777-3.863 8.09h-2.207a1.607 1.607 0 0 0-1.582 1.914c-.02.098-.027.195-.027.3v6.462c0 .886.718 1.605 1.609 1.605h2.062c-.316 4.672-1.996 8.445-5.035 11.215-6.07 5.531-15.984 5.848-19.683 5.754v-2c0-.89-.719-1.61-1.61-1.61h-7.468a1.607 1.607 0 0 0-1.582 1.91c-.02.098-.028.2-.028.305v1.36c-3.39-.172-15.21-.235-22.676 6.558-4.03 3.664-6.097 8.692-6.156 14.942h-2.137c-.882 0-1.605.719-1.605 1.61 0 .1.012.202.031.3-.02.098-.031.2-.031.3v6.466c0 .886.723 1.609 1.605 1.609h2.192c-.031 23.547-7.586 42.351-22.465 55.887-30.46 27.714-82.59 24.996-89.363 24.507v-1.597c0-.89-.719-1.61-1.606-1.61h-7.472a1.607 1.607 0 0 0-1.582 1.91c-.016.098-.028.2-.028.301v6.465c0 .887.719 1.61 1.61 1.61h7.472c.887 0 1.606-.723 1.606-1.61v-2.246c1.574.106 4.87.285 9.406.285 18.445 0 57.176-2.949 82.113-25.629 15.582-14.168 23.496-33.777 23.528-58.273h2.066c.887 0 1.606-.723 1.606-1.61v-7.066c0-.89-.72-1.61-1.606-1.61h-2.117c.055-5.296 1.762-9.523 5.086-12.554 6.617-6.023 17.789-5.863 20.523-5.723v1.88c0 .882.719 1.605 1.61 1.605h7.468c.891 0 1.61-.723 1.61-1.606v-1.843c.328.011.699.015 1.105.015 4.754 0 14.34-.793 20.73-6.605 3.739-3.399 5.786-7.969 6.11-13.602h2.18c.89 0 1.61-.719 1.61-1.605v-7.067c0-.89-.72-1.61-1.61-1.61h-2.024c.278-2.366 1.188-4.25 2.782-5.698 4.363-3.98 12.273-3.301 12.351-3.293a1.607 1.607 0 0 0 1.75-1.45 1.61 1.61 0 0 0-1.45-1.753M429.375 158.55a1.588 1.588 0 0 1-1.348-.738l-4.175-6.44a1.62 1.62 0 0 1 .476-2.231 1.609 1.609 0 0 1 2.223.48l4.176 6.445c.48.75.265 1.746-.477 2.227-.27.176-.574.258-.875.258M350.203 550.293l18.402-68.762 11.282 3.02-.407 1.512-2.37-.637a1.609 1.609 0 1 0-.828 3.11l2.366.632-.398 1.508-5.645-1.508a1.604 1.604 0 0 0-1.968 1.137 1.613 1.613 0 0 0 1.136 1.968l5.641 1.508-.578 2.172-2.371-.637a1.61 1.61 0 0 0-1.969 1.137 1.61 1.61 0 0 0 1.137 1.969l2.37.637-.577 2.168-5.64-1.512a1.604 1.604 0 0 0-1.97 1.14 1.6 1.6 0 0 0 1.137 1.965l5.64 1.512-.577 2.168-2.375-.637a1.606 1.606 0 0 0-1.965 1.14 1.607 1.607 0 0 0 1.137 1.97l2.37.632-.581 2.168-5.637-1.507a1.602 1.602 0 0 0-1.969 1.136c-.23.86.277 1.743 1.137 1.97l5.64 1.507-.582 2.168-2.37-.633a1.61 1.61 0 0 0-.828 3.11l2.366.628-.578 2.172-5.644-1.511a1.61 1.61 0 0 0-1.969 1.136c-.23.86.277 1.742 1.14 1.969l5.641 1.512-.582 2.168-2.367-.633a1.6 1.6 0 0 0-1.969 1.137 1.6 1.6 0 0 0 1.137 1.968l2.371.633-.582 2.172-5.64-1.512a1.61 1.61 0 0 0-1.97 1.14 1.603 1.603 0 0 0 1.137 1.966l5.641 1.511-.582 2.168-2.371-.636a1.61 1.61 0 0 0-1.969 1.136c-.23.86.281 1.743 1.14 1.97l2.372.636-.582 2.168-5.64-1.508a1.607 1.607 0 1 0-.833 3.106l5.64 1.511-.577 2.164-2.371-.633a1.608 1.608 0 0 0-.832 3.105l2.37.638-.406 1.508Zm32.067-68.434-14.387-3.847a1.604 1.604 0 0 0-1.969 1.136l-19.23 71.868a1.61 1.61 0 0 0 1.136 1.968l14.387 3.852c.14.035.277.05.418.05.281 0 .559-.07.805-.21.367-.215.636-.567.746-.977l5.472-20.441 13.762-51.43a1.612 1.612 0 0 0-1.14-1.969"/><g clip-path="url(#a)"><path fill="#fb653e" d="m186.484 461.898-2.191-3.093 3.836-1.18.828 1.125Zm-33.93 16.43-2.648-.793a1.61 1.61 0 0 0-.926 3.082l.375.11-8.847 6.636c.066-.164.148-.336.27-.52 1.07-1.605 1.718-3.906 1.98-4.984.824-.726 1.738-1.859 2.765-3.136.942-1.172 2.676-3.328 3.403-3.664.894.02 4.344.265 7.23.566ZM134.087 496.2l2.594 3.516-1.711 1.316-2.52-3.601Zm21.023-6.61c-.816 1.446-1.648 2.735-2.074 3.087-.37.195-.87.543-1.762 1.164-1.156.805-4.543 3.172-5.808 3.379-.047-.04-.106-.059-.156-.09Zm2.512-5.991-18.394 14.152-2.563-3.48 23.934-17.957c.12.023.238.046.363.054-1.172 1.93-2.527 4.516-3.34 7.23Zm13.676-4.95c-.492 1.22-.957 2.372-.957 3.555 0 .621-.695 4.473-1.2 6.485-.296 1.19-.921 3.066-1.527 4.878-.625 1.875-1.27 3.813-1.601 5.13-.547 2.187-2.758 5.726-4.707 8.847-1.743 2.789-3.387 5.422-4.008 7.285-1.902 5.703-4.637 12.672-6.606 15.133-2.27 2.836-14.664 21.613-17.613 26.078-6.031-2.726-14.957-4.851-19.187-5.773-2-.434-6.23-1.309-10.36-1.891.715-.965 1.633-2.117 2.66-3.14 2.293-2.294 3.918-7.594 5.22-11.852.288-.942.554-1.805.796-2.531.918-2.75.688-9.774.293-18.664-.113-2.602-.21-4.848-.21-6.231 0-1.36-.208-3.094-.442-5.102-.641-5.464-1.516-12.937 1.398-17.109.809-1.152 2.078-2.125 3.54-2.937-.372.523-.65 1.062-.79 1.625l-.207.828c-.582 2.258-1.086 4.215-.383 6.328a1.615 1.615 0 0 0 2.035 1.015 1.612 1.612 0 0 0 1.02-2.035c-.406-1.21-.05-2.593.441-4.507l.215-.852c.45-1.785 5.692-4.399 8.504-5.8 2.55-1.27 4.031-2.032 4.828-2.825.387-.387.946-1.031 1.649-1.848 2.468-2.86 8.254-9.558 11.593-9.558 2.621 0 11.672 2.726 14.496 3.668.68.226 2.07.343 4.672.554 2.153.172 5.098.41 5.961.696.047.015.2.246.176.64-.02.305-.176 1.043-1.234 1.258-.028.008-.055.016-.078.02-.024.007-.047.011-.067.02-1.48.32-3.062 1.042-4.601 1.753-1.211.559-3.25 1.5-3.813 1.387-2.238-.75-11.746-1.336-12.387-1.336-1.796 0-3.37 1.851-5.8 4.867-.907 1.129-2.04 2.535-2.594 2.902a1.635 1.635 0 0 0-.684 1.024c-.156.785-.761 3.113-1.636 4.426-1.485 2.226-.891 4.28-.817 4.511.016.055.055.102.078.153l-8.09 6.07a1.602 1.602 0 0 0-.351 2.207l4.375 6.254a1.617 1.617 0 0 0 2.297.351l7.328-5.64c.043.133.101.265.18.387.375.554.93.914 1.609 1.043.176.03.355.046.543.046 2.004 0 4.758-1.796 7.86-3.964.55-.383 1.234-.86 1.421-.957 2.078-1.036 5.48-8.149 5.856-9.844 1.156-5.196 5.285-10.559 5.328-10.613.02-.024.031-.055.05-.079.196-.09.395-.183.594-.277 1.258-.578 2.535-1.16 3.61-1.445.578.254 1.379.703 1.855 1.238.055.195.145.383.274.555.023.03.05.047.074.078.015.062.043.125.043.191 0 1.028-.469 2.196-.922 3.324Zm1.941-7.199c.559-.699.91-1.554.969-2.515.059-.914-.16-1.766-.582-2.454l7.96-5.93 2.376 3.348-10.277 7.914a6.462 6.462 0 0 0-.446-.363Zm22.907-18.476a1.607 1.607 0 0 0-1.797-.625l-11.895 3.66c-.176.055-.34.137-.488.246l-11.403 8.5c-1.269-.211-3.085-.371-5.449-.559-1.472-.117-3.488-.277-3.91-.402-.113-.035-11.746-3.832-15.512-3.832-4.441 0-9.57 5.512-14.027 10.676-.637.734-1.184 1.37-1.488 1.675-.438.434-2.133 1.29-3.707 2.079-1.797.261-11.977 1.968-15.86 7.511-3.617 5.172-2.656 13.356-1.957 19.325.227 1.91.418 3.558.418 4.73 0 1.453.102 3.73.22 6.371.265 6.012.667 15.102-.134 17.504-.25.75-.523 1.637-.82 2.613-1.07 3.496-2.691 8.785-4.418 10.516-1.781 1.777-3.238 3.824-4.016 4.992-2.996-.265-5.507-.219-6.441.485-2.55 1.91-15.063 28.214-20.324 39.433a1.612 1.612 0 0 0 .773 2.14 1.612 1.612 0 0 0 2.14-.773c8.036-17.136 17.466-36.195 19.278-38.168.7-.195 2.39-.14 4.695.11.211.093.43.152.653.152.113 0 .222-.02.336-.039 9.754 1.184 28.449 5.348 34.082 9.527.414 2.621-4.512 15.938-9.45 27.082-.359.813.008 1.762.82 2.125a1.614 1.614 0 0 0 2.121-.82c.032-.066 3.009-6.805 5.626-13.71 5.242-13.845 4.46-15.954 3.101-17.028-.402-.317-.859-.63-1.363-.938 3.203-4.855 15.14-22.922 17.25-25.558 2.735-3.418 5.91-12.414 7.149-16.13.5-1.495 2.12-4.09 3.683-6.593 2.18-3.488 4.434-7.094 5.106-9.773.297-1.196.922-3.075 1.527-4.895.652-1.957 1.27-3.805 1.598-5.113.383-1.551 1.297-6.07 1.297-7.266 0-.562.367-1.473.722-2.355.543-1.348 1.153-2.871 1.153-4.524 0-.262-.028-.508-.07-.75l13.113-10.09a1.62 1.62 0 0 0 .285-.28l3.398-4.325c.024-.031.043-.059.067-.082l3.855-4.918c.438-.555.461-1.324.063-1.906"/></g><path fill="#fb653e" d="m155.73 227.938-4.039-17.547 25.602-5.895 4.039 17.547Zm23.625-26.735a1.617 1.617 0 0 0-1.214-.203l-28.739 6.617a1.611 1.611 0 0 0-1.207 1.93l4.762 20.68a1.608 1.608 0 0 0 1.566 1.246c.125 0 .243-.012.364-.036l28.738-6.617a1.61 1.61 0 0 0 1.203-1.93l-4.762-20.683a1.602 1.602 0 0 0-.71-1.004"/><path fill="#fb653e" d="m207.207 224.422-16.531-1.461-2.531-11 15.953 1.414c.047 0 .093.004.14.004a1.62 1.62 0 0 0 1.035-.375c.325-.274.532-.668.567-1.09l1.87-21.14a1.606 1.606 0 0 0-1.456-1.747l-29.375-2.601a1.61 1.61 0 0 0-1.746 1.46l-.719 8.141-2.527.582 1.152-12.996 37.492 3.32Zm-22.879-29.027a1.604 1.604 0 0 0-1.926-1.208l-4.691 1.079.484-5.496 26.172 2.32-1.59 17.937-15.39-1.363Zm-31.004 47.41-8.445-36.676 36.68-8.445 8.445 36.675Zm59.09-58.934-40.695-3.605a1.614 1.614 0 0 0-1.172.367 1.613 1.613 0 0 0-.57 1.09l-1.387 15.644-26 5.988a1.612 1.612 0 0 0-1.004.711c-.223.364-.3.801-.203 1.215l9.168 39.813c.172.746.832 1.25 1.566 1.25.117 0 .238-.016.36-.043l39.816-9.168a1.604 1.604 0 0 0 1.203-1.93l-2.062-8.95 17.093 1.517.141.003a1.61 1.61 0 0 0 1.602-1.464l3.605-40.696a1.607 1.607 0 0 0-1.46-1.742M753.672 197.086c-.035-.04-.07-.07-.102-.106-.03-.035-.054-.07-.086-.101-.043-.055-.097-.094-.148-.137-3.164-3.191-7.02-2.644-8.664-1.867a1.6 1.6 0 0 0-.77 2.137 1.601 1.601 0 0 0 2.137.77c.031-.012 2.723-1.223 5.133 1.347 2.23 2.578.953 4.996.789 5.273a1.608 1.608 0 0 0 2.754 1.664c.945-1.55 1.902-5.312-.906-8.793-.043-.066-.082-.128-.137-.187"/><path fill="#fb653e" d="M758.496 192.508c-4.672-5.172-10.535-4.363-12.988-3.207-.801.37-1.14 1.32-.77 2.125.371.8 1.32 1.156 2.13.789.202-.094 5.054-2.223 9.277 2.48 4.187 4.692 1.574 9.266 1.453 9.477a1.608 1.608 0 0 0 2.75 1.664c1.414-2.32 2.855-8.09-1.825-13.309a.119.119 0 0 1-.027-.02"/><path fill="#fb653e" d="M763.36 188.078c-.008-.008-.012-.016-.016-.023-7.805-8.692-17.239-4.399-17.332-4.356a1.606 1.606 0 0 0-.774 2.133 1.61 1.61 0 0 0 2.133.781c.3-.136 7.387-3.273 13.555 3.567v.004c6.164 6.867 2.281 13.586 2.105 13.879a1.61 1.61 0 0 0 2.75 1.667c.055-.09 5.32-8.972-2.422-17.652M747.91 202.047a1.807 1.807 0 0 0-2.515.453c-.563.82-.36 1.941.457 2.508.816.562 1.937.36 2.503-.453a1.806 1.806 0 0 0-.445-2.508M189.91 423.777a3.085 3.085 0 0 0-.754 4.282 3.086 3.086 0 0 0 4.278.761c1.398-.968 1.73-2.886.77-4.28-.97-1.395-2.888-1.731-4.294-.763Zm-3.078 16.559-10.441-12.492 18.597-15.547 10.442 12.488Zm-29.602-22.41c.204-.102.387-.246.54-.442l2.765-3.586 15.496 18.532Zm-10.03 9.601 1.425-4.359 20.8 11.644Zm-3.06-1-12.82-4.199 2.45-7.48 12 6.718Zm-15.874-5.203-12.004-3.933 3.394-10.36c.008-.023.008-.05.02-.074l11.234 6.29Zm-27.88-9.133 4.442-13.546 12.125 6.793a1.604 1.604 0 0 0-.351.59l-3.399 10.363Zm-15.741-5.16 5.453-16.636.035.023 11.836 6.625-4.637 14.148Zm14.675-29.726 11.559 8.918-4.996 8.918a1.748 1.748 0 0 0-.137.332l-12.64-7.075Zm15.125-19.02c.024.336.149.66.368.918l8.62 10.317-10.8 13.996-11.063-8.54Zm22.461-15.453 10.051 12.023-18.594 15.547-10.05-12.027Zm21.926 26.223-18.59 15.547-9.816-11.73 18.597-15.552Zm11.461 13.71-18.594 15.548-9.398-11.243 18.597-15.547Zm-31.215 25.22 12.3 9.488-1.331 2.386c-.063.11-.11.223-.14.336l-13.45-7.527Zm-13.21-10.196 10.636 8.207-2.852 5.098-11.601-6.492Zm-2.575-1.984-4.047 7.226L108.473 397c.082-.09.156-.18.218-.29l4.758-8.503Zm13.664-10.114 1.816 2.176.024.035c.012.016.023.02.035.032l7.5 8.976-5.816 7.531a1.795 1.795 0 0 0-.223.418l-11.36-8.765Zm-10.57 8.438-11.207-8.649 10.363-13.437 1.156 1.379a1.498 1.498 0 0 0 .465.559l7.68 9.187Zm41.761 36.281-15.52-8.687c.083-.09.161-.18.224-.293l1.105-1.97Zm-13.218-14.262-12.207-9.418c.125-.093.242-.19.34-.32l5.382-6.976 9.98 11.937-3.202 4.149c-.149.19-.243.41-.293.628Zm26.793-19.718-18.598 15.55-9.363-11.199 18.597-15.55Zm11.203 13.398-18.598 15.55-9.137-10.929 18.594-15.55Zm16.004 14.129-70.586-84.422a1.606 1.606 0 0 0-2.266-.203l-19.742 16.504 1.02-1.324a1.607 1.607 0 1 0-2.547-1.96l-9.067 11.749a1.604 1.604 0 0 0-2.813-.027l-10.3 18.394.062-.2c.278-.84-.18-1.75-1.027-2.027a1.611 1.611 0 0 0-2.027 1.028l-8.551 26.09a1.63 1.63 0 0 0 .098 1.226c.191.383.527.672.93.8l101.882 33.384 1.887 1.058.27.149c.245.14.515.203.785.203.562 0 1.109-.293 1.402-.82.043-.075.074-.157.105-.235.067-.082.11-.18.16-.277l20.118-16.824a1.61 1.61 0 0 0 .207-2.266M456.926 526.29a1105.064 1105.064 0 0 1-13.867 2.925l3.195-5.781 23.785-4.106c-2.375 2.395-6.57 5.543-13.113 6.961Zm18.316-10.196a1.598 1.598 0 0 0-1.586-.653l-28.707 4.954c-.48.085-.898.382-1.133.808l-5.25 9.488c-.3.547-.261 1.215.102 1.723a1.62 1.62 0 0 0 1.602.637c.054-.012 5.375-1.024 17.335-3.617 12.649-2.743 17.528-11.266 17.73-11.625.302-.54.263-1.211-.093-1.715"/><path fill="#fb653e" d="M431.84 564.45a9.993 9.993 0 0 1-5.754 1.812c-3.297 0-6.387-1.61-8.27-4.313a9.981 9.981 0 0 1-1.652-7.527 9.987 9.987 0 0 1 4.152-6.492 9.993 9.993 0 0 1 5.754-1.813c3.293 0 6.383 1.613 8.27 4.309 3.176 4.558 2.05 10.851-2.5 14.023Zm-6.008-33.055c2.508-3.946 17.86-28.102 22.176-34.829 2.535-3.96 5.976-5.027 8.258-5.261L427 542.937a12.246 12.246 0 0 0-2.18.028c2.016-4.403 1.348-9.7 1.012-11.57Zm4.488 12.21 30.067-53.046a1.608 1.608 0 0 0-1.094-2.375c-.356-.067-8.734-1.559-13.992 6.648-4.684 7.3-22.352 35.102-22.531 35.383-.23.363-.305.805-.207 1.222.023.098 2.144 9.547-3.137 13.25-.324.192-.64.387-.953.606a13.181 13.181 0 0 0-5.477 8.562 13.202 13.202 0 0 0 2.18 9.934 13.314 13.314 0 0 0 10.91 5.691c2.726 0 5.351-.828 7.594-2.39 6.004-4.192 7.488-12.488 3.297-18.504a13.305 13.305 0 0 0-6.657-4.98"/><path fill="#fb653e" d="M428.453 559.594c-.7.488-1.52.75-2.371.75a4.175 4.175 0 0 1-3.41-1.778 4.12 4.12 0 0 1-.684-3.105 4.15 4.15 0 0 1 4.082-3.422c1.36 0 2.633.664 3.414 1.774a4.157 4.157 0 0 1-1.03 5.78Zm-2.383-10.77a7.32 7.32 0 0 0-4.207 1.324 7.305 7.305 0 0 0-3.039 4.75 7.305 7.305 0 0 0 1.207 5.504 7.382 7.382 0 0 0 6.051 3.157 7.323 7.323 0 0 0 4.211-1.325c3.328-2.328 4.148-6.93 1.824-10.261a7.372 7.372 0 0 0-6.047-3.149M432.633 528.402a1.396 1.396 0 1 0-1.593-2.293 1.396 1.396 0 0 0 1.593 2.293M403.969 524.492a4.16 4.16 0 0 1-5.777-1.035 4.117 4.117 0 0 1-.68-3.102c.191-1.09.8-2.043 1.71-2.675.7-.489 1.516-.75 2.368-.75 1.36 0 2.637.668 3.41 1.78a4.158 4.158 0 0 1-1.031 5.782Zm3.672-7.625a7.388 7.388 0 0 0-6.051-3.152 7.33 7.33 0 0 0-4.207 1.324 7.318 7.318 0 0 0-3.04 4.754 7.32 7.32 0 0 0 1.212 5.504 7.37 7.37 0 0 0 10.257 1.832c3.333-2.328 4.153-6.93 1.829-10.262"/><path fill="#fb653e" d="M393.336 526.848a10.01 10.01 0 0 1-1.656-7.532 9.999 9.999 0 0 1 4.152-6.488 10.006 10.006 0 0 1 5.754-1.816c3.297 0 6.387 1.613 8.27 4.312 3.128 4.485 2.082 10.649-2.301 13.867-.325.2-.653.418-.985.645a9.981 9.981 0 0 1-4.965 1.32 10.093 10.093 0 0 1-8.27-4.308Zm26.8.195c-1.363-.441-3.64-.863-6.534-.3.464-.985.8-2.024 1.011-3.087l7.692.149Zm-.199 3.371a1.615 1.615 0 0 0 2.145-.496l4.531-6.77a1.607 1.607 0 0 0-1.304-2.503l-10.457-.204a13.227 13.227 0 0 0-2.356-6.957 13.32 13.32 0 0 0-10.91-5.687 13.2 13.2 0 0 0-7.59 2.39 13.194 13.194 0 0 0-5.48 8.567 13.177 13.177 0 0 0 2.183 9.933 13.299 13.299 0 0 0 10.906 5.684c2.723 0 5.348-.824 7.59-2.387.04-.027.075-.058.114-.086 6.23-3.808 10.457-1.578 10.628-1.484M382.48 161.004h-9.23v-4.137h9.23Zm3.215-5.746c0-.89-.718-1.61-1.61-1.61h-12.44a1.61 1.61 0 0 0-1.61 1.61v7.355c0 .89.723 1.61 1.61 1.61h12.44c.892 0 1.61-.72 1.61-1.61v-7.355M688.184 296.441h-31.66v-7.105h31.66Zm1.609-10.32h-34.879c-.887 0-1.605.719-1.605 1.606v10.324c0 .887.718 1.61 1.605 1.61h34.879c.89 0 1.61-.724 1.61-1.61v-10.324c0-.887-.72-1.606-1.61-1.606M382.48 205.188h-9.23v-4.137h9.23Zm1.606-7.356h-12.441a1.61 1.61 0 0 0-1.61 1.61v7.351c0 .89.723 1.61 1.61 1.61h12.44c.892 0 1.61-.72 1.61-1.61v-7.352c0-.89-.718-1.609-1.61-1.609M645.813 327.672h-24.22v-53.836h24.22Zm1.609-57.05h-27.434c-.89 0-1.61.722-1.61 1.605v57.05c0 .891.72 1.61 1.61 1.61h27.434a1.61 1.61 0 0 0 1.61-1.61v-57.05c0-.883-.723-1.606-1.61-1.606M638.625 428.754h4.02v4.824h-4.02Zm-1.61 8.039h7.239c.887 0 1.605-.719 1.605-1.61v-8.038c0-.891-.718-1.61-1.605-1.61h-7.238a1.61 1.61 0 0 0-1.61 1.61v8.039c0 .89.723 1.609 1.61 1.609M271.797 244.195h-6.3a1.606 1.606 0 1 0 0 3.215h6.3c.887 0 1.605-.719 1.605-1.61 0-.886-.718-1.605-1.605-1.605M630.582 451.266h-8.844v-8.844h8.844Zm-10.45-12.063c-.89 0-1.609.723-1.609 1.61v12.062c0 .887.72 1.605 1.61 1.605h12.058c.891 0 1.61-.718 1.61-1.605v-12.063a1.61 1.61 0 0 0-1.61-1.609h-12.058M390.59 142.855h-6.504c-.887 0-1.606.72-1.606 1.606 0 .89.72 1.61 1.606 1.61h6.504a1.608 1.608 0 0 0 0-3.215M688.184 280.945h-31.66v-7.11h31.66Zm1.609-10.324h-34.879c-.887 0-1.605.723-1.605 1.606v10.328c0 .886.718 1.61 1.605 1.61h34.879c.89 0 1.61-.724 1.61-1.61v-10.328c0-.883-.72-1.606-1.61-1.606M688.184 312.129h-31.66v-7.11h31.66Zm1.609-10.324h-34.879c-.887 0-1.605.718-1.605 1.61v10.32c0 .89.718 1.609 1.605 1.609h34.879c.89 0 1.61-.719 1.61-1.61v-10.32c0-.89-.72-1.61-1.61-1.61M401.773 168.285a1.61 1.61 0 0 0 1.61-1.61v-11.417c0-.89-.723-1.61-1.61-1.61h-12.441c-.89 0-1.61.72-1.61 1.61v51.496c0 .883.72 1.605 1.61 1.605h12.441c.887 0 1.61-.722 1.61-1.605v-33.781a1.608 1.608 0 0 0-3.215 0v32.172h-9.227v-48.278h9.227v9.809c0 .89.719 1.61 1.605 1.61M760.082 327.672h-24.223v-53.836h24.223Zm1.61-57.05h-27.438c-.887 0-1.61.722-1.61 1.605v57.05c0 .891.723 1.61 1.61 1.61h27.437c.887 0 1.606-.719 1.606-1.61v-57.05c0-.883-.719-1.606-1.606-1.606M382.48 175.914h-9.23v-4.14h9.23Zm3.215-5.746c0-.89-.718-1.61-1.61-1.61h-12.44a1.61 1.61 0 0 0-1.61 1.61v7.355c0 .883.723 1.606 1.61 1.606h12.44c.892 0 1.61-.723 1.61-1.606v-7.355M723.809 327.672h-24.223v-53.836h24.223Zm1.605-57.05h-27.437a1.61 1.61 0 0 0-1.606 1.605v57.05c0 .891.723 1.61 1.606 1.61h27.437c.89 0 1.61-.719 1.61-1.61v-57.05c0-.883-.72-1.606-1.61-1.606M382.48 190.02h-9.23v-4.141h9.23Zm3.215-5.747a1.61 1.61 0 0 0-1.61-1.609h-12.44c-.887 0-1.61.723-1.61 1.61v7.355c0 .887.723 1.605 1.61 1.605h12.44c.892 0 1.61-.718 1.61-1.605v-7.356"/><path fill="#fb653e" d="M610.523 241.285h160.168v97.973H610.523Zm-3.214-1.61V340.868c0 .887.718 1.606 1.605 1.606h163.387c.886 0 1.605-.72 1.605-1.606V239.676c0-.887-.718-1.606-1.605-1.606H608.914c-.887 0-1.605.72-1.605 1.606"/><path fill="#fb653e" d="M688.184 327.672h-31.66v-7.11h31.66Zm1.609-10.324h-34.879c-.887 0-1.605.722-1.605 1.609v10.32c0 .891.718 1.61 1.605 1.61h34.879c.89 0 1.61-.719 1.61-1.61v-10.32a1.61 1.61 0 0 0-1.61-1.61"/><g clip-path="url(#b)"><path fill="#fb653e" d="M798.227 366.648c-1.329.985-4.813 3.29-8.364 3.29H584.926c-3.551 0-7.035-2.305-8.364-3.29v-7.187h89.778c1.258 5.414 8.644 7.008 8.988 7.078.106.024.215.035.324.035h32.243c.109 0 .218-.012.324-.035.343-.07 7.734-1.664 8.988-7.078h81.02Zm-173.27 66.93v-4.824h4.02v4.824Zm56.43 38.59h-5.778v-9.645h4.762c-.137.72-.187 1.473-.219 2.227-.035.977.485 3.852 1.235 7.418Zm80.21-53.063c.051 0 4.868-.656 4.868 3.563v75.394c0 .032 0 .239.004.266 0 .016.035 1.8-1.164 3.067-1.114 1.18-2.98 2.132-5.543 2.132h-23.989c-.285-2.297-.445-4.18-.406-5.28.086-2.212.078-4.919.012-7.583h4.55c.891 0 1.61-1.426 1.61-2.312v-6.434c0-.887-.719-.902-1.61-.902h-5.113c-.004-.028-.007-.059-.011-.079-.082-.628-.64-2.949-1.301-5.55h24.117c.887 0 1.606-1.426 1.606-2.313v-16.082c0-.887-.72-.902-1.606-.902h-11.258c-.886 0-1.61.015-1.61.902v4.727h-17.687c-.27 0-.52.07-.746.191-.886-.207-1.738-.11-2.398.309-.36.234-.645.515-.875.832v-2.84c0-.89-.719-.906-1.61-.906h-7.421c-1.778-1.86-3.778-3.239-5.391-3.239-1.414 0-2.266.653-2.727 1.204-.453.53-.746 1.21-.906 2.043-.144-.004-.285-.008-.437-.008h-.805c-.258 0-.496.035-.71.101-.895-1.949-1.977-3.722-3.126-4.926h4.64c.887 0 1.61-.718 1.61-1.605v-12.063c0-.886-.723-1.609-1.61-1.609h-12.863c-.89 0-1.609.723-1.609 1.61v12.062c0 .887.719 1.605 1.61 1.605h1.94c-1.058 1.141-1.737 2.704-1.78 4.258-.004.172.003.371.011.567h-.172c-.89 0-1.609.015-1.609.906v2.351c-1.387-2.527-3.348-4.878-5.668-4.292-.95.234-1.68.593-2.25 1.035H674c-.887 0-1.605.015-1.605.906v12.863c0 .887.718 2.313 1.605 2.313h8.086c.289 1.316.598 2.668.91 4.02h-54.191c.218-1.657.433-3.06.636-4.02h2.75c.891 0 1.61-1.426 1.61-2.313v-12.863c0-.89-.719-.906-1.61-.906h-12.058c-.89 0-1.61.015-1.61.906v11.254c0 .008.004.015.004.02-.078.16-.152.316-.234.48-1.523 3.047-2.215 11.363-2.953 21.922-.031.406-.059.82-.09 1.238-.477-4.902-.691-10.855-.113-15.418.422-3.352 1.047-6.656 1.597-9.57.848-4.496 1.516-8.051 1.235-10.344-.239-2.016-1.766-3.629-3.79-4.008-1.773-.34-4.214.309-5.73 3.125-.062.125-.125.266-.191.395h-5.817c-.886 0-1.605.015-1.605.906v4.371c-.762-.906-1.75-1.258-2.816-1.258h-.024c-.125 0-.254.012-.379.031v-3.144c0-.89-.719-.906-1.605-.906h-11.258c-.887 0-1.61.015-1.61.906v12.863c0 .887.723 2.313 1.61 2.313h6.27a51.24 51.24 0 0 0-.223.703c-.942-.317-2.117-.363-3.485.207-.855.355-1.66 1.515-2.39 3.11h-.172c-.887 0-1.61.015-1.61.906v4.019c0 .027.008.055.012.086-1.605 5.613-2.586 12.047-2.593 12.156-.2 2.156-.02 4.602.273 6.953H563.64c-6.754 0-7.02-4.984-7.028-5.464v-66.66h8.844v3.077c0 .887.719 2.313 1.61 2.313h6.43c.89 0 1.608-1.426 1.608-2.313v-3.078h6.434v3.078c0 .887.719 2.313 1.606 2.313h6.433c.89 0 1.61-1.426 1.61-2.313v-3.078h3.214v3.078c0 .887.72 2.313 1.61 2.313h6.43c.89 0 1.609-1.426 1.609-2.313v-3.078h3.215v3.078c0 .887.718 2.313 1.609 2.313h8.04c.89 0 1.608-1.426 1.608-2.313v-4.824l-.003-.015c1.18-.594 2.195-1.325 3.023-2.215.07-.078.129-.153.195-.227v7.985c0 .89.719 1.609 1.61 1.609h7.234c.89 0 1.61-.719 1.61-1.61v-8.038c0-.891-.72-1.61-1.61-1.61h-7.234c-.18 0-.344.035-.504.09 1.125-2.047 1.129-3.938 1.113-4.36v-2.16Zm-26.503 65.125h3.23v3.215h-3.054c-.051-1.14-.11-2.23-.176-3.215Zm-4.95-19.296h16.22c.89 0 1.609-1.426 1.609-2.313v-3.316h8.039v12.863h-23.34a528.005 528.005 0 0 0-1.031-3.844 12.337 12.337 0 0 0-1.496-3.39Zm-8.425 10.398c.754-.254 1.328-1.465 1.328-2.258v-.574c.566 3.79 1.558 10.598 1.77 12.375.035.473-.005 2.004-.114 3.668-.137-.707-.27-1.41-.39-2.059-.504-2.671-1.075-5.699-1.75-8.23-.25-.95-.54-1.934-.844-2.922Zm-5.149-12.809h3.262v7.286c-1.2-3.223-2.402-5.954-3.133-7.098-.039-.063-.086-.125-.129-.188Zm-10.933 4.497c.136-.122.242-.27.332-.43.433 1.297 1.02 2.937 1.742 4.941.914 2.547 2.168 6.024 2.258 6.707.054.438.261 1.403.683 3.38.203.933.496 2.304.809 3.823a89.953 89.953 0 0 1-1.625-6.816c-.645-3.36-2.004-6.496-3.207-9.266-.363-.84-.7-1.617-.992-2.34Zm-12.34-15.754v-8.844h9.648v8.844Zm3.379 28.257.281.961c.211.723.438 1.68.664 2.778-.824-2.344-1.836-5.227-2.758-7.875h.61c.394 1.379.797 2.761 1.203 4.136Zm-3.38-8.68v-3.562c.38 1.547.817 3.192 1.282 4.887h-.824c-.164-.465-.317-.91-.457-1.324Zm43.696 57.028c.094.192.36.984.598 1.688 1.36 4.039 2.531 6.992 3.812 8.777-2.43 1.176-6.05 3.16-11.52 6.492-2.073 1.262-7.21 4.438-10.944 7.113-1.258-1.773-3.575-4.75-5.918-6.273-.735-.48-1.485-.961-2.235-1.445-4.047-2.61-8.23-5.305-12.203-8.461-3.133-2.492-8.375-6.664-10.973-14.371-1.375-4.09-2.574-7.036-3.539-9.399-1.508-3.707-2.414-5.945-2.593-9.101a245.165 245.165 0 0 0-.301-4.286c-.281-3.675-.75-9.785.117-10.878.312-.063.754.046 1.234.308 1.496.82 3.368 3.102 4.18 6.348 1.281 5.12 3.988 13.387 4.422 14.476a1.606 1.606 0 0 0 2.09.895 1.602 1.602 0 0 0 .894-2.086c-.402-1.016-3.062-9.168-4.285-14.07-.14-.547-.316-1.09-.508-1.618-2.34-9.44-6.027-25.144-5.953-27.105.04-1.137.137-1.867.32-2.355a1.607 1.607 0 0 0 1.481-1.094c1.004.41 3.125 4.254 4.074 7.418.125.41.43 1.316.84 2.527v.094c0 .394.148.754.383 1.031.137.39.277.809.426 1.234 0 .016-.004.032-.004.047 0 .391.144.739.37 1.02 1.872 5.402 4.411 12.601 4.942 14.074.84 2.309 4.203 11.344 4.203 11.344.285.77 1.106 1.2 1.899 1.004a1.613 1.613 0 0 0 1.203-1.774c-.082-.61-2.012-14.906-3.461-19.867l-.285-.965c-1.43-4.863-4.781-16.261-4.692-19.793.043-1.62 1.371-2.742 1.743-2.757.863.289 3.652 3.91 4.898 9.32.352 1.52 1.102 3.25 1.973 5.258 1.133 2.617 2.422 5.582 3 8.59.03.16 3.246 16.175 6.62 18.05.657.367 1.423.324 2.005-.105 1.265-.934 1.445-2.488-1.508-16.235-.309-1.43-.598-2.785-.637-3.101-.12-.957-1-3.434-2.422-7.395-1.031-2.86-2.308-6.422-2.468-7.37-.489-2.95.023-3.657.082-3.727.015-.016.054-.063.265-.063.602.047 3.164 1.7 5.367 5.156.95 1.485 3.75 8.172 5.47 14.641.648 2.414 1.202 5.379 1.694 8 1.239 6.57 1.707 8.676 3.29 9.203.609.203 1.277.078 1.78-.336 1.985-1.613 1.805-11.347 1.794-11.437-.262-2.2-1.606-11.364-2.055-14.278l-.121-.761c-.184-1.16-.606-3.793-.25-4.453.566.117 2.121 1.148 2.95 4.156 1.25 4.523 2.976 11.344 3.077 12.16.367 2.902.754 11.234.543 16.789-.054 1.418.172 3.902.555 6.86-.008.05-.016.097-.016.152 0 .203.043.398.114.578 1.171 8.715 3.554 20.902 4.183 22.156Zm-108.715-65.348h2.305v9.645h-.562c.5-3.895.18-7.7-1.743-9.645Zm49.301 29.793a1.374 1.374 0 0 0-.36-.046h-42.921c-.723-1.856-1.758-3.274-3.008-4.047-1.066-.668-2.266-.84-3.43-.512.18-1.707.368-3.441.555-5.09h55.328c.23.969.453 1.91.672 2.813-.113-.07-.223-.153-.336-.22-1.344-.737-2.687-.913-3.879-.519-2.199.735-2.707 3.52-2.62 7.621Zm.442 11.211h-40.98a47.763 47.763 0 0 0-.372-.988c-.535-1.363-1.086-2.77-1.27-5.148-.05-.66-.132-1.293-.234-1.903h42.055c.176 0 .343-.035.5-.09.074 1.094.16 2.243.25 3.454.105 1.414.215 2.84.293 4.222.011.168.031.32.047.48a1.768 1.768 0 0 0-.29-.027Zm-56.282-39.34v-1.664h1.106c-.403.465-.766 1.028-1.106 1.664Zm-17.687 7.981v-9.645h2.926c-.735 2.29-1.32 4.93-1.93 7.668-.145.657-.297 1.317-.442 1.977Zm-2.383 6.086c.25-.992.445-1.965.598-2.902.058.011.117.035.175.035h1.399c-.485 1.918-1.02 3.828-1.68 5.68-.722 2.038-1.101 5.374-1.285 8.956-.36-3.07-.375-7.132.793-11.77Zm-7.215-12.035c-.765 1.336-1.496 3.14-2.183 5.433-.047.157-.11.317-.188.516h-5.719v-9.645h8.04v3.317c0 .129.019.258.05.379Zm40.172 59.484c-.457 3.809-5.656 13.781-7.914 16.871-.813 1.117-2.34 3.125-4.106 5.45-3.332 4.382-7.89 10.386-10.8 14.519-.528.754-1.242 2.5-1.766 3.879-3.672-1.54-8.543-3.297-12.871-4.793-3.027-1.043-8.559-2.918-12.953-4.168.758-2.8 1.828-5.352 2.426-5.723 2.746-1.101 2.105-4.86 1.484-8.492-.188-1.098-.383-2.23-.477-3.234l-.359-3.7c-.941-9.78-2.113-21.949-1.945-23.48.097-.887-.121-2.242-.551-4.762-.566-3.285-1.34-7.793-1.027-11.203.207-2.285 2.047-10.832 3.64-15.195.34-.195.563-.524.563-1.008 0-.11-.012-.207-.032-.305.25-.53.485-.93.7-1.129.562-.214.968-.175 1.25-.062-.989 3.484-1.88 7.328-1.88 9.992 0 5.125 2.743 19.922 2.86 20.55a1.608 1.608 0 0 0 3.16-.589c-.027-.152-2.804-15.129-2.804-19.96 0-4.013 2.554-11.88 3.648-15.243.215-.66.383-1.18.48-1.508.922-3.078 2.137-5.547 2.794-6.152.082.055.171.148.242.238 1.058 1.348 1.558 5.328.16 10.895-2.14 8.523-.735 15.28.293 18.554.95 3 2.14 10.301 2.148 10.375.008.032.02.055.028.086a1.33 1.33 0 0 0 .105.32c.008.028.024.051.035.075.04.078.082.144.133.215.008.011.016.015.02.027.347.453.925.715 1.527.61a1.596 1.596 0 0 0 1.25-1.04c.004-.008.004-.02.008-.031.031-.078.047-.16.062-.242.008-.035.012-.067.016-.098.004-.062.008-.125.008-.187 0-.028.008-.055.004-.086-.278-5.055-.637-19.196 1.007-23.824 1.32-3.72 2.211-7.723 2.996-11.258.915-4.114 1.778-7.996 3.098-10.453.594-1.11 1.43-1.649 2.297-1.489.496.094 1.106.47 1.2 1.235.214 1.797-.446 5.304-1.208 9.363-.558 2.96-1.195 6.312-1.629 9.762-1.054 8.355.43 23.582 2.153 26.43.425.702 1.18 1.038 1.93.859 1.62-.395 1.742-1.426 2.519-12.485.531-7.59 1.265-17.988 2.625-20.707.828-1.652 1.48-3.254 2.058-4.672.7-1.707 1.653-4.046 2.247-4.261 1.628.472 2.02 4.937.878 9.957-.707 3.105-1.492 10.902-2.12 17.168-.22 2.16-.415 4.097-.567 5.414-.066.48-.129.953-.18 1.414v.008c-.457 3.015-.023 8.574.293 12.644.117 1.516.219 2.824.219 3.38a1.61 1.61 0 0 0 3.219 0c0-.68-.098-1.915-.23-3.63-.29-3.719-.731-9.344-.317-11.965.05-.293.101-.722.164-1.238.46-3.18 1.262-6.164 1.863-6.808.309-.102.582-.055.89.14 1.06.656 2.321 3.027 2.602 6.684.22 2.855.891 4.566 1.48 6.078.575 1.469 1.028 2.625.934 4.683-.093 2.02-.011 4.672.075 7.477.113 3.668.226 7.469-.055 9.828Zm-62.734-94.3v2.175h-3.22v-2.176Zm16.078 0v2.175h-3.215v-2.176Zm12.867 0v2.175h-3.219v-2.176Zm14.473-.598v2.773h-4.825v-2.2c1.766-.046 3.383-.233 4.825-.573Zm-32.707-52.918v-4.969c.757.144 1.535.234 2.324.234h23.402v4.735Zm10.687-100.078v78.437h-10.687V277.81Zm-37.633 150.378a1.587 1.587 0 0 0-.652-.136c-.23 0-.45.047-.649.137H301.422c-4.387 0-7.656-1.004-9.461-2.903-1.688-1.785-1.602-3.793-1.598-3.863 0-.04.004-.078.004-.121v-21.977h75.524c.886 0 1.605-.719 1.605-1.61 0-.886-.719-1.605-1.605-1.605h-75.524v-28.578h8.957v11.965c0 .89.719 1.61 1.61 1.61h57.39a1.609 1.609 0 0 0 0-3.22H302.54v-10.355h2.547c5.691 0 7.582-4.945 7.785-7.558.004-.04.004-.082.004-.125v-82.04h172.43v100.079h-87.793a1.61 1.61 0 0 0 0 3.218h89.398a1.61 1.61 0 0 0 1.61-1.609V276.2c0-.887-.723-1.605-1.61-1.605H312.875v-10.938h280.414v10.938h-12.293c-.89 0-1.61.719-1.61 1.605v80.047h-4.429c-.89 0-1.61.719-1.61 1.61v9.578c0 .468.204.914.563 1.222.137.117 2.363 1.992 5.477 3.285v7.555c0 .89.718 1.61 1.61 1.61h28.94c.887 0 1.606-.72 1.606-1.61v-6.344h9.2v22.957H390.495c-.887 0-1.605.72-1.605 1.606 0 .89.718 1.61 1.605 1.61h230.246v22.096c.004.02.102 2.028-1.554 3.813-1.793 1.934-5.079 2.954-9.504 2.954h-.16c-.2-.09-.415-.137-.649-.137-.23 0-.45.047-.648.137h-5.133a1.587 1.587 0 0 0-.653-.137c-.23 0-.449.047-.648.137h-5.133c-.2-.09-.418-.137-.648-.137-.235 0-.45.047-.653.137h-5.129a1.587 1.587 0 0 0-.652-.137c-.23 0-.45.047-.648.137h-5.133a1.587 1.587 0 0 0-.652-.137c-.23 0-.45.047-.649.137h-8.348a1.587 1.587 0 0 0-.652-.137c-.23 0-.45.047-.648.137h-5.133c-.2-.09-.418-.137-.649-.137-.234 0-.449.047-.652.137Zm-62.195 33.688h-75.652c2.925-3.844 5.886-12.254 6.035-30.473h63.578c.148 18.22 3.11 26.63 6.039 30.473Zm5.066 3.215c.047 0 .098.004.137.004.063 0 .094-.004.137-.004h5.414v6.129h-96.82v-6.13H412.668Zm-266.32-100.777c-3.934 0-4.504-3.887-4.574-4.54v-7.199h82.027v7.2c-.07.675-.652 4.538-4.574 4.538Zm-4.574-111.333h82.027v96.38h-82.027Zm0-6.253c0-5.239 5.394-5.434 6.004-5.442h70.02c.245 0 6.003.063 6.003 5.442v3.039h-82.027Zm64.332-41.989c1.8-1.898 5.07-2.902 9.457-2.902h62.781V216.738h-63.27c-.89 0-1.609.719-1.609 1.606v19.726h-8.957v-29.507c0-.02-.004-.036-.008-.051.004-.442.11-2.196 1.606-3.774Zm72.258 16.653c.066.464.062 1.043.054 1.656-.007 1.613-.02 3.621 1.375 5.023.934.942 2.274 1.399 4.098 1.399h35.395c3.265 0 4.34-3.059 4.449-4.676.004-.035.004-.07.004-.11v-4.73h198.906v6.313c-14.188.265-15.2 14.011-15.211 14.152-.004.031-.004.062-.004.098v19.925H312.875v-13.714c0-6.848-6.027-8.657-9.215-8.657h-1.12v-18.117h61.663v1.207c0 .074.008.153.02.23Zm3.195-3.04V214.91h38.96v9.703c-.023.254-.222 1.64-1.233 1.64H369.75c-.625 0-1.45-.077-1.82-.448-.45-.457-.442-1.614-.434-2.735.004-.668.008-1.355-.078-2.015Zm42.18-16.515h200.086c4.386 0 7.656 1.004 9.457 2.902 1.515 1.594 1.605 3.364 1.601 3.782v17.734h-9.023v-7.91c0-.887-.719-1.606-1.606-1.606H409.598ZM713.793 359.46c-1.25 2.59-5.273 3.7-6.082 3.898H675.84c-.805-.199-4.82-1.328-6.078-3.898Zm61.648-129.992c2.887 0 5.149.832 6.735 2.465 2.855 2.949 2.742 7.64 2.742 7.687v116.625h-188.41V240.574c.066-.879 1.133-11.105 12.406-11.105Zm-408.02-86.711c.145-.543.782-2.668 2.048-2.668h34.62c.653.383 2.29 1.535 2.29 3.387v3.898h-38.957Zm432.415 213.488h-11.703V239.703c.012-.45.105-6.113-3.625-9.984-2.215-2.301-5.266-3.465-9.067-3.465H623.957v-17.516c.02-.574 0-3.543-2.414-6.14-2.45-2.641-6.441-3.98-11.86-3.98H409.599v-29.024a1.609 1.609 0 0 0-3.22 0v42.097h-38.96l.004-61.101h38.957v10.637a1.609 1.609 0 0 0 3.219 0v-17.75c0-4.391-4.262-6.375-4.442-6.457a1.644 1.644 0 0 0-.668-.145h-35.02c-3.296 0-4.843 3.387-5.23 5.383-.02.105-.031.207-.031.312l-.004 56.047h-62.781c-5.422 0-9.41 1.34-11.86 3.98-2.43 2.618-2.433 5.61-2.41 6.157v29.316h-53.515c-3.188 0-9.219 1.809-9.219 8.657v113.12c0 .044.004.087.008.126.203 2.613 2.094 7.558 7.781 7.558h54.945v30.137c0 .016-.004.031-.004.047 0 .015.004.031.004.047v23.504c-.023.543-.02 3.539 2.407 6.16 2.453 2.64 6.441 3.976 11.863 3.976h119.203c-.246 28.914-7.648 30.426-8 30.473h-6.84c-.887 0-1.605.719-1.605 1.61v9.343c0 .887.718 1.606 1.605 1.606H505.82c.89 0 1.61-.72 1.61-1.606v-9.344c0-.89-.72-1.609-1.61-1.609h-7.191c-.57-.102-7.75-2.031-7.988-30.473h62.757v66.649c-.003.304.047 3.34 2.27 5.578 1.82 1.832 4.504 3.113 7.973 3.113h17.664c.11.653.215 1.285.316 1.871.274 1.586.578 3.387.527 3.867-.191 1.735.606 10.278 1.942 24.141l.355 3.7c.106 1.12.313 2.316.508 3.468.277 1.617.735 4.293.399 5.004-2.067.926-3.457 4.809-4.254 7.848-1.453-.34-2.567-.516-3.082-.43-1.04.176-2.325.387-11.352 16.117-4.289 7.469-8.316 14.98-8.36 15.055a1.615 1.615 0 0 0 .66 2.18 1.606 1.606 0 0 0 2.177-.66c7.066-13.184 15.402-27.516 17.574-29.497.566.055 1.562.274 2.844.617.113.059.238.106.37.137.083.02.165.024.247.028 7.058 1.94 21.523 6.98 27.957 9.742.097.054.195.11.304.144.032.012.06.016.083.024 1.19.52 2.07.953 2.507 1.25.153 1.922-2.902 9.718-5.988 16.097a1.614 1.614 0 0 0 1.45 2.309 1.61 1.61 0 0 0 1.448-.91c.079-.164 1.934-4.008 3.618-8.192 3.433-8.507 2.875-10.273 2.082-11.265-.344-.426-1.293-.996-2.649-1.657.559-1.488 1.168-2.94 1.446-3.34 2.875-4.077 7.414-10.054 10.734-14.421 1.777-2.336 3.309-4.356 4.137-5.496 2.175-2.973 7.93-13.535 8.511-18.391.313-2.598.192-6.516.079-10.305-.082-2.742-.165-5.336-.079-7.23.032-.66.016-1.254-.035-1.805h40.239c.273 0 .52-.07.746-.191.488 2.11 1.289 4.097 2.328 6.652.945 2.324 2.125 5.219 3.468 9.215 2.899 8.61 8.606 13.148 12.016 15.86 4.098 3.257 8.352 5.995 12.465 8.648.75.484 1.492.96 2.223 1.433 1.945 1.266 4.011 3.973 5.113 5.536-.785.656-1.352 1.218-1.586 1.625-.727 1.246-1.48 2.535 11.629 18.675A637.92 637.92 0 0 0 739.05 589.2c.32.364.765.555 1.215.555a1.608 1.608 0 0 0 1.207-2.668c-10.953-12.563-22.489-26.934-23.657-30.219.309-.316.801-.726 1.426-1.21.051-.024.106-.04.156-.071.145-.09.258-.2.36-.32 5.726-4.258 20.336-13.036 25.101-14.996.118-.028.227-.07.328-.13.266-.097.5-.18.684-.222 3.8 2.71 28.871 30.95 44.152 48.539a1.607 1.607 0 1 0 2.426-2.11c-.105-.12-10.707-12.324-21.508-24.421-22.222-24.887-23.539-25.09-24.5-25.235-.242-.039-.691-.109-1.972.332-.649-.52-1.813-2.48-3.832-8.488-.39-1.168-.59-1.742-.739-2.039-.453-1.183-2.503-11.664-3.687-19.754h23.55c3.485 0 6.134-1.289 7.884-3.14 2.015-2.137 2.046-5.102 2.035-5.563v-75.371c0-5.492-4.832-6.781-8.082-6.781H623.957v-18.125c0-.016.004-.032.004-.047 0-.016-.004-.031-.004-.047v-24.516h165.906c5.7 0 10.801-4.316 11.016-4.496.355-.308.562-.754.562-1.222v-9.579c0-.89-.722-1.609-1.605-1.609"/></g><path fill="#fb653e" d="M760.082 260.441H621.594v-8.101h138.488Zm1.61-11.316H619.987c-.89 0-1.61.723-1.61 1.61v11.312c0 .887.72 1.61 1.61 1.61h141.703c.887 0 1.606-.723 1.606-1.61v-11.313c0-.886-.719-1.609-1.606-1.609M666.766 451.266h-8.844v-8.844h8.844Zm1.609-12.063h-12.063c-.886 0-1.609.723-1.609 1.61v12.062c0 .887.723 1.605 1.61 1.605h12.062c.887 0 1.605-.718 1.605-1.605v-12.063c0-.886-.718-1.609-1.605-1.609M746.363 442.422h9.649v8.844h-9.649Zm-3.215-1.61v12.063c0 .887.72 1.605 1.606 1.605h12.867c.887 0 1.606-.718 1.606-1.605v-12.063c0-.886-.72-1.609-1.606-1.609h-12.867c-.887 0-1.606.723-1.606 1.61M737.52 428.754h3.214v4.824h-3.214Zm-1.61 8.039h6.434c.89 0 1.61-.719 1.61-1.61v-8.038c0-.891-.72-1.61-1.61-1.61h-6.434c-.887 0-1.605.719-1.605 1.61v8.039c0 .89.718 1.609 1.605 1.609M750.383 428.754h4.02v4.824h-4.02Zm-1.606 8.039h7.235c.89 0 1.61-.719 1.61-1.61v-8.038c0-.891-.72-1.61-1.61-1.61h-7.235c-.89 0-1.609.719-1.609 1.61v8.039c0 .89.719 1.609 1.61 1.609M709.379 428.754h3.215v4.824h-3.215Zm-1.61 8.039h6.434a1.61 1.61 0 0 0 1.61-1.61v-8.038c0-.891-.723-1.61-1.61-1.61h-6.433c-.887 0-1.606.719-1.606 1.61v8.039c0 .89.719 1.609 1.606 1.609M648.273 472.168h-8.843v-9.645h8.843Zm1.606-12.863H637.82c-.89 0-1.61.718-1.61 1.61v12.862c0 .891.72 1.61 1.61 1.61h12.059c.89 0 1.61-.719 1.61-1.61v-12.863c0-.89-.72-1.61-1.61-1.61M723.047 428.754h3.215v4.824h-3.215Zm-1.61 8.039h6.434c.89 0 1.61-.719 1.61-1.61v-8.038c0-.891-.72-1.61-1.61-1.61h-6.433c-.887 0-1.606.719-1.606 1.61v8.039c0 .89.719 1.609 1.606 1.609M738.324 451.266h-9.648v-8.844h9.648Zm1.606-12.063h-12.864c-.886 0-1.605.723-1.605 1.61v12.062c0 .887.719 1.605 1.605 1.605h12.864c.89 0 1.61-.718 1.61-1.605v-12.063a1.61 1.61 0 0 0-1.61-1.609M694.906 428.754h5.63v4.824h-5.63Zm-1.61 8.039h8.845c.89 0 1.609-.719 1.609-1.61v-8.038c0-.891-.719-1.61-1.61-1.61h-8.843c-.887 0-1.606.719-1.606 1.61v8.039c0 .89.72 1.609 1.606 1.609M594.402 451.266h-8.039v-8.844h8.04Zm1.61-12.063h-11.258c-.887 0-1.61.723-1.61 1.61v12.062c0 .887.723 1.605 1.61 1.605h11.258c.886 0 1.605-.718 1.605-1.605v-12.063c0-.886-.719-1.609-1.605-1.609M576.715 492.27h-8.844v-9.649h8.844Zm1.605-12.864h-12.058c-.89 0-1.61.719-1.61 1.61v12.863c0 .887.72 1.61 1.61 1.61h12.058c.89 0 1.61-.723 1.61-1.61v-12.863c0-.891-.72-1.61-1.61-1.61M576.715 472.168h-8.844v-9.645h8.844Zm1.605-12.863h-12.058c-.89 0-1.61.718-1.61 1.61v12.862c0 .891.72 1.61 1.61 1.61h12.058c.89 0 1.61-.719 1.61-1.61v-12.863c0-.89-.72-1.61-1.61-1.61M612.09 451.266h-8.04v-8.844h8.04Zm1.61-12.063H602.44c-.886 0-1.605.723-1.605 1.61v12.062c0 .887.719 1.605 1.605 1.605H613.7c.89 0 1.61-.718 1.61-1.605v-12.063a1.61 1.61 0 0 0-1.61-1.609M755.207 487.445h-8.039v-3.215h8.039Zm1.61-6.43h-11.258c-.887 0-1.606.72-1.606 1.606v6.434c0 .886.719 1.61 1.606 1.61h11.257c.887 0 1.61-.724 1.61-1.61v-6.434c0-.887-.723-1.605-1.61-1.605M719.832 451.266h-8.043v-8.844h8.043Zm1.606-12.063h-11.254c-.891 0-1.61.723-1.61 1.61v12.062c0 .887.719 1.605 1.61 1.605h11.254c.89 0 1.609-.718 1.609-1.605v-12.063a1.61 1.61 0 0 0-1.61-1.609M665.96 428.754h4.825v4.824h-4.824Zm-1.608 8.039h8.043c.886 0 1.605-.719 1.605-1.61v-8.038c0-.891-.719-1.61-1.605-1.61h-8.043c-.887 0-1.606.719-1.606 1.61v8.039c0 .89.719 1.609 1.606 1.609M299.898 339.07h-36.027v-33.695h36.027Zm1.61-36.91h-39.242c-.891 0-1.61.719-1.61 1.606v36.91c0 .887.719 1.61 1.61 1.61h39.242c.887 0 1.61-.724 1.61-1.61v-36.91c0-.887-.723-1.606-1.61-1.606M299.898 294.945h-36.027v-32.422h36.027Zm1.61-35.636h-39.242c-.891 0-1.61.718-1.61 1.605v35.64c0 .887.719 1.606 1.61 1.606h39.242c.887 0 1.61-.719 1.61-1.605v-35.64c0-.888-.723-1.606-1.61-1.606M639.43 442.422h8.843v8.844h-8.843Zm-3.22-1.61v12.063c0 .887.72 1.605 1.61 1.605h12.059c.89 0 1.61-.718 1.61-1.605v-12.063a1.61 1.61 0 0 0-1.61-1.609H637.82c-.89 0-1.61.723-1.61 1.61M666.766 472.168h-8.844v-9.645h8.844Zm1.609-12.863h-12.063a1.61 1.61 0 0 0-1.609 1.61v12.862c0 .891.723 1.61 1.61 1.61h12.062c.887 0 1.605-.719 1.605-1.61v-12.863c0-.89-.718-1.61-1.605-1.61M252.594 339.07h-14.817v-50.879h14.817Zm1.61-54.093h-18.032c-.89 0-1.61.718-1.61 1.609v54.09c0 .887.72 1.61 1.61 1.61h18.031c.887 0 1.606-.724 1.606-1.61v-54.09c0-.89-.72-1.61-1.606-1.61M653.902 428.754h2.41v4.824h-2.41Zm-1.609 8.039h5.629c.887 0 1.605-.719 1.605-1.61v-8.038c0-.891-.718-1.61-1.605-1.61h-5.629c-.89 0-1.61.719-1.61 1.61v8.039c0 .89.72 1.609 1.61 1.609M252.594 277.336h-14.817v-14.813h14.817Zm1.61-18.027h-18.032c-.89 0-1.61.718-1.61 1.605v18.031c0 .89.72 1.61 1.61 1.61h18.031c.887 0 1.606-.72 1.606-1.61v-18.03c0-.888-.72-1.606-1.606-1.606M576.715 451.266h-8.844v-8.844h8.844Zm1.605-12.063h-12.058c-.89 0-1.61.723-1.61 1.61v12.062c0 .887.72 1.605 1.61 1.605h12.058c.89 0 1.61-.718 1.61-1.605v-12.063a1.61 1.61 0 0 0-1.61-1.609M502.516 277.809h25.726v100.078h-25.726Zm-1.606 103.296h28.942a1.61 1.61 0 0 0 1.609-1.609V276.2c0-.887-.723-1.605-1.61-1.605h-28.94c-.891 0-1.61.719-1.61 1.605v103.297c0 .89.719 1.61 1.61 1.61M680.434 428.754h4.02v4.824h-4.02Zm-1.61 8.039h7.239c.886 0 1.605-.719 1.605-1.61v-8.038c0-.891-.719-1.61-1.606-1.61h-7.238c-.886 0-1.605.719-1.605 1.61v8.039c0 .89.718 1.609 1.605 1.609M542.242 277.809h25.727v100.078h-25.727Zm-1.61 103.296h28.946c.89 0 1.61-.718 1.61-1.609V276.2c0-.887-.72-1.605-1.61-1.605h-28.945c-.887 0-1.61.719-1.61 1.605v103.297c0 .89.723 1.61 1.61 1.61M684.453 451.266h-8.844v-8.844h8.844Zm1.61-12.063H674c-.887 0-1.605.723-1.605 1.61v12.062c0 .887.718 1.605 1.605 1.605h12.063c.886 0 1.605-.718 1.605-1.605v-12.063c0-.886-.719-1.609-1.606-1.609M788.637 394.492c-3.703.328-6.14-.449-7.215-.914l-.43-4.894c1.266-.52 4.004-1.5 7.145-1.774 2.187-.195 4.027.684 5.984 1.606 1.52.718 3.078 1.457 4.785 1.632-1.62 1.57-5.414 3.922-10.27 4.344Zm-24.614 1.512-.609-6.93 14.274-1.25.609 6.93Zm-66.3 2.254c11.968-2.371 34.965-5.867 47.793-7.344h.004c6.71-.738 12.128-1.285 14.695-1.539l.601 6.895c-1.828.136-5.093.375-9.27.66l-1.546.058c-25.46.95-42.95 1.38-52.277 1.27Zm102.28-11.297c-1.394.117-2.835-.563-4.507-1.352-2.152-1.02-4.59-2.171-7.64-1.906-2.993.262-5.626 1.074-7.266 1.684a1.587 1.587 0 0 0-1.582-.906l-17.473 1.53h-.015c-.067.009-6.973.673-16.364 1.704v.004h-.008c-8.593.988-22.742 3.023-34.402 4.949-6.437 1.066-11.812 2.047-15.543 2.832-6.277 1.332-7.836 1.906-7.68 3.684.153 1.742 1.555 2.101 8.817 2.25 1.465.027 3.16.043 5.078.043 3.352 0 7.371-.047 12.023-.137 13.141-.262 28.454-.832 36.68-1.137l1.555-.058h.011c.012 0 .024 0 .04-.004 6.593-.45 10.96-.79 10.96-.79s0-.003.004-.003h.012l17.473-1.532a1.607 1.607 0 0 0 1.261-.812c1.313.41 3.141.785 5.473.785.633 0 1.305-.031 2.012-.094 7.406-.644 14.281-5.53 14.008-8.703-.098-1.133-1.04-2.207-2.926-2.031M150.29 314.969c0 3.043-1.177 3.71-1.43 3.824h-8.38c-.765 0-1.421.535-1.574 1.281l-.336 1.621-1.984-2.465a1.613 1.613 0 0 0-1.25-.593h-20.129c-3.27 0-3.457-3.465-3.46-4.157V299.81c0-4.09 1.558-5.282 2.437-5.34h31.41c4.457 0 4.695 4.086 4.695 4.906Zm.855-21.606c-1.395-1.402-3.258-2.113-5.551-2.113h-31.41c-.059 0-5.653.098-5.653 8.559v14.66c-.004.355.043 3.508 2.145 5.617 1.152 1.152 2.719 1.766 4.531 1.766h19.36l3.636 4.515a1.603 1.603 0 0 0 1.633.555 1.603 1.603 0 0 0 1.195-1.235l.758-3.68h7.274c.085 0 .167-.003.25-.019.171-.027 4.195-.73 4.195-7.02v-15.577c0-.149 0-3.649-2.363-6.028"/><path fill="#fb653e" d="M128.918 299.922c0-.887-.719-1.606-1.61-1.606h-8.976a1.606 1.606 0 1 0 0 3.215h8.977c.89 0 1.609-.719 1.609-1.61M146.188 304.262h-17.176a1.61 1.61 0 1 0 0 3.219h17.175a1.61 1.61 0 1 0 0-3.219M124.777 304.262h-6.445a1.61 1.61 0 0 0 0 3.218h6.445a1.61 1.61 0 1 0 0-3.219M274.89 402.328l-2.75-.64 4.223-18.07c.664.01 1.73.07 2.864.148Zm-11.949 11.602a1.76 1.76 0 0 0-.035.207s-2.031 20.636-2.543 25.91c-.035.039-.07.07-.105.11-1.258 1.593-2.508 2.37-3.711 2.273-1.762-.13-3.414-1.977-4.242-3.157 2.14-6.246 7.902-24.98 8.156-25.808.012-.035.023-.07.027-.11.469-2-.625-3.98-2.18-5.675l9.036 2.113c-2.098.84-3.934 2.133-4.403 4.137Zm-4.367-33.13a29.361 29.361 0 0 1 2.196-.105l-4.063 17.383-2.055-.48Zm8.922 1.27-4.101 17.57-3.551-.827 4.152-17.793c.098.027.207.054.293.085.664.25 1.848.602 3.207.965Zm-.969 18.301 4.094-17.531a63.94 63.94 0 0 0 2.5.512l-4.11 17.601Zm7.055 7.574-20.223-4.722.582-2.485 20.215 4.719Zm8.938-26.59a1.614 1.614 0 0 0-1.168-.656c-2.25-.183-5.067-.375-6.024-.265-1.027-.032-7.441-1.407-9.902-2.34-2.871-1.082-7.824-.442-8.38-.367a1.612 1.612 0 0 0-1.343 1.23l-4.547 19.477a.976.976 0 0 0-.027.21l-1.266 5.415c-.008.03-.004.058-.011.086-.008.058-.02.113-.024.168v.156a1 1 0 0 0 .012.152c.004.055.015.106.027.156.012.051.028.098.04.145.019.05.034.098.054.144.023.051.043.098.07.145.024.043.055.082.082.125a.934.934 0 0 0 .098.129c.031.035.066.07.101.11.04.034.079.07.118.1.043.036.09.067.136.098.028.016.047.036.075.051 3.054 1.715 7.062 5.004 6.726 6.758-.398 1.3-6.543 21.258-8.355 26.363a1.59 1.59 0 0 0 .125 1.336c.293.516 3 5.043 7.168 5.356.148.008.3.015.449.015 2.164 0 4.195-1.175 6.027-3.5.051-.062.09-.132.125-.199a1.58 1.58 0 0 0 .61-1.105c.398-4.114 2.402-24.457 2.582-26.266.53-1.703 5.402-2.894 8.78-3.102.114-.003.224-.027.333-.054.016-.004.027-.012.039-.016.117-.039.227-.09.332-.148.016-.008.031-.008.047-.02.02-.015.039-.035.062-.047.04-.03.086-.062.125-.097a3 3 0 0 0 .114-.106c.035-.039.07-.074.101-.113.031-.043.067-.086.094-.129.027-.043.05-.09.074-.133.024-.047.047-.094.067-.144a.666.666 0 0 0 .05-.149c.008-.027.02-.054.032-.082l1.308-5.617v-.004l5.13-21.953a1.606 1.606 0 0 0-.266-1.313M81.145 341.309c-.887 0-1.61-.723-1.61-1.61 0-.887.723-1.605 1.61-1.605.68 0 .906-.242 1.574-1.25.742-1.121 1.863-2.809 4.55-2.809a1.609 1.609 0 0 1 0 3.215c-.914 0-1.195.352-1.87 1.371-.708 1.07-1.778 2.688-4.254 2.688"/><path fill="#fb653e" d="M93.68 341.309c-2.473 0-3.543-1.618-4.254-2.688-.676-1.02-.953-1.371-1.867-1.371a1.606 1.606 0 1 1 0-3.215c2.683 0 3.804 1.688 4.55 2.809.668 1.008.895 1.25 1.57 1.25.887 0 1.606.719 1.606 1.605 0 .887-.719 1.61-1.605 1.61"/><path fill="#fb653e" d="M93.66 341.309a1.606 1.606 0 1 1 0-3.215c.68 0 .903-.242 1.57-1.25.747-1.121 1.868-2.809 4.551-2.809a1.606 1.606 0 1 1 0 3.215c-.914 0-1.191.352-1.867 1.371-.71 1.07-1.781 2.688-4.254 2.688"/><path fill="#fb653e" d="M106.195 341.309c-2.476 0-3.547-1.618-4.257-2.688-.672-1.02-.954-1.371-1.868-1.371-.886 0-1.61-.723-1.61-1.61 0-.886.724-1.605 1.61-1.605 2.684 0 3.809 1.688 4.551 2.809.668 1.008.895 1.25 1.574 1.25.887 0 1.61.719 1.61 1.605 0 .887-.723 1.61-1.61 1.61M831.285 285.398c-.676 0-.902-.238-1.566-1.25-.742-1.117-1.867-2.808-4.551-2.808-.05 0-.098.008-.148.015a.862.862 0 0 0-.145-.015c-2.684 0-3.809 1.691-4.55 2.808-.665 1.008-.891 1.247-1.56 1.25-.667-.003-.898-.242-1.558-1.25-.75-1.117-1.867-2.808-4.55-2.808a.908.908 0 0 0-.145.015.908.908 0 0 0-.145-.015c-2.687 0-3.812 1.691-4.55 2.808-.672 1.012-.899 1.25-1.575 1.25a1.606 1.606 0 1 0 0 3.215c2.473 0 3.543-1.617 4.254-2.687.672-1.02.953-1.371 1.871-1.371a.908.908 0 0 0 .145-.016.908.908 0 0 0 .144.016c.907 0 1.188.351 1.864 1.37.703 1.055 1.753 2.626 4.144 2.68.031 0 .063.008.094.008h.015c.036 0 .067-.008.098-.008 2.387-.054 3.442-1.625 4.14-2.68.677-1.019.95-1.37 1.864-1.37.05 0 .098-.008.145-.016.05.008.097.016.148.016.914 0 1.187.351 1.863 1.37.715 1.071 1.785 2.688 4.254 2.688.895 0 1.61-.718 1.61-1.61 0-.886-.715-1.605-1.61-1.605M77.031 260.172v-12.754l12.606 9.535a1.617 1.617 0 0 0 1.941 0l12.606-9.535v12.754ZM101 245.793l-10.395 7.86-10.386-7.86Zm6.398-1.648c-.003-.063-.011-.118-.02-.176-.007-.047-.007-.094-.023-.145-.007-.047-.027-.097-.043-.144-.019-.055-.035-.106-.054-.153-.02-.043-.047-.086-.07-.125a1.423 1.423 0 0 0-.09-.152c-.008-.012-.016-.023-.02-.035-.023-.031-.05-.047-.074-.078-.035-.04-.07-.082-.113-.121-.04-.04-.082-.07-.121-.102a.888.888 0 0 0-.125-.086 1.197 1.197 0 0 0-.141-.078c-.047-.023-.09-.047-.14-.063-.048-.019-.098-.03-.15-.046a.914.914 0 0 0-.148-.036c-.058-.011-.113-.011-.171-.015-.032-.004-.063-.016-.102-.016H75.426c-.035 0-.063.012-.094.012-.062.008-.125.008-.184.02a.78.78 0 0 0-.136.035.959.959 0 0 0-.16.047 2.62 2.62 0 0 0-.281.14.82.82 0 0 0-.118.086 1.051 1.051 0 0 0-.129.102c-.039.039-.074.082-.113.12-.02.032-.047.048-.07.079-.008.012-.012.023-.024.035-.035.047-.058.098-.09.152-.023.04-.047.082-.066.125-.02.047-.04.098-.055.153-.015.047-.035.097-.047.144-.011.051-.015.098-.02.145a.865.865 0 0 0-.019.176c0 .015-.004.027-.004.039v17.593c0 .891.72 1.61 1.61 1.61h30.367a1.61 1.61 0 0 0 1.61-1.61v-17.593c0-.012-.005-.024-.005-.04"/></svg>