<svg xmlns="http://www.w3.org/2000/svg" width="1080" height="1080" version="1.0" viewBox="0 0 810 810"><defs><clipPath id="d"><path d="M0 .977h75.75v75.75H0Zm0 0"/></clipPath><clipPath id="c"><path d="M0 0h76v77H0z"/></clipPath><clipPath id="g"><path d="M.79.977h75.75v75.75H.79Zm0 0"/></clipPath><clipPath id="f"><path d="M0 0h77v77H0z"/></clipPath><clipPath id="j"><path d="M.582.977h75.75v75.75H.582Zm0 0"/></clipPath><clipPath id="i"><path d="M0 0h77v77H0z"/></clipPath><clipPath id="m"><path d="M.371.977h75.75v75.75H.371Zm0 0"/></clipPath><clipPath id="l"><path d="M0 0h77v77H0z"/></clipPath><clipPath id="p"><path d="M.164.977h75.75v75.75H.164Zm0 0"/></clipPath><clipPath id="o"><path d="M0 0h77v77H0z"/></clipPath><clipPath id="s"><path d="M.953.977h75.75v75.75H.953Zm0 0"/></clipPath><clipPath id="r"><path d="M0 0h77v77H0z"/></clipPath><mask id="b"><g filter="url(#a)"><path fill-opacity=".4" d="M-81-81h972v972H-81z"/></g></mask><mask id="e"><g filter="url(#a)"><path fill-opacity=".4" d="M-81-81h972v972H-81z"/></g></mask><mask id="h"><g filter="url(#a)"><path fill-opacity=".4" d="M-81-81h972v972H-81z"/></g></mask><mask id="k"><g filter="url(#a)"><path fill-opacity=".4" d="M-81-81h972v972H-81z"/></g></mask><mask id="n"><g filter="url(#a)"><path fill-opacity=".4" d="M-81-81h972v972H-81z"/></g></mask><mask id="q"><g filter="url(#a)"><path fill-opacity=".4" d="M-81-81h972v972H-81z"/></g></mask><filter id="a" width="100%" height="100%" x="0%" y="0%"><feColorMatrix color-interpolation-filters="sRGB" values="0 0 0 0 1 0 0 0 0 1 0 0 0 0 1 0 0 0 1 0"/></filter></defs><g mask="url(#b)"><g clip-path="url(#c)" transform="translate(0 366)"><g clip-path="url(#d)"><path fill="#fcdbd2" d="M75.75 38.852c0 1.242-.063 2.476-.184 3.71a37.144 37.144 0 0 1-1.45 7.285 38.449 38.449 0 0 1-1.249 3.5 38.206 38.206 0 0 1-3.5 6.548 36.625 36.625 0 0 1-2.215 2.984 36.232 36.232 0 0 1-2.496 2.754 36.232 36.232 0 0 1-2.754 2.496 36.625 36.625 0 0 1-2.984 2.215 37.756 37.756 0 0 1-6.55 3.5 38.4 38.4 0 0 1-3.497 1.254 37.8 37.8 0 0 1-7.285 1.445 37.949 37.949 0 0 1-3.711.184c-1.242 0-2.477-.063-3.71-.184a37.8 37.8 0 0 1-7.286-1.445 38.4 38.4 0 0 1-6.86-2.844 38.623 38.623 0 0 1-3.187-1.91 36.625 36.625 0 0 1-2.984-2.215 36.232 36.232 0 0 1-2.754-2.496 36.232 36.232 0 0 1-2.496-2.754 36.625 36.625 0 0 1-2.215-2.984 38.206 38.206 0 0 1-3.5-6.547 38.449 38.449 0 0 1-2.156-7.106 37.8 37.8 0 0 1-.543-3.68A37.948 37.948 0 0 1 0 38.852c0-1.243.063-2.477.184-3.711a37.144 37.144 0 0 1 1.45-7.285 37.757 37.757 0 0 1 6.965-13.031 36.994 36.994 0 0 1 2.495-2.755 36.232 36.232 0 0 1 2.754-2.496A37.56 37.56 0 0 1 20.02 5.45a37.756 37.756 0 0 1 6.859-2.84 37.144 37.144 0 0 1 7.285-1.449 37.948 37.948 0 0 1 3.711-.183c1.242 0 2.477.062 3.71.183a37.144 37.144 0 0 1 7.285 1.45 37.756 37.756 0 0 1 13.031 6.965c.962.784 1.88 1.616 2.755 2.495.88.875 1.711 1.797 2.496 2.754.79.957 1.528 1.953 2.215 2.985a37.757 37.757 0 0 1 4.75 10.047 37.144 37.144 0 0 1 1.45 7.285c.12 1.234.183 2.468.183 3.71Zm0 0"/></g></g></g><g mask="url(#e)"><g clip-path="url(#f)" transform="translate(146 366)"><g clip-path="url(#g)"><path fill="#fcdbd2" d="M76.54 38.852c0 1.242-.06 2.476-.18 3.71a38.292 38.292 0 0 1-1.45 7.285 38.17 38.17 0 0 1-2.84 6.86 37.61 37.61 0 0 1-1.914 3.188 37.514 37.514 0 0 1-4.707 5.738 37.051 37.051 0 0 1-2.758 2.496 36.625 36.625 0 0 1-2.984 2.215 38.205 38.205 0 0 1-6.547 3.5c-1.144.476-2.312.89-3.5 1.254a37.545 37.545 0 0 1-7.281 1.445 38.028 38.028 0 0 1-3.715.184 38.009 38.009 0 0 1-10.992-1.63 38.058 38.058 0 0 1-6.86-2.843 38.623 38.623 0 0 1-3.187-1.91 37.79 37.79 0 0 1-8.238-7.465 38.545 38.545 0 0 1-2.215-2.984 38.623 38.623 0 0 1-1.91-3.188 39.357 39.357 0 0 1-1.59-3.36 38.448 38.448 0 0 1-1.25-3.5 38.292 38.292 0 0 1-1.45-7.285 37.948 37.948 0 0 1-.183-3.71 37.948 37.948 0 0 1 6.383-21.043 38.545 38.545 0 0 1 2.215-2.985A37.79 37.79 0 0 1 20.813 5.45a38.206 38.206 0 0 1 3.359-1.59 38.032 38.032 0 0 1 3.5-1.25 37.546 37.546 0 0 1 7.281-1.45 38.009 38.009 0 0 1 3.711-.182 38.028 38.028 0 0 1 7.39.726c1.216.242 2.419.543 3.606.906 1.188.36 2.356.778 3.5 1.25a38.206 38.206 0 0 1 6.547 3.5 37.56 37.56 0 0 1 2.984 2.215c.961.785 1.88 1.617 2.758 2.496a37.514 37.514 0 0 1 4.707 5.738 37.61 37.61 0 0 1 1.914 3.188 37.723 37.723 0 0 1 1.586 3.363 37.258 37.258 0 0 1 2.156 7.102c.243 1.219.426 2.445.547 3.68.121 1.234.18 2.468.18 3.71Zm0 0"/></g></g></g><g mask="url(#h)"><g clip-path="url(#i)" transform="translate(293 366)"><g clip-path="url(#j)"><path fill="#fcdbd2" d="M76.332 38.852c0 1.242-.062 2.476-.184 3.71a37.144 37.144 0 0 1-1.45 7.285 38.448 38.448 0 0 1-1.249 3.5 38.206 38.206 0 0 1-3.5 6.548 37.958 37.958 0 0 1-10.45 10.45 38.623 38.623 0 0 1-3.186 1.909 38.278 38.278 0 0 1-6.864 2.844 37.698 37.698 0 0 1-7.281 1.445 38.009 38.009 0 0 1-3.711.184 38.028 38.028 0 0 1-10.996-1.63 38.476 38.476 0 0 1-3.5-1.253 38.205 38.205 0 0 1-6.547-3.5 36.625 36.625 0 0 1-2.984-2.215 36.232 36.232 0 0 1-2.754-2.496 36.232 36.232 0 0 1-2.496-2.754 36.625 36.625 0 0 1-2.215-2.984 36.57 36.57 0 0 1-1.91-3.188 37.12 37.12 0 0 1-1.59-3.36 38.476 38.476 0 0 1-1.254-3.5 37.8 37.8 0 0 1-1.445-7.285 36.768 36.768 0 0 1-.184-3.71c0-1.243.059-2.477.184-3.711a37.8 37.8 0 0 1 1.445-7.286 38.4 38.4 0 0 1 2.844-6.859 36.57 36.57 0 0 1 1.91-3.187 36.625 36.625 0 0 1 2.215-2.985 36.994 36.994 0 0 1 2.496-2.754 36.232 36.232 0 0 1 2.754-2.496 37.56 37.56 0 0 1 6.172-4.125 38.206 38.206 0 0 1 3.359-1.59 38.448 38.448 0 0 1 7.105-2.156 38.028 38.028 0 0 1 7.39-.727A38.009 38.009 0 0 1 49.45 2.61c1.188.36 2.356.778 3.5 1.25a38.278 38.278 0 0 1 3.364 1.59A38.623 38.623 0 0 1 59.5 7.36a37.79 37.79 0 0 1 8.234 7.465 38.545 38.545 0 0 1 2.215 2.985 37.757 37.757 0 0 1 4.75 10.047 37.144 37.144 0 0 1 1.45 7.285c.12 1.234.183 2.468.183 3.71Zm0 0"/></g></g></g><g mask="url(#k)"><g clip-path="url(#l)" transform="translate(440 366)"><g clip-path="url(#m)"><path fill="#fcdbd2" d="M76.121 38.852c0 1.242-.058 2.476-.18 3.71a39.046 39.046 0 0 1-.546 3.68 38.292 38.292 0 0 1-.903 3.606 37.332 37.332 0 0 1-1.254 3.5 37.12 37.12 0 0 1-1.59 3.359 36.57 36.57 0 0 1-1.91 3.188 36.625 36.625 0 0 1-2.215 2.984 36.232 36.232 0 0 1-2.496 2.754 36.232 36.232 0 0 1-2.754 2.496 36.625 36.625 0 0 1-2.984 2.215 38.206 38.206 0 0 1-6.547 3.5c-1.148.476-2.312.89-3.5 1.254a37.72 37.72 0 0 1-7.281 1.445 38.028 38.028 0 0 1-3.715.184 38.009 38.009 0 0 1-10.992-1.63 38.058 38.058 0 0 1-10.05-4.753 37.789 37.789 0 0 1-8.234-7.465 38.545 38.545 0 0 1-2.216-2.984 38.206 38.206 0 0 1-3.5-6.547 38.448 38.448 0 0 1-1.25-3.5 38.292 38.292 0 0 1-1.45-7.285 37.948 37.948 0 0 1-.183-3.711 37.948 37.948 0 0 1 6.383-21.043 38.545 38.545 0 0 1 2.215-2.985A37.79 37.79 0 0 1 20.395 5.45a37.684 37.684 0 0 1 6.859-2.84 37.546 37.546 0 0 1 7.281-1.45 38.009 38.009 0 0 1 3.711-.182 38.028 38.028 0 0 1 7.39.726 38.448 38.448 0 0 1 7.105 2.156 38.206 38.206 0 0 1 6.548 3.5 37.56 37.56 0 0 1 2.984 2.215c.961.785 1.88 1.617 2.754 2.496.88.875 1.711 1.797 2.496 2.754.79.957 1.528 1.953 2.215 2.985a36.57 36.57 0 0 1 1.91 3.187 36.698 36.698 0 0 1 1.59 3.363 37.258 37.258 0 0 1 2.157 7.102c.242 1.219.421 2.445.546 3.68.121 1.234.18 2.468.18 3.71Zm0 0"/></g></g></g><g mask="url(#n)"><g clip-path="url(#o)" transform="translate(587 366)"><g clip-path="url(#p)"><path fill="#fcdbd2" d="M75.914 38.852a37.949 37.949 0 0 1-6.383 21.043 37.957 37.957 0 0 1-7.465 8.234c-.96.789-1.953 1.527-2.988 2.215a38.623 38.623 0 0 1-3.187 1.91 37.684 37.684 0 0 1-6.86 2.844 37.545 37.545 0 0 1-7.281 1.445 38.009 38.009 0 0 1-3.71.184 38.028 38.028 0 0 1-10.997-1.63 38.476 38.476 0 0 1-3.5-1.253 38.206 38.206 0 0 1-6.547-3.5 36.625 36.625 0 0 1-2.984-2.215 36.232 36.232 0 0 1-2.754-2.496 36.232 36.232 0 0 1-2.496-2.754 36.625 36.625 0 0 1-2.215-2.984 36.57 36.57 0 0 1-1.91-3.188 37.12 37.12 0 0 1-1.59-3.36 37.331 37.331 0 0 1-1.254-3.5 38.292 38.292 0 0 1-1.45-7.285 37.945 37.945 0 0 1-.179-3.71c0-1.243.059-2.477.18-3.711a38.292 38.292 0 0 1 1.45-7.285c.358-1.184.776-2.352 1.253-3.497a36.697 36.697 0 0 1 1.59-3.363 36.57 36.57 0 0 1 1.91-3.187 36.625 36.625 0 0 1 2.215-2.985 36.994 36.994 0 0 1 2.496-2.754 36.232 36.232 0 0 1 2.754-2.496 37.56 37.56 0 0 1 6.172-4.125 38.206 38.206 0 0 1 3.359-1.59 38.448 38.448 0 0 1 7.105-2.156 38.028 38.028 0 0 1 7.39-.727A38.009 38.009 0 0 1 49.032 2.61a37.684 37.684 0 0 1 6.86 2.84 38.623 38.623 0 0 1 3.187 1.91 37.624 37.624 0 0 1 5.742 4.711 38.795 38.795 0 0 1 2.496 2.754 38.545 38.545 0 0 1 2.215 2.985 38.623 38.623 0 0 1 1.91 3.187 38.878 38.878 0 0 1 1.59 3.363c.473 1.145.89 2.313 1.25 3.496a38.292 38.292 0 0 1 1.45 7.286c.12 1.234.183 2.468.183 3.71Zm0 0"/></g></g></g><g mask="url(#q)"><g clip-path="url(#r)" transform="translate(733 366)"><g clip-path="url(#s)"><path fill="#fcdbd2" d="M76.703 38.852c0 1.242-.058 2.476-.183 3.71a37.799 37.799 0 0 1-1.446 7.286 38.476 38.476 0 0 1-1.254 3.5 37.12 37.12 0 0 1-1.59 3.359 37.569 37.569 0 0 1-4.125 6.172 36.232 36.232 0 0 1-2.496 2.754 36.232 36.232 0 0 1-2.754 2.496 36.625 36.625 0 0 1-2.984 2.215 38.206 38.206 0 0 1-6.547 3.5c-1.148.476-2.312.89-3.5 1.254a37.8 37.8 0 0 1-7.285 1.445 37.949 37.949 0 0 1-3.71.184c-1.24 0-2.477-.063-3.712-.184a37.8 37.8 0 0 1-7.285-1.445 38.4 38.4 0 0 1-6.86-2.844 38.623 38.623 0 0 1-3.187-1.91 37.789 37.789 0 0 1-8.234-7.465 38.545 38.545 0 0 1-2.215-2.984 38.206 38.206 0 0 1-3.5-6.547 38.448 38.448 0 0 1-2.156-7.106 37.799 37.799 0 0 1-.543-3.68 37.948 37.948 0 0 1-.184-3.71c0-1.243.063-2.477.184-3.711a37.143 37.143 0 0 1 1.45-7.285A37.756 37.756 0 0 1 9.55 14.824a37.79 37.79 0 0 1 8.234-7.465 37.756 37.756 0 0 1 10.047-4.75 37.144 37.144 0 0 1 7.284-1.45 38.009 38.009 0 0 1 3.711-.183c1.242 0 2.477.062 3.711.183a37.144 37.144 0 0 1 7.285 1.45c1.188.359 2.352.777 3.5 1.25a38.206 38.206 0 0 1 6.547 3.5 37.56 37.56 0 0 1 2.984 2.214c.961.785 1.88 1.617 2.754 2.496.88.875 1.711 1.797 2.496 2.754.79.957 1.528 1.953 2.215 2.985a37.569 37.569 0 0 1 1.91 3.187 38.4 38.4 0 0 1 2.844 6.86 37.799 37.799 0 0 1 1.445 7.285c.126 1.234.184 2.468.184 3.71Zm0 0"/></g></g></g></svg>