<svg xmlns="http://www.w3.org/2000/svg" xmlns:xlink="http://www.w3.org/1999/xlink" width="1080" zoomAndPan="magnify" viewBox="0 0 810 809.999993" height="1080" preserveAspectRatio="xMidYMid meet" version="1.0"><defs><filter x="0%" y="0%" width="100%" height="100%" id="3eb9abd5b5"><feColorMatrix values="0 0 0 0 1 0 0 0 0 1 0 0 0 0 1 0 0 0 1 0" color-interpolation-filters="sRGB"/></filter><mask id="7da4697cea"><g filter="url(#3eb9abd5b5)"><rect x="-81" width="972" fill="#000000" y="-80.999999" height="971.999992" fill-opacity="0.4"/></g></mask><clipPath id="8af5fa335f"><path d="M 0 0.976562 L 75.75 0.976562 L 75.75 76.726562 L 0 76.726562 Z M 0 0.976562 " clip-rule="nonzero"/></clipPath><clipPath id="2b5adbab02"><rect x="0" width="76" y="0" height="77"/></clipPath><mask id="72f957b500"><g filter="url(#3eb9abd5b5)"><rect x="-81" width="972" fill="#000000" y="-80.999999" height="971.999992" fill-opacity="0.4"/></g></mask><clipPath id="1983ee8562"><path d="M 0.789062 0.976562 L 76.539062 0.976562 L 76.539062 76.726562 L 0.789062 76.726562 Z M 0.789062 0.976562 " clip-rule="nonzero"/></clipPath><clipPath id="9780aa44f6"><rect x="0" width="77" y="0" height="77"/></clipPath><mask id="da58a65c14"><g filter="url(#3eb9abd5b5)"><rect x="-81" width="972" fill="#000000" y="-80.999999" height="971.999992" fill-opacity="0.4"/></g></mask><clipPath id="1e60b27f53"><path d="M 0.582031 0.976562 L 76.332031 0.976562 L 76.332031 76.726562 L 0.582031 76.726562 Z M 0.582031 0.976562 " clip-rule="nonzero"/></clipPath><clipPath id="b77c8961b5"><rect x="0" width="77" y="0" height="77"/></clipPath><mask id="836e3634c5"><g filter="url(#3eb9abd5b5)"><rect x="-81" width="972" fill="#000000" y="-80.999999" height="971.999992" fill-opacity="0.4"/></g></mask><clipPath id="07d0c160b8"><path d="M 0.371094 0.976562 L 76.121094 0.976562 L 76.121094 76.726562 L 0.371094 76.726562 Z M 0.371094 0.976562 " clip-rule="nonzero"/></clipPath><clipPath id="2ffef4b04a"><rect x="0" width="77" y="0" height="77"/></clipPath><mask id="66aeb9a46f"><g filter="url(#3eb9abd5b5)"><rect x="-81" width="972" fill="#000000" y="-80.999999" height="971.999992" fill-opacity="0.4"/></g></mask><clipPath id="cfcf17fee4"><path d="M 0.164062 0.976562 L 75.914062 0.976562 L 75.914062 76.726562 L 0.164062 76.726562 Z M 0.164062 0.976562 " clip-rule="nonzero"/></clipPath><clipPath id="c23a31d621"><rect x="0" width="77" y="0" height="77"/></clipPath><mask id="857956d22c"><g filter="url(#3eb9abd5b5)"><rect x="-81" width="972" fill="#000000" y="-80.999999" height="971.999992" fill-opacity="0.4"/></g></mask><clipPath id="e281c1bd10"><path d="M 0.953125 0.976562 L 76.703125 0.976562 L 76.703125 76.726562 L 0.953125 76.726562 Z M 0.953125 0.976562 " clip-rule="nonzero"/></clipPath><clipPath id="62bd6c9400"><rect x="0" width="77" y="0" height="77"/></clipPath></defs><g mask="url(#7da4697cea)"><g transform="matrix(1, 0, 0, 1, 0, 366)"><g clip-path="url(#2b5adbab02)"><g clip-path="url(#8af5fa335f)"><path fill="#fcdbd2" d="M 75.75 38.851562 C 75.75 40.09375 75.6875 41.328125 75.566406 42.5625 C 75.445312 43.796875 75.265625 45.023438 75.023438 46.242188 C 74.78125 47.457031 74.480469 48.660156 74.117188 49.847656 C 73.757812 51.035156 73.339844 52.199219 72.867188 53.347656 C 72.390625 54.492188 71.863281 55.613281 71.277344 56.707031 C 70.691406 57.800781 70.054688 58.863281 69.367188 59.894531 C 68.679688 60.925781 67.941406 61.921875 67.152344 62.878906 C 66.367188 63.839844 65.535156 64.757812 64.65625 65.632812 C 63.78125 66.511719 62.863281 67.34375 61.902344 68.128906 C 60.945312 68.917969 59.949219 69.65625 58.917969 70.34375 C 57.886719 71.03125 56.824219 71.667969 55.730469 72.253906 C 54.636719 72.839844 53.515625 73.367188 52.367188 73.84375 C 51.222656 74.320312 50.054688 74.734375 48.871094 75.097656 C 47.683594 75.457031 46.480469 75.757812 45.265625 76 C 44.046875 76.242188 42.820312 76.421875 41.585938 76.542969 C 40.351562 76.664062 39.117188 76.726562 37.875 76.726562 C 36.632812 76.726562 35.398438 76.664062 34.164062 76.542969 C 32.929688 76.421875 31.703125 76.242188 30.484375 76 C 29.269531 75.757812 28.066406 75.457031 26.878906 75.097656 C 25.695312 74.734375 24.527344 74.320312 23.382812 73.84375 C 22.234375 73.367188 21.113281 72.839844 20.019531 72.253906 C 18.925781 71.667969 17.863281 71.03125 16.832031 70.34375 C 15.800781 69.65625 14.804688 68.917969 13.847656 68.128906 C 12.886719 67.34375 11.96875 66.511719 11.09375 65.632812 C 10.214844 64.757812 9.382812 63.839844 8.597656 62.878906 C 7.808594 61.921875 7.070312 60.925781 6.382812 59.894531 C 5.695312 58.863281 5.058594 57.800781 4.472656 56.707031 C 3.886719 55.613281 3.359375 54.492188 2.882812 53.347656 C 2.410156 52.199219 1.992188 51.035156 1.632812 49.847656 C 1.269531 48.660156 0.96875 47.457031 0.726562 46.242188 C 0.484375 45.023438 0.304688 43.796875 0.183594 42.5625 C 0.0625 41.328125 0 40.09375 0 38.851562 C 0 37.609375 0.0625 36.375 0.183594 35.140625 C 0.304688 33.90625 0.484375 32.679688 0.726562 31.460938 C 0.96875 30.246094 1.269531 29.042969 1.632812 27.855469 C 1.992188 26.671875 2.410156 25.503906 2.882812 24.359375 C 3.359375 23.210938 3.886719 22.089844 4.472656 20.996094 C 5.058594 19.902344 5.695312 18.839844 6.382812 17.808594 C 7.070312 16.777344 7.808594 15.78125 8.597656 14.824219 C 9.382812 13.867188 10.214844 12.945312 11.09375 12.070312 C 11.96875 11.191406 12.886719 10.359375 13.847656 9.574219 C 14.804688 8.785156 15.800781 8.050781 16.832031 7.359375 C 17.863281 6.671875 18.925781 6.035156 20.019531 5.449219 C 21.113281 4.863281 22.234375 4.335938 23.382812 3.859375 C 24.527344 3.386719 25.695312 2.96875 26.878906 2.609375 C 28.066406 2.246094 29.269531 1.945312 30.484375 1.703125 C 31.703125 1.460938 32.929688 1.28125 34.164062 1.160156 C 35.398438 1.039062 36.632812 0.976562 37.875 0.976562 C 39.117188 0.976562 40.351562 1.039062 41.585938 1.160156 C 42.820312 1.28125 44.046875 1.460938 45.265625 1.703125 C 46.480469 1.945312 47.683594 2.246094 48.871094 2.609375 C 50.054688 2.96875 51.222656 3.386719 52.367188 3.859375 C 53.515625 4.335938 54.636719 4.863281 55.730469 5.449219 C 56.824219 6.035156 57.886719 6.671875 58.917969 7.359375 C 59.949219 8.050781 60.945312 8.785156 61.902344 9.574219 C 62.863281 10.359375 63.78125 11.191406 64.65625 12.070312 C 65.535156 12.945312 66.367188 13.867188 67.152344 14.824219 C 67.941406 15.78125 68.679688 16.777344 69.367188 17.808594 C 70.054688 18.839844 70.691406 19.902344 71.277344 20.996094 C 71.863281 22.089844 72.390625 23.210938 72.867188 24.359375 C 73.339844 25.503906 73.757812 26.671875 74.117188 27.855469 C 74.480469 29.042969 74.78125 30.246094 75.023438 31.460938 C 75.265625 32.679688 75.445312 33.90625 75.566406 35.140625 C 75.6875 36.375 75.75 37.609375 75.75 38.851562 Z M 75.75 38.851562 " fill-opacity="1" fill-rule="nonzero"/></g></g></g></g><g mask="url(#72f957b500)"><g transform="matrix(1, 0, 0, 1, 146, 366)"><g clip-path="url(#9780aa44f6)"><g clip-path="url(#1983ee8562)"><path fill="#fcdbd2" d="M 76.539062 38.851562 C 76.539062 40.09375 76.480469 41.328125 76.359375 42.5625 C 76.238281 43.796875 76.054688 45.023438 75.8125 46.242188 C 75.570312 47.457031 75.269531 48.660156 74.910156 49.847656 C 74.550781 51.035156 74.132812 52.199219 73.65625 53.347656 C 73.183594 54.492188 72.652344 55.613281 72.070312 56.707031 C 71.484375 57.800781 70.847656 58.863281 70.15625 59.894531 C 69.46875 60.925781 68.730469 61.921875 67.945312 62.878906 C 67.15625 63.839844 66.324219 64.757812 65.449219 65.632812 C 64.570312 66.511719 63.652344 67.34375 62.691406 68.128906 C 61.734375 68.917969 60.738281 69.65625 59.707031 70.34375 C 58.675781 71.03125 57.613281 71.667969 56.519531 72.253906 C 55.425781 72.839844 54.304688 73.367188 53.160156 73.84375 C 52.015625 74.320312 50.847656 74.734375 49.660156 75.097656 C 48.472656 75.457031 47.269531 75.757812 46.054688 76 C 44.839844 76.242188 43.613281 76.421875 42.378906 76.542969 C 41.144531 76.664062 39.90625 76.726562 38.664062 76.726562 C 37.425781 76.726562 36.1875 76.664062 34.953125 76.542969 C 33.71875 76.421875 32.492188 76.242188 31.277344 76 C 30.058594 75.757812 28.859375 75.457031 27.671875 75.097656 C 26.484375 74.734375 25.316406 74.320312 24.171875 73.84375 C 23.027344 73.367188 21.90625 72.839844 20.8125 72.253906 C 19.71875 71.667969 18.65625 71.03125 17.625 70.34375 C 16.59375 69.65625 15.597656 68.917969 14.636719 68.128906 C 13.679688 67.34375 12.761719 66.511719 11.882812 65.632812 C 11.007812 64.757812 10.175781 63.839844 9.386719 62.878906 C 8.601562 61.921875 7.863281 60.925781 7.171875 59.894531 C 6.484375 58.863281 5.847656 57.800781 5.261719 56.707031 C 4.679688 55.613281 4.148438 54.492188 3.671875 53.347656 C 3.199219 52.199219 2.78125 51.035156 2.421875 49.847656 C 2.0625 48.660156 1.761719 47.457031 1.519531 46.242188 C 1.277344 45.023438 1.09375 43.796875 0.972656 42.5625 C 0.851562 41.328125 0.789062 40.09375 0.789062 38.851562 C 0.789062 37.609375 0.851562 36.375 0.972656 35.140625 C 1.09375 33.90625 1.277344 32.679688 1.519531 31.460938 C 1.761719 30.246094 2.0625 29.042969 2.421875 27.855469 C 2.78125 26.671875 3.199219 25.503906 3.671875 24.359375 C 4.148438 23.210938 4.679688 22.089844 5.261719 20.996094 C 5.847656 19.902344 6.484375 18.839844 7.171875 17.808594 C 7.863281 16.777344 8.601562 15.78125 9.386719 14.824219 C 10.175781 13.867188 11.007812 12.945312 11.882812 12.070312 C 12.761719 11.191406 13.679688 10.359375 14.636719 9.574219 C 15.597656 8.785156 16.59375 8.050781 17.625 7.359375 C 18.65625 6.671875 19.71875 6.035156 20.8125 5.449219 C 21.90625 4.863281 23.027344 4.335938 24.171875 3.859375 C 25.316406 3.386719 26.484375 2.96875 27.671875 2.609375 C 28.859375 2.246094 30.058594 1.945312 31.277344 1.703125 C 32.492188 1.460938 33.71875 1.28125 34.953125 1.160156 C 36.1875 1.039062 37.425781 0.976562 38.664062 0.976562 C 39.90625 0.976562 41.144531 1.039062 42.378906 1.160156 C 43.613281 1.28125 44.839844 1.460938 46.054688 1.703125 C 47.269531 1.945312 48.472656 2.246094 49.660156 2.609375 C 50.847656 2.96875 52.015625 3.386719 53.160156 3.859375 C 54.304688 4.335938 55.425781 4.863281 56.519531 5.449219 C 57.613281 6.035156 58.675781 6.671875 59.707031 7.359375 C 60.738281 8.050781 61.734375 8.785156 62.691406 9.574219 C 63.652344 10.359375 64.570312 11.191406 65.449219 12.070312 C 66.324219 12.945312 67.15625 13.867188 67.945312 14.824219 C 68.730469 15.78125 69.46875 16.777344 70.15625 17.808594 C 70.847656 18.839844 71.484375 19.902344 72.070312 20.996094 C 72.652344 22.089844 73.183594 23.210938 73.65625 24.359375 C 74.132812 25.503906 74.550781 26.671875 74.910156 27.855469 C 75.269531 29.042969 75.570312 30.246094 75.8125 31.460938 C 76.054688 32.679688 76.238281 33.90625 76.359375 35.140625 C 76.480469 36.375 76.539062 37.609375 76.539062 38.851562 Z M 76.539062 38.851562 " fill-opacity="1" fill-rule="nonzero"/></g></g></g></g><g mask="url(#da58a65c14)"><g transform="matrix(1, 0, 0, 1, 293, 366)"><g clip-path="url(#b77c8961b5)"><g clip-path="url(#1e60b27f53)"><path fill="#fcdbd2" d="M 76.332031 38.851562 C 76.332031 40.09375 76.269531 41.328125 76.148438 42.5625 C 76.027344 43.796875 75.84375 45.023438 75.605469 46.242188 C 75.363281 47.457031 75.0625 48.660156 74.699219 49.847656 C 74.339844 51.035156 73.921875 52.199219 73.449219 53.347656 C 72.972656 54.492188 72.445312 55.613281 71.859375 56.707031 C 71.273438 57.800781 70.636719 58.863281 69.949219 59.894531 C 69.257812 60.925781 68.519531 61.921875 67.734375 62.878906 C 66.945312 63.839844 66.113281 64.757812 65.238281 65.632812 C 64.359375 66.511719 63.441406 67.34375 62.484375 68.128906 C 61.523438 68.917969 60.53125 69.65625 59.5 70.34375 C 58.46875 71.03125 57.40625 71.667969 56.3125 72.253906 C 55.214844 72.839844 54.097656 73.367188 52.949219 73.84375 C 51.804688 74.320312 50.636719 74.734375 49.449219 75.097656 C 48.265625 75.457031 47.0625 75.757812 45.84375 76 C 44.628906 76.242188 43.402344 76.421875 42.167969 76.542969 C 40.933594 76.664062 39.695312 76.726562 38.457031 76.726562 C 37.214844 76.726562 35.976562 76.664062 34.742188 76.542969 C 33.507812 76.421875 32.285156 76.242188 31.066406 76 C 29.851562 75.757812 28.648438 75.457031 27.460938 75.097656 C 26.273438 74.734375 25.109375 74.320312 23.960938 73.84375 C 22.816406 73.367188 21.695312 72.839844 20.601562 72.253906 C 19.507812 71.667969 18.445312 71.03125 17.414062 70.34375 C 16.382812 69.65625 15.386719 68.917969 14.429688 68.128906 C 13.46875 67.34375 12.550781 66.511719 11.675781 65.632812 C 10.796875 64.757812 9.964844 63.839844 9.179688 62.878906 C 8.390625 61.921875 7.652344 60.925781 6.964844 59.894531 C 6.273438 58.863281 5.636719 57.800781 5.054688 56.707031 C 4.46875 55.613281 3.9375 54.492188 3.464844 53.347656 C 2.988281 52.199219 2.574219 51.035156 2.210938 49.847656 C 1.851562 48.660156 1.550781 47.457031 1.308594 46.242188 C 1.066406 45.023438 0.886719 43.796875 0.765625 42.5625 C 0.640625 41.328125 0.582031 40.09375 0.582031 38.851562 C 0.582031 37.609375 0.640625 36.375 0.765625 35.140625 C 0.886719 33.90625 1.066406 32.679688 1.308594 31.460938 C 1.550781 30.246094 1.851562 29.042969 2.210938 27.855469 C 2.574219 26.671875 2.988281 25.503906 3.464844 24.359375 C 3.9375 23.210938 4.46875 22.089844 5.054688 20.996094 C 5.636719 19.902344 6.273438 18.839844 6.964844 17.808594 C 7.652344 16.777344 8.390625 15.78125 9.179688 14.824219 C 9.964844 13.867188 10.796875 12.945312 11.675781 12.070312 C 12.550781 11.191406 13.46875 10.359375 14.429688 9.574219 C 15.386719 8.785156 16.382812 8.050781 17.414062 7.359375 C 18.445312 6.671875 19.507812 6.035156 20.601562 5.449219 C 21.695312 4.863281 22.816406 4.335938 23.960938 3.859375 C 25.109375 3.386719 26.273438 2.96875 27.460938 2.609375 C 28.648438 2.246094 29.851562 1.945312 31.066406 1.703125 C 32.285156 1.460938 33.507812 1.28125 34.742188 1.160156 C 35.976562 1.039062 37.214844 0.976562 38.457031 0.976562 C 39.695312 0.976562 40.933594 1.039062 42.167969 1.160156 C 43.402344 1.28125 44.628906 1.460938 45.84375 1.703125 C 47.0625 1.945312 48.265625 2.246094 49.449219 2.609375 C 50.636719 2.96875 51.804688 3.386719 52.949219 3.859375 C 54.097656 4.335938 55.214844 4.863281 56.3125 5.449219 C 57.40625 6.035156 58.46875 6.671875 59.5 7.359375 C 60.53125 8.050781 61.523438 8.785156 62.484375 9.574219 C 63.441406 10.359375 64.359375 11.191406 65.238281 12.070312 C 66.113281 12.945312 66.945312 13.867188 67.734375 14.824219 C 68.519531 15.78125 69.257812 16.777344 69.949219 17.808594 C 70.636719 18.839844 71.273438 19.902344 71.859375 20.996094 C 72.445312 22.089844 72.972656 23.210938 73.449219 24.359375 C 73.921875 25.503906 74.339844 26.671875 74.699219 27.855469 C 75.0625 29.042969 75.363281 30.246094 75.605469 31.460938 C 75.84375 32.679688 76.027344 33.90625 76.148438 35.140625 C 76.269531 36.375 76.332031 37.609375 76.332031 38.851562 Z M 76.332031 38.851562 " fill-opacity="1" fill-rule="nonzero"/></g></g></g></g><g mask="url(#836e3634c5)"><g transform="matrix(1, 0, 0, 1, 440, 366)"><g clip-path="url(#2ffef4b04a)"><g clip-path="url(#07d0c160b8)"><path fill="#fcdbd2" d="M 76.121094 38.851562 C 76.121094 40.09375 76.0625 41.328125 75.941406 42.5625 C 75.816406 43.796875 75.636719 45.023438 75.394531 46.242188 C 75.152344 47.457031 74.851562 48.660156 74.492188 49.847656 C 74.132812 51.035156 73.714844 52.199219 73.238281 53.347656 C 72.765625 54.492188 72.234375 55.613281 71.648438 56.707031 C 71.066406 57.800781 70.429688 58.863281 69.738281 59.894531 C 69.050781 60.925781 68.3125 61.921875 67.523438 62.878906 C 66.738281 63.839844 65.90625 64.757812 65.027344 65.632812 C 64.152344 66.511719 63.234375 67.34375 62.273438 68.128906 C 61.316406 68.917969 60.320312 69.65625 59.289062 70.34375 C 58.257812 71.03125 57.195312 71.667969 56.101562 72.253906 C 55.007812 72.839844 53.886719 73.367188 52.742188 73.84375 C 51.59375 74.320312 50.429688 74.734375 49.242188 75.097656 C 48.054688 75.457031 46.851562 75.757812 45.636719 76 C 44.417969 76.242188 43.195312 76.421875 41.960938 76.542969 C 40.726562 76.664062 39.488281 76.726562 38.246094 76.726562 C 37.007812 76.726562 35.769531 76.664062 34.535156 76.542969 C 33.300781 76.421875 32.074219 76.242188 30.859375 76 C 29.640625 75.757812 28.441406 75.457031 27.253906 75.097656 C 26.066406 74.734375 24.898438 74.320312 23.753906 73.84375 C 22.605469 73.367188 21.488281 72.839844 20.394531 72.253906 C 19.300781 71.667969 18.234375 71.03125 17.203125 70.34375 C 16.171875 69.65625 15.179688 68.917969 14.21875 68.128906 C 13.261719 67.34375 12.34375 66.511719 11.464844 65.632812 C 10.589844 64.757812 9.757812 63.839844 8.96875 62.878906 C 8.183594 61.921875 7.445312 60.925781 6.753906 59.894531 C 6.066406 58.863281 5.429688 57.800781 4.84375 56.707031 C 4.257812 55.613281 3.730469 54.492188 3.253906 53.347656 C 2.78125 52.199219 2.363281 51.035156 2.003906 49.847656 C 1.644531 48.660156 1.34375 47.457031 1.101562 46.242188 C 0.859375 45.023438 0.675781 43.796875 0.554688 42.5625 C 0.433594 41.328125 0.371094 40.09375 0.371094 38.851562 C 0.371094 37.609375 0.433594 36.375 0.554688 35.140625 C 0.675781 33.90625 0.859375 32.679688 1.101562 31.460938 C 1.34375 30.246094 1.644531 29.042969 2.003906 27.855469 C 2.363281 26.671875 2.78125 25.503906 3.253906 24.359375 C 3.730469 23.210938 4.257812 22.089844 4.84375 20.996094 C 5.429688 19.902344 6.066406 18.839844 6.753906 17.808594 C 7.445312 16.777344 8.183594 15.78125 8.96875 14.824219 C 9.757812 13.867188 10.589844 12.945312 11.464844 12.070312 C 12.34375 11.191406 13.261719 10.359375 14.21875 9.574219 C 15.179688 8.785156 16.171875 8.050781 17.203125 7.359375 C 18.234375 6.671875 19.300781 6.035156 20.394531 5.449219 C 21.488281 4.863281 22.605469 4.335938 23.753906 3.859375 C 24.898438 3.386719 26.066406 2.96875 27.253906 2.609375 C 28.441406 2.246094 29.640625 1.945312 30.859375 1.703125 C 32.074219 1.460938 33.300781 1.28125 34.535156 1.160156 C 35.769531 1.039062 37.007812 0.976562 38.246094 0.976562 C 39.488281 0.976562 40.726562 1.039062 41.960938 1.160156 C 43.195312 1.28125 44.417969 1.460938 45.636719 1.703125 C 46.851562 1.945312 48.054688 2.246094 49.242188 2.609375 C 50.429688 2.96875 51.59375 3.386719 52.742188 3.859375 C 53.886719 4.335938 55.007812 4.863281 56.101562 5.449219 C 57.195312 6.035156 58.257812 6.671875 59.289062 7.359375 C 60.320312 8.050781 61.316406 8.785156 62.273438 9.574219 C 63.234375 10.359375 64.152344 11.191406 65.027344 12.070312 C 65.90625 12.945312 66.738281 13.867188 67.523438 14.824219 C 68.3125 15.78125 69.050781 16.777344 69.738281 17.808594 C 70.429688 18.839844 71.066406 19.902344 71.648438 20.996094 C 72.234375 22.089844 72.765625 23.210938 73.238281 24.359375 C 73.714844 25.503906 74.132812 26.671875 74.492188 27.855469 C 74.851562 29.042969 75.152344 30.246094 75.394531 31.460938 C 75.636719 32.679688 75.816406 33.90625 75.941406 35.140625 C 76.0625 36.375 76.121094 37.609375 76.121094 38.851562 Z M 76.121094 38.851562 " fill-opacity="1" fill-rule="nonzero"/></g></g></g></g><g mask="url(#66aeb9a46f)"><g transform="matrix(1, 0, 0, 1, 587, 366)"><g clip-path="url(#c23a31d621)"><g clip-path="url(#cfcf17fee4)"><path fill="#fcdbd2" d="M 75.914062 38.851562 C 75.914062 40.09375 75.851562 41.328125 75.730469 42.5625 C 75.609375 43.796875 75.425781 45.023438 75.183594 46.242188 C 74.941406 47.457031 74.640625 48.660156 74.28125 49.847656 C 73.921875 51.035156 73.503906 52.199219 73.03125 53.347656 C 72.554688 54.492188 72.023438 55.613281 71.441406 56.707031 C 70.855469 57.800781 70.21875 58.863281 69.53125 59.894531 C 68.839844 60.925781 68.101562 61.921875 67.316406 62.878906 C 66.527344 63.839844 65.695312 64.757812 64.820312 65.632812 C 63.941406 66.511719 63.023438 67.34375 62.066406 68.128906 C 61.105469 68.917969 60.113281 69.65625 59.078125 70.34375 C 58.046875 71.03125 56.984375 71.667969 55.890625 72.253906 C 54.796875 72.839844 53.679688 73.367188 52.53125 73.84375 C 51.386719 74.320312 50.21875 74.734375 49.03125 75.097656 C 47.84375 75.457031 46.644531 75.757812 45.425781 76 C 44.210938 76.242188 42.984375 76.421875 41.75 76.542969 C 40.515625 76.664062 39.277344 76.726562 38.039062 76.726562 C 36.796875 76.726562 35.558594 76.664062 34.324219 76.542969 C 33.089844 76.421875 31.867188 76.242188 30.648438 76 C 29.433594 75.757812 28.230469 75.457031 27.042969 75.097656 C 25.855469 74.734375 24.691406 74.320312 23.542969 73.84375 C 22.398438 73.367188 21.277344 72.839844 20.183594 72.253906 C 19.089844 71.667969 18.027344 71.03125 16.996094 70.34375 C 15.964844 69.65625 14.96875 68.917969 14.011719 68.128906 C 13.050781 67.34375 12.132812 66.511719 11.257812 65.632812 C 10.378906 64.757812 9.546875 63.839844 8.761719 62.878906 C 7.972656 61.921875 7.234375 60.925781 6.546875 59.894531 C 5.855469 58.863281 5.21875 57.800781 4.636719 56.707031 C 4.050781 55.613281 3.519531 54.492188 3.046875 53.347656 C 2.570312 52.199219 2.152344 51.035156 1.792969 49.847656 C 1.433594 48.660156 1.132812 47.457031 0.890625 46.242188 C 0.648438 45.023438 0.464844 43.796875 0.34375 42.5625 C 0.222656 41.328125 0.164062 40.09375 0.164062 38.851562 C 0.164062 37.609375 0.222656 36.375 0.34375 35.140625 C 0.464844 33.90625 0.648438 32.679688 0.890625 31.460938 C 1.132812 30.246094 1.433594 29.042969 1.792969 27.855469 C 2.152344 26.671875 2.570312 25.503906 3.046875 24.359375 C 3.519531 23.210938 4.050781 22.089844 4.636719 20.996094 C 5.21875 19.902344 5.855469 18.839844 6.546875 17.808594 C 7.234375 16.777344 7.972656 15.78125 8.761719 14.824219 C 9.546875 13.867188 10.378906 12.945312 11.257812 12.070312 C 12.132812 11.191406 13.050781 10.359375 14.011719 9.574219 C 14.96875 8.785156 15.964844 8.050781 16.996094 7.359375 C 18.027344 6.671875 19.089844 6.035156 20.183594 5.449219 C 21.277344 4.863281 22.398438 4.335938 23.542969 3.859375 C 24.691406 3.386719 25.855469 2.96875 27.042969 2.609375 C 28.230469 2.246094 29.433594 1.945312 30.648438 1.703125 C 31.867188 1.460938 33.089844 1.28125 34.324219 1.160156 C 35.558594 1.039062 36.796875 0.976562 38.039062 0.976562 C 39.277344 0.976562 40.515625 1.039062 41.75 1.160156 C 42.984375 1.28125 44.210938 1.460938 45.425781 1.703125 C 46.644531 1.945312 47.84375 2.246094 49.03125 2.609375 C 50.21875 2.96875 51.386719 3.386719 52.53125 3.859375 C 53.679688 4.335938 54.796875 4.863281 55.890625 5.449219 C 56.984375 6.035156 58.046875 6.671875 59.078125 7.359375 C 60.113281 8.050781 61.105469 8.785156 62.066406 9.574219 C 63.023438 10.359375 63.941406 11.191406 64.820312 12.070312 C 65.695312 12.945312 66.527344 13.867188 67.316406 14.824219 C 68.101562 15.78125 68.839844 16.777344 69.53125 17.808594 C 70.21875 18.839844 70.855469 19.902344 71.441406 20.996094 C 72.023438 22.089844 72.554688 23.210938 73.03125 24.359375 C 73.503906 25.503906 73.921875 26.671875 74.28125 27.855469 C 74.640625 29.042969 74.941406 30.246094 75.183594 31.460938 C 75.425781 32.679688 75.609375 33.90625 75.730469 35.140625 C 75.851562 36.375 75.914062 37.609375 75.914062 38.851562 Z M 75.914062 38.851562 " fill-opacity="1" fill-rule="nonzero"/></g></g></g></g><g mask="url(#857956d22c)"><g transform="matrix(1, 0, 0, 1, 733, 366)"><g clip-path="url(#62bd6c9400)"><g clip-path="url(#e281c1bd10)"><path fill="#fcdbd2" d="M 76.703125 38.851562 C 76.703125 40.09375 76.644531 41.328125 76.519531 42.5625 C 76.398438 43.796875 76.21875 45.023438 75.976562 46.242188 C 75.734375 47.457031 75.433594 48.660156 75.074219 49.847656 C 74.710938 51.035156 74.296875 52.199219 73.820312 53.347656 C 73.347656 54.492188 72.816406 55.613281 72.230469 56.707031 C 71.648438 57.800781 71.007812 58.863281 70.320312 59.894531 C 69.632812 60.925781 68.894531 61.921875 68.105469 62.878906 C 67.320312 63.839844 66.488281 64.757812 65.609375 65.632812 C 64.734375 66.511719 63.816406 67.34375 62.855469 68.128906 C 61.898438 68.917969 60.902344 69.65625 59.871094 70.34375 C 58.839844 71.03125 57.777344 71.667969 56.683594 72.253906 C 55.589844 72.839844 54.46875 73.367188 53.324219 73.84375 C 52.175781 74.320312 51.011719 74.734375 49.824219 75.097656 C 48.636719 75.457031 47.433594 75.757812 46.21875 76 C 45 76.242188 43.773438 76.421875 42.539062 76.542969 C 41.304688 76.664062 40.070312 76.726562 38.828125 76.726562 C 37.589844 76.726562 36.351562 76.664062 35.117188 76.542969 C 33.882812 76.421875 32.65625 76.242188 31.4375 76 C 30.222656 75.757812 29.019531 75.457031 27.832031 75.097656 C 26.648438 74.734375 25.480469 74.320312 24.335938 73.84375 C 23.1875 73.367188 22.066406 72.839844 20.972656 72.253906 C 19.878906 71.667969 18.816406 71.03125 17.785156 70.34375 C 16.753906 69.65625 15.757812 68.917969 14.800781 68.128906 C 13.84375 67.34375 12.925781 66.511719 12.046875 65.632812 C 11.167969 64.757812 10.335938 63.839844 9.550781 62.878906 C 8.765625 61.921875 8.027344 60.925781 7.335938 59.894531 C 6.648438 58.863281 6.011719 57.800781 5.425781 56.707031 C 4.839844 55.613281 4.3125 54.492188 3.835938 53.347656 C 3.363281 52.199219 2.945312 51.035156 2.585938 49.847656 C 2.222656 48.660156 1.921875 47.457031 1.679688 46.242188 C 1.4375 45.023438 1.257812 43.796875 1.136719 42.5625 C 1.015625 41.328125 0.953125 40.09375 0.953125 38.851562 C 0.953125 37.609375 1.015625 36.375 1.136719 35.140625 C 1.257812 33.90625 1.4375 32.679688 1.679688 31.460938 C 1.921875 30.246094 2.222656 29.042969 2.585938 27.855469 C 2.945312 26.671875 3.363281 25.503906 3.835938 24.359375 C 4.3125 23.210938 4.839844 22.089844 5.425781 20.996094 C 6.011719 19.902344 6.648438 18.839844 7.335938 17.808594 C 8.027344 16.777344 8.765625 15.78125 9.550781 14.824219 C 10.335938 13.867188 11.167969 12.945312 12.046875 12.070312 C 12.925781 11.191406 13.84375 10.359375 14.800781 9.574219 C 15.757812 8.785156 16.753906 8.050781 17.785156 7.359375 C 18.816406 6.671875 19.878906 6.035156 20.972656 5.449219 C 22.066406 4.863281 23.1875 4.335938 24.335938 3.859375 C 25.480469 3.386719 26.648438 2.96875 27.832031 2.609375 C 29.019531 2.246094 30.222656 1.945312 31.4375 1.703125 C 32.65625 1.460938 33.882812 1.28125 35.117188 1.160156 C 36.351562 1.039062 37.589844 0.976562 38.828125 0.976562 C 40.070312 0.976562 41.304688 1.039062 42.539062 1.160156 C 43.773438 1.28125 45 1.460938 46.21875 1.703125 C 47.433594 1.945312 48.636719 2.246094 49.824219 2.609375 C 51.011719 2.96875 52.175781 3.386719 53.324219 3.859375 C 54.46875 4.335938 55.589844 4.863281 56.683594 5.449219 C 57.777344 6.035156 58.839844 6.671875 59.871094 7.359375 C 60.902344 8.050781 61.898438 8.785156 62.855469 9.574219 C 63.816406 10.359375 64.734375 11.191406 65.609375 12.070312 C 66.488281 12.945312 67.320312 13.867188 68.105469 14.824219 C 68.894531 15.78125 69.632812 16.777344 70.320312 17.808594 C 71.007812 18.839844 71.648438 19.902344 72.230469 20.996094 C 72.816406 22.089844 73.347656 23.210938 73.820312 24.359375 C 74.296875 25.503906 74.710938 26.671875 75.074219 27.855469 C 75.433594 29.042969 75.734375 30.246094 75.976562 31.460938 C 76.21875 32.679688 76.398438 33.90625 76.519531 35.140625 C 76.644531 36.375 76.703125 37.609375 76.703125 38.851562 Z M 76.703125 38.851562 " fill-opacity="1" fill-rule="nonzero"/></g></g></g></g></svg>