<svg xmlns="http://www.w3.org/2000/svg" xmlns:xlink="http://www.w3.org/1999/xlink" width="1080" zoomAndPan="magnify" viewBox="0 0 810 809.999993" height="1080" preserveAspectRatio="xMidYMid meet" version="1.0"><path fill="#fb653e" d="M 640.425781 430.890625 C 640.414062 428.300781 640.53125 425.710938 640.777344 423.132812 C 641.019531 420.550781 641.390625 417.988281 641.890625 415.445312 C 642.386719 412.898438 643.011719 410.386719 643.757812 407.902344 C 644.503906 405.421875 645.375 402.980469 646.363281 400.585938 C 647.351562 398.1875 648.457031 395.847656 649.679688 393.558594 C 650.898438 391.273438 652.230469 389.050781 653.671875 386.894531 C 655.113281 384.738281 656.660156 382.660156 658.304688 380.65625 C 659.953125 378.65625 661.695312 376.738281 663.535156 374.910156 C 664.75 373.6875 665.9375 372.4375 667.097656 371.160156 C 668.253906 369.882812 669.378906 368.574219 670.472656 367.242188 C 671.566406 365.90625 672.625 364.546875 673.652344 363.160156 C 674.675781 361.773438 675.667969 360.363281 676.625 358.929688 C 677.582031 357.496094 678.503906 356.039062 679.390625 354.558594 C 680.277344 353.078125 681.125 351.578125 681.9375 350.054688 C 682.75 348.535156 683.523438 346.996094 684.261719 345.433594 C 684.996094 343.875 685.695312 342.300781 686.355469 340.707031 C 687.011719 339.113281 687.632812 337.503906 688.214844 335.878906 C 688.792969 334.257812 689.335938 332.621094 689.835938 330.96875 C 690.335938 329.320312 690.792969 327.65625 691.210938 325.984375 C 691.628906 324.3125 692.007812 322.628906 692.34375 320.9375 C 692.679688 319.246094 692.976562 317.546875 693.226562 315.84375 C 693.480469 314.136719 693.691406 312.425781 693.859375 310.710938 C 694.027344 308.996094 694.15625 307.273438 694.238281 305.554688 C 694.324219 303.832031 694.367188 302.109375 694.367188 300.382812 C 694.367188 298.660156 694.324219 296.933594 694.238281 295.214844 C 694.15625 293.492188 694.027344 291.773438 693.859375 290.054688 C 693.691406 288.339844 693.480469 286.628906 693.226562 284.921875 C 692.976562 283.21875 692.679688 281.519531 692.34375 279.828125 C 692.007812 278.136719 691.628906 276.453125 691.210938 274.78125 C 690.792969 273.109375 690.335938 271.449219 689.835938 269.796875 C 689.335938 268.148438 688.792969 266.507812 688.214844 264.886719 C 687.632812 263.261719 687.011719 261.652344 686.355469 260.058594 C 685.695312 258.464844 684.996094 256.890625 684.261719 255.332031 C 683.523438 253.773438 682.75 252.230469 681.9375 250.710938 C 681.125 249.1875 680.277344 247.6875 679.390625 246.207031 C 678.503906 244.730469 677.582031 243.273438 676.625 241.835938 C 675.667969 240.402344 674.675781 238.992188 673.652344 237.605469 C 672.625 236.21875 671.566406 234.859375 670.472656 233.527344 C 669.378906 232.191406 668.253906 230.886719 667.097656 229.605469 C 665.9375 228.328125 664.75 227.078125 663.535156 225.855469 C 661.691406 224.03125 659.941406 222.117188 658.289062 220.121094 C 656.636719 218.121094 655.085938 216.042969 653.640625 213.890625 C 652.195312 211.734375 650.863281 209.515625 649.636719 207.226562 C 648.414062 204.941406 647.308594 202.597656 646.320312 200.199219 C 645.328125 197.800781 644.460938 195.359375 643.714844 192.875 C 642.96875 190.394531 642.351562 187.878906 641.855469 185.332031 C 641.359375 182.785156 640.992188 180.222656 640.753906 177.636719 C 640.515625 175.054688 640.40625 172.46875 640.425781 169.875 C 640.417969 168.152344 640.367188 166.429688 640.273438 164.710938 C 640.179688 162.988281 640.042969 161.273438 639.867188 159.558594 C 639.6875 157.847656 639.46875 156.136719 639.207031 154.433594 C 638.945312 152.734375 638.644531 151.039062 638.300781 149.347656 C 637.957031 147.660156 637.570312 145.984375 637.144531 144.3125 C 636.714844 142.644531 636.25 140.988281 635.742188 139.339844 C 635.234375 137.695312 634.6875 136.0625 634.097656 134.441406 C 633.511719 132.824219 632.882812 131.21875 632.214844 129.628906 C 631.550781 128.042969 630.84375 126.46875 630.101562 124.917969 C 629.359375 123.363281 628.578125 121.828125 627.757812 120.3125 C 626.941406 118.796875 626.085938 117.300781 625.191406 115.828125 C 624.300781 114.351562 623.371094 112.902344 622.410156 111.472656 C 621.445312 110.042969 620.449219 108.640625 619.417969 107.257812 C 618.386719 105.878906 617.320312 104.527344 616.222656 103.199219 C 615.125 101.871094 613.992188 100.570312 612.832031 99.296875 C 611.671875 98.023438 610.476562 96.78125 609.253906 95.566406 C 608.03125 94.355469 606.78125 93.171875 605.5 92.019531 C 604.21875 90.863281 602.910156 89.746094 601.574219 88.65625 C 600.238281 87.566406 598.878906 86.511719 597.488281 85.488281 C 596.101562 84.46875 594.691406 83.480469 593.253906 82.527344 C 591.820312 81.574219 590.359375 80.65625 588.878906 79.773438 C 587.398438 78.894531 585.898438 78.046875 584.375 77.238281 C 582.851562 76.433594 581.3125 75.660156 579.753906 74.929688 C 578.191406 74.195312 576.613281 73.5 575.019531 72.847656 C 573.425781 72.191406 571.816406 71.574219 570.195312 70.996094 C 568.570312 70.421875 566.933594 69.882812 565.28125 69.386719 C 563.632812 68.890625 561.96875 68.433594 560.296875 68.019531 C 558.625 67.605469 556.941406 67.230469 555.25 66.898438 C 553.558594 66.566406 551.863281 66.273438 550.15625 66.023438 C 548.449219 65.773438 546.742188 65.566406 545.023438 65.398438 C 543.308594 65.234375 541.589844 65.109375 539.867188 65.027344 C 538.148438 64.945312 536.425781 64.90625 534.699219 64.90625 C 532.105469 64.925781 529.515625 64.816406 526.933594 64.578125 C 524.347656 64.339844 521.78125 63.976562 519.234375 63.480469 C 516.6875 62.984375 514.171875 62.367188 511.6875 61.621094 C 509.199219 60.875 506.757812 60.007812 504.359375 59.019531 C 501.960938 58.03125 499.617188 56.925781 497.328125 55.703125 C 495.039062 54.480469 492.816406 53.144531 490.660156 51.699219 C 488.507812 50.257812 486.429688 48.707031 484.425781 47.054688 C 482.425781 45.40625 480.511719 43.65625 478.6875 41.816406 C 477.464844 40.597656 476.214844 39.410156 474.933594 38.253906 C 473.65625 37.097656 472.347656 35.972656 471.011719 34.878906 C 469.679688 33.789062 468.316406 32.726562 466.929688 31.703125 C 465.542969 30.675781 464.132812 29.6875 462.699219 28.730469 C 461.261719 27.773438 459.804688 26.851562 458.324219 25.964844 C 456.84375 25.082031 455.34375 24.234375 453.820312 23.421875 C 452.296875 22.609375 450.757812 21.835938 449.195312 21.097656 C 447.636719 20.363281 446.058594 19.664062 444.464844 19.007812 C 442.871094 18.347656 441.261719 17.726562 439.636719 17.148438 C 438.011719 16.566406 436.371094 16.027344 434.722656 15.527344 C 433.070312 15.027344 431.40625 14.570312 429.734375 14.152344 C 428.0625 13.734375 426.378906 13.355469 424.683594 13.019531 C 422.992188 12.683594 421.292969 12.390625 419.585938 12.136719 C 417.878906 11.886719 416.167969 11.675781 414.453125 11.503906 C 412.734375 11.335938 411.015625 11.210938 409.292969 11.125 C 407.566406 11.042969 405.84375 11 404.117188 11 C 402.394531 11 400.667969 11.042969 398.945312 11.125 C 397.222656 11.210938 395.503906 11.335938 393.785156 11.503906 C 392.070312 11.675781 390.355469 11.886719 388.648438 12.136719 C 386.941406 12.390625 385.242188 12.683594 383.550781 13.019531 C 381.859375 13.355469 380.175781 13.734375 378.503906 14.152344 C 376.828125 14.570312 375.167969 15.027344 373.515625 15.527344 C 371.863281 16.027344 370.226562 16.566406 368.601562 17.148438 C 366.976562 17.726562 365.367188 18.347656 363.773438 19.007812 C 362.179688 19.664062 360.601562 20.363281 359.039062 21.097656 C 357.480469 21.835938 355.9375 22.609375 354.417969 23.421875 C 352.894531 24.234375 351.394531 25.082031 349.914062 25.964844 C 348.433594 26.851562 346.972656 27.773438 345.539062 28.730469 C 344.105469 29.6875 342.691406 30.675781 341.304688 31.703125 C 339.917969 32.726562 338.558594 33.789062 337.222656 34.878906 C 335.886719 35.972656 334.582031 37.097656 333.300781 38.253906 C 332.023438 39.410156 330.769531 40.597656 329.550781 41.816406 C 327.722656 43.65625 325.804688 45.398438 323.804688 47.046875 C 321.800781 48.695312 319.722656 50.242188 317.566406 51.683594 C 315.410156 53.128906 313.1875 54.460938 310.898438 55.683594 C 308.609375 56.902344 306.269531 58.007812 303.871094 58.996094 C 301.46875 59.984375 299.027344 60.855469 296.542969 61.601562 C 294.058594 62.347656 291.542969 62.96875 288.996094 63.464844 C 286.449219 63.960938 283.886719 64.328125 281.300781 64.570312 C 278.71875 64.8125 276.128906 64.921875 273.535156 64.90625 C 271.8125 64.910156 270.085938 64.953125 268.363281 65.042969 C 266.640625 65.128906 264.921875 65.257812 263.203125 65.425781 C 261.488281 65.597656 259.777344 65.8125 258.070312 66.066406 C 256.363281 66.320312 254.664062 66.617188 252.972656 66.957031 C 251.28125 67.292969 249.601562 67.671875 247.925781 68.09375 C 246.253906 68.515625 244.59375 68.976562 242.941406 69.476562 C 241.292969 69.980469 239.65625 70.519531 238.03125 71.101562 C 236.40625 71.683594 234.796875 72.304688 233.203125 72.96875 C 231.613281 73.628906 230.035156 74.328125 228.476562 75.066406 C 226.917969 75.804688 225.378906 76.578125 223.855469 77.394531 C 222.335938 78.207031 220.835938 79.054688 219.355469 79.941406 C 217.875 80.832031 216.421875 81.753906 214.984375 82.710938 C 213.550781 83.667969 212.140625 84.664062 210.757812 85.691406 C 209.371094 86.71875 208.011719 87.777344 206.679688 88.871094 C 205.34375 89.964844 204.039062 91.09375 202.761719 92.25 C 201.484375 93.40625 200.234375 94.597656 199.015625 95.816406 C 197.796875 97.035156 196.605469 98.28125 195.449219 99.558594 C 194.289062 100.835938 193.164062 102.144531 192.066406 103.476562 C 190.972656 104.808594 189.910156 106.167969 188.882812 107.550781 C 187.855469 108.933594 186.863281 110.34375 185.902344 111.777344 C 184.945312 113.210938 184.019531 114.667969 183.132812 116.144531 C 182.246094 117.625 181.394531 119.121094 180.582031 120.644531 C 179.769531 122.164062 178.992188 123.703125 178.253906 125.261719 C 177.515625 126.820312 176.816406 128.394531 176.152344 129.984375 C 175.492188 131.578125 174.871094 133.1875 174.289062 134.808594 C 173.707031 136.433594 173.164062 138.066406 172.660156 139.71875 C 172.160156 141.367188 171.699219 143.027344 171.277344 144.699219 C 170.855469 146.371094 170.476562 148.054688 170.140625 149.742188 C 169.800781 151.433594 169.503906 153.132812 169.25 154.835938 C 168.992188 156.542969 168.78125 158.253906 168.609375 159.96875 C 168.4375 161.683594 168.308594 163.402344 168.222656 165.125 C 168.136719 166.847656 168.09375 168.570312 168.089844 170.292969 C 168.101562 172.886719 167.984375 175.472656 167.742188 178.054688 C 167.496094 180.636719 167.125 183.199219 166.628906 185.742188 C 166.128906 188.285156 165.507812 190.800781 164.757812 193.28125 C 164.011719 195.765625 163.144531 198.203125 162.15625 200.601562 C 161.164062 202.996094 160.058594 205.339844 158.839844 207.628906 C 157.617188 209.914062 156.285156 212.136719 154.84375 214.289062 C 153.402344 216.445312 151.859375 218.523438 150.210938 220.527344 C 148.5625 222.53125 146.820312 224.445312 144.984375 226.277344 C 143.773438 227.5 142.59375 228.75 141.445312 230.03125 C 140.296875 231.308594 139.179688 232.617188 138.09375 233.949219 C 137.011719 235.285156 135.957031 236.644531 134.941406 238.03125 C 133.921875 239.417969 132.9375 240.828125 131.992188 242.261719 C 131.042969 243.695312 130.128906 245.152344 129.25 246.632812 C 128.375 248.109375 127.53125 249.609375 126.730469 251.128906 C 125.925781 252.648438 125.160156 254.1875 124.429688 255.746094 C 123.703125 257.304688 123.011719 258.878906 122.359375 260.46875 C 121.710938 262.0625 121.097656 263.667969 120.523438 265.289062 C 119.953125 266.910156 119.421875 268.546875 118.925781 270.191406 C 118.433594 271.839844 117.984375 273.5 117.574219 275.167969 C 117.160156 276.839844 116.792969 278.515625 116.464844 280.203125 C 116.132812 281.890625 115.847656 283.585938 115.601562 285.289062 C 115.355469 286.992188 115.152344 288.699219 114.992188 290.410156 C 114.828125 292.121094 114.707031 293.835938 114.632812 295.554688 C 114.554688 297.269531 114.519531 298.988281 114.523438 300.707031 C 114.53125 302.429688 114.578125 304.144531 114.671875 305.863281 C 114.761719 307.582031 114.894531 309.292969 115.066406 311.003906 C 115.242188 312.714844 115.460938 314.421875 115.71875 316.121094 C 115.976562 317.820312 116.277344 319.511719 116.617188 321.199219 C 116.960938 322.882812 117.339844 324.558594 117.765625 326.226562 C 118.1875 327.890625 118.652344 329.546875 119.15625 331.191406 C 119.664062 332.835938 120.207031 334.464844 120.792969 336.082031 C 121.375 337.699219 122 339.300781 122.664062 340.886719 C 123.328125 342.472656 124.027344 344.042969 124.769531 345.59375 C 125.507812 347.148438 126.285156 348.679688 127.101562 350.195312 C 127.917969 351.707031 128.769531 353.199219 129.65625 354.671875 C 130.546875 356.144531 131.46875 357.59375 132.429688 359.023438 C 133.390625 360.449219 134.382812 361.851562 135.414062 363.230469 C 136.441406 364.609375 137.503906 365.960938 138.597656 367.289062 C 139.691406 368.613281 140.820312 369.914062 141.976562 371.183594 C 143.136719 372.453125 144.324219 373.695312 145.542969 374.910156 C 147.375 376.746094 149.113281 378.664062 150.753906 380.667969 C 152.398438 382.675781 153.9375 384.753906 155.375 386.914062 C 156.8125 389.070312 158.140625 391.292969 159.359375 393.578125 C 160.578125 395.867188 161.683594 398.207031 162.671875 400.601562 C 163.660156 403 164.527344 405.4375 165.277344 407.917969 C 166.027344 410.398438 166.652344 412.910156 167.152344 415.453125 C 167.65625 417.996094 168.03125 420.554688 168.28125 423.136719 C 168.53125 425.714844 168.652344 428.300781 168.648438 430.890625 C 168.644531 433.9375 168.773438 436.976562 169.035156 440.011719 C 169.292969 443.046875 169.683594 446.066406 170.207031 449.066406 C 170.726562 452.066406 171.378906 455.039062 172.160156 457.984375 C 172.9375 460.929688 173.84375 463.832031 174.875 466.699219 C 175.90625 469.566406 177.0625 472.382812 178.335938 475.148438 C 179.613281 477.914062 181.007812 480.617188 182.515625 483.265625 C 184.027344 485.910156 185.648438 488.484375 187.382812 490.988281 C 189.117188 493.492188 190.957031 495.917969 192.902344 498.265625 C 194.847656 500.609375 196.886719 502.867188 199.027344 505.035156 C 201.167969 507.203125 203.398438 509.273438 205.71875 511.25 C 208.039062 513.222656 210.441406 515.09375 212.921875 516.863281 C 215.402344 518.628906 217.957031 520.285156 220.585938 521.832031 C 223.210938 523.378906 225.898438 524.804688 228.648438 526.117188 C 231.398438 527.433594 234.199219 528.625 237.054688 529.691406 C 239.90625 530.761719 242.800781 531.707031 245.734375 532.527344 C 248.671875 533.347656 251.636719 534.035156 254.632812 534.597656 L 148.34375 790.859375 C 148.160156 791.351562 148.007812 791.855469 147.882812 792.371094 C 147.761719 792.882812 147.667969 793.402344 147.605469 793.925781 C 147.542969 794.453125 147.515625 794.976562 147.515625 795.507812 C 147.515625 796.035156 147.546875 796.558594 147.613281 797.085938 C 147.675781 797.609375 147.769531 798.128906 147.894531 798.640625 C 148.023438 799.152344 148.175781 799.65625 148.363281 800.152344 C 148.546875 800.644531 148.761719 801.125 149.007812 801.59375 C 149.25 802.0625 149.519531 802.515625 149.816406 802.953125 C 150.113281 803.390625 150.433594 803.808594 150.78125 804.207031 C 151.128906 804.605469 151.496094 804.980469 151.890625 805.335938 C 152.28125 805.691406 152.691406 806.019531 153.121094 806.324219 C 153.554688 806.628906 154 806.910156 154.464844 807.160156 C 154.929688 807.414062 155.40625 807.636719 155.898438 807.832031 C 156.390625 808.027344 156.890625 808.195312 157.398438 808.328125 C 157.910156 808.464844 158.425781 808.570312 158.949219 808.644531 C 159.472656 808.71875 160 808.761719 160.527344 808.773438 L 163.046875 808.773438 L 404.46875 761.886719 L 645.890625 808.773438 L 648.410156 808.773438 C 650.382812 808.710938 652.257812 808.257812 654.039062 807.402344 C 655.820312 806.550781 657.351562 805.375 658.632812 803.875 C 659.453125 802.925781 660.121094 801.882812 660.640625 800.738281 C 661.160156 799.597656 661.503906 798.40625 661.679688 797.164062 C 661.851562 795.921875 661.847656 794.683594 661.660156 793.441406 C 661.476562 792.203125 661.121094 791.015625 660.59375 789.878906 L 554.027344 534.597656 C 557.027344 534.042969 560.003906 533.359375 562.945312 532.546875 C 565.890625 531.734375 568.792969 530.796875 571.65625 529.734375 C 574.519531 528.667969 577.328125 527.484375 580.089844 526.175781 C 582.847656 524.867188 585.546875 523.441406 588.179688 521.898438 C 590.816406 520.359375 593.378906 518.707031 595.871094 516.941406 C 598.363281 515.175781 600.777344 513.308594 603.105469 511.335938 C 605.433594 509.359375 607.675781 507.289062 609.824219 505.121094 C 611.976562 502.957031 614.027344 500.699219 615.980469 498.351562 C 617.9375 496.007812 619.785156 493.582031 621.527344 491.074219 C 623.273438 488.570312 624.902344 485.992188 626.421875 483.347656 C 627.945312 480.699219 629.34375 477.988281 630.628906 475.222656 C 631.914062 472.453125 633.078125 469.632812 634.117188 466.761719 C 635.15625 463.894531 636.070312 460.984375 636.859375 458.035156 C 637.644531 455.085938 638.304688 452.109375 638.832031 449.101562 C 639.363281 446.09375 639.757812 443.070312 640.023438 440.03125 C 640.292969 436.992188 640.425781 433.945312 640.425781 430.890625 Z M 534.699219 510.105469 C 531.246094 510.097656 527.796875 510.253906 524.355469 510.585938 C 520.914062 510.914062 517.5 511.414062 514.109375 512.078125 C 510.71875 512.746094 507.367188 513.578125 504.058594 514.574219 C 500.75 515.570312 497.496094 516.730469 494.304688 518.046875 C 491.109375 519.363281 487.984375 520.835938 484.9375 522.460938 C 481.886719 524.089844 478.925781 525.859375 476.050781 527.777344 C 473.175781 529.695312 470.402344 531.75 467.734375 533.945312 C 465.0625 536.136719 462.503906 538.453125 460.0625 540.898438 C 459.148438 541.816406 458.207031 542.710938 457.25 543.582031 C 456.289062 544.453125 455.308594 545.300781 454.304688 546.121094 C 453.304688 546.945312 452.285156 547.746094 451.242188 548.519531 C 450.203125 549.289062 449.140625 550.039062 448.066406 550.757812 C 446.988281 551.480469 445.890625 552.175781 444.78125 552.839844 C 443.667969 553.507812 442.542969 554.148438 441.398438 554.761719 C 440.253906 555.371094 439.097656 555.957031 437.925781 556.511719 C 436.753906 557.066406 435.570312 557.589844 434.371094 558.089844 C 433.171875 558.585938 431.964844 559.050781 430.742188 559.488281 C 429.523438 559.925781 428.289062 560.332031 427.050781 560.710938 C 425.808594 561.085938 424.558594 561.433594 423.300781 561.75 C 422.042969 562.0625 420.78125 562.347656 419.507812 562.601562 C 418.234375 562.855469 416.957031 563.078125 415.675781 563.265625 C 414.394531 563.457031 413.105469 563.617188 411.816406 563.742188 C 410.523438 563.871094 409.230469 563.964844 407.9375 564.03125 C 406.640625 564.09375 405.34375 564.125 404.046875 564.125 C 402.75 564.125 401.457031 564.09375 400.160156 564.03125 C 398.863281 563.964844 397.570312 563.871094 396.28125 563.742188 C 394.992188 563.617188 393.703125 563.457031 392.421875 563.265625 C 391.136719 563.078125 389.859375 562.855469 388.589844 562.601562 C 387.316406 562.347656 386.050781 562.0625 384.792969 561.75 C 383.535156 561.433594 382.289062 561.085938 381.046875 560.710938 C 379.804688 560.332031 378.574219 559.925781 377.355469 559.488281 C 376.132812 559.050781 374.925781 558.585938 373.726562 558.089844 C 372.527344 557.589844 371.34375 557.066406 370.171875 556.511719 C 369 555.957031 367.84375 555.371094 366.699219 554.761719 C 365.554688 554.148438 364.429688 553.507812 363.316406 552.839844 C 362.203125 552.175781 361.109375 551.480469 360.03125 550.757812 C 358.953125 550.039062 357.894531 549.289062 356.855469 548.519531 C 355.8125 547.746094 354.792969 546.945312 353.789062 546.121094 C 352.789062 545.300781 351.808594 544.453125 350.847656 543.582031 C 349.886719 542.710938 348.949219 541.816406 348.035156 540.898438 C 345.601562 538.453125 343.050781 536.132812 340.386719 533.941406 C 337.722656 531.75 334.957031 529.695312 332.085938 527.773438 C 329.21875 525.855469 326.265625 524.085938 323.222656 522.457031 C 320.175781 520.832031 317.0625 519.359375 313.871094 518.042969 C 310.683594 516.722656 307.4375 515.566406 304.132812 514.570312 C 300.828125 513.570312 297.484375 512.738281 294.097656 512.074219 C 290.710938 511.40625 287.300781 510.910156 283.867188 510.582031 C 280.429688 510.253906 276.988281 510.09375 273.535156 510.105469 C 272.246094 510.09375 270.957031 510.050781 269.667969 509.976562 C 268.382812 509.902344 267.097656 509.796875 265.8125 509.660156 C 264.53125 509.523438 263.253906 509.355469 261.980469 509.15625 C 260.703125 508.957031 259.433594 508.726562 258.171875 508.464844 C 256.910156 508.203125 255.652344 507.914062 254.40625 507.589844 C 253.15625 507.269531 251.914062 506.914062 250.683594 506.53125 C 249.453125 506.148438 248.230469 505.734375 247.019531 505.292969 C 245.808594 504.851562 244.609375 504.378906 243.417969 503.878906 C 242.230469 503.375 241.054688 502.847656 239.894531 502.289062 C 238.730469 501.730469 237.582031 501.140625 236.449219 500.527344 C 235.316406 499.914062 234.195312 499.269531 233.09375 498.601562 C 231.992188 497.933594 230.90625 497.238281 229.835938 496.515625 C 228.769531 495.792969 227.71875 495.046875 226.6875 494.273438 C 225.65625 493.5 224.640625 492.699219 223.648438 491.878906 C 222.65625 491.054688 221.683594 490.207031 220.730469 489.339844 C 219.78125 488.46875 218.851562 487.574219 217.941406 486.660156 C 217.035156 485.742188 216.148438 484.804688 215.289062 483.847656 C 214.425781 482.890625 213.585938 481.910156 212.773438 480.910156 C 211.957031 479.910156 211.167969 478.890625 210.402344 477.851562 C 209.640625 476.816406 208.898438 475.757812 208.1875 474.683594 C 207.472656 473.609375 206.789062 472.519531 206.128906 471.410156 C 205.46875 470.304688 204.835938 469.179688 204.230469 468.042969 C 203.625 466.902344 203.050781 465.75 202.5 464.582031 C 201.953125 463.417969 201.433594 462.238281 200.941406 461.046875 C 200.449219 459.851562 199.988281 458.648438 199.558594 457.433594 C 199.125 456.21875 198.722656 454.996094 198.351562 453.761719 C 197.976562 452.527344 197.636719 451.285156 197.324219 450.035156 C 197.011719 448.78125 196.730469 447.523438 196.480469 446.261719 C 196.230469 444.996094 196.011719 443.726562 195.824219 442.449219 C 195.636719 441.175781 195.480469 439.894531 195.351562 438.613281 C 195.226562 437.328125 195.132812 436.042969 195.070312 434.757812 C 195.007812 433.46875 194.976562 432.179688 194.976562 430.890625 C 194.988281 427.441406 194.828125 424 194.5 420.566406 C 194.171875 417.132812 193.675781 413.726562 193.007812 410.339844 C 192.339844 406.957031 191.507812 403.613281 190.511719 400.3125 C 189.515625 397.011719 188.355469 393.765625 187.039062 390.578125 C 185.71875 387.390625 184.246094 384.277344 182.617188 381.234375 C 180.992188 378.191406 179.21875 375.238281 177.296875 372.371094 C 175.378906 369.507812 173.320312 366.742188 171.128906 364.078125 C 168.933594 361.417969 166.613281 358.867188 164.167969 356.433594 C 163.25 355.519531 162.355469 354.582031 161.484375 353.625 C 160.613281 352.664062 159.761719 351.683594 158.941406 350.683594 C 158.117188 349.679688 157.316406 348.660156 156.542969 347.621094 C 155.769531 346.582031 155.023438 345.523438 154.300781 344.445312 C 153.578125 343.367188 152.886719 342.273438 152.21875 341.164062 C 151.550781 340.050781 150.910156 338.925781 150.296875 337.78125 C 149.683594 336.640625 149.101562 335.480469 148.546875 334.3125 C 147.992188 333.140625 147.464844 331.957031 146.96875 330.757812 C 146.472656 329.5625 146.003906 328.351562 145.566406 327.132812 C 145.128906 325.910156 144.722656 324.683594 144.34375 323.441406 C 143.96875 322.203125 143.621094 320.953125 143.304688 319.695312 C 142.988281 318.4375 142.707031 317.175781 142.453125 315.902344 C 142.199219 314.632812 141.976562 313.355469 141.785156 312.074219 C 141.59375 310.792969 141.4375 309.503906 141.308594 308.214844 C 141.183594 306.925781 141.085938 305.632812 141.023438 304.339844 C 140.957031 303.042969 140.925781 301.75 140.925781 300.453125 C 140.925781 299.15625 140.957031 297.863281 141.023438 296.566406 C 141.085938 295.273438 141.183594 293.980469 141.308594 292.691406 C 141.4375 291.402344 141.59375 290.113281 141.785156 288.832031 C 141.976562 287.550781 142.199219 286.273438 142.453125 285.003906 C 142.707031 283.730469 142.988281 282.46875 143.304688 281.210938 C 143.621094 279.953125 143.96875 278.703125 144.34375 277.464844 C 144.722656 276.222656 145.128906 274.992188 145.566406 273.773438 C 146.003906 272.554688 146.472656 271.34375 146.96875 270.148438 C 147.464844 268.949219 147.992188 267.765625 148.546875 266.59375 C 149.101562 265.425781 149.683594 264.265625 150.296875 263.125 C 150.910156 261.980469 151.550781 260.855469 152.21875 259.742188 C 152.886719 258.632812 153.578125 257.539062 154.300781 256.460938 C 155.023438 255.382812 155.769531 254.324219 156.542969 253.285156 C 157.316406 252.246094 158.117188 251.222656 158.941406 250.222656 C 159.761719 249.222656 160.613281 248.242188 161.484375 247.28125 C 162.355469 246.324219 163.25 245.386719 164.167969 244.472656 C 166.617188 242.03125 168.9375 239.480469 171.132812 236.808594 C 173.332031 234.140625 175.386719 231.371094 177.308594 228.5 C 179.230469 225.628906 181.003906 222.667969 182.632812 219.621094 C 184.261719 216.574219 185.734375 213.453125 187.054688 210.257812 C 188.371094 207.066406 189.53125 203.816406 190.527344 200.507812 C 191.523438 197.199219 192.355469 193.851562 193.019531 190.460938 C 193.683594 187.070312 194.179688 183.65625 194.507812 180.214844 C 194.835938 176.777344 194.992188 173.328125 194.976562 169.875 C 194.980469 168.582031 195.011719 167.289062 195.078125 166 C 195.144531 164.707031 195.242188 163.417969 195.371094 162.132812 C 195.5 160.847656 195.660156 159.566406 195.851562 158.285156 C 196.042969 157.007812 196.265625 155.734375 196.519531 154.46875 C 196.773438 153.199219 197.058594 151.941406 197.375 150.6875 C 197.691406 149.433594 198.039062 148.1875 198.417969 146.953125 C 198.792969 145.714844 199.199219 144.488281 199.636719 143.273438 C 200.074219 142.054688 200.542969 140.851562 201.039062 139.65625 C 201.535156 138.464844 202.0625 137.28125 202.617188 136.113281 C 203.171875 134.945312 203.753906 133.792969 204.363281 132.652344 C 204.976562 131.515625 205.613281 130.390625 206.28125 129.28125 C 206.945312 128.175781 207.640625 127.082031 208.359375 126.011719 C 209.078125 124.9375 209.824219 123.878906 210.597656 122.84375 C 211.367188 121.804688 212.164062 120.789062 212.984375 119.789062 C 213.808594 118.789062 214.652344 117.8125 215.523438 116.855469 C 216.390625 115.898438 217.285156 114.964844 218.199219 114.050781 C 219.113281 113.136719 220.050781 112.246094 221.011719 111.378906 C 221.96875 110.511719 222.949219 109.667969 223.949219 108.851562 C 224.949219 108.03125 225.96875 107.234375 227.011719 106.46875 C 228.050781 105.699219 229.105469 104.953125 230.183594 104.238281 C 231.257812 103.519531 232.351562 102.828125 233.460938 102.164062 C 234.570312 101.5 235.695312 100.863281 236.835938 100.253906 C 237.980469 99.648438 239.132812 99.066406 240.304688 98.515625 C 241.472656 97.960938 242.65625 97.4375 243.851562 96.945312 C 245.046875 96.449219 246.253906 95.988281 247.46875 95.550781 C 248.6875 95.117188 249.914062 94.710938 251.152344 94.335938 C 252.390625 93.960938 253.636719 93.617188 254.894531 93.304688 C 256.148438 92.988281 257.410156 92.707031 258.675781 92.457031 C 259.945312 92.203125 261.21875 91.984375 262.5 91.792969 C 263.777344 91.605469 265.0625 91.445312 266.351562 91.320312 C 267.636719 91.191406 268.925781 91.097656 270.21875 91.035156 C 271.511719 90.972656 272.800781 90.9375 274.097656 90.9375 C 277.546875 90.953125 280.992188 90.792969 284.425781 90.464844 C 287.859375 90.136719 291.273438 89.636719 294.65625 88.972656 C 298.042969 88.304688 301.390625 87.472656 304.691406 86.476562 C 307.996094 85.480469 311.242188 84.324219 314.433594 83.003906 C 317.621094 81.6875 320.738281 80.214844 323.78125 78.589844 C 326.824219 76.960938 329.78125 75.191406 332.648438 73.269531 C 335.515625 71.351562 338.28125 69.296875 340.945312 67.105469 C 343.609375 64.910156 346.160156 62.59375 348.59375 60.148438 C 349.511719 59.230469 350.449219 58.335938 351.410156 57.464844 C 352.367188 56.59375 353.347656 55.746094 354.351562 54.921875 C 355.351562 54.101562 356.375 53.300781 357.414062 52.527344 C 358.457031 51.753906 359.515625 51.007812 360.59375 50.289062 C 361.667969 49.566406 362.765625 48.871094 363.875 48.203125 C 364.988281 47.539062 366.117188 46.898438 367.257812 46.285156 C 368.402344 45.675781 369.558594 45.089844 370.730469 44.535156 C 371.902344 43.980469 373.089844 43.453125 374.285156 42.957031 C 375.484375 42.460938 376.695312 41.996094 377.914062 41.558594 C 379.136719 41.121094 380.367188 40.710938 381.605469 40.335938 C 382.847656 39.960938 384.097656 39.613281 385.355469 39.296875 C 386.613281 38.980469 387.878906 38.699219 389.148438 38.445312 C 390.421875 38.191406 391.699219 37.96875 392.980469 37.777344 C 394.265625 37.589844 395.550781 37.429688 396.839844 37.300781 C 398.132812 37.175781 399.425781 37.078125 400.71875 37.015625 C 402.015625 36.953125 403.3125 36.921875 404.609375 36.921875 C 405.90625 36.921875 407.203125 36.953125 408.496094 37.015625 C 409.792969 37.078125 411.085938 37.175781 412.375 37.300781 C 413.667969 37.429688 414.953125 37.589844 416.234375 37.777344 C 417.519531 37.96875 418.796875 38.191406 420.066406 38.445312 C 421.339844 38.699219 422.605469 38.980469 423.863281 39.296875 C 425.121094 39.613281 426.371094 39.960938 427.609375 40.335938 C 428.851562 40.710938 430.082031 41.121094 431.304688 41.558594 C 432.523438 41.996094 433.734375 42.460938 434.929688 42.957031 C 436.128906 43.453125 437.3125 43.980469 438.484375 44.535156 C 439.65625 45.089844 440.816406 45.675781 441.957031 46.285156 C 443.101562 46.898438 444.230469 47.539062 445.339844 48.203125 C 446.453125 48.871094 447.546875 49.566406 448.625 50.289062 C 449.703125 51.007812 450.761719 51.753906 451.804688 52.527344 C 452.84375 53.300781 453.863281 54.101562 454.867188 54.921875 C 455.867188 55.746094 456.847656 56.59375 457.808594 57.464844 C 458.769531 58.335938 459.707031 59.230469 460.621094 60.148438 C 463.039062 62.59375 465.570312 64.917969 468.214844 67.117188 C 470.863281 69.3125 473.609375 71.375 476.457031 73.304688 C 479.304688 75.230469 482.242188 77.015625 485.265625 78.65625 C 488.289062 80.296875 491.386719 81.78125 494.554688 83.117188 C 497.726562 84.453125 500.953125 85.632812 504.238281 86.648438 C 507.523438 87.667969 510.851562 88.523438 514.222656 89.214844 C 517.59375 89.90625 520.988281 90.429688 524.410156 90.789062 C 527.832031 91.148438 531.261719 91.335938 534.699219 91.359375 C 535.992188 91.363281 537.285156 91.394531 538.574219 91.460938 C 539.863281 91.527344 541.152344 91.625 542.4375 91.75 C 543.722656 91.878906 545.003906 92.039062 546.28125 92.230469 C 547.5625 92.421875 548.832031 92.644531 550.097656 92.898438 C 551.367188 93.152344 552.625 93.4375 553.878906 93.753906 C 555.132812 94.066406 556.375 94.414062 557.613281 94.789062 C 558.847656 95.164062 560.074219 95.570312 561.289062 96.007812 C 562.507812 96.445312 563.710938 96.910156 564.902344 97.40625 C 566.097656 97.898438 567.277344 98.425781 568.445312 98.976562 C 569.613281 99.53125 570.765625 100.113281 571.902344 100.722656 C 573.042969 101.332031 574.167969 101.96875 575.273438 102.632812 C 576.382812 103.296875 577.472656 103.988281 578.546875 104.703125 C 579.621094 105.421875 580.675781 106.167969 581.714844 106.9375 C 582.75 107.707031 583.769531 108.5 584.769531 109.320312 C 585.765625 110.140625 586.742188 110.980469 587.703125 111.847656 C 588.660156 112.714844 589.59375 113.605469 590.507812 114.519531 C 591.421875 115.433594 592.3125 116.367188 593.179688 117.324219 C 594.046875 118.28125 594.890625 119.257812 595.710938 120.257812 C 596.53125 121.253906 597.324219 122.269531 598.09375 123.308594 C 598.863281 124.34375 599.609375 125.398438 600.328125 126.472656 C 601.046875 127.546875 601.738281 128.636719 602.402344 129.742188 C 603.066406 130.851562 603.703125 131.972656 604.3125 133.113281 C 604.921875 134.25 605.503906 135.402344 606.058594 136.570312 C 606.613281 137.738281 607.136719 138.917969 607.632812 140.109375 C 608.125 141.300781 608.59375 142.503906 609.03125 143.71875 C 609.464844 144.9375 609.871094 146.160156 610.25 147.394531 C 610.625 148.632812 610.972656 149.875 611.285156 151.128906 C 611.601562 152.378906 611.886719 153.636719 612.140625 154.90625 C 612.394531 156.171875 612.617188 157.441406 612.808594 158.71875 C 613 159.996094 613.160156 161.277344 613.289062 162.5625 C 613.417969 163.847656 613.511719 165.132812 613.578125 166.421875 C 613.644531 167.710938 613.679688 169.003906 613.679688 170.292969 C 613.667969 173.75 613.824219 177.195312 614.148438 180.636719 C 614.476562 184.074219 614.972656 187.488281 615.636719 190.878906 C 616.300781 194.269531 617.132812 197.617188 618.128906 200.925781 C 619.125 204.234375 620.285156 207.484375 621.601562 210.679688 C 622.921875 213.871094 624.394531 216.992188 626.023438 220.039062 C 627.652344 223.085938 629.425781 226.046875 631.347656 228.917969 C 633.269531 231.792969 635.328125 234.5625 637.523438 237.230469 C 639.71875 239.898438 642.039062 242.453125 644.488281 244.890625 C 645.410156 245.804688 646.308594 246.738281 647.1875 247.695312 C 648.0625 248.652344 648.914062 249.632812 649.742188 250.632812 C 650.570312 251.632812 651.371094 252.648438 652.148438 253.6875 C 652.925781 254.726562 653.679688 255.785156 654.402344 256.863281 C 655.128906 257.9375 655.824219 259.03125 656.496094 260.140625 C 657.167969 261.253906 657.8125 262.378906 658.425781 263.523438 C 659.042969 264.664062 659.628906 265.820312 660.1875 266.992188 C 660.746094 268.164062 661.273438 269.347656 661.773438 270.546875 C 662.273438 271.742188 662.742188 272.953125 663.183594 274.171875 C 663.621094 275.394531 664.03125 276.625 664.410156 277.863281 C 664.789062 279.105469 665.136719 280.355469 665.457031 281.613281 C 665.773438 282.871094 666.058594 284.136719 666.3125 285.410156 C 666.570312 286.679688 666.792969 287.957031 666.984375 289.242188 C 667.175781 290.523438 667.335938 291.8125 667.464844 293.101562 C 667.589844 294.394531 667.6875 295.6875 667.75 296.984375 C 667.816406 298.277344 667.847656 299.574219 667.847656 300.871094 C 667.847656 302.171875 667.816406 303.46875 667.75 304.761719 C 667.6875 306.058594 667.589844 307.351562 667.464844 308.644531 C 667.335938 309.933594 667.175781 311.222656 666.984375 312.503906 C 666.792969 313.789062 666.570312 315.066406 666.3125 316.335938 C 666.058594 317.609375 665.773438 318.875 665.457031 320.132812 C 665.136719 321.390625 664.789062 322.640625 664.410156 323.882812 C 664.03125 325.121094 663.621094 326.351562 663.183594 327.574219 C 662.742188 328.792969 662.273438 330.003906 661.773438 331.199219 C 661.273438 332.398438 660.746094 333.582031 660.1875 334.753906 C 659.628906 335.925781 659.042969 337.082031 658.425781 338.222656 C 657.8125 339.367188 657.167969 340.492188 656.496094 341.605469 C 655.824219 342.714844 655.128906 343.808594 654.402344 344.882812 C 653.679688 345.960938 652.925781 347.019531 652.148438 348.058594 C 651.371094 349.09375 650.570312 350.113281 649.742188 351.113281 C 648.914062 352.113281 648.0625 353.09375 647.1875 354.050781 C 646.308594 355.007812 645.410156 355.941406 644.488281 356.855469 C 642.066406 359.28125 639.773438 361.820312 637.601562 364.472656 C 635.429688 367.125 633.394531 369.878906 631.492188 372.730469 C 629.59375 375.582031 627.839844 378.523438 626.226562 381.546875 C 624.617188 384.570312 623.15625 387.667969 621.851562 390.835938 C 620.542969 394.003906 619.398438 397.230469 618.40625 400.511719 C 617.417969 403.792969 616.59375 407.113281 615.929688 410.476562 C 615.269531 413.835938 614.773438 417.222656 614.445312 420.636719 C 614.113281 424.046875 613.953125 427.464844 613.960938 430.890625 C 613.960938 432.1875 613.929688 433.484375 613.867188 434.777344 C 613.800781 436.074219 613.707031 437.367188 613.578125 438.65625 C 613.453125 439.945312 613.292969 441.234375 613.101562 442.515625 C 612.914062 443.796875 612.691406 445.074219 612.4375 446.347656 C 612.183594 447.617188 611.902344 448.882812 611.585938 450.140625 C 611.269531 451.398438 610.925781 452.644531 610.546875 453.886719 C 610.171875 455.128906 609.765625 456.359375 609.328125 457.578125 C 608.890625 458.800781 608.425781 460.007812 607.925781 461.207031 C 607.429688 462.402344 606.90625 463.589844 606.351562 464.761719 C 605.796875 465.933594 605.214844 467.089844 604.601562 468.234375 C 603.992188 469.375 603.351562 470.503906 602.683594 471.617188 C 602.015625 472.726562 601.324219 473.824219 600.601562 474.902344 C 599.882812 475.980469 599.136719 477.039062 598.363281 478.082031 C 597.589844 479.121094 596.792969 480.144531 595.96875 481.144531 C 595.148438 482.148438 594.300781 483.128906 593.429688 484.089844 C 592.558594 485.050781 591.664062 485.988281 590.746094 486.90625 C 589.828125 487.820312 588.890625 488.714844 587.929688 489.585938 C 586.96875 490.457031 585.984375 491.304688 584.984375 492.125 C 583.980469 492.949219 582.957031 493.746094 581.917969 494.519531 C 580.875 495.289062 579.8125 496.035156 578.734375 496.757812 C 577.65625 497.476562 576.5625 498.171875 575.449219 498.835938 C 574.335938 499.503906 573.207031 500.140625 572.0625 500.753906 C 570.917969 501.363281 569.761719 501.945312 568.589844 502.5 C 567.417969 503.054688 566.230469 503.582031 565.03125 504.078125 C 563.835938 504.574219 562.625 505.039062 561.402344 505.476562 C 560.179688 505.914062 558.949219 506.320312 557.707031 506.695312 C 556.46875 507.070312 555.21875 507.417969 553.960938 507.734375 C 552.703125 508.046875 551.4375 508.332031 550.164062 508.585938 C 548.890625 508.835938 547.613281 509.058594 546.332031 509.25 C 545.046875 509.441406 543.761719 509.597656 542.46875 509.726562 C 541.179688 509.851562 539.886719 509.949219 538.589844 510.011719 C 537.292969 510.074219 536 510.105469 534.699219 510.105469 Z M 391.304688 667.417969 L 391.304688 737.394531 L 291.601562 756.988281 L 329.828125 651.742188 C 330.128906 650.933594 330.347656 650.105469 330.484375 649.253906 C 330.617188 648.402344 330.667969 647.542969 330.632812 646.683594 C 330.597656 645.820312 330.480469 644.972656 330.277344 644.132812 C 330.074219 643.296875 329.789062 642.488281 329.421875 641.707031 C 329.058594 640.925781 328.621094 640.1875 328.109375 639.492188 C 327.597656 638.796875 327.023438 638.160156 326.382812 637.582031 C 325.746094 637 325.058594 636.488281 324.316406 636.046875 C 323.578125 635.601562 322.800781 635.238281 321.988281 634.949219 C 320.546875 634.394531 319.050781 634.117188 317.507812 634.109375 C 316.160156 634.15625 314.847656 634.390625 313.570312 634.816406 C 312.292969 635.242188 311.101562 635.839844 309.996094 636.609375 C 308.890625 637.378906 307.917969 638.289062 307.074219 639.339844 C 306.230469 640.390625 305.554688 641.539062 305.042969 642.785156 L 261.351562 762.867188 L 182.234375 778.261719 L 282.636719 536.976562 C 287.074219 537.457031 291.441406 538.304688 295.734375 539.519531 C 300.03125 540.734375 304.191406 542.300781 308.222656 544.21875 C 312.25 546.136719 316.089844 548.382812 319.742188 550.949219 C 323.394531 553.515625 326.800781 556.367188 329.96875 559.511719 C 331.1875 560.734375 332.4375 561.925781 333.714844 563.085938 C 334.992188 564.246094 336.296875 565.375 337.632812 566.46875 C 338.964844 567.566406 340.324219 568.628906 341.710938 569.660156 C 343.09375 570.6875 344.503906 571.683594 345.941406 572.644531 C 347.375 573.605469 348.832031 574.527344 350.3125 575.417969 C 351.792969 576.304688 353.292969 577.15625 354.816406 577.972656 C 356.335938 578.785156 357.878906 579.5625 359.4375 580.300781 C 361 581.042969 362.574219 581.742188 364.171875 582.402344 C 365.765625 583.066406 367.375 583.6875 369 584.269531 C 370.625 584.851562 372.265625 585.394531 373.917969 585.894531 C 375.566406 586.398438 377.230469 586.859375 378.90625 587.277344 C 380.582031 587.699219 382.265625 588.078125 383.957031 588.414062 C 385.652344 588.75 387.351562 589.046875 389.058594 589.300781 C 390.765625 589.554688 392.480469 589.765625 394.199219 589.933594 C 395.917969 590.105469 397.636719 590.230469 399.363281 590.316406 C 401.085938 590.402344 402.8125 590.441406 404.539062 590.441406 C 406.265625 590.441406 407.992188 590.402344 409.714844 590.316406 C 411.441406 590.230469 413.160156 590.105469 414.878906 589.933594 C 416.597656 589.765625 418.308594 589.554688 420.019531 589.300781 C 421.726562 589.046875 423.425781 588.75 425.121094 588.414062 C 426.8125 588.078125 428.496094 587.699219 430.171875 587.277344 C 431.847656 586.859375 433.507812 586.398438 435.160156 585.894531 C 436.8125 585.394531 438.453125 584.851562 440.078125 584.269531 C 441.703125 583.6875 443.3125 583.066406 444.90625 582.402344 C 446.5 581.742188 448.078125 581.042969 449.640625 580.300781 C 451.199219 579.5625 452.738281 578.785156 454.261719 577.972656 C 455.785156 577.15625 457.285156 576.304688 458.765625 575.417969 C 460.246094 574.527344 461.703125 573.605469 463.136719 572.644531 C 464.570312 571.683594 465.980469 570.6875 467.367188 569.660156 C 468.753906 568.628906 470.113281 567.566406 471.445312 566.46875 C 472.777344 565.375 474.085938 564.246094 475.363281 563.085938 C 476.640625 561.925781 477.886719 560.734375 479.105469 559.511719 C 482.265625 556.375 485.664062 553.527344 489.304688 550.964844 C 492.945312 548.402344 496.773438 546.160156 500.789062 544.242188 C 504.808594 542.324219 508.957031 540.753906 513.238281 539.535156 C 517.519531 538.316406 521.875 537.464844 526.300781 536.976562 L 626.84375 778.261719 L 547.585938 762.867188 L 503.894531 642.785156 C 503.664062 642.15625 503.390625 641.546875 503.070312 640.957031 C 502.75 640.371094 502.382812 639.8125 501.976562 639.277344 C 501.570312 638.746094 501.125 638.246094 500.644531 637.785156 C 500.160156 637.320312 499.644531 636.894531 499.097656 636.507812 C 498.550781 636.121094 497.976562 635.78125 497.375 635.484375 C 496.777344 635.183594 496.15625 634.933594 495.519531 634.730469 C 494.878906 634.527344 494.230469 634.371094 493.566406 634.269531 C 492.90625 634.164062 492.242188 634.109375 491.570312 634.109375 C 489.980469 634.125 488.441406 634.40625 486.949219 634.949219 C 486.136719 635.238281 485.359375 635.601562 484.621094 636.046875 C 483.878906 636.488281 483.191406 637 482.554688 637.582031 C 481.914062 638.160156 481.339844 638.796875 480.828125 639.492188 C 480.316406 640.1875 479.878906 640.925781 479.515625 641.707031 C 479.148438 642.488281 478.863281 643.296875 478.660156 644.132812 C 478.457031 644.972656 478.335938 645.820312 478.304688 646.683594 C 478.269531 647.542969 478.316406 648.402344 478.453125 649.253906 C 478.589844 650.105469 478.808594 650.933594 479.105469 651.742188 L 517.335938 756.988281 L 417.773438 737.535156 L 417.773438 667.558594 C 417.820312 667.09375 417.84375 666.632812 417.84375 666.167969 C 417.839844 665.703125 417.816406 665.242188 417.765625 664.78125 C 417.71875 664.320312 417.644531 663.863281 417.546875 663.410156 C 417.449219 662.953125 417.328125 662.507812 417.183594 662.066406 C 417.039062 661.625 416.875 661.191406 416.683594 660.769531 C 416.496094 660.347656 416.285156 659.933594 416.050781 659.53125 C 415.820312 659.128906 415.566406 658.742188 415.292969 658.367188 C 415.019531 657.992188 414.726562 657.632812 414.414062 657.289062 C 414.105469 656.941406 413.777344 656.617188 413.429688 656.304688 C 413.085938 655.996094 412.726562 655.703125 412.351562 655.433594 C 411.972656 655.160156 411.585938 654.90625 411.183594 654.675781 C 410.78125 654.445312 410.367188 654.234375 409.941406 654.046875 C 409.519531 653.855469 409.085938 653.691406 408.644531 653.546875 C 408.203125 653.40625 407.753906 653.285156 407.300781 653.1875 C 406.847656 653.09375 406.390625 653.019531 405.925781 652.972656 C 405.464844 652.921875 405.003906 652.898438 404.539062 652.898438 C 404.074219 652.898438 403.613281 652.921875 403.148438 652.972656 C 402.6875 653.019531 402.230469 653.09375 401.777344 653.1875 C 401.320312 653.285156 400.875 653.40625 400.433594 653.546875 C 399.992188 653.691406 399.558594 653.855469 399.132812 654.046875 C 398.710938 654.234375 398.296875 654.445312 397.894531 654.675781 C 397.492188 654.90625 397.101562 655.160156 396.726562 655.433594 C 396.351562 655.703125 395.992188 655.996094 395.644531 656.304688 C 395.300781 656.617188 394.972656 656.941406 394.660156 657.289062 C 394.351562 657.632812 394.058594 657.992188 393.785156 658.367188 C 393.511719 658.742188 393.257812 659.128906 393.027344 659.53125 C 392.792969 659.933594 392.582031 660.347656 392.394531 660.769531 C 392.203125 661.191406 392.035156 661.625 391.894531 662.066406 C 391.75 662.507812 391.628906 662.953125 391.53125 663.410156 C 391.433594 663.863281 391.359375 664.320312 391.3125 664.78125 C 391.261719 665.242188 391.234375 665.703125 391.234375 666.167969 C 391.234375 666.632812 391.257812 667.09375 391.304688 667.558594 Z M 391.304688 667.417969 " fill-opacity="1" fill-rule="nonzero"/><path fill="#fb653e" d="M 489.890625 216.339844 C 487.820312 215.097656 485.582031 214.492188 483.167969 214.519531 C 482.023438 214.519531 480.898438 214.664062 479.792969 214.953125 C 478.6875 215.246094 477.636719 215.671875 476.644531 216.234375 C 475.648438 216.800781 474.742188 217.484375 473.925781 218.285156 C 473.109375 219.082031 472.410156 219.976562 471.824219 220.957031 L 382.902344 370.152344 L 320.167969 290.9375 C 319.542969 290.164062 318.84375 289.472656 318.0625 288.855469 C 317.285156 288.242188 316.445312 287.722656 315.546875 287.300781 C 314.652344 286.875 313.71875 286.558594 312.746094 286.34375 C 311.777344 286.132812 310.796875 286.027344 309.804688 286.039062 C 308.328125 286.019531 306.894531 286.25 305.5 286.734375 C 304.105469 287.214844 302.832031 287.914062 301.683594 288.835938 C 300.996094 289.375 300.371094 289.976562 299.804688 290.640625 C 299.238281 291.300781 298.746094 292.011719 298.320312 292.773438 C 297.894531 293.535156 297.550781 294.332031 297.285156 295.160156 C 297.019531 295.992188 296.835938 296.839844 296.738281 297.703125 C 296.640625 298.570312 296.628906 299.4375 296.703125 300.304688 C 296.777344 301.175781 296.9375 302.027344 297.179688 302.863281 C 297.425781 303.699219 297.75 304.503906 298.152344 305.277344 C 298.558594 306.046875 299.035156 306.773438 299.582031 307.449219 L 374.082031 401.359375 C 375.378906 402.878906 376.929688 404.066406 378.738281 404.917969 C 380.542969 405.773438 382.445312 406.21875 384.445312 406.257812 L 385.285156 406.257812 C 386.355469 406.191406 387.402344 405.996094 388.425781 405.671875 C 389.449219 405.347656 390.421875 404.90625 391.335938 404.34375 C 392.25 403.785156 393.085938 403.121094 393.835938 402.355469 C 394.589844 401.589844 395.238281 400.746094 395.785156 399.820312 L 494.511719 234.953125 C 494.945312 234.183594 495.300781 233.378906 495.582031 232.542969 C 495.859375 231.707031 496.058594 230.847656 496.179688 229.972656 C 496.296875 229.097656 496.332031 228.222656 496.285156 227.339844 C 496.234375 226.457031 496.105469 225.589844 495.890625 224.730469 C 495.679688 223.875 495.386719 223.042969 495.019531 222.242188 C 494.648438 221.441406 494.207031 220.679688 493.691406 219.960938 C 493.179688 219.246094 492.601562 218.582031 491.960938 217.972656 C 491.324219 217.363281 490.632812 216.816406 489.890625 216.339844 Z M 489.890625 216.339844 " fill-opacity="1" fill-rule="nonzero"/><path fill="#fb653e" d="M 404.46875 108.992188 C 401.328125 108.992188 398.191406 109.070312 395.054688 109.222656 C 391.917969 109.378906 388.789062 109.609375 385.664062 109.917969 C 382.539062 110.222656 379.425781 110.609375 376.320312 111.070312 C 373.210938 111.53125 370.121094 112.066406 367.039062 112.679688 C 363.960938 113.289062 360.898438 113.976562 357.851562 114.738281 C 354.808594 115.503906 351.78125 116.339844 348.777344 117.25 C 345.773438 118.160156 342.792969 119.144531 339.835938 120.203125 C 336.878906 121.257812 333.953125 122.386719 331.050781 123.589844 C 328.152344 124.789062 325.28125 126.0625 322.441406 127.402344 C 319.605469 128.746094 316.800781 130.15625 314.03125 131.632812 C 311.261719 133.113281 308.53125 134.660156 305.839844 136.273438 C 303.144531 137.886719 300.496094 139.5625 297.882812 141.308594 C 295.273438 143.050781 292.707031 144.855469 290.183594 146.726562 C 287.664062 148.597656 285.1875 150.527344 282.761719 152.515625 C 280.335938 154.507812 277.957031 156.554688 275.632812 158.664062 C 273.304688 160.769531 271.03125 162.933594 268.8125 165.152344 C 266.589844 167.371094 264.425781 169.644531 262.320312 171.96875 C 260.210938 174.292969 258.160156 176.667969 256.167969 179.09375 C 254.175781 181.519531 252.246094 183.992188 250.375 186.515625 C 248.503906 189.035156 246.695312 191.597656 244.953125 194.207031 C 243.207031 196.816406 241.53125 199.46875 239.914062 202.160156 C 238.300781 204.851562 236.753906 207.582031 235.273438 210.347656 C 233.792969 213.113281 232.382812 215.917969 231.039062 218.753906 C 229.699219 221.589844 228.425781 224.457031 227.222656 227.359375 C 226.023438 230.257812 224.894531 233.183594 223.835938 236.136719 C 222.777344 239.09375 221.792969 242.070312 220.882812 245.074219 C 219.96875 248.078125 219.132812 251.101562 218.371094 254.144531 C 217.605469 257.1875 216.917969 260.25 216.308594 263.328125 C 215.695312 266.402344 215.15625 269.496094 214.695312 272.597656 C 214.238281 275.703125 213.851562 278.816406 213.542969 281.9375 C 213.238281 285.0625 213.007812 288.191406 212.851562 291.324219 C 212.699219 294.457031 212.621094 297.59375 212.621094 300.734375 C 212.621094 303.871094 212.699219 307.007812 212.851562 310.140625 C 213.007812 313.273438 213.238281 316.402344 213.542969 319.527344 C 213.851562 322.648438 214.238281 325.761719 214.695312 328.867188 C 215.15625 331.972656 215.695312 335.0625 216.308594 338.140625 C 216.917969 341.21875 217.605469 344.277344 218.371094 347.320312 C 219.132812 350.367188 219.96875 353.390625 220.882812 356.390625 C 221.792969 359.394531 222.777344 362.375 223.835938 365.328125 C 224.894531 368.28125 226.023438 371.210938 227.222656 374.109375 C 228.425781 377.007812 229.699219 379.875 231.039062 382.710938 C 232.382812 385.546875 233.792969 388.351562 235.273438 391.117188 C 236.753906 393.886719 238.300781 396.613281 239.914062 399.308594 C 241.53125 402 243.207031 404.648438 244.953125 407.257812 C 246.695312 409.867188 248.503906 412.429688 250.375 414.953125 C 252.246094 417.472656 254.175781 419.945312 256.167969 422.371094 C 258.160156 424.796875 260.210938 427.171875 262.320312 429.496094 C 264.425781 431.824219 266.589844 434.09375 268.8125 436.3125 C 271.03125 438.53125 273.304688 440.695312 275.632812 442.800781 C 277.957031 444.910156 280.335938 446.957031 282.761719 448.949219 C 285.1875 450.941406 287.664062 452.871094 290.183594 454.738281 C 292.707031 456.609375 295.273438 458.414062 297.882812 460.160156 C 300.496094 461.902344 303.144531 463.578125 305.839844 465.191406 C 308.53125 466.804688 311.261719 468.351562 314.03125 469.832031 C 316.800781 471.3125 319.605469 472.722656 322.441406 474.0625 C 325.28125 475.40625 328.152344 476.675781 331.050781 477.878906 C 333.953125 479.078125 336.878906 480.207031 339.835938 481.265625 C 342.792969 482.320312 345.773438 483.304688 348.777344 484.214844 C 351.78125 485.128906 354.808594 485.964844 357.851562 486.726562 C 360.898438 487.488281 363.960938 488.175781 367.039062 488.789062 C 370.121094 489.398438 373.214844 489.9375 376.320312 490.398438 C 379.425781 490.859375 382.539062 491.242188 385.664062 491.550781 C 388.789062 491.855469 391.917969 492.085938 395.054688 492.242188 C 398.191406 492.394531 401.328125 492.472656 404.46875 492.472656 C 407.609375 492.472656 410.746094 492.394531 413.882812 492.242188 C 417.019531 492.085938 420.148438 491.855469 423.273438 491.550781 C 426.398438 491.242188 429.511719 490.859375 432.617188 490.398438 C 435.722656 489.9375 438.816406 489.398438 441.894531 488.789062 C 444.976562 488.175781 448.039062 487.488281 451.082031 486.726562 C 454.128906 485.964844 457.15625 485.128906 460.160156 484.214844 C 463.164062 483.304688 466.144531 482.320312 469.101562 481.265625 C 472.054688 480.207031 474.984375 479.078125 477.886719 477.878906 C 480.785156 476.675781 483.65625 475.40625 486.492188 474.0625 C 489.332031 472.722656 492.136719 471.3125 494.90625 469.832031 C 497.675781 468.351562 500.40625 466.804688 503.097656 465.191406 C 505.792969 463.578125 508.441406 461.902344 511.054688 460.160156 C 513.664062 458.414062 516.230469 456.609375 518.753906 454.738281 C 521.273438 452.871094 523.75 450.941406 526.175781 448.949219 C 528.601562 446.957031 530.980469 444.910156 533.304688 442.800781 C 535.632812 440.695312 537.90625 438.53125 540.125 436.3125 C 542.34375 434.09375 544.511719 431.824219 546.617188 429.496094 C 548.726562 427.171875 550.777344 424.796875 552.769531 422.371094 C 554.761719 419.945312 556.691406 417.472656 558.5625 414.953125 C 560.433594 412.429688 562.238281 409.867188 563.984375 407.257812 C 565.730469 404.648438 567.40625 402 569.023438 399.308594 C 570.636719 396.613281 572.183594 393.886719 573.664062 391.117188 C 575.144531 388.351562 576.554688 385.546875 577.898438 382.710938 C 579.238281 379.875 580.511719 377.007812 581.710938 374.109375 C 582.914062 371.210938 584.042969 368.28125 585.101562 365.328125 C 586.160156 362.375 587.144531 359.394531 588.054688 356.390625 C 588.96875 353.390625 589.804688 350.367188 590.566406 347.320312 C 591.328125 344.277344 592.019531 341.21875 592.628906 338.140625 C 593.242188 335.0625 593.777344 331.972656 594.238281 328.867188 C 594.699219 325.761719 595.085938 322.648438 595.394531 319.527344 C 595.699219 316.402344 595.929688 313.273438 596.085938 310.140625 C 596.238281 307.007812 596.316406 303.871094 596.316406 300.734375 C 596.3125 297.597656 596.230469 294.460938 596.070312 291.328125 C 595.914062 288.195312 595.679688 285.070312 595.367188 281.949219 C 595.054688 278.828125 594.667969 275.714844 594.203125 272.613281 C 593.738281 269.511719 593.199219 266.421875 592.582031 263.347656 C 591.96875 260.269531 591.277344 257.210938 590.511719 254.167969 C 589.746094 251.128906 588.90625 248.105469 587.992188 245.105469 C 587.078125 242.105469 586.09375 239.128906 585.03125 236.175781 C 583.972656 233.222656 582.839844 230.296875 581.636719 227.402344 C 580.433594 224.503906 579.160156 221.636719 577.816406 218.804688 C 576.472656 215.96875 575.0625 213.167969 573.582031 210.402344 C 572.101562 207.636719 570.550781 204.910156 568.9375 202.21875 C 567.324219 199.53125 565.644531 196.882812 563.898438 194.273438 C 562.152344 191.667969 560.347656 189.105469 558.476562 186.585938 C 556.605469 184.066406 554.675781 181.59375 552.683594 179.171875 C 550.691406 176.746094 548.640625 174.371094 546.535156 172.046875 C 544.425781 169.722656 542.261719 167.453125 540.042969 165.234375 C 537.824219 163.015625 535.550781 160.855469 533.226562 158.746094 C 530.902344 156.640625 528.527344 154.59375 526.101562 152.601562 C 523.675781 150.613281 521.203125 148.683594 518.679688 146.8125 C 516.160156 144.945312 513.597656 143.136719 510.988281 141.394531 C 508.378906 139.648438 505.726562 137.972656 503.039062 136.355469 C 500.347656 134.742188 497.617188 133.195312 494.851562 131.714844 C 492.082031 130.234375 489.28125 128.824219 486.445312 127.480469 C 483.609375 126.140625 480.742188 124.867188 477.84375 123.664062 C 474.945312 122.460938 472.015625 121.332031 469.0625 120.269531 C 466.109375 119.210938 463.128906 118.226562 460.128906 117.3125 C 457.125 116.398438 454.101562 115.558594 451.058594 114.792969 C 448.015625 114.03125 444.953125 113.339844 441.875 112.722656 C 438.800781 112.109375 435.707031 111.570312 432.605469 111.105469 C 429.5 110.640625 426.386719 110.253906 423.265625 109.941406 C 420.140625 109.628906 417.011719 109.394531 413.878906 109.238281 C 410.742188 109.078125 407.605469 109 404.46875 108.992188 Z M 404.46875 466.019531 C 401.761719 466.019531 399.058594 465.953125 396.355469 465.820312 C 393.652344 465.6875 390.953125 465.488281 388.257812 465.226562 C 385.566406 464.960938 382.878906 464.628906 380.203125 464.230469 C 377.523438 463.835938 374.859375 463.371094 372.203125 462.84375 C 369.550781 462.316406 366.910156 461.722656 364.285156 461.066406 C 361.660156 460.410156 359.050781 459.6875 356.460938 458.902344 C 353.871094 458.117188 351.300781 457.269531 348.753906 456.359375 C 346.203125 455.449219 343.679688 454.472656 341.179688 453.4375 C 338.679688 452.402344 336.207031 451.308594 333.757812 450.152344 C 331.3125 448.996094 328.894531 447.777344 326.507812 446.503906 C 324.121094 445.230469 321.765625 443.894531 319.445312 442.503906 C 317.125 441.113281 314.839844 439.667969 312.585938 438.164062 C 310.335938 436.660156 308.125 435.105469 305.949219 433.492188 C 303.777344 431.882812 301.644531 430.21875 299.550781 428.503906 C 297.460938 426.785156 295.410156 425.019531 293.40625 423.203125 C 291.398438 421.386719 289.441406 419.523438 287.527344 417.609375 C 285.613281 415.695312 283.746094 413.738281 281.929688 411.734375 C 280.113281 409.730469 278.34375 407.679688 276.628906 405.589844 C 274.910156 403.5 273.246094 401.367188 271.632812 399.195312 C 270.019531 397.023438 268.460938 394.8125 266.960938 392.5625 C 265.457031 390.3125 264.007812 388.027344 262.617188 385.707031 C 261.226562 383.386719 259.890625 381.035156 258.617188 378.648438 C 257.339844 376.261719 256.121094 373.847656 254.964844 371.402344 C 253.808594 368.957031 252.710938 366.484375 251.675781 363.984375 C 250.640625 361.488281 249.667969 358.964844 248.753906 356.417969 C 247.84375 353.871094 246.996094 351.300781 246.207031 348.714844 C 245.421875 346.125 244.699219 343.519531 244.042969 340.894531 C 243.386719 338.269531 242.792969 335.632812 242.265625 332.980469 C 241.738281 330.324219 241.273438 327.660156 240.878906 324.984375 C 240.480469 322.308594 240.148438 319.625 239.882812 316.933594 C 239.617188 314.242188 239.417969 311.546875 239.285156 308.84375 C 239.152344 306.140625 239.085938 303.4375 239.085938 300.734375 C 239.085938 298.027344 239.152344 295.324219 239.285156 292.621094 C 239.417969 289.921875 239.617188 287.222656 239.882812 284.53125 C 240.148438 281.839844 240.480469 279.15625 240.878906 276.480469 C 241.273438 273.804688 241.738281 271.140625 242.265625 268.488281 C 242.792969 265.832031 243.386719 263.195312 244.042969 260.570312 C 244.699219 257.949219 245.421875 255.339844 246.207031 252.753906 C 246.996094 250.164062 247.84375 247.597656 248.753906 245.050781 C 249.667969 242.503906 250.640625 239.980469 251.675781 237.480469 C 252.710938 234.980469 253.808594 232.507812 254.964844 230.0625 C 256.121094 227.617188 257.339844 225.203125 258.617188 222.816406 C 259.890625 220.429688 261.226562 218.078125 262.617188 215.757812 C 264.007812 213.4375 265.457031 211.152344 266.960938 208.902344 C 268.460938 206.65625 270.019531 204.445312 271.632812 202.269531 C 273.246094 200.097656 274.910156 197.964844 276.628906 195.875 C 278.34375 193.785156 280.113281 191.738281 281.929688 189.734375 C 283.746094 187.726562 285.613281 185.769531 287.527344 183.855469 C 289.441406 181.945312 291.398438 180.078125 293.40625 178.261719 C 295.410156 176.445312 297.460938 174.679688 299.550781 172.964844 C 301.644531 171.246094 303.777344 169.585938 305.949219 167.972656 C 308.125 166.359375 310.335938 164.804688 312.585938 163.300781 C 314.839844 161.796875 317.125 160.351562 319.445312 158.960938 C 321.765625 157.570312 324.121094 156.238281 326.507812 154.960938 C 328.894531 153.6875 331.3125 152.472656 333.757812 151.316406 C 336.207031 150.15625 338.679688 149.0625 341.179688 148.027344 C 343.679688 146.992188 346.203125 146.019531 348.753906 145.105469 C 351.300781 144.195312 353.871094 143.347656 356.460938 142.5625 C 359.050781 141.777344 361.660156 141.054688 364.285156 140.398438 C 366.910156 139.742188 369.550781 139.148438 372.203125 138.621094 C 374.859375 138.09375 377.523438 137.632812 380.203125 137.234375 C 382.878906 136.835938 385.566406 136.507812 388.257812 136.242188 C 390.953125 135.976562 393.648438 135.777344 396.355469 135.644531 C 399.058594 135.511719 401.761719 135.445312 404.46875 135.445312 C 407.175781 135.445312 409.878906 135.511719 412.582031 135.644531 C 415.285156 135.777344 417.984375 135.976562 420.679688 136.242188 C 423.371094 136.507812 426.058594 136.835938 428.734375 137.234375 C 431.414062 137.632812 434.078125 138.09375 436.734375 138.621094 C 439.386719 139.148438 442.027344 139.742188 444.652344 140.398438 C 447.277344 141.054688 449.886719 141.777344 452.476562 142.5625 C 455.066406 143.347656 457.636719 144.195312 460.183594 145.105469 C 462.730469 146.019531 465.257812 146.992188 467.757812 148.027344 C 470.257812 149.0625 472.730469 150.15625 475.179688 151.316406 C 477.625 152.472656 480.042969 153.6875 482.429688 154.960938 C 484.816406 156.238281 487.171875 157.570312 489.492188 158.960938 C 491.8125 160.351562 494.097656 161.796875 496.347656 163.300781 C 498.601562 164.804688 500.8125 166.359375 502.984375 167.972656 C 505.160156 169.585938 507.292969 171.246094 509.386719 172.964844 C 511.476562 174.679688 513.527344 176.445312 515.53125 178.261719 C 517.539062 180.078125 519.496094 181.945312 521.410156 183.855469 C 523.324219 185.769531 525.191406 187.726562 527.007812 189.734375 C 528.824219 191.738281 530.59375 193.785156 532.308594 195.875 C 534.027344 197.964844 535.691406 200.097656 537.304688 202.269531 C 538.917969 204.445312 540.472656 206.65625 541.976562 208.902344 C 543.480469 211.152344 544.929688 213.4375 546.320312 215.757812 C 547.710938 218.078125 549.046875 220.429688 550.320312 222.816406 C 551.597656 225.203125 552.8125 227.617188 553.972656 230.0625 C 555.128906 232.507812 556.226562 234.980469 557.261719 237.480469 C 558.296875 239.980469 559.269531 242.503906 560.183594 245.050781 C 561.09375 247.597656 561.941406 250.164062 562.726562 252.753906 C 563.515625 255.339844 564.234375 257.949219 564.894531 260.570312 C 565.550781 263.195312 566.144531 265.832031 566.671875 268.488281 C 567.199219 271.140625 567.664062 273.804688 568.058594 276.480469 C 568.457031 279.15625 568.789062 281.839844 569.054688 284.53125 C 569.320312 287.222656 569.519531 289.921875 569.652344 292.621094 C 569.785156 295.324219 569.851562 298.027344 569.851562 300.734375 C 569.84375 303.4375 569.773438 306.140625 569.636719 308.839844 C 569.5 311.539062 569.296875 314.234375 569.027344 316.925781 C 568.757812 319.617188 568.425781 322.296875 568.023438 324.972656 C 567.621094 327.644531 567.15625 330.308594 566.625 332.960938 C 566.09375 335.609375 565.5 338.246094 564.839844 340.871094 C 564.179688 343.492188 563.453125 346.097656 562.664062 348.683594 C 561.878906 351.269531 561.027344 353.835938 560.113281 356.378906 C 559.199219 358.925781 558.222656 361.445312 557.1875 363.941406 C 556.148438 366.441406 555.050781 368.910156 553.890625 371.351562 C 552.734375 373.796875 551.515625 376.210938 550.238281 378.59375 C 548.960938 380.976562 547.628906 383.328125 546.234375 385.648438 C 544.84375 387.964844 543.394531 390.25 541.890625 392.496094 C 540.386719 394.742188 538.832031 396.953125 537.21875 399.125 C 535.605469 401.296875 533.941406 403.425781 532.222656 405.515625 C 530.507812 407.605469 528.742188 409.652344 526.925781 411.65625 C 525.105469 413.65625 523.242188 415.617188 521.328125 417.527344 C 519.417969 419.4375 517.457031 421.304688 515.453125 423.117188 C 513.449219 424.933594 511.402344 426.699219 509.308594 428.417969 C 507.21875 430.132812 505.085938 431.796875 502.914062 433.40625 C 500.742188 435.019531 498.53125 436.574219 496.285156 438.078125 C 494.035156 439.582031 491.75 441.027344 489.429688 442.421875 C 487.109375 443.8125 484.757812 445.144531 482.375 446.421875 C 479.988281 447.699219 477.574219 448.914062 475.128906 450.070312 C 472.683594 451.230469 470.210938 452.328125 467.714844 453.363281 C 465.214844 454.402344 462.691406 455.375 460.148438 456.289062 C 457.601562 457.203125 455.03125 458.054688 452.445312 458.839844 C 449.855469 459.628906 447.25 460.351562 444.628906 461.011719 C 442.003906 461.671875 439.367188 462.269531 436.714844 462.796875 C 434.0625 463.328125 431.398438 463.796875 428.722656 464.195312 C 426.046875 464.597656 423.363281 464.929688 420.671875 465.199219 C 417.976562 465.46875 415.28125 465.671875 412.578125 465.808594 C 409.878906 465.945312 407.175781 466.015625 404.46875 466.019531 Z M 404.46875 466.019531 " fill-opacity="1" fill-rule="nonzero"/></svg>