<svg xmlns="http://www.w3.org/2000/svg" width="1080" height="1080" version="1.0" viewBox="0 0 810 810"><path fill="#fb653e" d="M640.426 430.89a77.94 77.94 0 0 1 .351-7.757 77.182 77.182 0 0 1 1.114-7.688 78.155 78.155 0 0 1 4.472-14.86 77.869 77.869 0 0 1 3.317-7.026 78.244 78.244 0 0 1 13.855-18.649 115.36 115.36 0 0 0 3.563-3.75 107.351 107.351 0 0 0 3.375-3.918 106.776 106.776 0 0 0 3.18-4.082 109.646 109.646 0 0 0 2.972-4.23 105.584 105.584 0 0 0 5.313-8.875c.812-1.52 1.585-3.059 2.324-4.621a108.522 108.522 0 0 0 2.093-4.727 106.138 106.138 0 0 0 3.48-9.738 105.785 105.785 0 0 0 3.39-15.125 103.63 103.63 0 0 0 1.012-10.29 103.746 103.746 0 0 0 .001-10.34 103.787 103.787 0 0 0-1.011-10.292 105.785 105.785 0 0 0-2.016-10.14 105.764 105.764 0 0 0-1.375-4.985c-.5-1.649-1.043-3.29-1.621-4.91a110.87 110.87 0 0 0-1.86-4.828c-.66-1.594-1.359-3.168-2.093-4.727a106.374 106.374 0 0 0-4.871-9.125 111.074 111.074 0 0 0-2.766-4.371 103.67 103.67 0 0 0-6.152-8.309 107.474 107.474 0 0 0-3.375-3.922 115.36 115.36 0 0 0-3.563-3.75 78.321 78.321 0 0 1-5.246-5.734 78.412 78.412 0 0 1-4.648-6.23 78.775 78.775 0 0 1-4.004-6.664 77.371 77.371 0 0 1-3.317-7.028 77.835 77.835 0 0 1-4.465-14.867 78 78 0 0 1-1.43-15.457 103.45 103.45 0 0 0-.152-5.164c-.093-1.723-.23-3.438-.406-5.152a108.087 108.087 0 0 0-1.566-10.211c-.344-1.688-.73-3.364-1.156-5.036-.43-1.667-.895-3.324-1.403-4.972a104.442 104.442 0 0 0-3.527-9.711 103.742 103.742 0 0 0-2.113-4.711 101.924 101.924 0 0 0-2.344-4.606 99.834 99.834 0 0 0-2.567-4.484 105.376 105.376 0 0 0-5.773-8.57 106.418 106.418 0 0 0-10.164-11.692 107.352 107.352 0 0 0-3.754-3.546 103.584 103.584 0 0 0-3.926-3.364 103.638 103.638 0 0 0-4.086-3.168 106.564 106.564 0 0 0-13.113-8.25 108.347 108.347 0 0 0-4.621-2.308c-1.563-.735-3.14-1.43-4.734-2.082a107.593 107.593 0 0 0-4.825-1.852 107.714 107.714 0 0 0-4.914-1.61 104.395 104.395 0 0 0-10.031-2.488 106.659 106.659 0 0 0-10.227-1.5 108.15 108.15 0 0 0-5.156-.37 108.39 108.39 0 0 0-5.168-.122 78.078 78.078 0 0 1-37.37-9.203 78.185 78.185 0 0 1-18.64-13.887 104.228 104.228 0 0 0-3.755-3.562 104.276 104.276 0 0 0-8.004-6.55 105.5 105.5 0 0 0-37.196-17.552 104.877 104.877 0 0 0-10.148-2.015c-1.707-.25-3.418-.461-5.133-.633a108.713 108.713 0 0 0-5.16-.379c-1.727-.082-3.45-.125-5.176-.125-1.722 0-3.449.043-5.172.125-1.722.086-3.441.21-5.16.379-1.715.172-3.43.383-5.137.633a105.784 105.784 0 0 0-10.145 2.016 104.628 104.628 0 0 0-14.73 4.855 106.177 106.177 0 0 0-4.734 2.09 108.296 108.296 0 0 0-9.125 4.867c-1.48.887-2.941 1.808-4.375 2.765a105.628 105.628 0 0 0-8.316 6.149 107.474 107.474 0 0 0-3.922 3.375 104.115 104.115 0 0 0-3.75 3.562 78.282 78.282 0 0 1-11.985 9.868 77.786 77.786 0 0 1-13.695 7.312 78.213 78.213 0 0 1-30.336 5.91 108.724 108.724 0 0 0-10.332.52c-1.715.172-3.426.386-5.133.64-1.707.254-3.406.551-5.097.891a102.24 102.24 0 0 0-5.047 1.137c-1.672.422-3.332.883-4.985 1.383a109.381 109.381 0 0 0-4.91 1.625 106.022 106.022 0 0 0-18.676 8.84c-1.48.89-2.933 1.812-4.37 2.769a102.817 102.817 0 0 0-4.227 2.98 103.671 103.671 0 0 0-7.996 6.559 104.11 104.11 0 0 0-3.746 3.566 103.996 103.996 0 0 0-3.567 3.743 106.623 106.623 0 0 0-6.566 7.992 106.746 106.746 0 0 0-2.98 4.226 104.02 104.02 0 0 0-5.32 8.867 106.302 106.302 0 0 0-4.43 9.34 107.777 107.777 0 0 0-3.493 9.735c-.5 1.648-.96 3.308-1.383 4.98-.422 1.672-.8 3.356-1.136 5.043-.34 1.692-.637 3.39-.891 5.094a103.43 103.43 0 0 0-.64 5.133c-.173 1.715-.301 3.433-.387 5.156a108.65 108.65 0 0 0-.133 5.168 79.212 79.212 0 0 1-.348 7.762 78.098 78.098 0 0 1-2.984 15.227 78.335 78.335 0 0 1-2.602 7.32 80.587 80.587 0 0 1-3.316 7.027 78.626 78.626 0 0 1-3.996 6.66 78.349 78.349 0 0 1-9.86 11.988 106.723 106.723 0 0 0-6.89 7.672 106.081 106.081 0 0 0-8.844 12.684 105.807 105.807 0 0 0-6.89 13.836c-.65 1.594-1.262 3.199-1.837 4.82a113.878 113.878 0 0 0-1.597 4.902 105.19 105.19 0 0 0-1.352 4.977 101.534 101.534 0 0 0-1.11 5.035 101.58 101.58 0 0 0-.862 5.086c-.247 1.703-.45 3.41-.61 5.121a98.333 98.333 0 0 0-.36 5.145 103.134 103.134 0 0 0 .04 10.309c.09 1.718.223 3.429.394 5.14a107.077 107.077 0 0 0 1.551 10.195 106.238 106.238 0 0 0 2.54 9.992 107.134 107.134 0 0 0 3.507 9.696 103.472 103.472 0 0 0 2.106 4.707 101.577 101.577 0 0 0 2.332 4.601 110.116 110.116 0 0 0 2.554 4.477 105.007 105.007 0 0 0 5.758 8.559c1.027 1.378 2.09 2.73 3.184 4.058a106.72 106.72 0 0 0 3.379 3.895c1.16 1.27 2.347 2.511 3.566 3.726a78.995 78.995 0 0 1 21.61 40.543 78.308 78.308 0 0 1 1.128 7.684c.25 2.578.371 5.164.367 7.754-.003 3.046.125 6.086.387 9.12.258 3.036.649 6.055 1.172 9.055.52 3 1.172 5.973 1.953 8.918a104.596 104.596 0 0 0 2.715 8.715 105.868 105.868 0 0 0 3.46 8.45 107.518 107.518 0 0 0 4.18 8.117 105.524 105.524 0 0 0 23.204 27.984 105.266 105.266 0 0 0 22.93 14.867c2.75 1.317 5.55 2.508 8.406 3.574a105.68 105.68 0 0 0 8.68 2.836c2.937.82 5.902 1.508 8.898 2.07L148.343 790.86a13.252 13.252 0 0 0-.73 6.227 13.097 13.097 0 0 0 1.395 4.508 13.253 13.253 0 0 0 6.89 6.238c.493.195.993.363 1.5.496a13.145 13.145 0 0 0 3.13.445h2.519l241.422-46.886 241.422 46.886h2.52a13.868 13.868 0 0 0 5.628-1.37 13.81 13.81 0 0 0 4.594-3.528 12.96 12.96 0 0 0 2.008-3.137 12.952 12.952 0 0 0 1.02-7.297 12.927 12.927 0 0 0-1.067-3.562L554.027 534.598a106.203 106.203 0 0 0 17.629-4.863 105.138 105.138 0 0 0 16.523-7.836 105.748 105.748 0 0 0 14.926-10.563 106.408 106.408 0 0 0 6.72-6.215 103.07 103.07 0 0 0 6.155-6.77 103.295 103.295 0 0 0 5.547-7.277 105.16 105.16 0 0 0 9.102-15.852c1.285-2.769 2.45-5.59 3.488-8.46a106.06 106.06 0 0 0 2.742-8.727 105.579 105.579 0 0 0 3.567-27.144Zm-105.727 79.215a105.248 105.248 0 0 0-20.59 1.973 104.832 104.832 0 0 0-19.805 5.969 104.445 104.445 0 0 0-9.367 4.414 105.725 105.725 0 0 0-8.886 5.316 103.319 103.319 0 0 0-8.317 6.168 104.275 104.275 0 0 0-7.671 6.953 79.244 79.244 0 0 1-2.813 2.684 75.79 75.79 0 0 1-2.945 2.54 75.89 75.89 0 0 1-3.063 2.398c-1.039.77-2.101 1.52-3.176 2.238a80.12 80.12 0 0 1-6.668 4.004c-1.144.61-2.3 1.195-3.472 1.75a82.564 82.564 0 0 1-3.555 1.578 81.622 81.622 0 0 1-7.32 2.621 83.248 83.248 0 0 1-3.75 1.039c-1.258.313-2.52.598-3.793.852-1.274.253-2.551.476-3.832.664a80.926 80.926 0 0 1-7.738.766 80.813 80.813 0 0 1-7.778 0 80.18 80.18 0 0 1-11.57-1.43 83.307 83.307 0 0 1-3.797-.852 83.087 83.087 0 0 1-3.746-1.04 80.031 80.031 0 0 1-10.875-4.198 82.453 82.453 0 0 1-3.473-1.75 80.12 80.12 0 0 1-3.383-1.922 73.828 73.828 0 0 1-3.285-2.082 78.62 78.62 0 0 1-9.183-7.176 76.021 76.021 0 0 1-2.813-2.684 103.98 103.98 0 0 0-7.648-6.957 104.968 104.968 0 0 0-17.164-11.484 104.668 104.668 0 0 0-9.352-4.414 103.42 103.42 0 0 0-9.738-3.473c-3.305-1-6.649-1.832-10.035-2.496a104.882 104.882 0 0 0-20.563-1.969 79.905 79.905 0 0 1-7.722-.445 79.068 79.068 0 0 1-11.407-2.07 76.289 76.289 0 0 1-3.722-1.059 80.743 80.743 0 0 1-7.266-2.652 79.34 79.34 0 0 1-10.324-5.277 79.306 79.306 0 0 1-6.407-4.329 81.82 81.82 0 0 1-3.039-2.394 85.91 85.91 0 0 1-2.918-2.54 85.913 85.913 0 0 1-2.789-2.679 81.809 81.809 0 0 1-5.168-5.75 77.935 77.935 0 0 1-4.585-6.226 76.683 76.683 0 0 1-2.06-3.274 79.088 79.088 0 0 1-1.898-3.367 81.638 81.638 0 0 1-1.73-3.461 81.483 81.483 0 0 1-1.559-3.535 76.357 76.357 0 0 1-1.382-3.613 76.071 76.071 0 0 1-1.207-3.672 79.496 79.496 0 0 1-1.871-7.5 78.471 78.471 0 0 1-.657-3.813 84.25 84.25 0 0 1-.472-3.836 79.923 79.923 0 0 1-.375-7.722 104.723 104.723 0 0 0-1.97-20.551 104.863 104.863 0 0 0-5.969-19.762c-1.32-3.187-2.792-6.3-4.42-9.344a103.312 103.312 0 0 0-5.321-8.863 105.313 105.313 0 0 0-6.168-8.293 105.673 105.673 0 0 0-6.961-7.644 78.801 78.801 0 0 1-5.227-5.75 78.709 78.709 0 0 1-6.723-9.52 77.864 77.864 0 0 1-5.25-10.406 79.813 79.813 0 0 1-2.624-7.317 78.223 78.223 0 0 1-1.89-7.54 79.176 79.176 0 0 1-.669-3.827 80.04 80.04 0 0 1-.476-3.86 80.377 80.377 0 0 1-.383-7.76 80.377 80.377 0 0 1 .383-7.762 80.04 80.04 0 0 1 .476-3.86c.192-1.281.414-2.559.668-3.828a78.223 78.223 0 0 1 3.113-11.23 79.813 79.813 0 0 1 2.98-7.18 77.864 77.864 0 0 1 3.673-6.852 78.709 78.709 0 0 1 9.266-12.46 79.13 79.13 0 0 1 2.683-2.81c2.45-2.44 4.77-4.992 6.965-7.663a104.635 104.635 0 0 0 23.844-66.934c.003-1.293.035-2.586.101-3.875a79.706 79.706 0 0 1 1.442-11.531 77.798 77.798 0 0 1 1.898-7.516 75.103 75.103 0 0 1 1.219-3.68 79.514 79.514 0 0 1 4.726-10.62 82.139 82.139 0 0 1 1.918-3.372c.664-1.105 1.36-2.199 2.078-3.27a74.64 74.64 0 0 1 2.239-3.167 78.201 78.201 0 0 1 7.601-8.793 75.709 75.709 0 0 1 2.813-2.672 75.262 75.262 0 0 1 2.937-2.527c1-.82 2.02-1.618 3.063-2.383a74.59 74.59 0 0 1 3.172-2.23 79.602 79.602 0 0 1 6.652-3.984 82.081 82.081 0 0 1 7.016-3.31 81.209 81.209 0 0 1 3.617-1.394 81.208 81.208 0 0 1 3.683-1.215 76.758 76.758 0 0 1 3.743-1.031 74.32 74.32 0 0 1 3.78-.848 78.993 78.993 0 0 1 3.825-.664 79.104 79.104 0 0 1 7.719-.758 80.207 80.207 0 0 1 3.879-.097c3.449.015 6.894-.145 10.328-.473 3.433-.328 6.847-.828 10.23-1.492a105.16 105.16 0 0 0 10.035-2.496 104.597 104.597 0 0 0 19.09-7.887c3.043-1.63 6-3.399 8.867-5.32a104.61 104.61 0 0 0 8.297-6.165 104.862 104.862 0 0 0 7.649-6.957 79.359 79.359 0 0 1 2.816-2.683 76.234 76.234 0 0 1 2.942-2.543 77.605 77.605 0 0 1 6.242-4.633 77.525 77.525 0 0 1 3.281-2.086 87.43 87.43 0 0 1 3.383-1.918 79.966 79.966 0 0 1 7.027-3.328 81.726 81.726 0 0 1 7.32-2.621 79.278 79.278 0 0 1 7.543-1.89 80.178 80.178 0 0 1 3.832-.669 85.984 85.984 0 0 1 3.86-.476 80.908 80.908 0 0 1 3.879-.285 80.813 80.813 0 0 1 7.777 0c1.297.062 2.59.16 3.879.285 1.293.129 2.578.289 3.86.476 1.285.192 2.562.414 3.831.668a78.38 78.38 0 0 1 11.239 3.114 78.006 78.006 0 0 1 7.18 2.977 80.15 80.15 0 0 1 6.855 3.667 77.657 77.657 0 0 1 3.285 2.086 77.605 77.605 0 0 1 3.18 2.238 86.003 86.003 0 0 1 3.062 2.395c1 .824 1.98 1.672 2.942 2.543.96.87 1.898 1.765 2.812 2.683a105.92 105.92 0 0 0 7.594 6.97 106.698 106.698 0 0 0 8.242 6.187 105.024 105.024 0 0 0 27.781 13.344 104.503 104.503 0 0 0 9.985 2.566 105.517 105.517 0 0 0 20.476 2.144 80.045 80.045 0 0 1 7.739.391 79.42 79.42 0 0 1 7.66 1.148c1.27.254 2.527.54 3.78.856a77.737 77.737 0 0 1 7.411 2.254c1.219.437 2.422.902 3.613 1.398a77.45 77.45 0 0 1 7 3.317 81.046 81.046 0 0 1 6.645 3.98 81.123 81.123 0 0 1 6.223 4.617c.996.82 1.972 1.66 2.933 2.528.957.867 1.89 1.757 2.805 2.672a78.684 78.684 0 0 1 7.586 8.789 78.14 78.14 0 0 1 6.218 9.804 79.5 79.5 0 0 1 3.32 6.996c.493 1.192.962 2.395 1.4 3.61a77.737 77.737 0 0 1 2.254 7.41 78.55 78.55 0 0 1 2.293 15.293c.066 1.289.1 2.582.1 3.871a106.33 106.33 0 0 0 .47 10.344 104.495 104.495 0 0 0 11.875 39.402 104.635 104.635 0 0 0 11.5 17.191 104.259 104.259 0 0 0 6.964 7.66c.922.915 1.82 1.848 2.7 2.805a79.485 79.485 0 0 1 7.214 9.168 77.56 77.56 0 0 1 4.024 6.66 78.129 78.129 0 0 1 3.348 7.023c.5 1.196.968 2.407 1.41 3.626a83.334 83.334 0 0 1 1.226 3.691 83.34 83.34 0 0 1 1.047 3.75 78.41 78.41 0 0 1 .856 3.797c.257 1.27.48 2.547.671 3.832.192 1.281.352 2.57.48 3.86a80.7 80.7 0 0 1 .384 7.77 80.7 80.7 0 0 1-.383 7.773 80.059 80.059 0 0 1-.48 3.859 74.092 74.092 0 0 1-.673 3.832 78.41 78.41 0 0 1-.855 3.797 83.34 83.34 0 0 1-1.047 3.75 83.334 83.334 0 0 1-1.226 3.691 79.928 79.928 0 0 1-2.996 7.18 76.004 76.004 0 0 1-1.762 3.469 77.56 77.56 0 0 1-4.023 6.66 75.233 75.233 0 0 1-2.255 3.176 79.484 79.484 0 0 1-4.96 5.992 83.143 83.143 0 0 1-2.7 2.804 104.245 104.245 0 0 0-6.886 7.618 105.002 105.002 0 0 0-6.11 8.257 105.64 105.64 0 0 0-5.265 8.817 104.694 104.694 0 0 0-7.82 18.965 104.519 104.519 0 0 0-3.96 20.125c-.334 3.41-.494 6.828-.486 10.254a80.53 80.53 0 0 1-.094 3.886 80.18 80.18 0 0 1-1.43 11.57 78.234 78.234 0 0 1-1.89 7.54 75.537 75.537 0 0 1-1.219 3.691 79.895 79.895 0 0 1-2.977 7.184 78.002 78.002 0 0 1-1.75 3.472 78.214 78.214 0 0 1-4 6.668 77.605 77.605 0 0 1-4.632 6.243 75.79 75.79 0 0 1-2.54 2.945 79.36 79.36 0 0 1-14.695 12.668 80.18 80.18 0 0 1-6.672 3.996c-1.144.61-2.3 1.191-3.472 1.746a78.148 78.148 0 0 1-7.188 2.977 81.682 81.682 0 0 1-7.441 2.258 83.308 83.308 0 0 1-3.797.85c-1.273.25-2.55.474-3.832.665-1.285.191-2.57.348-3.863.477-1.29.125-2.582.222-3.88.285-1.296.062-2.589.093-3.89.093ZM391.305 667.418v69.977l-99.703 19.593 38.226-105.246c.3-.808.52-1.637.656-2.488a13.172 13.172 0 0 0-.207-5.121 12.787 12.787 0 0 0-.855-2.426 12.914 12.914 0 0 0-3.04-4.125 12.6 12.6 0 0 0-2.066-1.535 12.799 12.799 0 0 0-2.328-1.098 12.557 12.557 0 0 0-4.48-.84 13.94 13.94 0 0 0-7.512 2.5 13.948 13.948 0 0 0-2.922 2.73c-.844 1.052-1.52 2.2-2.031 3.446l-43.691 120.082-79.118 15.395 100.403-241.285a79.421 79.421 0 0 1 25.586 7.242 79.35 79.35 0 0 1 21.746 15.293 104.328 104.328 0 0 0 7.664 6.957 103.956 103.956 0 0 0 8.308 6.176 105.75 105.75 0 0 0 8.875 5.328 106.445 106.445 0 0 0 9.356 4.43 103.434 103.434 0 0 0 9.746 3.492c1.648.503 3.312.964 4.988 1.382 1.676.422 3.36.801 5.051 1.137 1.695.336 3.395.633 5.102.887 1.707.254 3.421.465 5.14.633a103.609 103.609 0 0 0 10.34.507 103.9 103.9 0 0 0 10.34-.507 103.695 103.695 0 0 0 10.242-1.52c1.692-.336 3.375-.715 5.05-1.137 1.677-.418 3.337-.879 4.99-1.382a103.434 103.434 0 0 0 9.745-3.493c1.594-.66 3.172-1.359 4.735-2.101a108.723 108.723 0 0 0 4.62-2.328 105.75 105.75 0 0 0 13.105-8.313 103.956 103.956 0 0 0 4.08-3.191 103.864 103.864 0 0 0 7.66-6.957 79.3 79.3 0 0 1 34.133-19.977 79.452 79.452 0 0 1 13.062-2.558l100.543 241.285-79.258-15.395-43.691-120.082a13.702 13.702 0 0 0-.825-1.828 13.448 13.448 0 0 0-1.093-1.68 13.07 13.07 0 0 0-1.332-1.492c-.485-.465-1-.89-1.547-1.277a12.745 12.745 0 0 0-1.723-1.024c-.598-.3-1.219-.55-1.855-.754-.641-.203-1.29-.359-1.954-.46-.66-.106-1.324-.16-1.996-.16-1.59.015-3.129.296-4.62.84-.813.288-1.59.652-2.329 1.097a12.6 12.6 0 0 0-2.066 1.535 12.914 12.914 0 0 0-3.04 4.125c-.367.781-.652 1.59-.855 2.426-.203.84-.324 1.687-.355 2.55-.035.86.011 1.72.148 2.57.137.852.356 1.68.652 2.49l38.23 105.245-99.562-19.453V667.56c.047-.465.07-.926.07-1.391a13.684 13.684 0 0 0-.296-2.758 13.103 13.103 0 0 0-.363-1.344 12.695 12.695 0 0 0-.5-1.296 12.741 12.741 0 0 0-.633-1.239 12.903 12.903 0 0 0-1.637-2.242 12.319 12.319 0 0 0-.984-.984 13.249 13.249 0 0 0-4.785-2.758c-.442-.14-.891-.262-1.344-.36-.453-.093-.91-.167-1.375-.214a12.758 12.758 0 0 0-2.777 0c-.462.047-.919.12-1.372.214a13.124 13.124 0 0 0-2.645.86c-.421.187-.835.398-1.237.629a13.529 13.529 0 0 0-2.25 1.629c-.344.312-.672.636-.985.984-.308.344-.601.703-.875 1.078-.273.375-.527.762-.758 1.164-.234.403-.445.817-.632 1.239-.192.421-.36.855-.5 1.296a13.103 13.103 0 0 0-.582 2.715c-.051.461-.079.922-.079 1.387 0 .465.024.926.07 1.39Zm0 0"/><path fill="#fb653e" d="M489.89 216.34a12.54 12.54 0 0 0-6.722-1.82c-1.145 0-2.27.144-3.375.433a13.146 13.146 0 0 0-5.867 3.332 13.128 13.128 0 0 0-2.102 2.672l-88.922 149.195-62.734-79.214a13.268 13.268 0 0 0-2.106-2.083 12.914 12.914 0 0 0-2.515-1.554 13.028 13.028 0 0 0-2.8-.957c-.97-.211-1.95-.317-2.942-.305a12.51 12.51 0 0 0-4.305.695 12.615 12.615 0 0 0-3.816 2.102c-.688.539-1.313 1.14-1.88 1.805a13.046 13.046 0 0 0-2.52 4.52 13.162 13.162 0 0 0 .867 10.117c.408.769.884 1.495 1.431 2.171l74.5 93.91a13.763 13.763 0 0 0 4.656 3.559c1.805.855 3.707 1.3 5.707 1.34h.84a13.033 13.033 0 0 0 3.14-.586 13.059 13.059 0 0 0 2.91-1.328 12.925 12.925 0 0 0 2.5-1.989 13.072 13.072 0 0 0 1.95-2.535l98.727-164.867c.433-.77.789-1.574 1.07-2.41.277-.836.477-1.695.598-2.57.117-.875.152-1.75.105-2.633a14.04 14.04 0 0 0-.394-2.61 14.026 14.026 0 0 0-.871-2.488 14.008 14.008 0 0 0-3.06-4.27 13.696 13.696 0 0 0-2.07-1.632Zm0 0"/><path fill="#fb653e" d="M404.469 108.992c-3.14 0-6.278.078-9.414.23a193.465 193.465 0 0 0-18.735 1.848c-3.11.461-6.199.996-9.28 1.61-3.08.61-6.142 1.297-9.188 2.058-3.043.766-6.07 1.602-9.075 2.512a189.92 189.92 0 0 0-8.941 2.953 186.847 186.847 0 0 0-8.785 3.387c-2.899 1.2-5.77 2.472-8.61 3.812a198.984 198.984 0 0 0-8.41 4.23c-2.77 1.481-5.5 3.028-8.191 4.641a189.374 189.374 0 0 0-7.957 5.036 190.788 190.788 0 0 0-15.121 11.207 190.53 190.53 0 0 0-7.13 6.148 187.62 187.62 0 0 0-6.82 6.488 187.453 187.453 0 0 0-6.492 6.817 190.514 190.514 0 0 0-11.945 14.547 187.894 187.894 0 0 0-5.422 7.691 193.415 193.415 0 0 0-5.039 7.953 192.124 192.124 0 0 0-12.691 25.2 195.568 195.568 0 0 0-3.387 8.777 189.772 189.772 0 0 0-2.953 8.937 187.805 187.805 0 0 0-2.512 9.07 184.417 184.417 0 0 0-2.062 9.184 190.685 190.685 0 0 0-1.614 9.27 197.84 197.84 0 0 0-1.152 9.34 198.731 198.731 0 0 0-.691 9.386c-.153 3.133-.23 6.27-.23 9.41 0 3.137.077 6.274.23 9.407.156 3.132.386 6.261.691 9.386a197.84 197.84 0 0 0 1.152 9.34c.461 3.106 1 6.195 1.614 9.274.609 3.078 1.296 6.136 2.062 9.18.762 3.046 1.598 6.07 2.512 9.07a188.29 188.29 0 0 0 2.953 8.937 195.72 195.72 0 0 0 3.387 8.781 192.125 192.125 0 0 0 17.73 33.148 190.75 190.75 0 0 0 11.215 15.114c1.992 2.426 4.043 4.8 6.152 7.125a184.304 184.304 0 0 0 6.493 6.817 187.62 187.62 0 0 0 6.82 6.488 190.53 190.53 0 0 0 14.55 11.937 194.899 194.899 0 0 0 7.7 5.422 193.378 193.378 0 0 0 7.957 5.031 190.053 190.053 0 0 0 16.602 8.871c2.84 1.344 5.71 2.614 8.609 3.817 2.902 1.2 5.828 2.328 8.785 3.387a194.505 194.505 0 0 0 18.016 5.46c3.046.762 6.109 1.45 9.187 2.063a192.39 192.39 0 0 0 18.625 2.762c3.125.304 6.254.535 9.39.691 3.137.153 6.274.23 9.415.23 3.14 0 6.277-.077 9.414-.23 3.137-.156 6.265-.387 9.39-.691a192.39 192.39 0 0 0 18.622-2.762 192.706 192.706 0 0 0 18.265-4.574c3.004-.91 5.985-1.895 8.942-2.95a197.712 197.712 0 0 0 8.785-3.386 191.985 191.985 0 0 0 8.605-3.817c2.84-1.34 5.645-2.75 8.414-4.23a193.378 193.378 0 0 0 16.148-9.672c2.61-1.746 5.176-3.55 7.7-5.422a190.53 190.53 0 0 0 14.55-11.938 187.62 187.62 0 0 0 6.821-6.488 187.613 187.613 0 0 0 6.492-6.816 190.514 190.514 0 0 0 11.946-14.543 193.279 193.279 0 0 0 10.46-15.645 192.125 192.125 0 0 0 8.875-16.598 191.776 191.776 0 0 0 3.813-8.6 191.163 191.163 0 0 0 8.855-26.79 190.813 190.813 0 0 0 3.672-18.453c.461-3.105.848-6.219 1.157-9.34.304-3.125.535-6.254.69-9.386.153-3.133.231-6.27.231-9.407a188.85 188.85 0 0 0-.246-9.406c-.156-3.133-.39-6.258-.703-9.379a192.13 192.13 0 0 0-7.375-36.844c-.914-3-1.898-5.976-2.96-8.93a189.2 189.2 0 0 0-3.395-8.773 189.801 189.801 0 0 0-3.82-8.597 191.981 191.981 0 0 0-4.235-8.403 191.63 191.63 0 0 0-20.898-31.23 194.111 194.111 0 0 0-6.149-7.125 194.313 194.313 0 0 0-6.492-6.813 194.319 194.319 0 0 0-6.816-6.488 194.005 194.005 0 0 0-7.125-6.144 193.73 193.73 0 0 0-15.114-11.207 195.96 195.96 0 0 0-7.949-5.04 194.081 194.081 0 0 0-8.187-4.64c-2.77-1.48-5.57-2.89-8.407-4.235a196.394 196.394 0 0 0-8.601-3.816 195.838 195.838 0 0 0-8.781-3.394 194.301 194.301 0 0 0-18.004-5.477 198.661 198.661 0 0 0-9.184-2.07 192.896 192.896 0 0 0-18.61-2.781 193.98 193.98 0 0 0-18.797-.95Zm0 357.028c-2.707 0-5.41-.067-8.114-.2a170.196 170.196 0 0 1-8.097-.593 164.216 164.216 0 0 1-8.055-.997c-2.68-.394-5.344-.859-8-1.386a166.617 166.617 0 0 1-7.918-1.778 166.138 166.138 0 0 1-15.531-4.707 167.285 167.285 0 0 1-14.996-6.207 167.617 167.617 0 0 1-7.25-3.648 167.37 167.37 0 0 1-13.922-8.34 166.168 166.168 0 0 1-13.035-9.66 168.779 168.779 0 0 1-6.145-5.3 165.462 165.462 0 0 1-11.477-11.469 165.026 165.026 0 0 1-5.3-6.145 164.307 164.307 0 0 1-14.012-19.883 162.92 162.92 0 0 1-4-7.059 163.203 163.203 0 0 1-6.941-14.664 167.097 167.097 0 0 1-2.922-7.566 164.282 164.282 0 0 1-4.71-15.523 166.461 166.461 0 0 1-1.778-7.915c-.528-2.656-.993-5.32-1.387-7.996a164.062 164.062 0 0 1-1.594-16.14 165.225 165.225 0 0 1 .598-24.313c.265-2.691.597-5.375.996-8.05a165.543 165.543 0 0 1 5.328-23.727c.79-2.59 1.637-5.156 2.547-7.703a165.214 165.214 0 0 1 6.21-14.988 163.203 163.203 0 0 1 3.653-7.247 164.7 164.7 0 0 1 8.344-13.914 164.308 164.308 0 0 1 9.668-13.027 164.906 164.906 0 0 1 5.3-6.14 162.282 162.282 0 0 1 5.598-5.88 165.636 165.636 0 0 1 18.422-15.882 166.17 166.17 0 0 1 6.637-4.672 167.37 167.37 0 0 1 13.922-8.34 167.545 167.545 0 0 1 14.672-6.934c2.5-1.035 5.023-2.007 7.574-2.922a166.137 166.137 0 0 1 23.45-6.484c2.655-.527 5.32-.988 8-1.387 2.675-.398 5.362-.726 8.054-.992a164.87 164.87 0 0 1 16.21-.797 165.264 165.264 0 0 1 24.266 1.79c2.68.398 5.344.859 8 1.386a164.434 164.434 0 0 1 15.742 3.941c2.59.786 5.16 1.633 7.708 2.543a169.21 169.21 0 0 1 7.574 2.922 167.545 167.545 0 0 1 14.672 6.934 164.616 164.616 0 0 1 13.918 8.34 160.703 160.703 0 0 1 6.636 4.672 164.46 164.46 0 0 1 12.547 10.289 165.636 165.636 0 0 1 5.88 5.593 162.282 162.282 0 0 1 5.597 5.88 164.906 164.906 0 0 1 5.3 6.14 164.308 164.308 0 0 1 4.997 6.395 168.912 168.912 0 0 1 4.672 6.632 164.7 164.7 0 0 1 8.343 13.914c1.278 2.387 2.492 4.801 3.653 7.246a165.214 165.214 0 0 1 8.754 22.692 164.17 164.17 0 0 1 2.168 7.816 165.543 165.543 0 0 1 3.164 15.91 164.062 164.062 0 0 1 1.593 16.141c.133 2.703.2 5.406.2 8.113a169.953 169.953 0 0 1-.215 8.106c-.137 2.7-.34 5.394-.61 8.086a163.945 163.945 0 0 1-2.402 16.035 164.104 164.104 0 0 1-3.96 15.723 161.257 161.257 0 0 1-2.552 7.695 163.101 163.101 0 0 1-6.223 14.973 165.227 165.227 0 0 1-12 21.145 164.182 164.182 0 0 1-9.668 13.02 164.802 164.802 0 0 1-5.296 6.14c-1.82 2-3.684 3.96-5.598 5.87a165.532 165.532 0 0 1-12.02 10.89 164.112 164.112 0 0 1-6.394 4.99 165.908 165.908 0 0 1-13.484 9.015 169.484 169.484 0 0 1-7.055 4 163.13 163.13 0 0 1-7.246 3.648 166.106 166.106 0 0 1-14.98 6.219 165.51 165.51 0 0 1-39.477 8.91 165.109 165.109 0 0 1-16.203.82Zm0 0"/></svg>