<svg xmlns="http://www.w3.org/2000/svg" xmlns:xlink="http://www.w3.org/1999/xlink" width="1080" zoomAndPan="magnify" viewBox="0 0 810 809.999993" height="1080" preserveAspectRatio="xMidYMid meet" version="1.0"><defs><clipPath id="f25880a61f"><path d="M 0.332031 51.132812 L 809.648438 51.132812 L 809.648438 759.132812 L 0.332031 759.132812 Z M 0.332031 51.132812 " clip-rule="nonzero"/></clipPath></defs><g clip-path="url(#f25880a61f)"><path fill="#fb653e" d="M 769.023438 481.792969 C 762.503906 514.164062 745.035156 544.59375 719.636719 567.738281 C 717.019531 570.117188 714.234375 572.441406 711.300781 574.566406 C 691.789062 571.929688 673.726562 562.4375 660.605469 548.988281 C 659.210938 547.558594 657.945312 546.066406 656.742188 544.546875 C 657.382812 544.484375 658.046875 544.34375 658.742188 544.121094 C 681.398438 537 693.953125 520.496094 704.324219 501.550781 C 709.195312 492.664062 713.660156 483.054688 720.304688 475.121094 C 729.457031 464.195312 740.984375 455.292969 749.878906 444.089844 C 750.046875 444.023438 750.199219 443.945312 750.367188 443.878906 C 757.6875 441.058594 765.007812 438.265625 772.332031 435.46875 C 772.746094 451.007812 772.078125 466.519531 769.023438 481.792969 Z M 680.429688 642.902344 C 661.390625 662.570312 630.480469 668.171875 601.902344 668.171875 C 601.863281 668.171875 601.820312 668.171875 601.78125 668.171875 C 584.539062 668.15625 567.257812 666.449219 550.449219 662.847656 C 560.574219 647.800781 557.246094 631.480469 549.085938 616.097656 C 549.140625 615.734375 549.171875 615.371094 549.179688 614.984375 C 549.285156 602.972656 568.421875 599.382812 578.578125 598.472656 C 584.554688 597.945312 590.679688 598.304688 596.003906 601.058594 C 601.199219 603.746094 605.242188 608.195312 610.046875 611.417969 C 629.070312 624.167969 655.765625 624.332031 675.554688 613.046875 C 685.25 607.515625 676.34375 593.34375 666.589844 598.90625 C 655.359375 605.308594 641.78125 606.753906 629.316406 602.53125 C 616.234375 598.089844 608.707031 586.261719 594.742188 583.15625 C 576.875 579.171875 549.828125 584.097656 537.695312 598.429688 C 534.460938 594.066406 531.09375 589.867188 527.835938 585.894531 C 524.246094 581.519531 520.519531 576.992188 517.042969 572.289062 C 517.742188 571.214844 518.203125 569.933594 518.308594 568.4375 C 519.121094 556.949219 532.25 551.15625 542.699219 548.125 C 554.898438 544.585938 567.847656 543.214844 580.609375 543.789062 C 592.035156 544.304688 592.007812 527.925781 580.609375 527.417969 C 556.03125 526.3125 519.035156 531.78125 505.589844 552.980469 C 503.765625 548.597656 502.445312 544.058594 501.898438 539.335938 C 499.902344 522.027344 508.050781 503.566406 522.769531 492.761719 C 531.707031 486.199219 519.066406 474.679688 510.214844 481.183594 C 495.613281 491.898438 487.203125 508.519531 484.667969 525.34375 C 481.980469 543.128906 487.988281 560.011719 497.988281 575.089844 C 507.554688 589.527344 520.160156 602.007812 529.628906 616.5 C 538.429688 629.976562 544.289062 645.300781 532.210938 658.105469 C 524.855469 655.839844 517.644531 653.203125 510.652344 650.117188 C 507.054688 648.519531 503.453125 647.25 500.308594 647.25 C 496.566406 647.25 493.460938 649.042969 491.742188 654.210938 C 487.035156 668.320312 486.8125 683.117188 481.488281 697.1875 C 476.574219 710.179688 469.523438 722.238281 459.128906 732.207031 C 455.382812 735.800781 451.96875 737.3125 448.875 737.3125 C 434.347656 737.3125 426.9375 703.832031 425.269531 695.667969 C 417.683594 658.601562 414.167969 604.859375 377.277344 573.644531 C 372.457031 562 367.292969 550.394531 363.28125 538.503906 C 361.785156 534.070312 360.601562 529.570312 360.074219 525.089844 C 360.464844 524.695312 360.832031 524.265625 361.164062 523.765625 C 367.769531 513.988281 383.03125 512.921875 393.398438 517.953125 C 407.328125 524.714844 413.851562 539.820312 416.816406 553.265625 C 419.949219 567.480469 420.398438 582.851562 431.402344 594.273438 C 440.988281 604.230469 456.472656 608.402344 469.472656 601.824219 C 479.488281 596.742188 470.539062 582.597656 460.507812 587.679688 C 454.40625 590.769531 447.0625 586.671875 443.316406 581.996094 C 438.277344 575.710938 437.15625 566.996094 435.863281 559.5 C 434.796875 553.3125 433.503906 547.203125 431.644531 541.296875 C 447.839844 540.382812 462.324219 529.730469 466.417969 514.097656 C 469.09375 503.855469 451.980469 499.484375 449.292969 509.742188 C 446.265625 521.320312 435.59375 526.722656 423.957031 524.164062 C 422.417969 521.707031 420.691406 519.3125 418.730469 516.996094 C 406.425781 502.476562 384.304688 495.304688 366.230469 500.636719 C 379.753906 481.882812 407.425781 472.679688 429.964844 467.996094 C 443.984375 465.078125 458.34375 464.011719 472.695312 464.667969 C 487.714844 465.347656 502.519531 468.269531 517.578125 468.429688 C 544.105469 468.703125 574.292969 459.964844 597.664062 475.695312 C 606.902344 481.921875 615.769531 467.714844 606.628906 461.558594 C 587.128906 448.429688 562.53125 449.347656 539.652344 451.035156 C 526.136719 452.035156 513.007812 452.269531 499.515625 450.84375 C 495.59375 450.433594 491.691406 450 487.78125 449.601562 C 490.410156 448.019531 492.898438 446.300781 495.175781 444.390625 C 504.367188 436.683594 505.121094 427.519531 504.828125 416.753906 C 504.667969 410.976562 505.605469 407.710938 511.730469 405.175781 C 517.375 402.832031 523.769531 401.660156 529.746094 400.292969 C 543.5625 397.136719 557.566406 394.851562 571.722656 393.464844 C 582.964844 392.359375 583.089844 375.96875 571.722656 377.085938 C 556.992188 378.53125 542.359375 380.675781 527.941406 383.851562 C 516.464844 386.375 502.355469 388.683594 493.796875 396.925781 C 490.011719 400.574219 488.023438 405.214844 487.34375 410.144531 C 486.570312 415.746094 488.9375 422.585938 486.746094 427.898438 C 484.8125 432.59375 479.023438 435.277344 474.585938 437.554688 C 467.59375 441.144531 460.441406 444.488281 453.375 447.941406 C 453.015625 448.117188 452.679688 448.3125 452.367188 448.511719 C 429.90625 449.96875 407.738281 455.359375 387.503906 464.449219 C 368.996094 472.757812 351.371094 485.953125 344.535156 504.4375 C 338.082031 521.875 344.046875 540.625 351.46875 558.191406 C 342.671875 554.621094 332.683594 551.933594 321.3125 550.332031 C 284.9375 545.195312 253.472656 526.90625 236.300781 499.667969 C 245.195312 491.074219 258.003906 486.980469 270.542969 484.761719 C 287.9375 481.6875 307.304688 481.25 324.71875 484.066406 C 335.890625 485.878906 340.691406 470.097656 329.4375 468.277344 C 323.488281 467.308594 317.152344 466.5625 310.613281 466.117188 C 315.09375 461.496094 318.644531 456.046875 321.011719 449.871094 C 325.5625 438.011719 324.324219 425.152344 321.113281 412.816406 C 336.632812 400.628906 359.144531 400.6875 377.898438 405.875 C 401.460938 412.394531 421.902344 426.027344 443.851562 435.890625 C 454.085938 440.484375 463.097656 426.367188 452.816406 421.75 C 438.300781 415.226562 424.289062 407.105469 409.722656 400.292969 C 415.121094 398.554688 420.445312 396.617188 425.625 394.335938 C 438.433594 388.683594 447.960938 380.519531 457.753906 371.257812 C 465.738281 363.703125 453.195312 352.113281 445.199219 359.671875 C 436.386719 368.015625 428.191406 375.125 416.660156 380.195312 C 406.261719 384.765625 395.027344 387.625 383.953125 390.457031 C 381.285156 389.710938 378.597656 389.023438 375.855469 388.46875 C 355.339844 384.292969 333.304688 385.761719 315.757812 396.191406 C 315.539062 395.597656 315.320312 394.996094 315.097656 394.40625 C 311.671875 385.261719 307.683594 376.015625 304.703125 366.585938 C 304.714844 366.566406 304.730469 366.554688 304.734375 366.542969 C 311.632812 356.710938 323.808594 351.757812 335.1875 347.535156 C 349.171875 342.339844 363.542969 337.996094 378.121094 334.4375 C 385.082031 332.738281 392.203125 331.140625 399.253906 329.335938 C 399.820312 329.277344 400.417969 329.164062 401.03125 328.996094 C 430.265625 320.660156 453.726562 339.316406 477.964844 350.941406 C 506.691406 364.71875 537.292969 362.722656 567.761719 354.808594 C 578.746094 351.960938 574.078125 336.152344 563.039062 339.015625 C 546.195312 343.394531 528.175781 346.867188 510.632812 344.257812 C 499.273438 342.554688 489.148438 338.191406 479.300781 332.882812 C 465.972656 325.699219 452.332031 318.28125 437.976562 314.0625 C 441.492188 311.792969 444.851562 309.265625 447.980469 306.355469 C 456.382812 298.519531 462.089844 288.839844 464.0625 277.941406 C 465.992188 267.292969 466.746094 258.179688 476.914062 251.460938 C 486.6875 245.007812 499.039062 242.011719 510.382812 238.863281 C 524.925781 234.828125 539.652344 231.425781 554.515625 228.535156 C 565.6875 226.363281 560.960938 210.574219 549.792969 212.746094 C 533.945312 215.824219 518.246094 219.503906 502.761719 223.882812 C 491.519531 227.070312 479.769531 230.367188 469.757812 236.222656 C 459.570312 242.179688 451.792969 250.578125 448.945312 261.554688 C 445.917969 273.207031 446.3125 283.738281 437.039062 293.214844 C 428.109375 302.332031 416.3125 307.691406 403.648438 311.542969 C 401.226562 311.957031 398.78125 312.492188 396.308594 313.199219 C 395.421875 313.453125 394.648438 313.792969 393.96875 314.199219 C 382.089844 317.164062 369.894531 319.347656 358.902344 322.472656 C 339.535156 327.980469 316.542969 334.066406 300.503906 346.730469 C 300.15625 342.621094 300.175781 338.480469 300.707031 334.289062 C 303.113281 315.332031 314.347656 298.335938 328.773438 285.085938 C 336.878906 277.632812 324.324219 266.050781 316.21875 273.5 C 302.550781 286.050781 291.675781 301.320312 286.21875 318.492188 C 280.367188 336.898438 282.4375 355.59375 288.5 373.703125 C 297.574219 400.8125 326.449219 452.808594 280.105469 465.019531 C 278.621094 465.414062 277.429688 466.046875 276.496094 466.832031 C 258.648438 469.003906 241.519531 474.339844 228.433594 484.429688 C 222.191406 469.78125 218.664062 454.101562 217.863281 438.292969 C 225.304688 433.414062 235.535156 431.707031 243.761719 428.953125 C 254.171875 425.457031 264.632812 420.617188 270.800781 411.730469 C 277.855469 401.550781 277.117188 389.101562 273.40625 377.984375 C 270.878906 370.402344 256.269531 350.011719 265.789062 343.253906 C 274.730469 336.921875 265.894531 322.691406 256.832031 329.121094 C 246.101562 336.726562 243.308594 348.226562 246.933594 360.097656 C 250.671875 372.316406 262.257812 385.988281 257.683594 399.28125 C 253.890625 410.304688 238.71875 413.238281 228.316406 416.386719 C 223.476562 417.84375 218.847656 419.480469 214.539062 421.519531 C 211.367188 421.644531 208.199219 421.722656 205.007812 421.722656 C 182.976562 421.722656 160.695312 418.949219 142.144531 415.816406 C 104.589844 409.484375 63.875 392.542969 41.054688 362.695312 C 35.640625 355.625 31.644531 347.855469 28.871094 339.683594 C 36.71875 326.046875 48.914062 316.382812 63.503906 309.980469 C 64.109375 310.097656 64.757812 310.15625 65.449219 310.15625 C 75.875 310.164062 81.425781 320.328125 84.15625 328.308594 C 87.328125 337.585938 89.171875 347.257812 94.34375 355.859375 C 103.808594 371.570312 123.660156 380.78125 142.941406 378.867188 C 154.179688 377.742188 154.304688 361.355469 142.941406 362.488281 C 133.101562 363.46875 123.4375 361.242188 115.980469 354.992188 C 108.0625 348.34375 105.769531 338.792969 103.046875 329.636719 C 100.144531 319.871094 95.40625 309.527344 87.761719 302.472656 C 101.183594 299.625 116.523438 298.152344 130.039062 301.167969 C 131.125 301.691406 132.320312 301.988281 133.542969 302.058594 C 140.117188 303.960938 146.144531 307.050781 151.167969 311.714844 C 166.5 325.941406 168.324219 348.136719 178.523438 365.15625 C 188.972656 382.601562 207.113281 396.867188 229.894531 391.367188 C 240.9375 388.695312 236.253906 372.898438 225.171875 375.574219 C 207.628906 379.808594 195.8125 362.433594 190.03125 349.660156 C 188.933594 347.226562 187.921875 344.765625 186.941406 342.292969 C 196.789062 343.292969 207.191406 341.765625 216.378906 339.394531 C 232.855469 335.152344 245.957031 327.515625 255.558594 314.316406 C 266.726562 298.964844 276.113281 283.75 290.449219 270.515625 C 304.734375 257.316406 321.210938 246.621094 339.292969 238.296875 C 349.519531 233.59375 340.535156 219.457031 330.328125 224.152344 C 297.910156 239.078125 270.152344 262.039062 250.699219 290.257812 C 241.871094 303.066406 235.640625 315.304688 219.574219 321.191406 C 208.171875 325.371094 190.902344 329.503906 179.453125 323.402344 C 179.433594 323.394531 179.421875 323.390625 179.402344 323.382812 C 176.570312 317.023438 173.222656 310.890625 168.535156 305.304688 C 161.300781 296.683594 152.023438 290.964844 141.679688 287.503906 C 137.839844 274.996094 134.230469 261.660156 137.722656 248.871094 C 139.039062 244.050781 141.449219 239.597656 142.566406 234.742188 C 172.535156 199.414062 218.972656 176.742188 267.398438 173.367188 C 278.722656 172.582031 278.816406 156.195312 267.398438 156.996094 C 218.207031 160.421875 172.6875 180.816406 139.234375 213.589844 C 133.0625 201.703125 121.511719 192.867188 108.226562 188.289062 C 119.957031 179.972656 127.894531 169.234375 137.945312 158.308594 C 144.007812 151.730469 150.082031 145.121094 157.027344 139.328125 C 187.15625 114.222656 229.257812 107.386719 270.113281 103.316406 C 270.78125 103.617188 271.523438 103.867188 272.367188 104.023438 C 291.566406 107.671875 310.835938 119.675781 320.140625 135.898438 C 329.425781 152.089844 320.179688 168.394531 307.796875 180.53125 C 305.429688 182.851562 302.925781 184.996094 300.339844 187.050781 C 299.988281 187.207031 299.628906 187.378906 299.269531 187.585938 C 286.523438 194.960938 271.09375 198.484375 256.605469 201.671875 C 242.9375 204.667969 228.917969 205.855469 216.023438 211.285156 C 188.011719 223.085938 174.195312 249.355469 176.464844 277.03125 C 177.320312 287.476562 195.082031 287.5625 194.21875 277.03125 C 192.175781 252.175781 205.050781 230.515625 231.800781 223.203125 C 241.722656 220.488281 252.105469 219.175781 262.257812 217.152344 C 254.113281 226.449219 248.421875 237.289062 245.234375 249.070312 C 242.472656 259.300781 259.59375 263.660156 262.359375 253.425781 C 266.910156 236.582031 277.285156 223.78125 292.304688 213.5625 C 308.398438 202.605469 324.847656 191.171875 334.558594 174.5625 C 344.851562 156.953125 343.789062 137.382812 330.921875 121.136719 C 323.960938 112.332031 315.019531 104.617188 304.886719 98.738281 C 321.847656 95.1875 338.546875 89.925781 355.417969 86.207031 C 372.089844 82.535156 391.433594 78.867188 412.109375 76.328125 C 405.824219 87.527344 403.71875 100.542969 405.007812 113.351562 C 405.070312 114 405.15625 114.640625 405.234375 115.28125 C 404.550781 115.445312 403.847656 115.6875 403.148438 116.027344 C 393.648438 120.597656 384.460938 126.703125 379.5 135.742188 C 376.097656 141.9375 375.339844 148.445312 374.417969 155.214844 C 373.332031 163.175781 370.273438 171.894531 365.386719 178.542969 C 358.679688 187.652344 347.960938 193.664062 338.074219 199.425781 C 328.4375 205.039062 337.335938 219.222656 347.035156 213.570312 C 356.933594 207.800781 367.277344 201.75 375.066406 193.554688 C 382.773438 185.449219 387.128906 175.707031 390.347656 165.433594 C 392.066406 159.929688 391.804688 154.128906 393.238281 148.589844 C 395.308594 140.570312 401.371094 135.792969 408.660156 131.910156 C 409.683594 135.382812 410.878906 138.824219 412.238281 142.230469 C 415.539062 150.480469 418.476562 158.460938 418.351562 167.375 C 417.964844 195.273438 390.152344 213.792969 365.21875 224.265625 C 354.828125 228.628906 363.84375 242.75 374.175781 238.40625 C 400.679688 227.28125 427.648438 208.085938 434.390625 180.550781 C 436.273438 172.882812 436.496094 165.097656 435.300781 157.335938 C 433.835938 147.871094 429.585938 139.488281 426.617188 130.417969 C 425.753906 127.789062 424.996094 125.074219 424.359375 122.320312 C 430.410156 119.953125 437.28125 118.105469 443.957031 117.667969 C 449.417969 117.308594 455.582031 117.761719 459.167969 122.078125 C 463.460938 127.238281 465.429688 132.113281 472.007812 135.480469 C 491.363281 145.382812 519.082031 135.957031 537.390625 127.789062 C 547.675781 123.195312 538.675781 109.066406 528.425781 113.644531 C 521.75 116.621094 512.953125 119.472656 504.441406 121.3125 C 498.535156 122.59375 492.117188 123.609375 486.039062 122.746094 C 479.71875 121.835938 478.089844 119.132812 474.945312 114.476562 C 463.679688 97.785156 440.9375 99.398438 422.40625 105.519531 C 422.53125 94.101562 425.996094 83.027344 435.242188 74.535156 C 435.429688 74.367188 435.59375 74.1875 435.757812 74.019531 C 445.003906 73.351562 454.394531 72.964844 463.84375 72.964844 C 515.210938 72.964844 568.054688 84.078125 605.523438 120.617188 C 601.886719 128.34375 597.355469 136.003906 594.644531 144.042969 C 567.042969 138.804688 536.109375 153.679688 514.074219 167.304688 C 487.785156 183.550781 463.945312 204.949219 432.070312 211.261719 C 420.902344 213.472656 425.628906 229.261719 436.792969 227.050781 C 466.601562 221.152344 489.972656 203.1875 514.105469 187.1875 C 526 179.300781 538.296875 172.261719 551.792969 166.9375 C 564.890625 161.769531 578.640625 157.65625 592.4375 160.472656 C 593.316406 169.578125 596.609375 178.078125 603.144531 185.054688 C 609.066406 191.382812 617.652344 195.34375 621.320312 203.285156 C 621.386719 203.4375 621.464844 203.566406 621.535156 203.703125 C 620.039062 205.890625 618.605469 208.105469 617.34375 210.417969 C 613.9375 216.605469 611.550781 222.957031 606.496094 228.253906 C 594.734375 240.566406 577.375 245.613281 560.535156 249.042969 C 549.386719 251.320312 554.101562 267.109375 565.257812 264.832031 C 581.453125 261.535156 597.390625 256.597656 610.570312 247.046875 C 616.359375 242.867188 621.371094 237.929688 625.382812 232.230469 C 629.625 226.207031 631.984375 219.261719 636.039062 213.113281 C 650.542969 191.132812 676.496094 176.710938 704.09375 174.578125 C 709.039062 179.988281 713.511719 185.75 717.5 191.792969 C 712.078125 205.144531 705.867188 218.617188 695.3125 229.125 C 683.027344 241.363281 666.351562 248.589844 650.039062 255.179688 C 632.402344 262.300781 614.925781 269.464844 598.148438 278.230469 C 583.292969 285.992188 568.671875 294.492188 562.667969 310.007812 C 558.824219 319.957031 575.972656 324.234375 579.792969 314.363281 C 585.382812 299.914062 607.414062 291.898438 621 285.429688 C 623.117188 284.421875 625.25 283.449219 627.394531 282.492188 C 624.582031 289.492188 623.007812 297.042969 622.503906 304.550781 C 621.066406 325.808594 635.105469 366.042969 601.761719 370.742188 C 590.503906 372.324219 595.289062 388.109375 606.484375 386.53125 C 618.390625 384.859375 629.042969 378.164062 635.390625 368.734375 C 642.742188 357.808594 641.804688 344.617188 641.054688 332.296875 C 639.792969 311.511719 636.046875 276.875 663.601562 268.222656 C 665.339844 267.679688 666.667969 266.808594 667.640625 265.742188 C 669.339844 265.003906 671.042969 264.261719 672.726562 263.5 C 688.367188 256.394531 702.839844 247.308594 713.515625 234.421875 C 719.492188 227.199219 724.121094 219.246094 728.105469 210.992188 C 732.871094 221.542969 736.25 232.617188 738.148438 243.902344 C 718.152344 258.527344 713.347656 283.277344 713.804688 306.613281 C 712.777344 307.1875 711.824219 307.984375 711.003906 309.042969 C 702.296875 320.316406 688.296875 326.777344 676.714844 335.152344 C 665.628906 343.175781 656.125 353.144531 652.875 366.097656 C 650.300781 376.355469 667.417969 380.730469 669.996094 370.445312 C 673.152344 357.867188 684.394531 349.816406 695.339844 342.757812 C 702.441406 338.179688 709.382812 333.652344 715.617188 328.367188 C 716.582031 336.539062 717.582031 344.707031 717.597656 352.824219 C 717.621094 364.226562 709.75 370.886719 701.378906 378.316406 C 692.933594 385.824219 683.949219 392.765625 674.46875 399.144531 C 665.328125 405.292969 674.179688 419.507812 683.433594 413.285156 C 692.574219 407.128906 701.414062 400.613281 709.742188 393.539062 C 717.0625 387.328125 725.167969 380.691406 730.175781 372.652344 C 739.660156 357.421875 733.617188 338.277344 732.378906 321.746094 C 730.785156 300.457031 729.351562 274.113281 746.707031 258.878906 C 784.730469 296.824219 799.363281 365.960938 771.535156 418.019531 C 753.480469 424.457031 734.519531 430.621094 720.042969 442.28125 C 711.261719 449.347656 703.121094 456.609375 691.847656 460.160156 C 680.613281 463.691406 668.894531 463.710938 657.546875 460.683594 C 646.546875 457.746094 641.851562 473.550781 652.824219 476.472656 C 668.53125 480.660156 684.726562 479.894531 699.433594 474.773438 C 696.652344 479.207031 694.148438 483.804688 691.671875 488.351562 C 682.835938 504.582031 674.007812 522.054688 654.027344 528.332031 C 651.515625 529.125 649.847656 530.59375 648.902344 532.335938 C 642.566406 520.332031 638.398438 507.316406 629.996094 496.164062 C 623.523438 487.566406 608.125 495.742188 614.671875 504.429688 C 622.417969 514.71875 626.027344 526.714844 631.699219 537.96875 C 636.511719 547.511719 643.230469 556.25 651.269531 563.707031 C 664.960938 576.402344 681.914062 584.863281 700.457031 589.027344 C 699.457031 609.03125 694.621094 628.242188 680.429688 642.902344 Z M 57.007812 225.742188 C 65.746094 216.382812 75.898438 208.25 86.851562 201.171875 C 95.378906 201.160156 103.492188 203.207031 110.757812 207.707031 C 118.023438 212.203125 125.652344 220.28125 125.523438 228.835938 C 124.855469 230.164062 124.710938 231.460938 124.964844 232.648438 C 123.886719 236.6875 121.722656 240.484375 120.605469 244.515625 C 118.996094 250.296875 118.421875 256.464844 118.695312 262.417969 C 119.015625 269.582031 120.410156 276.640625 122.234375 283.597656 C 100.640625 281.695312 77.234375 286.648438 58.761719 293.972656 C 45.429688 299.257812 33.574219 306.9375 24.300781 316.84375 C 21.871094 284.160156 35.242188 249.054688 57.007812 225.742188 Z M 688.800781 160.199219 C 667.632812 164.511719 647.941406 174.792969 633.242188 189.59375 C 629.898438 185.382812 625.511719 181.996094 621.191406 178.457031 C 614.316406 172.835938 610.347656 166.53125 610.015625 157.882812 C 609.628906 148 615.75 138.109375 620.632812 128.886719 C 645.714844 133.871094 669.476562 144.632812 688.800781 160.199219 Z M 806.046875 323.683594 C 799.226562 291.246094 783.632812 262.496094 761.765625 241.769531 C 756.117188 206.558594 737.652344 173.027344 710.285156 148.726562 C 686.960938 128.042969 656.761719 113.507812 624.441406 107.289062 C 587.371094 70.015625 533.402344 51.132812 463.863281 51.132812 L 463.863281 72.964844 L 463.855469 51.132812 C 429.394531 51.136719 392.132812 55.65625 349.910156 64.972656 C 341.4375 66.835938 333.132812 69.042969 325.097656 71.167969 C 309.835938 75.214844 295.417969 79.035156 281.273438 80.316406 C 239.289062 84.097656 181.769531 89.285156 141.15625 123.125 C 133.09375 129.855469 126.449219 137.0625 120.023438 144.042969 L 119.898438 144.171875 C 117.191406 147.117188 114.699219 149.960938 112.289062 152.714844 C 104.210938 161.953125 97.832031 169.238281 88.78125 174.113281 C 69.007812 184.761719 52.28125 197.332031 39.066406 211.496094 C 19.699219 232.246094 6.117188 260.632812 1.816406 289.382812 C -3.015625 321.675781 4.046875 352.175781 21.707031 375.28125 C 45.375 406.234375 87.722656 428.839844 137.878906 437.296875 C 158.222656 440.734375 177.199219 442.773438 194.445312 443.367188 C 196.003906 463.808594 201.542969 483.703125 210.832031 501.886719 C 229.78125 538.96875 269.746094 565.140625 317.726562 571.910156 C 376.496094 580.203125 388.261719 622.152344 398.46875 680.515625 C 399.636719 687.230469 400.75 693.582031 402.003906 699.71875 C 403.46875 706.882812 406.066406 717.492188 410.125 727.324219 C 420.988281 753.625 437.191406 759.144531 448.875 759.144531 C 455.722656 759.144531 466.007812 757.105469 476.179688 747.351562 C 488.21875 735.8125 497.269531 721.761719 503.839844 704.382812 C 507.335938 695.132812 508.992188 685.988281 510.445312 677.921875 C 510.671875 676.667969 510.902344 675.417969 511.128906 674.1875 C 516.804688 676.339844 522.652344 678.28125 528.609375 680.003906 C 551.511719 686.625 576.132812 689.992188 601.769531 690.003906 L 601.902344 690.003906 C 644.808594 690.003906 677.175781 679.046875 698.089844 657.441406 C 717.316406 637.578125 722.632812 613.074219 723.945312 593.15625 C 727.96875 590.390625 732.027344 587.132812 736.257812 583.285156 C 765.015625 557.074219 784.914062 522.453125 792.296875 485.773438 C 796.769531 463.449219 796.570312 441.457031 795.472656 422.332031 C 809.53125 392.980469 813.296875 358.207031 806.046875 323.683594 " fill-opacity="1" fill-rule="nonzero"/></g></svg>