<svg xmlns="http://www.w3.org/2000/svg" width="1080" height="1080" version="1.0" viewBox="0 0 810 810"><defs><clipPath id="a"><path d="M.332 51.133h809.316v708H.332Zm0 0"/></clipPath></defs><g clip-path="url(#a)"><path fill="#fb653e" d="M769.023 481.793c-6.52 32.371-23.988 62.8-49.386 85.945-2.617 2.38-5.403 4.703-8.336 6.828-19.512-2.636-37.574-12.129-50.696-25.578-1.394-1.43-2.66-2.922-3.863-4.441a9.613 9.613 0 0 0 2-.426c22.656-7.121 35.211-23.625 45.582-42.57 4.871-8.887 9.336-18.496 15.98-26.43 9.153-10.926 20.68-19.828 29.575-31.031.168-.067.32-.145.488-.211 7.32-2.82 14.64-5.613 21.965-8.41.414 15.539-.254 31.05-3.309 46.324Zm-88.593 161.11c-19.04 19.667-49.95 25.269-78.528 25.269h-.12c-17.243-.016-34.524-1.723-51.333-5.324 10.125-15.047 6.797-31.368-1.363-46.75.055-.364.086-.727.094-1.114.105-12.011 19.242-15.601 29.398-16.511 5.977-.528 12.102-.168 17.426 2.586 5.195 2.687 9.238 7.136 14.043 10.359 19.023 12.75 45.719 12.914 65.508 1.629 9.695-5.531.789-19.703-8.965-14.14-11.23 6.402-24.809 7.847-37.274 3.624-13.082-4.441-20.609-16.27-34.574-19.375-17.867-3.984-44.914.942-57.047 15.274-3.234-4.364-6.601-8.563-9.86-12.535-3.589-4.375-7.315-8.903-10.792-13.606.7-1.074 1.16-2.355 1.266-3.851.812-11.489 13.941-17.282 24.39-20.313 12.2-3.54 25.149-4.91 37.91-4.336 11.426.516 11.399-15.863 0-16.371-24.578-1.106-61.574 4.363-75.02 25.562-1.823-4.382-3.144-8.921-3.69-13.644-1.997-17.309 6.152-35.77 20.87-46.574 8.938-6.563-3.703-18.082-12.554-11.578-14.602 10.714-23.012 27.336-25.547 44.16-2.688 17.785 3.32 34.668 13.32 49.746 9.567 14.437 22.172 26.918 31.64 41.41 8.802 13.477 14.661 28.8 2.583 41.605-7.356-2.265-14.566-4.902-21.559-7.988-3.597-1.597-7.199-2.867-10.343-2.867-3.743 0-6.848 1.793-8.567 6.96-4.707 14.11-4.93 28.907-10.254 42.977-4.914 12.993-11.965 25.051-22.36 35.02-3.745 3.594-7.16 5.106-10.253 5.106-14.527 0-21.938-33.481-23.605-41.645-7.586-37.066-11.102-90.809-47.993-122.023-4.82-11.645-9.984-23.25-13.996-35.141-1.496-4.434-2.68-8.934-3.207-13.414.39-.395.758-.824 1.09-1.324 6.606-9.778 21.867-10.844 32.234-5.813 13.93 6.762 20.454 21.867 23.418 35.313 3.133 14.214 3.582 29.586 14.586 41.007 9.586 9.957 25.07 14.13 38.07 7.551 10.016-5.082 1.067-19.226-8.964-14.144-6.102 3.09-13.445-1.008-17.192-5.684-5.039-6.285-6.16-15-7.453-22.496-1.066-6.188-2.36-12.297-4.218-18.203 16.195-.914 30.68-11.567 34.773-27.2 2.676-10.242-14.438-14.613-17.125-4.355-3.027 11.578-13.7 16.98-25.336 14.422a61.98 61.98 0 0 0-5.227-7.168c-12.304-14.52-34.425-21.691-52.5-16.36 13.524-18.753 41.196-27.956 63.735-32.64 14.02-2.918 28.379-3.984 42.73-3.328 15.02.68 29.825 3.602 44.883 3.762 26.527.273 56.715-8.465 80.086 7.265 9.238 6.227 18.106-7.98 8.965-14.136-19.5-13.13-44.098-12.211-66.977-10.524-13.515 1-26.644 1.235-40.136-.191-3.922-.41-7.825-.844-11.735-1.242 2.63-1.582 5.117-3.301 7.395-5.211 9.191-7.707 9.945-16.871 9.652-27.637-.16-5.777.777-9.043 6.902-11.578 5.645-2.344 12.04-3.516 18.016-4.883a335.062 335.062 0 0 1 41.977-6.828c11.242-1.106 11.367-17.496 0-16.38-14.73 1.446-29.364 3.59-43.782 6.767-11.476 2.523-25.586 4.832-34.144 13.074-3.785 3.648-5.774 8.289-6.453 13.219-.774 5.601 1.594 12.44-.598 17.753-1.933 4.696-7.723 7.38-12.16 9.657-6.992 3.59-14.145 6.933-21.211 10.386-.36.176-.695.372-1.008.57-22.46 1.458-44.629 6.848-64.863 15.938-18.508 8.309-36.133 21.504-42.969 39.988-6.453 17.438-.488 36.188 6.934 53.754-8.797-3.57-18.785-6.257-30.156-7.859-36.375-5.137-67.84-23.426-85.012-50.664 8.894-8.594 21.703-12.688 34.242-14.906 17.394-3.075 36.762-3.512 54.176-.696 11.172 1.813 15.972-13.968 4.719-15.789a203.8 203.8 0 0 0-18.825-2.16c4.48-4.62 8.032-10.07 10.399-16.246 4.55-11.86 3.312-24.719.101-37.055 15.52-12.187 38.032-12.128 56.785-6.941 23.563 6.52 44.004 20.152 65.954 30.016 10.234 4.593 19.246-9.524 8.964-14.141-14.515-6.523-28.527-14.645-43.093-21.457 5.398-1.738 10.722-3.676 15.902-5.957 12.809-5.652 22.336-13.816 32.129-23.078 7.984-7.555-4.559-19.145-12.555-11.586-8.812 8.344-17.008 15.453-28.539 20.523-10.398 4.57-21.633 7.43-32.707 10.262-2.668-.746-5.355-1.434-8.098-1.988-20.515-4.176-42.55-2.707-60.097 7.722-.219-.593-.438-1.195-.66-1.785-3.426-9.144-7.414-18.39-10.395-27.82.012-.02.027-.031.031-.043 6.899-9.832 19.075-14.785 30.454-19.008 13.984-5.195 28.355-9.539 42.933-13.098 6.961-1.699 14.082-3.296 21.133-5.101a11.077 11.077 0 0 0 1.777-.34c29.235-8.336 52.696 10.32 76.934 21.945 28.726 13.778 59.328 11.782 89.797 3.868 10.984-2.848 6.316-18.657-4.723-15.793-16.844 4.379-34.863 7.851-52.406 5.242-11.36-1.703-21.485-6.067-31.332-11.375-13.328-7.184-26.969-14.602-41.324-18.82 3.515-2.27 6.875-4.797 10.003-7.708 8.403-7.835 14.11-17.515 16.082-28.414 1.93-10.648 2.684-19.761 12.852-26.48 9.774-6.453 22.125-9.45 33.469-12.598 14.543-4.035 29.27-7.437 44.133-10.328 11.172-2.172 6.445-17.96-4.723-15.789-15.848 3.078-31.547 6.758-47.031 11.137-11.242 3.187-22.992 6.484-33.004 12.34-10.188 5.957-17.965 14.355-20.813 25.332-3.027 11.652-2.632 22.183-11.906 31.66-8.93 9.117-20.726 14.476-33.39 18.328-2.422.414-4.868.95-7.34 1.656a9.773 9.773 0 0 0-2.34 1c-11.88 2.965-24.074 5.149-35.067 8.274-19.367 5.507-42.359 11.593-58.398 24.257-.348-4.109-.328-8.25.203-12.44 2.406-18.958 13.64-35.954 28.066-49.204 8.106-7.453-4.449-19.035-12.554-11.586-13.668 12.55-24.543 27.82-30 44.992-5.852 18.406-3.781 37.102 2.281 55.211 9.074 27.11 37.95 79.106-8.395 91.317-1.484.394-2.675 1.027-3.609 1.812-17.848 2.172-34.976 7.508-48.062 17.598-6.243-14.649-9.77-30.328-10.57-46.137 7.44-4.879 17.671-6.586 25.898-9.34 10.41-3.496 20.87-8.336 27.039-17.223 7.054-10.18 6.316-22.628 2.605-33.746-2.527-7.582-17.136-27.972-7.617-34.73 8.941-6.332.106-20.563-8.957-14.133-10.73 7.606-13.523 19.106-9.898 30.977 3.738 12.218 15.324 25.89 10.75 39.183-3.793 11.024-18.965 13.957-29.368 17.106-4.84 1.457-9.468 3.093-13.777 5.133-3.172.125-6.34.203-9.531.203-22.031 0-44.313-2.774-62.863-5.907-37.555-6.332-78.27-23.273-101.09-53.12-5.414-7.071-9.41-14.84-12.184-23.012 7.848-13.637 20.043-23.301 34.633-29.704.605.118 1.254.176 1.945.176 10.426.008 15.977 10.172 18.707 18.153 3.172 9.277 5.016 18.949 10.188 27.55 9.465 15.711 29.316 24.922 48.597 23.008 11.239-1.125 11.364-17.512 0-16.379-9.84.98-19.504-1.246-26.96-7.496-7.918-6.648-10.211-16.199-12.934-25.355-2.902-9.766-7.64-20.11-15.285-27.164 13.422-2.848 28.761-4.32 42.277-1.305a9.303 9.303 0 0 0 3.504.89c6.574 1.903 12.602 4.993 17.625 9.657 15.332 14.226 17.156 36.422 27.355 53.441 10.45 17.446 28.59 31.711 51.372 26.211 11.042-2.672 6.359-18.469-4.723-15.793-17.543 4.235-29.36-13.14-35.14-25.914-1.098-2.433-2.11-4.894-3.09-7.367 9.847 1 20.25-.527 29.437-2.898 16.476-4.243 29.578-11.88 39.18-25.079 11.168-15.351 20.554-30.566 34.89-43.8 14.285-13.2 30.762-23.895 48.844-32.22 10.227-4.702 1.242-18.839-8.965-14.144-32.418 14.926-60.176 37.887-79.629 66.106-8.828 12.808-15.058 25.047-31.125 30.933-11.402 4.18-28.672 8.313-40.12 2.211-.02-.007-.032-.011-.052-.02-2.832-6.359-6.18-12.491-10.867-18.077-7.234-8.621-16.512-14.34-26.855-17.801-3.84-12.508-7.45-25.844-3.957-38.633 1.316-4.82 3.726-9.273 4.843-14.129 29.97-35.328 76.407-58 124.832-61.375 11.325-.785 11.418-17.172 0-16.37-49.191 3.425-94.71 23.82-128.164 56.593-6.172-11.887-17.722-20.723-31.007-25.3 11.73-8.317 19.668-19.056 29.718-29.981 6.063-6.579 12.137-13.188 19.082-18.98 30.13-25.106 72.23-31.942 113.086-36.013.668.301 1.41.551 2.254.707 19.2 3.649 38.469 15.653 47.774 31.875 9.285 16.192.039 32.497-12.344 44.633-2.367 2.32-4.871 4.465-7.457 6.52-.352.156-.711.328-1.07.535-12.747 7.375-28.176 10.898-42.665 14.086-13.668 2.996-27.687 4.183-40.582 9.613-28.011 11.8-41.828 38.07-39.558 65.746.855 10.446 18.617 10.531 17.754 0-2.043-24.855 10.832-46.515 37.582-53.828 9.922-2.715 20.304-4.027 30.457-6.05-8.145 9.296-13.836 20.136-17.024 31.917-2.761 10.23 14.36 14.59 17.125 4.356 4.551-16.844 14.926-29.645 29.946-39.863 16.093-10.958 32.543-22.391 42.254-39 10.293-17.61 9.23-37.18-3.637-53.426-6.961-8.805-15.902-16.52-26.035-22.399 16.96-3.55 33.66-8.812 50.531-12.531 16.672-3.672 36.016-7.34 56.691-9.879-6.285 11.2-8.39 24.215-7.101 37.024.062.648.148 1.289.226 1.93-.683.163-1.386.406-2.086.745-9.5 4.57-18.687 10.676-23.648 19.715-3.402 6.196-4.16 12.703-5.082 19.473-1.086 7.96-4.145 16.68-9.031 23.328-6.707 9.11-17.426 15.121-27.313 20.883-9.637 5.613-.738 19.797 8.961 14.144 9.899-5.77 20.242-11.82 28.031-20.015 7.707-8.106 12.063-17.848 15.282-28.121 1.718-5.504 1.457-11.305 2.89-16.844 2.07-8.02 8.133-12.797 15.422-16.68a117.326 117.326 0 0 0 3.578 10.32c3.301 8.25 6.239 16.23 6.114 25.145-.387 27.898-28.2 46.418-53.133 56.89-10.39 4.364-1.375 18.485 8.957 14.141 26.504-11.125 53.472-30.32 60.215-57.855 1.882-7.668 2.105-15.453.91-23.215-1.465-9.465-5.715-17.848-8.684-26.918a93.593 93.593 0 0 1-2.258-8.098c6.051-2.367 12.922-4.215 19.598-4.652 5.461-.36 11.625.094 15.211 4.41 4.293 5.16 6.262 10.035 12.84 13.402 19.355 9.903 47.074.477 65.383-7.69 10.285-4.595 1.285-18.724-8.965-14.145-6.676 2.976-15.473 5.828-23.985 7.668-5.906 1.28-12.324 2.296-18.402 1.433-6.32-.91-7.95-3.613-11.094-8.27-11.265-16.69-34.007-15.078-52.539-8.956.125-11.418 3.59-22.493 12.836-30.985.188-.168.352-.347.516-.515 9.246-.668 18.637-1.055 28.086-1.055 51.367 0 104.21 11.113 141.68 47.652-3.637 7.727-8.169 15.387-10.88 23.426-27.601-5.238-58.535 9.637-80.57 23.262-26.289 16.246-50.129 37.644-82.004 43.957-11.168 2.21-6.441 18 4.723 15.789 29.809-5.899 53.18-23.863 77.312-39.863 11.895-7.887 24.192-14.926 37.688-20.25 13.098-5.168 26.848-9.282 40.644-6.465.88 9.105 4.172 17.605 10.708 24.582 5.921 6.328 14.507 10.289 18.175 18.23.067.153.145.281.215.418-1.496 2.188-2.93 4.402-4.191 6.715-3.407 6.187-5.793 12.539-10.848 17.836-11.762 12.312-29.121 17.36-45.96 20.789-11.15 2.277-6.434 18.066 4.722 15.789 16.195-3.297 32.133-8.234 45.312-17.785 5.79-4.18 10.801-9.117 14.813-14.817 4.242-6.023 6.601-12.968 10.656-19.117 14.504-21.98 40.457-36.402 68.055-38.535a138.944 138.944 0 0 1 13.406 17.215c-5.422 13.352-11.633 26.824-22.188 37.332-12.285 12.238-28.96 19.465-45.273 26.055-17.637 7.12-35.113 14.285-51.89 23.05-14.856 7.762-29.477 16.262-35.481 31.778-3.844 9.949 13.305 14.226 17.125 4.355 5.59-14.449 27.621-22.465 41.207-28.933 2.117-1.008 4.25-1.98 6.395-2.938-2.813 7-4.387 14.551-4.891 22.059-1.438 21.258 12.601 61.492-20.742 66.191-11.258 1.582-6.473 17.367 4.722 15.79 11.907-1.673 22.559-8.368 28.907-17.798 7.351-10.925 6.414-24.117 5.664-36.437-1.262-20.785-5.008-55.422 22.547-64.074 1.738-.543 3.066-1.414 4.039-2.48 1.699-.74 3.402-1.481 5.086-2.243 15.64-7.105 30.113-16.191 40.789-29.078 5.976-7.223 10.605-15.176 14.59-23.43a134.03 134.03 0 0 1 10.042 32.91c-19.996 14.625-24.8 39.375-24.343 62.711a9.221 9.221 0 0 0-2.801 2.43c-8.707 11.273-22.707 17.734-34.29 26.11-11.085 8.023-20.589 17.992-23.839 30.945-2.574 10.257 14.543 14.632 17.121 4.347 3.156-12.578 14.399-20.629 25.344-27.687 7.101-4.578 14.043-9.106 20.277-14.39.965 8.171 1.965 16.339 1.98 24.456.024 11.403-7.847 18.063-16.218 25.492-8.445 7.508-17.43 14.45-26.91 20.829-9.14 6.148-.29 20.363 8.965 14.14 9.14-6.156 17.98-12.672 26.308-19.746 7.32-6.21 15.426-12.848 20.434-20.887 9.484-15.23 3.441-34.375 2.203-50.906-1.594-21.289-3.027-47.633 14.328-62.867 38.023 37.945 52.656 107.082 24.828 159.14-18.055 6.438-37.015 12.602-51.492 24.262-8.781 7.067-16.922 14.328-28.195 17.88-11.235 3.53-22.953 3.55-34.301.523-11-2.938-15.695 12.867-4.723 15.789 15.707 4.187 31.903 3.422 46.61-1.7-2.782 4.434-5.286 9.032-7.762 13.579-8.836 16.23-17.664 33.703-37.645 39.98-2.511.793-4.18 2.262-5.125 4.004-6.336-12.004-10.504-25.02-18.906-36.172-6.473-8.598-21.871-.422-15.324 8.266 7.746 10.289 11.355 22.285 17.027 33.539 4.813 9.543 11.531 18.281 19.57 25.738 13.692 12.695 30.645 21.156 49.188 25.32-1 20.004-5.836 39.215-20.027 53.875ZM57.008 225.742c8.738-9.36 18.89-17.493 29.844-24.571 8.527-.012 16.64 2.035 23.906 6.535 7.265 4.496 14.894 12.574 14.765 21.129-.668 1.328-.812 2.625-.558 3.812-1.078 4.04-3.242 7.836-4.36 11.868-1.609 5.78-2.183 11.949-1.91 17.902.32 7.164 1.715 14.223 3.54 21.18-21.594-1.903-45 3.05-63.473 10.375-13.332 5.285-25.188 12.964-34.461 22.87-2.43-32.683 10.941-67.788 32.707-91.1ZM688.8 160.198c-21.168 4.313-40.86 14.594-55.559 29.395-3.344-4.211-7.73-7.598-12.05-11.137-6.876-5.621-10.844-11.926-11.176-20.574-.387-9.883 5.734-19.774 10.617-28.996 25.082 4.984 48.844 15.746 68.168 31.312Zm117.246 163.485c-6.82-32.438-22.414-61.188-44.281-81.914-5.649-35.211-24.114-68.743-51.48-93.043-23.325-20.684-53.524-35.22-85.845-41.438-37.07-37.273-91.039-56.156-160.578-56.156v21.832l-.008-21.832c-34.46.004-71.722 4.523-113.945 13.84-8.473 1.863-16.777 4.07-24.812 6.195-15.262 4.047-29.68 7.867-43.825 9.148-41.984 3.782-99.503 8.97-140.117 42.809-8.062 6.73-14.707 13.938-21.133 20.918l-.125.129c-2.707 2.945-5.199 5.789-7.609 8.543-8.078 9.238-14.457 16.523-23.508 21.398-19.773 10.649-36.5 23.219-49.715 37.383-19.367 20.75-32.949 49.137-37.25 77.887-4.832 32.293 2.23 62.793 19.891 85.898 23.668 30.953 66.016 53.559 116.172 62.016 20.344 3.437 39.32 5.476 56.566 6.07 1.559 20.442 7.098 40.336 16.387 58.52 18.95 37.082 58.914 63.254 106.895 70.023 58.77 8.293 70.535 50.242 80.742 108.606 1.168 6.714 2.281 13.066 3.535 19.203 1.465 7.164 4.062 17.773 8.121 27.605 10.863 26.301 27.066 31.82 38.75 31.82 6.848 0 17.133-2.039 27.305-11.792 12.039-11.54 21.09-25.59 27.66-42.97 3.496-9.25 5.152-18.394 6.605-26.46.227-1.254.457-2.504.684-3.735a227.944 227.944 0 0 0 17.48 5.817c22.903 6.621 47.524 9.988 73.16 10h.133c42.907 0 75.274-10.957 96.188-32.563 19.226-19.863 24.543-44.367 25.855-64.285 4.024-2.765 8.082-6.023 12.313-9.87 28.758-26.212 48.656-60.833 56.039-97.513 4.473-22.324 4.273-44.316 3.176-63.441 14.058-29.352 17.824-64.125 10.574-98.648"/></g></svg>