<svg xmlns="http://www.w3.org/2000/svg" width="1200" height="900" version="1.0" viewBox="0 0 900 675"><defs><clipPath id="a"><path d="M169 19h580.23v555H169Zm0 0"/></clipPath><clipPath id="b"><path d="M113.422 253H217v75H113.422Zm0 0"/></clipPath></defs><path fill="#fff" d="M674.523 255.16a5.658 5.658 0 0 1-5.66 5.656 5.652 5.652 0 0 1-5.656-5.656 5.656 5.656 0 0 1 5.656-5.66 5.661 5.661 0 0 1 5.66 5.66"/><g clip-path="url(#a)"><path fill="#fb653e" d="m189.426 34.605 535.996-14.742c13.125-.36 23.805 9.899 23.805 22.914v508.371c0 13.012-10.68 22.922-23.805 22.133l-535.996-32.199c-10.95-.656-19.797-10.777-19.797-22.602V56.562c0-11.824 8.848-21.656 19.797-21.957"/></g><path fill="#fff" d="m177.898 34.61 535.997-14.747c13.125-.36 23.804 9.899 23.804 22.91v508.375c0 13.012-10.68 22.922-23.804 22.133l-535.997-32.199c-10.949-.656-19.796-10.777-19.796-22.602V56.562c0-11.828 8.847-21.656 19.796-21.953"/><path fill="#fb653e" d="m177.902 34.602.02.8c-10.488.285-19.024 9.782-19.024 21.16V518.48c0 11.391 8.547 21.172 19.051 21.805l535.992 32.203c6.192.371 11.993-1.68 16.34-5.777 4.274-4.024 6.625-9.55 6.625-15.563V42.773c0-6.027-2.36-11.636-6.648-15.808-4.352-4.238-10.16-6.488-16.344-6.309L177.922 35.402Zm537.465 539.52c-.504 0-1.012-.013-1.523-.044l-535.992-32.2c-11.329-.679-20.547-11.179-20.547-23.398V56.562c0-12.234 9.226-22.44 20.574-22.757L713.87 19.063c6.64-.172 12.836 2.222 17.504 6.757 4.594 4.473 7.125 10.492 7.125 16.953v508.375c0 6.457-2.531 12.395-7.125 16.723-4.316 4.063-9.953 6.25-16.008 6.25"/><path fill="#fb653e" d="M184.605 121.813a.798.798 0 0 1-.012-1.594l521.302-6.543h.011a.799.799 0 0 1 .008 1.597l-521.3 6.54h-.009"/><path fill="#fb653e" d="M436.723 516.785a.799.799 0 0 1-.801-.797V54.75c0-.438.36-.793.8-.793.442 0 .798.355.798.793v461.238a.795.795 0 0 1-.797.797M307.977 509.914a.794.794 0 0 1-.797-.793V57.711c0-.441.355-.797.797-.797.441 0 .796.356.796.797v451.41a.794.794 0 0 1-.796.793M571.2 523.957a.799.799 0 0 1-.802-.797V51.66c0-.441.36-.797.801-.797.442 0 .793.356.793.797v471.5a.792.792 0 0 1-.793.797M453.555 102.137l100.215-1.512V63.754l-100.215 2.11v36.273M323.332 104.105l95.914-1.445V66.594l-95.914 2.023v35.488M589.625 100.086l104.8-1.582V60.789L589.626 63v37.086M198.59 105.992l91.89-1.387V69.31l-91.89 1.937v34.746M454.352 362.121l98.617 2.758V149.422l-98.617.723Zm99.414 4.371h-.024l-100.207-2.8a.796.796 0 0 1-.777-.797V149.352a.8.8 0 0 1 .793-.797l100.21-.735h.005c.21 0 .418.086.562.235a.789.789 0 0 1 .238.566v217.074c0 .211-.09.418-.242.57a.824.824 0 0 1-.558.227M604.629 243.129l100.476.816V157.09l-100.476.597Zm101.281 2.414h-.012l-102.074-.824a.8.8 0 0 1-.793-.797V156.89c0-.438.352-.793.793-.797l102.082-.606h.004a.792.792 0 0 1 .793.797v88.465c0 .21-.082.418-.234.563a.8.8 0 0 1-.559.23M323.77 308.328l91.492 2.555v-82.836l-91.492-1.274Zm92.289 4.172h-.024l-93.086-2.598a.799.799 0 0 1-.773-.8v-83.137c0-.215.086-.418.238-.57.152-.149.367-.247.57-.227l93.082 1.293a.795.795 0 0 1 .786.797v84.445a.79.79 0 0 1-.793.797M325.363 209.047l91.492 2.176v-70.278l-91.492-1.082Zm92.285 3.789h-.015l-93.086-2.215a.802.802 0 0 1-.777-.8v-70.766c0-.211.085-.418.238-.57.148-.145.347-.212.57-.227l93.082 1.101c.438.008.79.36.79.797v71.88a.78.78 0 0 1-.243.57.786.786 0 0 1-.559.23M457.734 461.418l91.489 2.555v-82.836l-91.489-1.274Zm92.29 4.172h-.028l-93.082-2.598a.801.801 0 0 1-.777-.797v-83.14c0-.215.086-.418.242-.567a.757.757 0 0 1 .566-.23l93.086 1.293a.8.8 0 0 1 .785.797v84.445a.798.798 0 0 1-.793.797M603.266 354.96l99.062 2.767V268.02l-99.062-1.383Zm99.859 4.38h-.027l-100.653-2.809a.802.802 0 0 1-.78-.797v-89.91a.81.81 0 0 1 .237-.562.902.902 0 0 1 .575-.23l100.656 1.402c.437.003.789.359.789.796v91.313a.794.794 0 0 1-.797.797M199.375 220.617l91.488 2.559v-82.84l-91.488-1.27Zm92.285 4.176h-.02l-93.085-2.598a.805.805 0 0 1-.778-.8v-83.141c0-.211.09-.414.239-.566a.79.79 0 0 1 .574-.227l93.082 1.297c.437.004.785.36.785.793v84.445a.798.798 0 0 1-.797.797M195.398 477.5l90.293 4.43V351.863l-90.293-2.406Zm91.09 6.063h-.039l-91.89-4.508a.794.794 0 0 1-.758-.793V348.637a.801.801 0 0 1 .82-.797l91.89 2.453c.43.012.778.363.778.797v131.676c0 .218-.09.425-.25.578a.78.78 0 0 1-.55.219M327.77 482.285l90.293 4.43V356.648l-90.293-2.41Zm91.093 6.063h-.043l-91.886-4.508a.798.798 0 0 1-.762-.793V353.418c0-.215.09-.418.242-.566a.751.751 0 0 1 .578-.23l91.89 2.452a.8.8 0 0 1 .774.797v131.68a.792.792 0 0 1-.793.797M607.66 506.203l90.29 4.43V380.566l-90.29-2.41Zm91.094 6.063h-.043l-91.887-4.508a.798.798 0 0 1-.761-.793v-129.63a.78.78 0 0 1 .246-.565.78.78 0 0 1 .574-.227l91.887 2.453a.802.802 0 0 1 .78.797v131.676a.823.823 0 0 1-.245.578.819.819 0 0 1-.551.219"/><path fill="#fff" d="m564.14 543.059-127.202-6.496c-3.66-.188-6.622-3.254-6.622-6.848V409.523c0-3.597 2.961-6.359 6.622-6.171l127.203 6.496c3.652.191 6.62 3.254 6.62 6.847v120.196c0 3.593-2.968 6.359-6.62 6.168"/><path fill="#fb653e" d="m431.113 425.328 138.852 7.094v-15.723c0-3.172-2.633-5.887-5.867-6.05l-127.203-6.504c-1.563-.082-3.043.453-4.133 1.496-1.067 1.007-1.649 2.386-1.649 3.882Zm139.645 8.73h-.043l-140.442-7.175a.795.795 0 0 1-.757-.797v-16.563c0-1.937.761-3.73 2.144-5.039 1.418-1.347 3.313-2.023 5.317-1.93l127.199 6.505c4.07.203 7.379 3.628 7.379 7.64v16.563c0 .218-.09.425-.246.578a.804.804 0 0 1-.551.219"/><path fill="#fb653e" d="M436.586 404.14c-1.457 0-2.805.528-3.824 1.5-1.067 1.008-1.649 2.387-1.649 3.883v120.192c0 3.172 2.63 5.887 5.864 6.05l127.199 6.497c1.582.09 3.039-.446 4.14-1.489a5.308 5.308 0 0 0 1.649-3.882V416.699c0-3.172-2.633-5.887-5.867-6.05l-127.203-6.504c-.102 0-.204-.004-.31-.004Zm127.906 139.727c-.133 0-.262-.004-.394-.012l-127.203-6.496c-4.067-.207-7.38-3.636-7.38-7.644V409.523c0-1.937.762-3.73 2.145-5.039 1.418-1.347 3.313-2.023 5.317-1.93l127.199 6.505c4.07.203 7.379 3.628 7.379 7.64v120.192c0 1.937-.762 3.726-2.14 5.039-1.325 1.261-3.06 1.937-4.923 1.937"/><path fill="#fb653e" d="M463.902 492.918a2.6 2.6 0 0 0 2-.719c.512-.48.79-1.144.79-1.863V474.93c0-1.547-1.29-2.875-2.872-2.953l-15.535-.797c-.777-.035-1.473.218-2 .718a2.538 2.538 0 0 0-.789 1.864v15.41c0 1.547 1.285 2.871 2.867 2.953Zm.157 1.602c-.082 0-.157-.004-.239-.008l-15.535-.793c-2.418-.125-4.383-2.164-4.383-4.547v-15.41a4.13 4.13 0 0 1 1.282-3.02 4.275 4.275 0 0 1 3.18-1.152l15.538.793c2.418.125 4.387 2.164 4.387 4.547v15.406c0 1.16-.46 2.23-1.289 3.023a4.24 4.24 0 0 1-2.941 1.16M477.762 472.691c-.703 0-1.356.254-1.848.723a2.553 2.553 0 0 0-.789 1.863v15.407c0 1.55 1.285 2.875 2.867 2.953l15.543.793a2.661 2.661 0 0 0 1.996-.711 2.57 2.57 0 0 0 .79-1.871V476.44c0-1.546-1.286-2.87-2.872-2.953l-15.535-.793c-.05 0-.105-.004-.152-.004Zm15.925 23.34c-.078 0-.156-.004-.238-.008l-15.535-.793c-2.418-.12-4.387-2.164-4.387-4.546v-15.407c0-1.16.457-2.23 1.29-3.02.847-.804 1.968-1.21 3.175-1.155l15.543.793c2.414.125 4.383 2.164 4.383 4.546v15.407c0 1.16-.457 2.238-1.29 3.023a4.216 4.216 0 0 1-2.94 1.16M507.39 474.207c-.702 0-1.355.25-1.847.719a2.54 2.54 0 0 0-.79 1.867v15.406c0 1.547 1.29 2.871 2.872 2.953l15.535.793a2.628 2.628 0 0 0 2-.715 2.571 2.571 0 0 0 .793-1.867v-15.41c0-1.547-1.289-2.867-2.871-2.95l-15.539-.792c-.05-.004-.102-.004-.152-.004Zm15.926 23.336c-.078 0-.156 0-.234-.004l-15.539-.793c-2.418-.125-4.383-2.164-4.383-4.547v-15.406c0-1.16.457-2.234 1.285-3.023.848-.805 1.977-1.211 3.18-1.153l15.535.793c2.422.125 4.383 2.164 4.383 4.543v15.41c0 1.16-.453 2.235-1.281 3.02a4.24 4.24 0 0 1-2.946 1.16M552.793 497.46a2.622 2.622 0 0 0 1.996-.718 2.535 2.535 0 0 0 .793-1.863v-15.406c0-1.551-1.289-2.875-2.871-2.953l-15.54-.797c-.769-.036-1.472.214-2 .718a2.528 2.528 0 0 0-.784 1.864v15.406c0 1.55 1.281 2.875 2.863 2.957Zm.152 1.599c-.078 0-.156-.004-.234-.004l-15.54-.797c-2.417-.121-4.382-2.16-4.382-4.547v-15.406c0-1.157.457-2.235 1.285-3.024a4.263 4.263 0 0 1 3.176-1.148l15.543.793c2.414.125 4.383 2.16 4.383 4.547v15.406c0 1.16-.461 2.23-1.29 3.02a4.216 4.216 0 0 1-2.94 1.16M448.133 500.367c-.703 0-1.356.254-1.848.723a2.525 2.525 0 0 0-.789 1.863v15.41c0 1.543 1.285 2.871 2.867 2.95l15.54.796a2.667 2.667 0 0 0 2-.718c.511-.48.788-1.145.788-1.864v-15.41c0-1.543-1.289-2.87-2.87-2.949l-15.536-.797c-.05-.004-.101-.004-.152-.004Zm15.926 23.336h-.239l-15.535-.797c-2.418-.125-4.383-2.16-4.383-4.543v-15.41c0-1.16.453-2.23 1.282-3.02.847-.808 1.972-1.214 3.18-1.152l15.538.793c2.418.121 4.387 2.16 4.387 4.543v15.41c0 1.16-.46 2.23-1.289 3.02a4.22 4.22 0 0 1-2.941 1.156M477.762 501.883c-.703 0-1.356.25-1.848.722a2.537 2.537 0 0 0-.789 1.86v15.41c0 1.547 1.285 2.871 2.867 2.953l15.543.793a2.622 2.622 0 0 0 1.996-.719 2.54 2.54 0 0 0 .79-1.863v-15.406c0-1.547-1.286-2.875-2.872-2.953l-15.535-.793c-.05-.004-.105-.004-.152-.004Zm15.925 23.34c-.078 0-.156-.004-.238-.008l-15.535-.797c-2.418-.125-4.387-2.16-4.387-4.543v-15.41c0-1.156.457-2.23 1.29-3.016.847-.808 1.968-1.215 3.175-1.156l15.543.793c2.414.121 4.383 2.164 4.383 4.547v15.406c0 1.16-.457 2.234-1.29 3.024a4.234 4.234 0 0 1-2.94 1.16M523.16 525.137a2.65 2.65 0 0 0 2-.719 2.559 2.559 0 0 0 .793-1.867v-15.406c0-1.547-1.289-2.872-2.871-2.954l-15.539-.793a2.635 2.635 0 0 0-2 .72 2.534 2.534 0 0 0-.79 1.866v15.407c0 1.547 1.29 2.87 2.872 2.949Zm.153 1.597c-.075 0-.153 0-.231-.007l-15.539-.79c-2.418-.125-4.383-2.167-4.383-4.546v-15.407c0-1.164.457-2.234 1.285-3.023.848-.805 1.985-1.207 3.18-1.156l15.535.793c2.422.125 4.383 2.168 4.383 4.547v15.406c0 1.16-.453 2.238-1.281 3.023a4.242 4.242 0 0 1-2.95 1.16M448.133 441.898c-.703 0-1.356.247-1.848.715a2.546 2.546 0 0 0-.789 1.867v15.41c0 1.548 1.285 2.868 2.867 2.954l15.54.789c.761.05 1.468-.211 2-.715a2.54 2.54 0 0 0 .788-1.867v-15.406c0-1.547-1.289-2.872-2.87-2.95l-15.536-.793c-.05-.004-.101-.004-.152-.004Zm15.926 23.336c-.079 0-.157 0-.239-.004l-15.535-.796c-2.418-.125-4.383-2.164-4.383-4.543v-15.41c0-1.157.453-2.235 1.282-3.02.847-.805 1.972-1.211 3.18-1.152l15.538.789c2.418.125 4.387 2.168 4.387 4.547v15.406c0 1.164-.46 2.234-1.289 3.023a4.223 4.223 0 0 1-2.941 1.16M477.762 443.41c-.703 0-1.356.254-1.848.723a2.54 2.54 0 0 0-.789 1.863v15.406c0 1.547 1.285 2.875 2.867 2.953l15.543.797c.762.036 1.469-.218 1.996-.718.508-.485.79-1.149.79-1.864v-15.41c0-1.547-1.286-2.87-2.872-2.953l-15.535-.793c-.05-.004-.105-.004-.152-.004Zm15.925 23.336c-.078 0-.156 0-.238-.004l-15.535-.793c-2.418-.125-4.387-2.164-4.387-4.547v-15.406c0-1.16.457-2.234 1.29-3.023.847-.805 1.968-1.211 3.175-1.153l15.543.793c2.414.125 4.383 2.164 4.383 4.547v15.41c0 1.157-.457 2.23-1.29 3.016a4.216 4.216 0 0 1-2.94 1.16M523.16 466.664a2.635 2.635 0 0 0 2-.719 2.55 2.55 0 0 0 .793-1.863v-15.406c0-1.551-1.289-2.875-2.871-2.957l-15.539-.793a2.635 2.635 0 0 0-2 .719 2.531 2.531 0 0 0-.79 1.863v15.406c0 1.55 1.29 2.875 2.872 2.953Zm.153 1.598c-.075 0-.153-.004-.231-.004l-15.539-.797c-2.418-.121-4.383-2.16-4.383-4.547v-15.406c0-1.156.457-2.23 1.285-3.02a4.261 4.261 0 0 1 3.18-1.156l15.535.797c2.422.125 4.383 2.16 4.383 4.547v15.406c0 1.156-.453 2.23-1.281 3.023a4.256 4.256 0 0 1-2.95 1.157M552.793 468.176a2.614 2.614 0 0 0 1.996-.715 2.544 2.544 0 0 0 .793-1.867v-15.406c0-1.547-1.289-2.872-2.871-2.954l-15.54-.793a2.603 2.603 0 0 0-2 .715 2.543 2.543 0 0 0-.784 1.867v15.41c0 1.547 1.281 2.868 2.863 2.95Zm.152 1.601c-.078 0-.156 0-.234-.007l-15.54-.793c-2.417-.125-4.382-2.164-4.382-4.543v-15.41a4.12 4.12 0 0 1 1.285-3.02c.848-.805 1.977-1.215 3.176-1.156l15.543.793c2.414.125 4.383 2.164 4.383 4.546v15.407a4.129 4.129 0 0 1-1.285 3.023 4.233 4.233 0 0 1-2.946 1.16M449.555 417.21h-.043c-6.77-.366-12.285-6.136-12.29-12.862 0-3.266 1.27-6.274 3.59-8.465 2.34-2.223 5.45-3.336 8.77-3.168.254.012.504.035.754.066.437.047.75.446.7.88a.783.783 0 0 1-.88.702 9.097 9.097 0 0 0-.656-.05c-2.883-.165-5.574.812-7.59 2.726-1.996 1.89-3.094 4.484-3.094 7.305.008 5.898 4.84 10.957 10.782 11.273a.796.796 0 0 1-.043 1.594M467.004 418.152c-.016 0-.027 0-.043-.004-6.77-.363-12.285-6.136-12.29-12.863-.003-3.265 1.274-6.273 3.587-8.469 2.34-2.218 5.449-3.332 8.773-3.164.254.016.504.036.754.067a.79.79 0 0 1 .7.879.793.793 0 0 1-.883.703 17.587 17.587 0 0 0-.653-.059c-2.875-.16-5.574.817-7.59 2.735-1.996 1.89-3.093 4.484-3.093 7.304.004 5.899 4.84 10.957 10.785 11.274a.799.799 0 0 1-.047 1.597M484.453 419.086h-.043c-6.77-.363-12.285-6.137-12.289-12.863-.004-3.266 1.274-6.274 3.586-8.47 2.344-2.218 5.457-3.327 8.773-3.163.254.012.504.035.754.066a.787.787 0 0 1 .7.88.78.78 0 0 1-.88.702 12.38 12.38 0 0 0-.656-.054c-2.87-.16-5.57.812-7.59 2.726-1.995 1.895-3.093 4.488-3.093 7.309.008 5.898 4.844 10.953 10.785 11.273a.797.797 0 0 1-.047 1.594M501.902 420.02h-.043c-6.77-.364-12.285-6.133-12.289-12.864-.004-3.265 1.27-6.27 3.586-8.465 2.34-2.218 5.461-3.34 8.774-3.164.254.016.504.032.754.063a.798.798 0 0 1-.18 1.586c-.219-.028-.442-.043-.66-.059-2.875-.148-5.57.817-7.586 2.735-1.996 1.89-3.094 4.48-3.094 7.3.004 5.903 4.84 10.957 10.781 11.278a.799.799 0 0 1 .754.84.794.794 0 0 1-.797.75M519.352 420.957h-.043c-6.774-.363-12.286-6.133-12.29-12.863-.003-3.266 1.27-6.27 3.586-8.465 2.344-2.219 5.457-3.336 8.774-3.168.254.016.504.035.754.066.437.051.75.446.699.883a.782.782 0 0 1-.883.7c-.215-.024-.433-.04-.652-.051-2.875-.16-5.574.812-7.59 2.726-1.996 1.89-3.094 4.485-3.094 7.305.004 5.902 4.84 10.957 10.778 11.277a.8.8 0 0 1 .757.84.797.797 0 0 1-.796.75M536.8 421.898c-.015 0-.027 0-.042-.003-6.77-.36-12.285-6.137-12.29-12.864-.003-3.265 1.274-6.27 3.587-8.469 2.34-2.214 5.449-3.324 8.773-3.164.254.016.504.036.754.067.438.05.75.445.7.883a.786.786 0 0 1-.884.699c-.214-.024-.433-.04-.656-.055-2.875-.16-5.57.817-7.59 2.73-1.992 1.891-3.09 4.489-3.09 7.305.004 5.899 4.84 10.957 10.778 11.274a.804.804 0 0 1 .758.84.798.798 0 0 1-.797.757M553.258 422.781h-.04c-6.769-.367-12.284-6.136-12.288-12.87-.004-3.259 1.27-6.266 3.582-8.462 2.34-2.219 5.453-3.328 8.773-3.168 4.285.23 8.195 2.606 10.453 6.344a.8.8 0 0 1-.27 1.098.795.795 0 0 1-1.093-.274c-1.988-3.289-5.414-5.37-9.176-5.574-2.867-.16-5.57.816-7.59 2.73-1.988 1.895-3.09 4.485-3.09 7.305.004 5.899 4.84 10.957 10.782 11.274a.803.803 0 0 1 .758.843.801.801 0 0 1-.801.754"/><path fill="#fff" d="m683.02 597.398 3.949 27.727 10.105.04.477-27.27-14.531-.497"/><path fill="#fb653e" d="m687.656 624.332 8.637.035.445-25.699-12.793-.438Zm9.418 1.629h-.004l-10.105-.035a.795.795 0 0 1-.785-.684l-3.95-27.73a.793.793 0 0 1 .196-.645c.156-.176.39-.289.617-.262l14.535.493c.434.02.777.379.77.812l-.473 27.27a.803.803 0 0 1-.8.78"/><path fill="#fff" d="M686.621 651.633c3.969.43 9.871.594 17.766-.098 2.82-.246 4.812-2.863 4.36-5.66-1.227-7.523-4.645-20.797-10.04-26.887l-2.66 3.793-1.578-3.922c-.258-.422-6.957-.703-7.094.094l-.406 3.828-3.805-4.261.211 13.992a21.137 21.137 0 0 1-.438 4.597l-1 4.836c-.597 2.914.145 5.992 2.18 8.164.793.844 1.676 1.438 2.504 1.524"/><path fill="#fb653e" d="m683.992 620.645.18 11.851a21.995 21.995 0 0 1-.45 4.774l-1 4.835c-.57 2.747.176 5.536 1.981 7.457.711.766 1.426 1.22 2.008 1.282 3.379.36 9.176.636 17.605-.106a3.986 3.986 0 0 0 2.832-1.543 4.11 4.11 0 0 0 .809-3.187c-1.094-6.711-4.219-19.352-9.191-25.707l-2.067 2.937a.793.793 0 0 1-.742.332.773.773 0 0 1-.644-.492l-1.461-3.613c-1.075-.238-4.668-.313-5.727-.059l-.363 3.457a.79.79 0 0 1-.547.676.821.821 0 0 1-.844-.226Zm10.313 32.156c-3.325 0-5.903-.176-7.766-.371-.973-.106-2.012-.72-3-1.778-2.156-2.3-3.055-5.613-2.379-8.87l.996-4.833c.305-1.457.446-2.945.422-4.426l-.21-13.992a.8.8 0 0 1 1.394-.543l2.605 2.918.219-2.039c.14-.82 1.043-.988 1.383-1.047.789-.152 6.535-.445 7.18.63a.462.462 0 0 1 .062.112l1.027 2.56 1.82-2.59a.784.784 0 0 1 .61-.34.806.806 0 0 1 .64.265c6.887 7.781 9.903 25.316 10.227 27.293a5.75 5.75 0 0 1-1.129 4.422 5.542 5.542 0 0 1-3.949 2.156c-3.937.348-7.32.473-10.152.473"/><path fill="#fb653e" d="M693.852 647.855c-4.391 0-7.102-.535-7.286-.57a.8.8 0 0 1-.617-.941.792.792 0 0 1 .938-.621c.066.011 7.047 1.379 16.8-.34a.8.8 0 0 1 .918.652.788.788 0 0 1-.64.922c-3.903.688-7.34.898-10.113.898M699.793 637.223h-9.168a.798.798 0 0 1 0-1.594h9.168a.798.798 0 0 1 0 1.594"/><path fill="#fff" d="m610.484 599.875-3.558 32.316-13.594 2.848.832-37.89 16.32 2.726"/><path fill="#fb653e" d="m594.941 598.082-.785 35.969 12.047-2.524 3.41-30.992Zm-1.605 37.754a.788.788 0 0 1-.508-.184.8.8 0 0 1-.293-.632l.836-37.891c0-.234.106-.45.285-.598a.8.8 0 0 1 .645-.172l16.316 2.73c.418.071.711.45.664.876l-3.558 32.312a.792.792 0 0 1-.63.696l-13.593 2.843a.572.572 0 0 1-.164.02"/><path fill="#fff" d="M612.68 647.602c.297-5.664.308-16.09-3.14-21.118l-10.876 3.871v-2.32c0-.75-.535-1.367-1.215-1.406l-6.07-.348a13.115 13.115 0 0 0-6.582 1.356c-6.094 2.996-24.649 10.687-27.219 19.332-.758 2.547 1.235 5.093 3.895 5.172 6.101.175 20.78.367 47.12-.536a4.222 4.222 0 0 0 4.087-4.003"/><path fill="#fb653e" d="M612.676 647.602h.008Zm-22.02-20.547c-1.886 0-3.777.445-5.508 1.297-.738.359-1.648.789-2.695 1.277-7.129 3.344-21.95 10.297-24.113 17.562-.278.934-.098 1.93.484 2.739a3.421 3.421 0 0 0 2.668 1.414c6.39.183 21 .36 47.078-.532a3.417 3.417 0 0 0 3.313-3.25c.285-5.445.304-15.12-2.68-20.113l-10.277 3.66a.798.798 0 0 1-1.063-.754v-2.32c0-.324-.21-.594-.46-.613l-6.067-.344a9.962 9.962 0 0 0-.68-.023Zm-17.015 26.035c-5.586 0-9.575-.074-12.196-.149a5.04 5.04 0 0 1-3.91-2.078c-.879-1.21-1.144-2.715-.722-4.125 2.363-7.949 17.062-14.843 24.96-18.55 1.036-.485 1.942-.91 2.672-1.266a13.995 13.995 0 0 1 6.98-1.438l6.067.352c1.102.062 1.969 1.023 1.969 2.2v1.19l9.809-3.492a.8.8 0 0 1 .925.297c3.567 5.207 3.586 15.778 3.282 21.614a5.003 5.003 0 0 1-4.856 4.761c-15.45.528-26.887.684-34.98.684"/><path fill="#fb653e" d="M577.855 647.719c-8.09 0-13.195-.375-13.296-.38a.797.797 0 0 1-.727-.859.785.785 0 0 1 .852-.734c.191.012 19.34 1.414 42.507-1.273a.799.799 0 0 1 .184 1.586c-11.387 1.316-21.813 1.66-29.52 1.66M581.223 638.469a.777.777 0 0 1-.645-.332.794.794 0 0 1 .176-1.114l10.473-7.527a.794.794 0 0 1 1.109.18.792.792 0 0 1-.18 1.113l-10.472 7.527a.743.743 0 0 1-.461.153"/><path fill="#fff" d="M606.246 390.195S586.762 523.86 590.91 613.078l6.078.606c3.27.328 6.559.41 9.844.246l5.766-.29s23.234-135.527 34.84-158.035c0 0 31.558 120.524 32.773 153.172 0 0 14.027 1.414 19.617-.597 3-31.512 3.871-64.13 4.02-84.606.43-58.605-5.172-85.226-8.239-97.851a301.624 301.624 0 0 0-8.054-27.395l-7.383-21.043-73.926 12.91"/><path fill="#fb653e" d="m591.676 612.352 5.394.543c3.215.32 6.485.402 9.72.238l5.128-.258c1.934-11.242 23.57-135.82 34.809-157.633a.827.827 0 0 1 .796-.426c.325.04.602.27.688.59.309 1.2 31.144 119.29 32.766 152.645 2.77.234 13.203 1.004 18.105-.465 3.156-33.43 3.84-66.957 3.965-84.016.406-55.554-4.496-82.343-8.215-97.66a303.323 303.323 0 0 0-8.035-27.32l-7.152-20.402-72.692 12.69c-1.371 9.606-19.113 136.31-15.277 221.474Zm11.855 2.457c-2.21 0-4.426-.11-6.62-.329l-6.079-.609a.793.793 0 0 1-.715-.754c-4.113-88.273 15.145-221.699 15.336-223.039a.805.805 0 0 1 .656-.668l73.926-12.91a.8.8 0 0 1 .887.52l7.383 21.046a304.048 304.048 0 0 1 8.074 27.47c3.742 15.398 8.676 42.316 8.266 98.046-.125 17.176-.817 51.012-4.028 84.672a.786.786 0 0 1-.523.672c-5.696 2.05-19.387.707-19.965.648a.802.802 0 0 1-.719-.765c-1.11-29.801-27.965-134.532-32.191-150.86-11.688 27.14-33.61 154.508-33.836 155.828a.795.795 0 0 1-.75.657l-5.762.293c-1.11.054-2.223.082-3.34.082"/><path fill="#fb653e" d="M648.535 460.316a.794.794 0 0 1-.77-.582l-3.242-11.8a7.937 7.937 0 0 0-6.066-5.688l-3.035-.629a.79.79 0 0 1-.617-.937.8.8 0 0 1 .941-.621l3.031.625a9.506 9.506 0 0 1 7.282 6.828l3.246 11.797a.794.794 0 0 1-.559.976.674.674 0 0 1-.21.031M691.355 438.344c-.043 0-.085-.004-.132-.008-17.977-2.996-21.637-17.281-21.672-17.422a.797.797 0 0 1 1.55-.379c.133.55 3.481 13.41 20.387 16.227a.8.8 0 0 1 .653.918.799.799 0 0 1-.786.664M605.367 429.559a.8.8 0 0 1-.73-.477.8.8 0 0 1 .414-1.05c9.527-4.137 9.304-13.028 9.3-13.118a.798.798 0 0 1 .766-.828c.45-.047.813.328.824.77.008.097.262 10.074-10.257 14.64a.802.802 0 0 1-.317.063"/><path fill="#fb653e" d="M607.816 278.938c12.891-1.454 40.403-4.055 59.325-2.325 5.714.524 13.957 4.008 18.304 7.758 12.793 11.047 36.938 35.367 40.977 64.543.586 4.258-2.207 8.258-6.406 9.188l-22.305 4.945s8.894 35.043 8.176 41.098c-.715 6.05-19.145 16.347-42.188 7.898-17.972-6.586-43.406-11.824-59.554-6.14-.153.05-1.696 12.46-1.86 12.484-5.18.754-10.41-1.266-10.281-8.551l2.457-37.844-29.563-3.906-2.644-.875c-7.984-2.664-12.113-11.473-9.035-19.313 6.949-17.675 17.422-46.289 36.832-62.093 4.152-3.38 12.445-6.266 17.765-6.868"/><path fill="#fff" d="M621.254 395.402h-46.2a4.361 4.361 0 0 1-4.234-3.312l-15.98-64.438a4.36 4.36 0 0 1 4.234-5.418h46.196a4.37 4.37 0 0 1 4.238 3.313l15.984 64.441c.684 2.754-1.402 5.414-4.238 5.414"/><path fill="#fb653e" d="M559.074 323.031c-1.105 0-2.129.5-2.808 1.367a3.558 3.558 0 0 0-.657 3.059l15.985 64.441a3.564 3.564 0 0 0 3.46 2.707h46.2c1.105 0 2.133-.5 2.812-1.367a3.551 3.551 0 0 0 .649-3.058l-15.98-64.438a3.564 3.564 0 0 0-3.465-2.71Zm62.18 73.172h-46.2a5.152 5.152 0 0 1-5.007-3.922l-15.98-64.437a5.126 5.126 0 0 1 .94-4.43 5.132 5.132 0 0 1 4.067-1.976h46.196a5.154 5.154 0 0 1 5.011 3.917l15.985 64.442a5.133 5.133 0 0 1-.942 4.426 5.149 5.149 0 0 1-4.07 1.98"/><path fill="#fff" d="m562.352 355.172 1.55 6.5 5.582-1.86a43.843 43.843 0 0 0 8.809-4.07l3.2-1.945c2.394-1.45 5.503-.32 6.433 2.324 1.972 5.606 1.586 14.996-18.535 20.899-11.102 3.257-14.278-10.965-12.84-18.864.367-2.027 1.355-3.312 2.375-4.129 1.219-.98 3.039-.367 3.426 1.145"/><path fill="#fb653e" d="M560.266 354.348c-.305 0-.59.097-.836.297-1.114.886-1.817 2.117-2.094 3.652-.984 5.418.281 13.086 4.121 16.539 2.043 1.84 4.637 2.32 7.715 1.414 9.305-2.727 15.219-6.453 17.582-11.074 1.387-2.7 1.527-5.656.422-8.797a3.624 3.624 0 0 0-2.203-2.211 3.547 3.547 0 0 0-3.059.312l-3.207 1.942a44.54 44.54 0 0 1-8.965 4.148l-5.582 1.856a.806.806 0 0 1-.644-.059.785.785 0 0 1-.383-.512l-1.555-6.492a1.305 1.305 0 0 0-.879-.941 1.298 1.298 0 0 0-.433-.074Zm6.054 23.937c-2.246 0-4.261-.762-5.937-2.265-4.403-3.97-5.668-12.243-4.617-18.012.351-1.922 1.246-3.469 2.668-4.606a2.936 2.936 0 0 1 2.773-.496c.95.32 1.672 1.09 1.918 2.067 0 .004.004.007.004.011l1.348 5.657 4.761-1.586a42.803 42.803 0 0 0 8.64-3.996l3.208-1.946a5.136 5.136 0 0 1 4.426-.449 5.228 5.228 0 0 1 3.168 3.188c1.238 3.52 1.062 6.988-.5 10.054-2.578 5.02-8.82 9.02-18.559 11.875-1.144.336-2.25.504-3.3.504"/><path fill="#fff" d="M669.188 317.863a35.576 35.576 0 0 0 7.816 6.035c9.7 5.52 32.863 18.887 38.629 23.813 7.344 6.273 10.855 8.61 4.953 24.746-9.617 26.309-54.473-41.219-54.473-41.219s-13.176 2.383-16.129-9.164c0 0-6.87 1.293-9.734.051-2.195-.953-2.094-4.672.836-5.086l18.945-3.531a8.007 8.007 0 0 1 7.133 2.285l2.024 2.07"/><path fill="#fb653e" d="M666.113 330.441c.262 0 .516.13.664.356.32.476 31.364 46.95 46.602 46.95.285 0 .558-.013.824-.044 2.543-.305 4.387-2.105 5.633-5.52 5.535-15.128 2.723-17.527-4.074-23.312l-.649-.555c-5.707-4.875-28.828-18.218-38.508-23.73a36.222 36.222 0 0 1-7.988-6.164l-2.023-2.07a7.184 7.184 0 0 0-6.418-2.059l-18.946 3.531c-1.351.192-1.628 1.168-1.683 1.578-.094.703.183 1.633 1.023 1.989 2.164.941 7.422.246 9.262-.098a.792.792 0 0 1 .918.586c2.742 10.676 14.71 8.664 15.223 8.574a.82.82 0 0 1 .14-.012Zm47.336 48.899c-15.535 0-44.36-42.242-47.722-47.246-2.512.289-13.262.914-16.325-9.11-1.882.297-6.96.957-9.465-.129-1.37-.59-2.18-2.101-1.972-3.668.215-1.582 1.37-2.71 3.008-2.94l18.91-3.524a8.802 8.802 0 0 1 7.851 2.511l2.024 2.075a34.712 34.712 0 0 0 7.64 5.894c9.715 5.531 32.938 18.938 38.75 23.902l.649.551c6.957 5.93 10.453 8.903 4.539 25.078-1.457 3.973-3.785 6.176-6.941 6.551a8.414 8.414 0 0 1-.946.055"/><path fill="#fff" d="m625.273 254.164-1.418 19.73a6.305 6.305 0 0 1-4.664 5.333l-6.93 1.804 4.497 3.422c9.969 7.59 23.777 7.606 33.762.035l7.113-5.402-8.61-1.918a6.29 6.29 0 0 1-4.824-5.031l-3.804-26.106-15.122 8.133"/><path fill="#fb653e" d="m614.047 281.387 3.195 2.43c9.649 7.347 23.133 7.363 32.797.03l5.746-4.359-6.933-1.55a7.07 7.07 0 0 1-5.434-5.66l-3.645-25.008-13.734 7.386-1.387 19.29c-.355 2.952-2.422 5.312-5.257 6.05Zm19.61 9.543c-6.13 0-12.266-1.946-17.384-5.836l-4.492-3.43a.81.81 0 0 1-.304-.789c.066-.3.289-.54.586-.617l6.93-1.809a5.468 5.468 0 0 0 4.073-4.652l1.41-19.692c.02-.27.18-.515.422-.648l15.122-8.129a.8.8 0 0 1 .734-.012c.234.118.394.34.43.602l3.804 26.098a5.485 5.485 0 0 0 4.211 4.37l8.61 1.923a.797.797 0 0 1 .309 1.41l-7.114 5.402c-5.11 3.871-11.227 5.809-17.348 5.809"/><path fill="#fb653e" d="M602.852 226.707c4.746-2.512.93 5.3 16.527-8.195 6.219-5.38 6.441 4.656 8.05 3.27 5.97-5.137 5.759-4.97 9.524-5.622 2.492-.433 5.828 3.008 6.817 6.258 1.308 4.297-1.547 6.867-.57 16.762.683 6.949 2.87 10.363.87 12.336-2.03 1.996-5.324-.446-7.699 1.57-3.078 2.605.434 8.394-1.836 12.504-1.433 2.59-6.133 5.64-16.023 5.398a3.36 3.36 0 0 1-3.23-2.8c-.329-2.036-.739-4.61-.927-7.098-.886-11.863 1.668-15.8-.843-17.832-3.856-3.106-10.403 2.683-13.184-.047-2.89-2.832-3.969-13.07 2.524-16.504"/><path fill="#fff" d="m626.453 233.355-.195 3.239a33.215 33.215 0 0 0 .035 4.582c.223 2.86.566 7.785.55 10.558-.027 4.07-12.609 4.864-12.609 4.864l-1.597-1.774-1.477.059a1.575 1.575 0 0 1-1.668-1.836c.594-3.598 1.633-11.535.48-17.703 0 0 7-5.684 16.481-1.989"/><path fill="#fb653e" d="M612.64 254.023c.223 0 .446.102.59.266l1.344 1.488c4.88-.363 11.461-1.816 11.473-4.05.02-2.762-.34-7.758-.547-10.489a34.181 34.181 0 0 1-.04-4.691l.165-2.652c-7.566-2.68-13.29.753-14.777 1.792 1.011 6.083.086 13.532-.575 17.489a.8.8 0 0 0 .43.836c.11.054.254.082.426.078l1.48-.067h.032Zm1.594 3.375a.8.8 0 0 1-.59-.265l-1.343-1.496-1.11.043a2.48 2.48 0 0 1-1.23-.254 2.386 2.386 0 0 1-1.258-2.508c.527-3.195 1.633-11.281.485-17.43a.809.809 0 0 1 .285-.765c.297-.243 7.468-5.93 17.273-2.11.32.121.524.442.504.793l-.195 3.239a31.081 31.081 0 0 0 .039 4.472c.207 2.754.566 7.801.547 10.621-.032 4.586-11.13 5.516-13.356 5.657l-.05.003"/><path fill="#fff" d="M628.664 243.34s.465-7.79 3.957-6.809c3.492.989 2.77 9.551-3.957 6.809"/><path fill="#fb653e" d="M306.578 351.105s4.055 13.903-56.437 17.286c-60.496 3.382-50.371-13.801-50.371-13.801l63.507-18.504 43.301 15.02"/><path fill="#fff" d="M237.645 567.938c1.62-.075-5.532 35.937-5.532 35.937l15.32 1.824 8.329-40.523-18.117 2.761"/><path fill="#fb653e" d="M237.684 568.738h-.004.004Zm-4.621 34.446 13.734 1.636 7.953-38.683-16.086 2.453c.074 1.644-.351 5.914-2.496 18.012a991.221 991.221 0 0 1-3.106 16.582Zm14.37 3.312c-.03 0-.062 0-.097-.004l-15.316-1.828a.792.792 0 0 1-.688-.945c2.465-12.414 6.14-32.64 5.742-35.223a.8.8 0 0 1-.222-.476.791.791 0 0 1 .671-.868l18.122-2.761c.257-.04.52.05.695.238.18.187.258.453.203.707l-8.328 40.523a.8.8 0 0 1-.781.637"/><path fill="#fff" d="M225.293 616.574c1.3-7.746 3.309-18.16 4.988-20.273 2.742-3.453 10.203 4.07 10.203 4.07s3.403-11.129 10.77-9.656c5.547 1.105 24.187 14.637 34.012 25.406 3.214 3.52.671 9.184-4.094 9.184h-48.488c-4.633 0-8.157-4.16-7.391-8.73"/><path fill="#fb653e" d="M226.078 616.707a6.684 6.684 0 0 0 1.492 5.43 6.683 6.683 0 0 0 5.114 2.37h48.488c1.894 0 3.55-1.077 4.32-2.82.758-1.718.45-3.648-.816-5.03-9.742-10.68-28.332-24.114-33.578-25.16-6.567-1.306-9.82 9.003-9.852 9.108a.802.802 0 0 1-.57.54.793.793 0 0 1-.758-.211c-1.352-1.364-5.418-4.88-7.82-4.739-.512.028-.887.22-1.192.602-1.195 1.496-2.953 8.758-4.828 19.91Zm55.094 9.398h-48.488a8.274 8.274 0 0 1-6.329-2.937 8.261 8.261 0 0 1-1.847-6.723c2-11.914 3.734-18.86 5.148-20.64.582-.735 1.399-1.149 2.356-1.203.07 0 .144-.008.215-.008 2.77 0 6.261 2.847 7.918 4.355 1.16-2.976 4.734-10.32 11.265-9.015 6.059 1.207 25.05 15.351 34.445 25.648 1.696 1.86 2.114 4.441 1.094 6.75-1.027 2.328-3.242 3.773-5.777 3.773"/><path fill="#fb653e" d="M278.441 617.746h-48.16a.798.798 0 0 1 0-1.594h48.16a.798.798 0 0 1 0 1.594"/><path fill="#fff" d="m173.71 570.438-17.523 34.734-9.8-1.008 8.715-37.215 18.609 3.489"/><path fill="#fb653e" d="m147.367 603.46 8.352.86 16.804-33.297-16.82-3.148Zm8.82 2.509c-.027 0-.054-.004-.082-.004l-9.8-1.008a.796.796 0 0 1-.567-.332.797.797 0 0 1-.129-.64l8.715-37.215a.799.799 0 0 1 .922-.602l18.613 3.484a.798.798 0 0 1 .567 1.141l-17.528 34.734a.796.796 0 0 1-.71.442"/><path fill="#fff" d="M154.8 600.02s-4.984-7.594-13.132-1.793c0 0-11.938 26.738-14.356 47.425-.683 5.852 5.926 9.766 10.754 6.391 11.301-7.895 28.454-23.23 35.446-47.008 0 0-5.11-8.281-11.375-11.37l-7.336 6.355"/><path fill="#fb653e" d="M142.309 598.75c-1.098 2.5-11.938 27.605-14.204 46.996-.28 2.375.836 4.625 2.907 5.863 2.09 1.25 4.617 1.164 6.597-.222 12.25-8.551 28.235-23.504 35.036-46.23-.942-1.442-5.27-7.762-10.395-10.532l-6.93 6a.794.794 0 0 1-1.188-.164c-.019-.031-1.952-2.899-5.226-3.504-2.097-.39-4.312.215-6.597 1.793Zm-8.157 55.34a7.686 7.686 0 0 1-3.957-1.113c-2.617-1.563-4.027-4.407-3.675-7.418 2.406-20.567 14.296-47.391 14.418-47.66a.8.8 0 0 1 .265-.325c2.727-1.937 5.422-2.668 8.016-2.183 2.86.539 4.804 2.422 5.695 3.472l6.7-5.797a.798.798 0 0 1 .874-.113c6.399 3.152 11.489 11.317 11.703 11.66.118.196.149.43.086.645-6.87 23.367-23.234 38.695-35.754 47.437a7.611 7.611 0 0 1-4.37 1.395"/><path fill="#fb653e" d="M131.645 647.816a.797.797 0 0 1-.797-.765.804.804 0 0 1 .761-.832c.196-.004 18.86-1.313 37.192-40.063a.792.792 0 0 1 1.062-.383.8.8 0 0 1 .38 1.063c-18.813 39.766-37.77 40.95-38.567 40.98h-.031M176.887 576.234l-29.399-.976 40.098-158.477a246.78 246.78 0 0 1 30.863-71.668l61.446-.039s22.668 86.504-18.883 228.867h-30.73s11.964-129.882 10.976-167.203c0 0-28.887 106.688-64.371 169.496"/><path fill="#fff" d="M237.895 424.875a.69.69 0 0 1-.22-.031.79.79 0 0 1-.55-.98l10.84-38.54a.78.78 0 0 1 .535-.543l8.305-2.539a.79.79 0 0 1 .992.531.796.796 0 0 1-.527.997l-7.887 2.406-10.723 38.117a.796.796 0 0 1-.765.582M395.824 242.828l-22.703 12.254s-13.918 36.297-33.844 38.48c-19.922 2.188-39.629-25.367-39.629-25.367l-13.226 28.293s19.422 30.024 50.215 25.188c30.797-4.84 39.191-51.098 39.191-51.098-.015.031 7.29.719 10.04-6.39 2.339-6.051 1.362-9.614 1.362-9.614s10.942-5.84 8.594-11.746"/><path fill="#fb653e" d="M287.34 296.414c2.332 3.363 21.078 28.895 49.176 24.473 29.875-4.696 38.445-49.992 38.527-50.453a.793.793 0 0 1 .934-.641c.347.027 6.71.402 9.148-5.895 2.2-5.683 1.344-9.086 1.336-9.12a.801.801 0 0 1 .394-.91c.098-.052 9.16-4.962 8.465-9.86l-21.562 11.637c-1.434 3.644-14.918 36.574-34.39 38.714-18.118 1.973-35.602-19.418-39.563-24.613Zm42.672 26.578c-27.059 0-44.075-25.789-44.258-26.07a.795.795 0 0 1-.05-.77l13.222-28.293a.8.8 0 0 1 1.37-.129c.196.274 19.673 27.133 38.895 25.043 19.211-2.109 33.047-37.617 33.184-37.972a.773.773 0 0 1 .367-.418l22.707-12.258a.783.783 0 0 1 .649-.043.79.79 0 0 1 .468.453c2.297 5.77-6.203 11.153-8.445 12.45.188 1.324.363 4.656-1.512 9.492-2.011 5.195-6.296 6.507-8.671 6.824-.622.086-1.102.12-1.47.12-1.234 5.86-10.808 46.497-39.706 51.04a43.424 43.424 0 0 1-6.75.531"/><path fill="#fb653e" d="M375.176 267.512a.787.787 0 0 1-.758-.567.796.796 0 0 1 .527-.996c.035-.008 3.758-1.203 4.172-4.191.293-2.13 1.528-3.738 2.504-4.715a4.604 4.604 0 0 0 1.356-2.992l-6.559 2.61a.789.789 0 0 1-1.031-.446.796.796 0 0 1 .441-1.035l7.66-3.055a.822.822 0 0 1 .742.082.794.794 0 0 1 .348.66v.88c0 1.679-.648 3.253-1.832 4.429-.805.8-1.816 2.113-2.05 3.8-.551 4-5.09 5.442-5.282 5.5a.705.705 0 0 1-.238.036"/><path fill="#fff" d="M221.957 298.16s-14 31.496-36.832 37.926c-22.832 6.434-38.73-13.004-38.629-33.074l7.758-2.57s7.965 20.562 25.73 15.21c17.762-5.347 26.008-47.183 26.008-47.183l15.965 29.691"/><path fill="#fb653e" d="M147.293 303.59c.113 10.96 5.07 21.46 13.023 27.512 4.875 3.71 13.102 7.457 24.594 4.218 20.926-5.898 34.531-33.672 36.156-37.132l-14.75-27.43c-1.968 8.742-10.226 40.879-26.101 45.66-2.117.637-4.098.918-5.95.918-12.46.004-19.019-12.75-20.452-15.91Zm29.062 34.562c-7.539 0-13.222-2.898-17.003-5.78-8.48-6.454-13.711-17.708-13.657-29.364a.801.801 0 0 1 .551-.754l7.758-2.57c.402-.137.84.07.996.468.313.809 7.91 19.809 24.754 14.739 17.105-5.153 25.371-46.164 25.453-46.575a.802.802 0 0 1 .664-.636.793.793 0 0 1 .82.414l15.97 29.687c.116.223.124.48.023.703-.575 1.301-14.414 31.91-37.344 38.371-3.238.915-6.235 1.297-8.985 1.297"/><path fill="#fff" d="M306.586 267.773s-14.04-18.32-53.703-14.898c-47.36 4.086-50.969 13.445-50.969 13.445l12.363 25.047-14.507 63.223s9.91 8.207 33.132 3.598c23.223-4.61 63.13-10.266 73.676-7.083l-14.707-60.324 14.715-23.008"/><path fill="#fb653e" d="M200.664 354.25c2.024 1.367 12.043 7.133 32.086 3.156 23.488-4.664 60.59-9.836 72.742-7.386l-14.398-59.047a.804.804 0 0 1 .105-.621l14.395-22.508c-2.418-2.68-17.29-17.219-52.64-14.172-41.227 3.555-48.981 11.172-50.13 12.691l12.168 24.653a.804.804 0 0 1 .063.53Zm18.77 6.152c-13.696 0-19.848-4.933-20.172-5.199a.795.795 0 0 1-.27-.797l14.446-62.937-12.239-24.797a.812.812 0 0 1-.031-.64c.156-.4 4.336-9.868 51.648-13.95 39.633-3.422 53.817 14.445 54.403 15.207a.8.8 0 0 1 .039.914l-14.531 22.719 14.628 59.996a.798.798 0 0 1-1.007.95c-10.153-3.063-49.735 2.425-73.29 7.1-5.183 1.032-9.714 1.434-13.624 1.434"/><path fill="#fb653e" d="m158.344 324.723 56.523 2.28c1.914 0 3.086-2.093 2.086-3.726l-36.605-66.886a3.851 3.851 0 0 0-3.278-1.832l-57.144 1.304 38.418 68.86"/><path fill="#fff" d="M154.27 327.004h61.02l-40.02-72.445h-61.02l40.02 72.445"/><g clip-path="url(#b)"><path fill="#fb653e" d="M154.742 326.207h59.196l-39.141-70.855h-59.195Zm60.547 1.598h-61.02a.797.797 0 0 1-.695-.414l-40.02-72.446a.798.798 0 0 1 .008-.793.802.802 0 0 1 .688-.39h61.016c.293 0 .558.156.699.41l40.02 72.45a.8.8 0 0 1-.008.788.805.805 0 0 1-.688.395"/></g><path fill="#fff" d="M152.867 324.723s1.149-6.008 0-10.016c-1.144-4.008-8.254-15.934-10.285-18.426-2.035-2.492-3.758 24.14 10.285 28.442"/><path fill="#fb653e" d="M142.422 297.39c-.578 2.15-.82 8.88 1.18 15.333 1.226 3.968 3.71 8.976 8.628 10.93.258-1.798.696-5.856-.128-8.727-1.016-3.551-7.207-14.125-9.68-17.535Zm10.445 28.13a.973.973 0 0 1-.234-.036c-8.57-2.625-11.918-13.316-12.192-22.445-.062-2.11-.039-7.074 1.512-7.656.445-.16.91-.02 1.246.394 2.156 2.649 9.281 14.672 10.438 18.707 1.183 4.145.062 10.133.015 10.387a.81.81 0 0 1-.37.535.815.815 0 0 1-.415.114M366.996 196.195c7.7 4.684 8.91 13.633 8.996 14.371 1.207 10.153-6.015 20.653-13.906 22.223-6.75 1.348-9.078-4.824-17.555-4.426-9.449.45-10.383 8.301-19.386 10.278-13.282 2.922-18.7-12.528-33.954-11.446-11.742.832-13.28 10.317-26.074 10.43-1.449.016-12.906-.063-20.55-8.945-7.66-8.907-7.837-22.41-2.157-31.407.582-.925 6.824-10.543 15.09-10.308 5.184.144 6.215 4.027 11.148 3.945 7.598-.133 9.118-9.39 15.77-9.781 7.684-.45 9.39 11.7 19.734 13.414 7.809 1.3 10.02-5.09 18.403-3.613 8.687 1.523 9.113 8.879 16.484 9.113 7.059.227 9-6.441 18.14-6.496 1.934-.016 5.895.262 9.817 2.648"/><path fill="#fff" d="M227.7 232.48c-.528-.832 1.972-5.351 2.062-6.992.086-1.648-1.2-3.027-1.739-4.758-.539-1.722.063-4.8.063-4.8.734-20.614 23.191-15.72 23.191-15.72 5.157 1.56 8.196 7.352 9.188 11.204 1.922 7.453-1.621 16.477-1.621 16.477.148.336 3.832 24.472 3.996 24.785 2.332 4.484-13.305 7.414-18.227 2.902-1.66-1.527.469-12.738 0-12.754-1.84-.047-4.097 1.934-6.418 1.313-3.422-.91-6-9.473-6.492-10.114-.23-.296-1.027-.476-1.855-.668-.914-.207-1.871-.437-2.149-.875"/><path fill="#fb653e" d="M228.422 232.184Zm2.691 2.375h.008Zm13.43 7.476h.09a.832.832 0 0 1 .601.285c.336.383.313.758.004 3.602-.242 2.277-.894 8.32-.086 9.07 3.438 3.16 13.153 2.25 16.262-.137 1.184-.906.844-1.562.715-1.804-.113-.219-.145-.281-2.184-13.285-.816-5.203-1.742-11.094-1.867-11.637a.814.814 0 0 1 .02-.527c.035-.09 3.425-8.872 1.593-15.985-.836-3.234-3.593-9.11-8.648-10.64-.04-.004-10.367-2.165-16.856 2.878-3.328 2.586-5.113 6.66-5.308 12.11a.702.702 0 0 1-.012.12c-.16.802-.476 3.157-.086 4.415.184.59.48 1.168.77 1.723.527 1.02 1.07 2.07 1.004 3.308-.047.871-.578 2.2-1.137 3.61-.395.98-.973 2.433-1 2.949.297.195 1.2.402 1.605.492 1.094.254 1.91.438 2.313.961.164.215.309.57.71 1.57.915 2.29 3.06 7.653 5.349 8.258 1.101.297 2.289-.172 3.437-.625.93-.367 1.813-.71 2.711-.71Zm7.969 16.578c-3.309 0-6.555-.715-8.438-2.445-1.183-1.086-1.07-4.36-.422-10.414.078-.715.16-1.484.203-2.027-.44.113-.933.304-1.437.503-1.324.52-2.82 1.11-4.434.684-3.062-.816-5.246-6.273-6.418-9.21-.183-.462-.39-.977-.488-1.165-.219-.129-.894-.281-1.351-.387-1.336-.304-2.274-.562-2.704-1.238-.484-.77-.023-2.023.91-4.363.47-1.172.997-2.496 1.028-3.102.043-.804-.36-1.586-.828-2.492-.32-.621-.649-1.258-.875-1.98-.551-1.774-.059-4.657.031-5.133.223-5.914 2.215-10.375 5.926-13.254 7.086-5.504 17.777-3.25 18.23-3.156 5.793 1.754 8.871 8.23 9.79 11.785 1.82 7.05-1.016 15.258-1.567 16.742.152.777.539 3.2 1.852 11.559.847 5.39 1.894 12.066 2.066 12.875.629 1.3.195 2.656-1.203 3.726-1.945 1.488-5.953 2.492-9.871 2.492"/><path fill="#fb653e" d="M218.7 201.563c2.253-2.29 4.55-.004 13.523-1.266 7.46-1.047 9.617-3.152 15.261-2.223 1.59.266 4.426.735 7.227 2.785 4.144 3.032 5.687 7.293 6.508 10.473 1.601 6.2-.403 13.43-1.305 16.168a1.532 1.532 0 0 1-1.586 1.04 39.367 39.367 0 0 1-5.035-.727 1.157 1.157 0 0 1-.836-1.563c.078-.184.14-.371.195-.57.746-2.614-.504-5.262-2.797-5.918-2.289-.649-4.75.941-5.496 3.558-.05.18-.09.364-.12.543-3.298-2.492-4.989-5.316-8.036-6.836-.367-.183-1.969-.91-4.41-1-5.293-.187-7.055 2.953-9.559 2.344-4.375-1.059-7.593-12.703-3.535-16.809M244.074 243.625a.797.797 0 0 1-.238-1.559c7.152-2.25 8.254-6.73 8.297-6.918a.797.797 0 0 1 1.558.34c-.05.227-1.285 5.555-9.379 8.102a.838.838 0 0 1-.238.035M534.547 593.004l2.324 9.226 6.11-8.27Zm1.965 11.855a.795.795 0 0 1-.773-.602l-3.02-11.98a.82.82 0 0 1 .172-.722.811.811 0 0 1 .691-.266l10.95 1.246c.28.031.527.211.644.473a.815.815 0 0 1-.094.793l-7.93 10.734a.794.794 0 0 1-.64.324M402.777 627.867c-9.898 0-18.734-.488-26.418-1.222-34.703-3.325-54.168-12.247-54.359-12.34a.797.797 0 0 1 .676-1.441c.191.085 19.465 8.913 53.926 12.198 31.808 3.036 83.43 1.829 148.71-21.12a.797.797 0 1 1 .527 1.504c-49.835 17.523-91.765 22.421-123.062 22.421"/><path fill="#fb653e" d="M399.941 639.957c-19.199 0-35.257-1.684-47.937-3.828-33.582-5.688-51.395-15.797-51.57-15.902a.797.797 0 1 1 .796-1.38c.176.098 17.801 10.094 51.141 15.727 30.774 5.2 81.61 7.637 149.012-10.277.43-.113.867.14.976.566a.793.793 0 0 1-.566.973c-39.984 10.629-74.184 14.121-101.852 14.121M296.5 571.945a.8.8 0 0 1-.797-.77l-.187-5.073a.79.79 0 0 1 .765-.825c.422-.03.809.328.824.766l.192 5.074a.798.798 0 0 1-.766.828h-.031M297.105 587.973a.8.8 0 0 1-.796-.766l-.192-5.074a.804.804 0 0 1 .77-.828c.472-.028.808.328.824.765l.191 5.075a.798.798 0 0 1-.765.828h-.032M286.156 577.82a.797.797 0 0 1-.031-1.594l5.074-.19a.786.786 0 0 1 .828.765.803.803 0 0 1-.765.828l-5.075.191h-.03M302.188 577.215a.797.797 0 0 1-.032-1.594l5.074-.191a.784.784 0 0 1 .829.765.8.8 0 0 1-.77.828l-5.07.192h-.031M236.129 156.477a.794.794 0 0 1-.797-.766l-.191-5.074a.8.8 0 0 1 .765-.825c.438-.05.813.325.828.77l.192 5.07a.795.795 0 0 1-.766.825h-.031M236.734 172.504a.797.797 0 0 1-.797-.766l-.19-5.07a.8.8 0 0 1 .769-.828c.464-.047.808.324.824.765l.191 5.07a.791.791 0 0 1-.765.829h-.032M225.785 162.352a.797.797 0 0 1-.031-1.594l5.074-.192c.45-.039.813.329.828.766a.8.8 0 0 1-.77.828l-5.07.192h-.03M241.813 161.75a.799.799 0 0 1-.797-.762.8.8 0 0 1 .77-.832l5.07-.187c.453-.043.812.324.828.761a.796.796 0 0 1-.766.829l-5.074.191h-.031"/><path fill="#fff" d="M692.18 201.504c.265 12.402-9.575 22.668-21.977 22.934-12.402.265-22.672-9.575-22.937-21.977-.262-12.399 9.578-22.668 21.976-22.934 12.403-.265 22.672 9.57 22.938 21.977"/><path fill="#fb653e" d="M669.738 180.32c-.16 0-.32.004-.476.004a21.508 21.508 0 0 0-15.184 6.672 21.535 21.535 0 0 0-6.012 15.45c.118 5.784 2.493 11.175 6.668 15.179 4.18 4 9.657 6.164 15.453 6.016 5.786-.125 11.176-2.496 15.184-6.676a21.529 21.529 0 0 0 6.012-15.45c-.117-5.78-2.492-11.175-6.668-15.175a21.51 21.51 0 0 0-14.977-6.02Zm-.027 44.922c-6.027 0-11.715-2.289-16.082-6.465-4.484-4.297-7.024-10.086-7.16-16.297-.133-6.21 2.16-12.105 6.457-16.59a23.125 23.125 0 0 1 16.3-7.16c6.231-.105 12.102 2.16 16.59 6.458a23.136 23.136 0 0 1 7.164 16.296c.133 6.211-2.164 12.102-6.46 16.59-4.297 4.485-10.09 7.024-16.297 7.16-.172.004-.344.008-.512.008"/><path fill="#fb653e" d="M668.309 212.621a.809.809 0 0 1-.7-.418l-7.53-14.012a.797.797 0 0 1 .331-1.078.792.792 0 0 1 1.074.32l6.524 12.133c1.969-8.312 4.617-14.5 8.074-18.875a.8.8 0 0 1 1.125-.129c.34.27.398.774.125 1.118-3.586 4.539-6.277 11.183-8.238 20.308a.784.784 0 0 1-.668.621c-.035.012-.074.012-.117.012"/><path fill="#fff" d="M381.875 168.371c-7.71 0-13.965-6.254-13.965-13.965 0-7.71 6.254-13.96 13.965-13.96 7.71 0 13.965 6.25 13.965 13.96 0 7.711-6.254 13.965-13.965 13.965Zm26.86-19.879a.71.71 0 0 0-.645-.605l-4.746-.387a.696.696 0 0 1-.606-.469 22.266 22.266 0 0 0-1.086-2.566.706.706 0 0 1 .082-.758l3.016-3.691a.715.715 0 0 0 .008-.88l-2.574-3.288a.71.71 0 0 0-.86-.203l-4.308 2.042a.706.706 0 0 1-.754-.101 23.14 23.14 0 0 0-2.223-1.676.684.684 0 0 1-.309-.695l.762-4.711a.697.697 0 0 0-.43-.766l-3.875-1.562a.704.704 0 0 0-.84.25l-2.706 3.922a.7.7 0 0 1-.711.285 22.98 22.98 0 0 0-2.762-.328.703.703 0 0 1-.617-.446l-1.688-4.464a.714.714 0 0 0-.761-.45l-4.133.586a.706.706 0 0 0-.606.64l-.386 4.755a.697.697 0 0 1-.47.605c-.882.313-1.737.672-2.562 1.086a.71.71 0 0 1-.761-.078l-3.688-3.016a.7.7 0 0 0-.879-.011l-3.289 2.574a.707.707 0 0 0-.2.86l2.04 4.312a.692.692 0 0 1-.106.758c-.597.707-1.16 1.449-1.667 2.222a.697.697 0 0 1-.696.313l-4.71-.77a.704.704 0 0 0-.766.434l-1.563 3.879c-.12.3-.02.652.254.84l3.918 2.71c.227.157.336.43.29.708a20.832 20.832 0 0 0-.337 2.761.696.696 0 0 1-.445.621l-4.461 1.692a.706.706 0 0 0-.45.758l.587 4.132a.695.695 0 0 0 .64.606l4.75.387c.278.023.512.21.606.476.308.883.672 1.738 1.082 2.559a.688.688 0 0 1-.082.758L359 168.797a.71.71 0 0 0-.008.883l2.574 3.285a.7.7 0 0 0 .856.203l4.312-2.047a.695.695 0 0 1 .754.11c.707.601 1.45 1.16 2.223 1.667.23.157.355.426.309.7l-.77 4.714a.705.705 0 0 0 .438.766l3.867 1.559a.7.7 0 0 0 .843-.254l2.711-3.918a.705.705 0 0 1 .707-.29c.907.173 1.829.282 2.762.333a.704.704 0 0 1 .621.449l1.688 4.461c.12.312.43.496.758.45l4.132-.583a.71.71 0 0 0 .606-.644l.387-4.758a.699.699 0 0 1 .472-.602 21.486 21.486 0 0 0 2.559-1.086.703.703 0 0 1 .762.082l3.687 3.012a.705.705 0 0 0 .879.012l3.289-2.574a.709.709 0 0 0 .207-.856l-2.047-4.32a.701.701 0 0 1 .106-.754c.601-.707 1.16-1.45 1.671-2.223a.707.707 0 0 1 .7-.312l4.703.765a.7.7 0 0 0 .77-.43l1.562-3.874a.7.7 0 0 0-.254-.84l-3.918-2.711a.692.692 0 0 1-.285-.707c.168-.91.277-1.828.328-2.766a.702.702 0 0 1 .45-.617l4.46-1.695a.705.705 0 0 0 .445-.758l-.582-4.137"/><path fill="#fb653e" d="M381.875 141.238c-7.262 0-13.168 5.907-13.168 13.168 0 7.258 5.906 13.164 13.168 13.164s13.168-5.906 13.168-13.164c0-7.261-5.906-13.168-13.168-13.168Zm0 27.926c-8.137 0-14.762-6.621-14.762-14.758 0-8.14 6.625-14.761 14.762-14.761s14.762 6.62 14.762 14.761c0 8.137-6.625 14.758-14.762 14.758Zm26.07-20.562Zm.586 4.136h.008Zm-30.844 22.63c.094 0 .184.007.274.023.867.16 1.762.27 2.66.32a1.5 1.5 0 0 1 1.324.96l1.66 4.395 3.989-.566.383-4.68a1.504 1.504 0 0 1 1-1.293 21.73 21.73 0 0 0 2.472-1.047 1.496 1.496 0 0 1 1.617.176l3.63 2.965 3.175-2.48-2.012-4.25a1.49 1.49 0 0 1 .22-1.614 21.421 21.421 0 0 0 1.608-2.14c.325-.5.907-.754 1.497-.66l4.636.753 1.504-3.738-3.86-2.668a1.5 1.5 0 0 1-.616-1.508c.156-.863.27-1.757.32-2.668.035-.59.41-1.105.96-1.316l4.392-1.664-.567-3.992-4.676-.383a1.498 1.498 0 0 1-1.293-1 21.253 21.253 0 0 0-1.043-2.469 1.502 1.502 0 0 1 .176-1.62l2.969-3.638-2.484-3.171-4.247 2.015a1.52 1.52 0 0 1-1.617-.222 20.654 20.654 0 0 0-2.136-1.61 1.509 1.509 0 0 1-.66-1.496l.753-4.637-3.734-1.507-2.664 3.863a1.51 1.51 0 0 1-1.512.617 22.086 22.086 0 0 0-2.66-.32 1.505 1.505 0 0 1-1.32-.961l-1.664-4.395-3.985.567-.383 4.68a1.5 1.5 0 0 1-1 1.292c-.851.301-1.683.653-2.468 1.043-.532.27-1.168.2-1.621-.172l-3.633-2.964-3.168 2.48 2.008 4.25c.25.531.168 1.164-.22 1.613a21.88 21.88 0 0 0-1.608 2.14c-.329.5-.915.763-1.497.661l-4.632-.754-1.504 3.738 3.855 2.668c.48.332.723.926.617 1.508-.16.863-.27 1.762-.316 2.664a1.5 1.5 0 0 1-.965 1.32l-4.39 1.669.562 3.988 4.68.383a1.503 1.503 0 0 1 1.293 1c.296.847.648 1.68 1.043 2.468a1.509 1.509 0 0 1-.172 1.621l-2.973 3.633 2.484 3.176 4.243-2.012a1.495 1.495 0 0 1 1.617.22 20.981 20.981 0 0 0 2.14 1.608c.497.329.754.915.66 1.497l-.753 4.64 3.73 1.5 2.668-3.86c.281-.405.75-.64 1.235-.64Zm5.856 7.304a1.492 1.492 0 0 1-1.402-.969l-1.664-4.406a22.053 22.053 0 0 1-2.747-.328l-2.671 3.867a1.5 1.5 0 0 1-1.797.543l-3.871-1.563a1.505 1.505 0 0 1-.926-1.636l.758-4.649a23.432 23.432 0 0 1-2.207-1.66l-4.25 2.016c-.641.304-1.391.129-1.829-.43l-2.574-3.293a1.498 1.498 0 0 1 .02-1.875l2.972-3.644a23.311 23.311 0 0 1-1.078-2.543l-4.687-.383a1.504 1.504 0 0 1-1.367-1.285l-.582-4.141c-.098-.7.293-1.363.953-1.613l4.402-1.672c.055-.93.164-1.856.328-2.75l-3.867-2.672a1.491 1.491 0 0 1-.535-1.793l1.562-3.879a1.499 1.499 0 0 1 1.633-.922l4.645.758a21.717 21.717 0 0 1 1.66-2.207l-2.016-4.262c-.3-.64-.12-1.386.434-1.82l3.289-2.578a1.498 1.498 0 0 1 1.875.02l3.637 2.972a24.169 24.169 0 0 1 2.546-1.078l.383-4.692a1.493 1.493 0 0 1 1.29-1.363l4.132-.586a1.494 1.494 0 0 1 1.617.953l1.664 4.403c.926.054 1.852.164 2.747.328l2.671-3.867c.403-.578 1.141-.801 1.797-.54l3.871 1.56c.657.265 1.036.937.922 1.636l-.754 4.648a23.215 23.215 0 0 1 2.203 1.66l4.254-2.015a1.496 1.496 0 0 1 1.829.433l2.574 3.286a1.504 1.504 0 0 1-.02 1.879l-2.972 3.64c.406.817.77 1.676 1.078 2.55l4.687.384c.703.054 1.27.586 1.363 1.289l.59 4.133c.094.699-.297 1.363-.96 1.617l-4.4 1.668c-.05.933-.163 1.855-.327 2.75l3.863 2.672c.582.402.805 1.14.543 1.793l-1.562 3.879a1.502 1.502 0 0 1-1.637.921l-4.645-.757a22.99 22.99 0 0 1-1.66 2.21l2.012 4.254c.3.641.129 1.391-.426 1.825l-3.289 2.578a1.499 1.499 0 0 1-1.879-.02l-3.637-2.972c-.812.406-1.668.77-2.546 1.078l-.387 4.695a1.496 1.496 0 0 1-1.285 1.363l-4.133.586c-.07.012-.145.016-.215.016"/></svg>