<svg xmlns="http://www.w3.org/2000/svg" xmlns:xlink="http://www.w3.org/1999/xlink" width="1080" zoomAndPan="magnify" viewBox="0 0 810 809.999993" height="1080" preserveAspectRatio="xMidYMid meet" version="1.0"><path fill="#fb653e" d="M 487.359375 524.167969 C 442.773438 524.167969 410.550781 487.296875 410.585938 432.738281 C 410.839844 353.464844 470.414062 297.378906 556.351562 286.605469 C 564.316406 285.621094 567.371094 296.6875 560.0625 299.925781 C 527.074219 314.632812 510.417969 333.230469 508.273438 351.648438 C 506.671875 365.441406 514.128906 377.488281 523.546875 379.746094 C 547.878906 385.605469 564.171875 415.921875 564.171875 447.296875 C 564.171875 489.738281 529.800781 524.167969 487.359375 524.167969 Z M 487.359375 524.167969 " fill-opacity="1" fill-rule="nonzero"/><path fill="#fb653e" d="M 319.773438 524.167969 C 275.1875 524.167969 242.964844 487.296875 243 432.738281 C 243.253906 353.464844 302.828125 297.378906 388.765625 286.605469 C 396.730469 285.621094 399.785156 296.6875 392.476562 299.925781 C 359.488281 314.632812 342.832031 333.230469 340.6875 351.648438 C 339.085938 365.441406 346.542969 377.488281 355.960938 379.746094 C 380.292969 385.605469 396.585938 415.921875 396.585938 447.296875 C 396.585938 489.738281 362.214844 524.167969 319.773438 524.167969 Z M 319.773438 524.167969 " fill-opacity="1" fill-rule="nonzero"/></svg>