<svg xmlns="http://www.w3.org/2000/svg" xmlns:xlink="http://www.w3.org/1999/xlink" width="1080" zoomAndPan="magnify" viewBox="0 0 810 809.999993" height="1080" preserveAspectRatio="xMidYMid meet" version="1.0"><path fill="#fb653e" d="M 322.640625 285.824219 C 367.226562 285.824219 399.449219 322.695312 399.414062 377.253906 C 399.160156 456.527344 339.585938 512.613281 253.648438 523.386719 C 245.683594 524.371094 242.628906 513.304688 249.9375 510.066406 C 282.925781 495.363281 299.582031 476.761719 301.726562 458.347656 C 303.328125 444.550781 295.871094 432.503906 286.453125 430.246094 C 262.121094 424.386719 245.828125 394.070312 245.828125 362.695312 C 245.828125 320.257812 280.199219 285.824219 322.640625 285.824219 Z M 322.640625 285.824219 " fill-opacity="1" fill-rule="nonzero"/><path fill="#fb653e" d="M 490.226562 285.824219 C 534.8125 285.824219 567.035156 322.695312 567 377.253906 C 566.746094 456.527344 507.171875 512.613281 421.234375 523.386719 C 413.269531 524.371094 410.214844 513.304688 417.523438 510.066406 C 450.511719 495.363281 467.167969 476.761719 469.3125 458.347656 C 470.914062 444.550781 463.457031 432.503906 454.039062 430.246094 C 429.707031 424.386719 413.414062 394.070312 413.414062 362.695312 C 413.414062 320.257812 447.785156 285.824219 490.226562 285.824219 Z M 490.226562 285.824219 " fill-opacity="1" fill-rule="nonzero"/></svg>