<svg xmlns="http://www.w3.org/2000/svg" width="1080" height="1080" version="1.0" viewBox="0 0 810 810"><path fill="#fb653e" d="M487.36 524.168c-44.587 0-76.81-36.871-76.774-91.43.254-79.273 59.828-135.36 145.766-146.133 7.964-.984 11.02 10.082 3.71 13.32-32.988 14.708-49.644 33.305-51.789 51.723-1.601 13.793 5.856 25.84 15.274 28.098 24.332 5.86 40.625 36.176 40.625 67.55 0 42.442-34.371 76.872-76.813 76.872ZM319.773 524.168c-44.586 0-76.808-36.871-76.773-91.43.254-79.273 59.828-135.36 145.766-146.133 7.964-.984 11.02 10.082 3.71 13.32-32.988 14.708-49.644 33.305-51.788 51.723-1.602 13.793 5.855 25.84 15.273 28.098 24.332 5.86 40.625 36.176 40.625 67.55 0 42.442-34.371 76.872-76.813 76.872Zm0 0"/></svg>