<svg xmlns="http://www.w3.org/2000/svg" width="1200" height="900" version="1.0" viewBox="0 0 900 675"><defs><clipPath id="a"><path d="M78.137 2h743.648v670H78.137Zm0 0"/></clipPath></defs><g clip-path="url(#a)"><path fill="#fb653e" d="M784.742 266.023h-63.976V37.457c0-19.246-15.676-35-35-35H113.113c-19.277 0-34.976 15.688-34.976 34.977v62.796h.023v298.06c0 19.288 15.7 34.987 34.988 34.987h41.817V634.5c0 20.43 16.629 37.047 37.055 37.047h191.105c20.43 0 37.043-16.617 37.043-37.047V433.277h67.906v86.364c0 20.43 16.625 37.058 37.043 37.058h259.637c20.426 0 37.043-16.617 37.043-37.058V303.082c-.012-20.43-16.64-37.059-37.055-37.059ZM505.48 303.082c0-10.82 8.805-19.617 19.614-19.617H784.73c10.817 0 19.614 8.797 19.614 19.617v30.629H505.48ZM95.59 37.457c0-9.68 7.879-17.559 17.558-17.559h572.63c9.679 0 17.534 7.856 17.534 17.536V82.8H95.59Zm96.418 246.008h191.105c10.82 0 19.614 8.797 19.614 19.617v35.406H172.383v-35.406c0-10.82 8.808-19.617 19.625-19.617Zm191.105 370.652H192.008c-10.817 0-19.625-8.797-19.625-19.617V355.918h230.332V634.5c0 10.82-8.781 19.617-19.602 19.617Zm37.032-238.27V303.083c0-20.43-16.614-37.047-37.043-37.047H192.008c-20.426 0-37.055 16.617-37.055 37.047v112.766h-41.805c-9.68 0-17.558-7.88-17.558-17.559V100.23h607.746v165.805h-178.23c-20.43 0-37.043 16.617-37.043 37.047v112.766Zm384.21 103.794c0 10.82-8.808 19.629-19.613 19.629H525.105c-10.82 0-19.613-8.797-19.613-19.63V351.146h298.863Zm0 0"/></g><path fill="#fb653e" d="M653.5 25.719c-14.129 0-25.61 11.492-25.61 25.625 0 14.129 11.481 25.62 25.61 25.62s25.621-11.491 25.621-25.62c0-14.133-11.504-25.625-25.621-25.625Zm0 33.804c-4.52 0-8.18-3.671-8.18-8.191 0-4.52 3.66-8.191 8.18-8.191s8.191 3.672 8.191 8.191c0 4.52-3.683 8.191-8.191 8.191ZM588.7 25.719c-14.13 0-25.622 11.492-25.622 25.625 0 14.129 11.492 25.62 25.621 25.62 14.13 0 25.621-11.491 25.621-25.62 0-14.133-11.492-25.625-25.62-25.625Zm0 33.804c-4.52 0-8.192-3.671-8.192-8.191 0-4.52 3.672-8.191 8.191-8.191 4.52 0 8.192 3.672 8.192 8.191.011 4.52-3.672 8.191-8.192 8.191ZM369.96 333.223c12.27 0 22.25-9.97 22.25-22.243 0-12.27-9.98-22.25-22.25-22.25-12.269 0-22.237 9.98-22.237 22.25 0 12.262 9.968 22.243 22.238 22.243Zm0-27.063c2.661 0 4.821 2.16 4.821 4.82 0 2.665-2.172 4.813-4.82 4.813a4.819 4.819 0 0 1-4.809-4.813c0-2.66 2.16-4.82 4.809-4.82ZM315.848 333.223c12.27 0 22.254-9.97 22.254-22.243 0-12.27-9.98-22.25-22.254-22.25-12.27 0-22.239 9.98-22.239 22.25 0 12.262 9.97 22.243 22.239 22.243Zm0-27.063a4.824 4.824 0 0 1 4.824 4.82c0 2.665-2.172 4.813-4.824 4.813a4.811 4.811 0 0 1-4.809-4.813c0-2.66 2.149-4.82 4.809-4.82ZM769.3 286.336c-12.269 0-22.241 9.969-22.241 22.242 0 12.27 9.972 22.242 22.242 22.242 12.27 0 22.238-9.984 22.238-22.242 0-12.262-9.969-22.242-22.238-22.242Zm0 27.062a4.814 4.814 0 0 1-4.812-4.808 4.815 4.815 0 0 1 4.813-4.813 4.819 4.819 0 0 1 4.808 4.813 4.81 4.81 0 0 1-4.808 4.808ZM714.71 286.336c-12.269 0-22.237 9.969-22.237 22.242 0 12.27 9.968 22.242 22.238 22.242s22.242-9.984 22.242-22.242c0-12.262-9.973-22.242-22.242-22.242Zm0 27.062a4.81 4.81 0 0 1 0-9.62 4.822 4.822 0 0 1 4.813 4.812 4.814 4.814 0 0 1-4.812 4.808ZM490.664 42.629h-348.11c-4.808 0-8.714 3.902-8.714 8.715 0 4.808 3.906 8.715 8.715 8.715h348.11a8.716 8.716 0 0 0 0-17.43ZM192.742 319.7h75.863c4.81 0 8.715-3.907 8.715-8.72 0-4.808-3.906-8.714-8.715-8.714h-75.863c-4.812 0-8.715 3.906-8.715 8.714 0 4.813 3.903 8.72 8.715 8.72ZM667.965 302.266H533.867c-4.812 0-8.715 3.906-8.715 8.714 0 4.813 3.903 8.72 8.715 8.72h134.098c4.812 0 8.715-3.907 8.715-8.72a8.71 8.71 0 0 0-8.715-8.714Zm0 0"/></svg>