<svg xmlns="http://www.w3.org/2000/svg" xmlns:xlink="http://www.w3.org/1999/xlink" width="1200" zoomAndPan="magnify" viewBox="0 0 900 675.000002" height="900" preserveAspectRatio="xMidYMid meet" version="1.0"><defs><clipPath id="79b07f52b5"><path d="M 78.136719 2 L 821.785156 2 L 821.785156 672 L 78.136719 672 Z M 78.136719 2 " clip-rule="nonzero"/></clipPath></defs><g clip-path="url(#79b07f52b5)"><path fill="#fb653e" d="M 784.742188 266.023438 L 720.765625 266.023438 L 720.765625 37.457031 C 720.765625 18.210938 705.089844 2.457031 685.765625 2.457031 L 113.113281 2.457031 C 93.835938 2.457031 78.136719 18.144531 78.136719 37.433594 L 78.136719 100.230469 L 78.160156 100.230469 L 78.160156 398.289062 C 78.160156 417.578125 93.859375 433.277344 113.148438 433.277344 L 154.964844 433.277344 L 154.964844 634.5 C 154.964844 654.929688 171.59375 671.546875 192.019531 671.546875 L 383.125 671.546875 C 403.554688 671.546875 420.167969 654.929688 420.167969 634.5 L 420.167969 433.277344 L 488.074219 433.277344 L 488.074219 519.640625 C 488.074219 540.070312 504.699219 556.699219 525.117188 556.699219 L 784.753906 556.699219 C 805.179688 556.699219 821.796875 540.082031 821.796875 519.640625 C 821.796875 463.980469 821.796875 443.886719 821.796875 303.082031 C 821.785156 282.652344 805.15625 266.023438 784.742188 266.023438 Z M 505.480469 303.082031 C 505.480469 292.261719 514.285156 283.464844 525.09375 283.464844 L 784.730469 283.464844 C 795.546875 283.464844 804.34375 292.261719 804.34375 303.082031 L 804.34375 333.710938 L 505.480469 333.710938 Z M 95.589844 37.457031 C 95.589844 27.777344 103.46875 19.898438 113.148438 19.898438 L 685.777344 19.898438 C 695.457031 19.898438 703.3125 27.753906 703.3125 37.433594 L 703.3125 82.800781 L 95.589844 82.800781 Z M 192.007812 283.464844 L 383.113281 283.464844 C 393.933594 283.464844 402.726562 292.261719 402.726562 303.082031 L 402.726562 338.488281 L 172.382812 338.488281 L 172.382812 303.082031 C 172.382812 292.261719 181.191406 283.464844 192.007812 283.464844 Z M 383.113281 654.117188 L 192.007812 654.117188 C 181.191406 654.117188 172.382812 645.320312 172.382812 634.5 L 172.382812 355.917969 L 402.714844 355.917969 L 402.714844 634.5 C 402.714844 645.320312 393.933594 654.117188 383.113281 654.117188 Z M 420.144531 415.847656 C 420.144531 353.804688 420.144531 367.320312 420.144531 303.082031 C 420.144531 282.652344 403.53125 266.035156 383.101562 266.035156 L 192.007812 266.035156 C 171.582031 266.035156 154.953125 282.652344 154.953125 303.082031 C 154.953125 367.238281 154.953125 353.722656 154.953125 415.847656 L 113.148438 415.847656 C 103.46875 415.847656 95.589844 407.96875 95.589844 398.289062 L 95.589844 100.230469 L 703.335938 100.230469 L 703.335938 266.035156 L 525.105469 266.035156 C 504.675781 266.035156 488.0625 282.652344 488.0625 303.082031 C 488.0625 445.769531 488.0625 282.417969 488.0625 415.847656 Z M 804.355469 519.640625 C 804.355469 530.460938 795.546875 539.269531 784.742188 539.269531 L 525.105469 539.269531 C 514.285156 539.269531 505.492188 530.472656 505.492188 519.640625 L 505.492188 351.144531 L 804.355469 351.144531 Z M 804.355469 519.640625 " fill-opacity="1" fill-rule="nonzero"/></g><path fill="#fb653e" d="M 653.5 25.71875 C 639.371094 25.71875 627.890625 37.210938 627.890625 51.34375 C 627.890625 65.472656 639.371094 76.964844 653.5 76.964844 C 667.628906 76.964844 679.121094 65.472656 679.121094 51.34375 C 679.121094 37.210938 667.617188 25.71875 653.5 25.71875 Z M 653.5 59.523438 C 648.980469 59.523438 645.320312 55.851562 645.320312 51.332031 C 645.320312 46.8125 648.980469 43.140625 653.5 43.140625 C 658.019531 43.140625 661.691406 46.8125 661.691406 51.332031 C 661.691406 55.851562 658.007812 59.523438 653.5 59.523438 Z M 653.5 59.523438 " fill-opacity="1" fill-rule="nonzero"/><path fill="#fb653e" d="M 588.699219 25.71875 C 574.570312 25.71875 563.078125 37.210938 563.078125 51.34375 C 563.078125 65.472656 574.570312 76.964844 588.699219 76.964844 C 602.828125 76.964844 614.320312 65.472656 614.320312 51.34375 C 614.320312 37.210938 602.828125 25.71875 588.699219 25.71875 Z M 588.699219 59.523438 C 584.179688 59.523438 580.507812 55.851562 580.507812 51.332031 C 580.507812 46.8125 584.179688 43.140625 588.699219 43.140625 C 593.21875 43.140625 596.890625 46.8125 596.890625 51.332031 C 596.902344 55.851562 593.21875 59.523438 588.699219 59.523438 Z M 588.699219 59.523438 " fill-opacity="1" fill-rule="nonzero"/><path fill="#fb653e" d="M 369.960938 333.222656 C 382.230469 333.222656 392.210938 323.253906 392.210938 310.980469 C 392.210938 298.710938 382.230469 288.730469 369.960938 288.730469 C 357.691406 288.730469 347.722656 298.710938 347.722656 310.980469 C 347.722656 323.242188 357.691406 333.222656 369.960938 333.222656 Z M 369.960938 306.160156 C 372.621094 306.160156 374.78125 308.320312 374.78125 310.980469 C 374.78125 313.644531 372.609375 315.792969 369.960938 315.792969 C 367.3125 315.792969 365.152344 313.632812 365.152344 310.980469 C 365.152344 308.320312 367.3125 306.160156 369.960938 306.160156 Z M 369.960938 306.160156 " fill-opacity="1" fill-rule="nonzero"/><path fill="#fb653e" d="M 315.847656 333.222656 C 328.117188 333.222656 338.101562 323.253906 338.101562 310.980469 C 338.101562 298.710938 328.121094 288.730469 315.847656 288.730469 C 303.578125 288.730469 293.609375 298.710938 293.609375 310.980469 C 293.609375 323.242188 303.578125 333.222656 315.847656 333.222656 Z M 315.847656 306.160156 C 318.511719 306.160156 320.671875 308.320312 320.671875 310.980469 C 320.671875 313.644531 318.5 315.792969 315.847656 315.792969 C 313.1875 315.792969 311.039062 313.632812 311.039062 310.980469 C 311.039062 308.320312 313.1875 306.160156 315.847656 306.160156 Z M 315.847656 306.160156 " fill-opacity="1" fill-rule="nonzero"/><path fill="#fb653e" d="M 769.300781 286.335938 C 757.03125 286.335938 747.058594 296.304688 747.058594 308.578125 C 747.058594 320.847656 757.03125 330.820312 769.300781 330.820312 C 781.570312 330.820312 791.539062 320.835938 791.539062 308.578125 C 791.539062 296.316406 781.570312 286.335938 769.300781 286.335938 Z M 769.300781 313.398438 C 766.640625 313.398438 764.488281 311.238281 764.488281 308.589844 C 764.488281 305.925781 766.652344 303.777344 769.300781 303.777344 C 771.949219 303.777344 774.109375 305.9375 774.109375 308.589844 C 774.109375 311.238281 771.960938 313.398438 769.300781 313.398438 Z M 769.300781 313.398438 " fill-opacity="1" fill-rule="nonzero"/><path fill="#fb653e" d="M 714.710938 286.335938 C 702.441406 286.335938 692.472656 296.304688 692.472656 308.578125 C 692.472656 320.847656 702.441406 330.820312 714.710938 330.820312 C 726.980469 330.820312 736.953125 320.835938 736.953125 308.578125 C 736.953125 296.316406 726.980469 286.335938 714.710938 286.335938 Z M 714.710938 313.398438 C 712.050781 313.398438 709.902344 311.238281 709.902344 308.589844 C 709.902344 305.925781 712.0625 303.777344 714.710938 303.777344 C 717.359375 303.777344 719.523438 305.9375 719.523438 308.589844 C 719.523438 311.238281 717.371094 313.398438 714.710938 313.398438 Z M 714.710938 313.398438 " fill-opacity="1" fill-rule="nonzero"/><path fill="#fb653e" d="M 490.664062 42.628906 L 142.554688 42.628906 C 137.746094 42.628906 133.839844 46.53125 133.839844 51.34375 C 133.839844 56.152344 137.746094 60.058594 142.554688 60.058594 L 490.664062 60.058594 C 495.476562 60.058594 499.378906 56.152344 499.378906 51.34375 C 499.378906 46.53125 495.476562 42.628906 490.664062 42.628906 Z M 490.664062 42.628906 " fill-opacity="1" fill-rule="nonzero"/><path fill="#fb653e" d="M 192.742188 319.699219 L 268.605469 319.699219 C 273.414062 319.699219 277.320312 315.792969 277.320312 310.980469 C 277.320312 306.171875 273.414062 302.265625 268.605469 302.265625 L 192.742188 302.265625 C 187.929688 302.265625 184.027344 306.171875 184.027344 310.980469 C 184.027344 315.792969 187.929688 319.699219 192.742188 319.699219 Z M 192.742188 319.699219 " fill-opacity="1" fill-rule="nonzero"/><path fill="#fb653e" d="M 667.964844 302.265625 L 533.867188 302.265625 C 529.054688 302.265625 525.152344 306.171875 525.152344 310.980469 C 525.152344 315.792969 529.054688 319.699219 533.867188 319.699219 L 667.964844 319.699219 C 672.777344 319.699219 676.679688 315.792969 676.679688 310.980469 C 676.679688 306.160156 672.777344 302.265625 667.964844 302.265625 Z M 667.964844 302.265625 " fill-opacity="1" fill-rule="nonzero"/></svg>