<svg xmlns="http://www.w3.org/2000/svg" width="1200" height="900" version="1.0" viewBox="0 0 900 675"><path fill="#fb653e" d="m760.063 571.309-81.016-91.118c-5.79-6.511-13.746-10.125-22.426-10.847a32.024 32.024 0 0 0-23.871 7.953l-13.746 12.293-30.383-34.711c68-65.809 92.594-163.438 63.66-253.836l61.485-61.469 16.64 16.633c2.895 2.89 7.235 3.613 10.852 2.89 3.617-1.445 6.508-4.335 7.23-8.675l18.086-112.817c.723-3.617-.722-7.23-2.894-9.402-2.168-2.168-5.785-3.613-9.403-2.89L642.152 43.39c-4.34.722-7.234 3.617-8.68 7.23-1.449 3.617 0 7.957 2.895 10.848l16.637 16.633-43.402 42.668c-2.172-2.891-5.067-5.786-7.235-8.676C511.941 10.125 354.97 0 252.247 90.398c-13.743 12.293-25.317 25.309-35.446 39.051l-.723.723c-13.742 18.8-24.594 39.773-32.55 61.469-.723 2.894-1.45 4.34-1.45 5.785-23.148 68.703-15.914 146.082 23.871 210.445h-70.89c-5.786-.723-10.852 4.34-10.852 10.125v215.508c0 5.785 5.066 10.848 10.852 10.848h367.48c5.785 0 10.852-5.063 10.852-10.848v-129.45c20.976-8.679 41.23-20.972 59.316-35.437l30.383 34.715-13.746 12.293c-6.508 5.785-10.125 13.742-10.848 22.418a32.013 32.013 0 0 0 7.957 23.867l81.02 91.121C679.77 666.77 696.406 674 713.766 674c14.468 0 28.937-5.063 40.511-15.184 12.297-10.847 19.532-26.035 20.254-41.945 1.45-17.355-3.617-33.266-14.468-45.562ZM676.153 70.87l-9.407-9.402 77.402-12.293-12.296 77.379-9.403-9.399c-4.34-4.34-10.851-4.34-15.191 0l-74.508 73.04-117.191 117.156-58.594-58.579c-4.34-4.34-10.852-4.34-15.192 0l-91.867 91.122-144.68-143.915c5.067-14.46 12.297-28.203 20.258-40.496l116.465 116.43c4.34 4.34 10.848 4.34 15.188 0l91.87-91.121 58.595 58.578c4.34 4.34 10.851 4.34 15.191 0L675.43 87.504c2.168-2.168 2.89-5.063 2.89-7.953 0-2.895-.722-6.512-2.168-8.68Zm-409.438 36.883c93.316-82.442 236.547-73.766 319.012 19.523 2.894 2.895 5.789 6.512 7.96 10.125l-78.128 78.106-58.594-58.578c-4.34-4.34-10.852-4.34-15.192 0l-91.867 91.12-111.402-110.648c8.68-10.847 18.086-20.972 28.21-29.648Zm224.973 514.902H145.91V428.844h345.777Zm10.851-215.508H231.992c-39.785-55.683-50.637-125.109-34-188.027L341.95 363.035c2.168 2.168 5.063 2.895 7.957 2.895 2.89 0 5.785-.727 7.957-2.895l91.867-91.12 58.594 58.577c4.344 4.34 10.852 4.34 15.192 0l112.125-111.37c21.703 82.444-4.34 169.948-68.72 227.077-15.917 14.465-34 26.035-52.808 34.715V418.72c-.722-6.508-5.789-11.57-11.574-11.57Zm237.992 235.036c-16.636 14.46-41.953 13.015-56.422-3.618l-81.02-91.843c-2.171-2.172-2.894-5.063-2.894-7.957 0-2.891 1.45-5.786 3.617-7.23l43.403-38.329c2.172-1.445 4.34-2.894 7.234-2.894h.723c2.894 0 5.789 1.449 7.234 3.617l81.02 91.843c7.234 7.957 10.129 18.079 10.129 28.926-.723 10.848-5.79 20.25-13.024 27.485Zm0 0"/><path fill="#fb653e" d="M174.844 500.438c0 20.25 16.64 36.16 36.172 36.16h5.785c7.957 0 14.469 6.507 14.469 14.465 0 7.953-6.512 14.46-14.47 14.46h-31.105c-5.785 0-10.851 5.063-10.851 10.848 0 5.785 5.066 10.848 10.851 10.848h31.106c20.258 0 36.172-15.91 36.172-36.157 0-20.25-16.641-36.16-36.172-36.16h-5.785c-7.957 0-14.47-6.507-14.47-14.465 0-7.953 6.513-14.46 14.47-14.46h31.105c5.785 0 10.852-5.063 10.852-10.848 0-5.785-5.067-10.848-10.852-10.848h-31.105c-19.532 0-36.172 15.91-36.172 36.156ZM290.586 587.219h56.426c5.785 0 10.851-5.063 10.851-10.848 0-5.785-5.066-10.848-10.851-10.848h-45.575v-28.925h45.575c5.785 0 10.851-5.063 10.851-10.848 0-5.785-5.066-10.848-10.851-10.848h-45.575v-28.925h45.575c5.785 0 10.851-5.063 10.851-10.848 0-5.785-5.066-10.848-10.851-10.848h-56.426c-5.785 0-10.848 5.063-10.848 10.848V576.37c0 5.785 5.063 10.848 10.848 10.848ZM423.691 587.219c21.7 0 39.063-17.356 39.063-39.051v-45.559c0-21.695-17.363-39.05-39.063-39.05-21.703 0-39.062 17.355-39.062 39.05v45.559c0 21.695 17.36 39.05 39.062 39.05Zm-17.363-83.887c0-9.402 7.957-17.355 17.363-17.355 9.403 0 17.36 7.953 17.36 17.355v45.559c0 9.402-7.957 17.359-17.36 17.359-9.406 0-17.363-7.957-17.363-17.36Zm0 0"/></svg>