<svg xmlns="http://www.w3.org/2000/svg" width="1080" height="1080" version="1.0" viewBox="0 0 810 810"><defs><clipPath id="a"><path d="M125 410.23h560.285v321.73H125Zm0 0"/></clipPath><clipPath id="b"><path d="M.484 706.504h809.118v25.457H.484Zm0 0"/></clipPath><clipPath id="c"><path d="M191.441 660H619v71.96H191.441Zm0 0"/></clipPath></defs><path fill="#fb653e" fill-rule="evenodd" d="M512.113 245.54a12.878 12.878 0 0 1-9.312-3.997c-1.946-2.047-3.13-4.414-5.102-8.324-3.394-6.754-9.703-19.313-22.746-35.836-5.39-6.832-7.52-9.13-9.02-10.594-1.019-.996-3.402-3.23-6.831-5.871a51.613 51.613 0 0 1-10.579 8.793c-13.316 8.309-26.777 7.98-36.593 7.742l-.703-.016c-.309-.011-30.961-.703-63.668 1.56l-1.57.1c-10.587.723-21.548 1.477-29.759 5.848-7.828 4.176-12.433 12.953-15.382 29.364-.875 4.816-4.25 8.812-8.84 10.433-5.598 1.969-11.582.102-15.25-4.77-6.305-8.374-7.528-19.511-8.422-27.644l-.035-.277c-1.258-11.469-3.703-39.32.824-50.106 2.453-5.828 9.809-21.011 25.191-35.879 30.223-29.199 79.957-40.675 89.622-42.683 18.87-3.918 36.917-5.313 53.636-4.149 11.77.817 21.742 2.29 30.469 4.5 11.687 2.957 20.86 8.711 26.535 16.633 2.934 4.098 4.735 8.29 6.313 11.992 1.457 3.414 2.718 6.352 4.441 8.188 2.39 2.562 5.648 4.879 9.098 7.34 3.832 2.734 8.175 5.828 12.093 9.824 9.57 9.754 20.383 26.094 22.055 42.707 1.559 15.535-5.18 28.969-11.215 38.937-.695 1.141-4.031 6.32-7.347 11.188-6.73 9.836-9.98 14.215-16.555 14.926-.45.043-.902.07-1.348.07Zm-55.754-93.563c5.657 0 10.332 3.265 13.305 5.347l.285.196c6.676 4.648 11.426 9.011 13.664 11.199 2.438 2.375 5.266 5.504 11.188 13.004 8.637 10.945 14.644 20.336 18.89 27.734a123.982 123.982 0 0 0 2.047-3.207c5.942-9.809 8.309-17 7.684-23.3-.817-8.067-6.961-19.395-14.953-27.548-2.348-2.39-5.434-4.593-8.711-6.925-4.113-2.93-8.77-6.25-12.887-10.649-4.758-5.082-7.234-10.879-9.223-15.531-1.238-2.883-2.3-5.36-3.62-7.211-2.126-2.957-6.446-5.39-12.192-6.84-7.254-1.844-15.766-3.078-26.02-3.789-14.414-1.004-30.136.23-46.734 3.676-23.39 4.851-57.644 17.222-77.191 36.117-12.07 11.66-17.754 23.508-19.352 27.246-.523 2.004-1.055 9.078-.488 20.719a44.96 44.96 0 0 1 12.289-9.574c12.988-6.93 27.305-7.907 39.933-8.762l1.543-.106c33.926-2.347 64.715-1.644 66.012-1.609l.719.016c8.426.207 15.7.379 22.582-3.918 3.586-2.235 6.664-5.442 9.156-9.54 2-3.32 5.188-5.59 8.988-6.413a14.39 14.39 0 0 1 3.086-.332Zm9.63 19.722c-.02.028-.036.07-.063.098.027-.027.043-.07.062-.098Zm0 0"/><path fill="#fb653e" fill-rule="evenodd" d="M406.254 418.375c-7.117 0-15.211-.688-23.922-2.605-7.766-1.715-27.977-7.454-47.805-23.688-9.5-7.785-26.93-24.957-36.836-52.5-2.52-7.004-4.214-14.48-5.246-19.914-6.66-3.172-12.773-7.777-17.988-13.606-6.996-7.82-11.871-17.292-14.11-27.382-4.554-20.59 2.419-40.762 19.137-55.344 5.254-4.598 13.246-4.055 17.832 1.207 4.594 5.254 4.055 13.246-1.21 17.832-12.395 10.82-12.86 22.742-11.067 30.844 2.598 11.746 11.738 22.074 22.223 25.117a12.65 12.65 0 0 1 9.004 10.453c.777 5.719 2.605 14.969 5.218 22.238 8.137 22.63 23.04 36.563 29.067 41.493 15.601 12.78 31.234 17.238 37.226 18.558 17.055 3.762 31.114 1.285 36.36.043 14.328-3.379 24.023-10.047 28.168-12.902 2.992-2.047 10.793-7.844 18.765-17.281 11.516-13.633 20.035-32.235 24.633-53.797a12.657 12.657 0 0 1 10.262-9.832c8.172-1.372 18.578-15.5 19.746-31.66.805-11.145-2.934-18.13-11.121-20.762-6.645-2.137-10.305-9.258-8.16-15.903 2.132-6.644 9.25-10.304 15.902-8.16 10.418 3.344 18.52 10.02 23.441 19.313 4.106 7.742 5.883 17.199 5.153 27.332-1.5 20.789-13.64 43.976-32.184 52.18-5.797 22.82-15.312 42.171-28.363 57.609-9.586 11.344-18.992 18.527-23.75 21.793-4.86 3.344-17.746 12.207-36.676 16.676-5.101 1.207-13.375 2.648-23.7 2.648"/><path fill="#fb653e" fill-rule="evenodd" d="M339.758 459.043c-1.887 0-3.801-.422-5.61-1.32-6.25-3.102-8.804-10.68-5.703-16.942 3.285-6.625 8.852-19.902 9.235-34.469.148-5.582-.582-8.16-1.801-12.44-.34-1.208-.727-2.579-1.113-4.087-1.739-6.765 2.34-13.648 9.105-15.383 6.758-1.738 13.649 2.344 15.383 9.098.308 1.2.625 2.305.95 3.473 1.476 5.195 3 10.57 2.753 20.007-.508 19.41-7.648 36.555-11.867 45.043-2.203 4.45-6.68 7.02-11.332 7.02M470.066 462.988a12.662 12.662 0 0 1-11.043-6.465c-6.378-11.394-14.101-29.234-14.644-49.543-.238-9.445 1.277-14.812 2.746-20 .137-.488.273-.976.418-1.476 1.871-6.727 8.84-10.672 15.562-8.8 6.73 1.866 10.665 8.835 8.797 15.566-.144.539-.3 1.07-.445 1.585-1.21 4.286-1.945 6.868-1.8 12.465.402 15.14 6.429 28.934 11.429 37.84 3.41 6.086 1.242 13.793-4.856 17.207a12.543 12.543 0 0 1-6.164 1.621"/><g clip-path="url(#a)"><path fill="#fb653e" fill-rule="evenodd" d="M672.363 732.156H137.715c-6.961 0-12.617-5.633-12.637-12.593-.117-38.098 1.656-133.333 20.672-194.622 5.066-16.363 11.23-29.73 19.395-42.058 6.824-10.328 26.52-36.313 61.765-54.223 32.246-16.39 63.094-18.844 83.293-18a12.625 12.625 0 0 1 8.137 3.41l55.926 52.5c5.093 4.782 5.34 12.782.566 17.875-4.777 5.082-12.777 5.34-17.867.555l-52.422-49.2c-17.078-.171-41.152 2.677-66.172 15.4-29.871 15.183-46.41 36.964-52.137 45.624-6.89 10.422-11.933 21.406-16.34 35.61-16.351 52.707-19.128 135.972-19.488 174.441h509.278c-.36-38.469-3.137-121.742-19.496-174.441-4.399-14.204-9.442-25.188-16.333-35.602-5.73-8.668-22.265-30.45-52.136-45.633-25.114-12.765-49.266-15.558-66.364-15.398l-55.425 49.422c-5.215 4.648-13.196 4.183-17.852-1.02-4.648-5.21-4.183-13.2 1.02-17.848l58.894-52.507a12.659 12.659 0 0 1 7.895-3.2c20.199-.832 51.047 1.622 83.293 18.012 35.246 17.91 54.933 43.895 61.765 54.223 8.153 12.328 14.317 25.695 19.395 42.058 19.015 61.29 20.789 156.512 20.672 194.621-.028 6.961-5.676 12.594-12.649 12.594"/></g><g clip-path="url(#b)"><path fill="#fb653e" fill-rule="evenodd" d="M796.957 732.164H13.133c-6.988 0-12.649-5.66-12.649-12.644 0-6.98 5.66-12.637 12.649-12.637h783.824c6.988 0 12.645 5.656 12.645 12.637 0 6.984-5.657 12.644-12.645 12.644"/></g><g clip-path="url(#c)"><path fill="#fb653e" fill-rule="evenodd" d="M565.363 732.164H244.715c-29.371 0-53.274-23.902-53.274-53.281v-5.95c0-6.976 5.657-12.636 12.645-12.636h401.918c6.988 0 12.644 5.66 12.644 12.637v5.949c0 29.379-23.902 53.281-53.285 53.281Zm-347.836-46.586c3.012 12.215 14.063 21.305 27.188 21.305h320.648c13.137 0 24.188-9.098 27.188-21.305H217.527"/></g><path fill="#fb653e" fill-rule="evenodd" d="M578.414 685.578H231.676c-6.98 0-12.637-5.656-12.637-12.644V496.859c0-18.586 15.125-33.71 33.711-33.71h304.59c18.586 0 33.71 15.124 33.71 33.71v176.075c0 6.988-5.66 12.644-12.636 12.644ZM244.32 660.297h321.446V496.859c0-4.648-3.782-8.43-8.426-8.43H252.75c-4.648 0-8.43 3.782-8.43 8.43v163.438"/><path fill="#fb653e" fill-rule="evenodd" d="M355.129 622.613c-2.676 0-5.367-.851-7.656-2.597l-46.633-35.614a12.64 12.64 0 0 1-4.973-10.039 12.65 12.65 0 0 1 4.973-10.047l46.633-35.609c5.547-4.238 13.476-3.172 17.71 2.371 4.247 5.547 3.184 13.488-2.374 17.723l-33.47 25.562 33.481 25.567c5.547 4.234 6.61 12.164 2.364 17.718a12.633 12.633 0 0 1-10.055 4.965M454.953 622.613a12.637 12.637 0 0 1-10.058-4.972c-4.235-5.547-3.172-13.477 2.375-17.711l33.472-25.567-33.472-25.562c-5.547-4.235-6.61-12.176-2.375-17.723 4.246-5.543 12.175-6.61 17.722-2.371l46.633 35.61a12.643 12.643 0 0 1 0 20.085l-46.633 35.614a12.608 12.608 0 0 1-7.664 2.597M389.816 641.523c-1.128 0-2.27-.156-3.41-.472-6.722-1.875-10.648-8.856-8.781-15.574l30.48-109.032c1.88-6.73 8.848-10.656 15.579-8.777 6.722 1.887 10.648 8.855 8.77 15.578l-30.47 109.035c-1.562 5.582-6.644 9.242-12.168 9.242"/></svg>