<svg xmlns="http://www.w3.org/2000/svg" xmlns:xlink="http://www.w3.org/1999/xlink" width="1080" zoomAndPan="magnify" viewBox="0 0 810 809.999993" height="1080" preserveAspectRatio="xMidYMid meet" version="1.0"><defs><clipPath id="83cf7329ce"><path d="M 125 410.230469 L 685.285156 410.230469 L 685.285156 731.960938 L 125 731.960938 Z M 125 410.230469 " clip-rule="nonzero"/></clipPath><clipPath id="b3488e4520"><path d="M 0.484375 706.503906 L 809.601562 706.503906 L 809.601562 731.960938 L 0.484375 731.960938 Z M 0.484375 706.503906 " clip-rule="nonzero"/></clipPath><clipPath id="49586f10f0"><path d="M 191.441406 660 L 619 660 L 619 731.960938 L 191.441406 731.960938 Z M 191.441406 660 " clip-rule="nonzero"/></clipPath></defs><path fill="#fb653e" d="M 512.113281 245.539062 C 508.625 245.539062 505.21875 244.097656 502.800781 241.542969 C 500.855469 239.496094 499.671875 237.128906 497.699219 233.21875 C 494.304688 226.464844 487.996094 213.90625 474.953125 197.382812 C 469.5625 190.550781 467.433594 188.253906 465.933594 186.789062 C 464.914062 185.792969 462.53125 183.558594 459.101562 180.917969 C 455.945312 184.335938 452.40625 187.285156 448.523438 189.710938 C 435.207031 198.019531 421.746094 197.691406 411.929688 197.453125 L 411.226562 197.4375 C 410.917969 197.425781 380.265625 196.734375 347.558594 198.996094 L 345.988281 199.097656 C 335.402344 199.820312 324.441406 200.574219 316.230469 204.945312 C 308.402344 209.121094 303.796875 217.898438 300.847656 234.308594 C 299.972656 239.125 296.597656 243.121094 292.007812 244.742188 C 286.410156 246.710938 280.425781 244.84375 276.757812 239.972656 C 270.453125 231.597656 269.230469 220.460938 268.335938 212.328125 L 268.300781 212.050781 C 267.042969 200.582031 264.597656 172.730469 269.125 161.945312 C 271.578125 156.117188 278.933594 140.933594 294.316406 126.066406 C 324.539062 96.867188 374.273438 85.390625 383.9375 83.382812 C 402.808594 79.464844 420.855469 78.070312 437.574219 79.234375 C 449.34375 80.050781 459.316406 81.523438 468.042969 83.734375 C 479.730469 86.691406 488.902344 92.445312 494.578125 100.367188 C 497.511719 104.464844 499.3125 108.65625 500.890625 112.359375 C 502.347656 115.773438 503.609375 118.710938 505.332031 120.546875 C 507.722656 123.109375 510.980469 125.425781 514.429688 127.886719 C 518.261719 130.621094 522.605469 133.714844 526.523438 137.710938 C 536.09375 147.464844 546.90625 163.804688 548.578125 180.417969 C 550.136719 195.953125 543.398438 209.386719 537.363281 219.355469 C 536.667969 220.496094 533.332031 225.675781 530.015625 230.542969 C 523.285156 240.378906 520.035156 244.757812 513.460938 245.46875 C 513.011719 245.511719 512.558594 245.539062 512.113281 245.539062 Z M 456.359375 151.976562 C 462.015625 151.976562 466.691406 155.242188 469.664062 157.324219 L 469.949219 157.519531 C 476.625 162.167969 481.375 166.53125 483.613281 168.71875 C 486.050781 171.09375 488.878906 174.222656 494.800781 181.722656 C 503.4375 192.667969 509.445312 202.058594 513.691406 209.457031 C 514.597656 208.074219 515.328125 206.925781 515.738281 206.25 C 521.679688 196.441406 524.046875 189.25 523.421875 182.949219 C 522.605469 174.882812 516.460938 163.554688 508.46875 155.402344 C 506.121094 153.011719 503.035156 150.808594 499.757812 148.476562 C 495.644531 145.546875 490.988281 142.226562 486.871094 137.828125 C 482.113281 132.746094 479.636719 126.949219 477.648438 122.296875 C 476.410156 119.414062 475.347656 116.9375 474.027344 115.085938 C 471.902344 112.128906 467.582031 109.695312 461.835938 108.246094 C 454.582031 106.402344 446.070312 105.167969 435.816406 104.457031 C 421.402344 103.453125 405.679688 104.6875 389.082031 108.132812 C 365.691406 112.984375 331.4375 125.355469 311.890625 144.25 C 299.820312 155.910156 294.136719 167.757812 292.539062 171.496094 C 292.015625 173.5 291.484375 180.574219 292.050781 192.214844 C 295.402344 188.519531 299.449219 185.238281 304.339844 182.640625 C 317.328125 175.710938 331.644531 174.734375 344.273438 173.878906 L 345.816406 173.773438 C 379.742188 171.425781 410.53125 172.128906 411.828125 172.164062 L 412.546875 172.179688 C 420.972656 172.386719 428.246094 172.558594 435.128906 168.261719 C 438.714844 166.027344 441.792969 162.820312 444.285156 158.722656 C 446.285156 155.402344 449.472656 153.132812 453.273438 152.308594 C 454.328125 152.078125 455.355469 151.976562 456.359375 151.976562 Z M 465.988281 171.699219 C 465.96875 171.726562 465.953125 171.769531 465.925781 171.796875 C 465.953125 171.769531 465.96875 171.726562 465.988281 171.699219 Z M 465.988281 171.699219 " fill-opacity="1" fill-rule="evenodd"/><path fill="#fb653e" d="M 406.253906 418.375 C 399.136719 418.375 391.042969 417.6875 382.332031 415.769531 C 374.566406 414.054688 354.355469 408.316406 334.527344 392.082031 C 325.027344 384.296875 307.597656 367.125 297.691406 339.582031 C 295.171875 332.578125 293.476562 325.101562 292.445312 319.667969 C 285.785156 316.496094 279.671875 311.890625 274.457031 306.0625 C 267.460938 298.242188 262.585938 288.769531 260.347656 278.679688 C 255.792969 258.089844 262.765625 237.917969 279.484375 223.335938 C 284.738281 218.738281 292.730469 219.28125 297.316406 224.542969 C 301.910156 229.796875 301.371094 237.789062 296.105469 242.375 C 283.710938 253.195312 283.246094 265.117188 285.039062 273.21875 C 287.636719 284.964844 296.777344 295.292969 307.261719 298.335938 C 312.070312 299.734375 315.59375 303.832031 316.265625 308.789062 C 317.042969 314.507812 318.871094 323.757812 321.484375 331.027344 C 329.621094 353.65625 344.523438 367.589844 350.550781 372.519531 C 366.152344 385.300781 381.785156 389.757812 387.777344 391.078125 C 404.832031 394.839844 418.890625 392.363281 424.136719 391.121094 C 438.464844 387.742188 448.160156 381.074219 452.304688 378.21875 C 455.296875 376.171875 463.097656 370.375 471.070312 360.9375 C 482.585938 347.304688 491.105469 328.703125 495.703125 307.140625 C 496.78125 302.074219 500.855469 298.175781 505.964844 297.308594 C 514.136719 295.9375 524.542969 281.808594 525.710938 265.648438 C 526.515625 254.503906 522.777344 247.519531 514.589844 244.886719 C 507.945312 242.75 504.285156 235.628906 506.429688 228.984375 C 508.5625 222.339844 515.679688 218.679688 522.332031 220.824219 C 532.75 224.167969 540.851562 230.84375 545.773438 240.136719 C 549.878906 247.878906 551.65625 257.335938 550.925781 267.46875 C 549.425781 288.257812 537.285156 311.445312 518.742188 319.648438 C 512.945312 342.46875 503.429688 361.820312 490.378906 377.257812 C 480.792969 388.601562 471.386719 395.785156 466.628906 399.050781 C 461.769531 402.394531 448.882812 411.257812 429.953125 415.726562 C 424.851562 416.933594 416.578125 418.375 406.253906 418.375 " fill-opacity="1" fill-rule="evenodd"/><path fill="#fb653e" d="M 339.757812 459.042969 C 337.871094 459.042969 335.957031 458.621094 334.148438 457.722656 C 327.898438 454.621094 325.34375 447.042969 328.445312 440.78125 C 331.730469 434.15625 337.296875 420.878906 337.679688 406.3125 C 337.828125 400.730469 337.097656 398.152344 335.878906 393.871094 C 335.539062 392.664062 335.152344 391.292969 334.765625 389.785156 C 333.027344 383.019531 337.105469 376.136719 343.871094 374.402344 C 350.628906 372.664062 357.519531 376.746094 359.253906 383.5 C 359.5625 384.699219 359.878906 385.804688 360.203125 386.972656 C 361.679688 392.167969 363.203125 397.542969 362.957031 406.980469 C 362.449219 426.390625 355.308594 443.535156 351.089844 452.023438 C 348.886719 456.472656 344.410156 459.042969 339.757812 459.042969 " fill-opacity="1" fill-rule="evenodd"/><path fill="#fb653e" d="M 470.066406 462.988281 C 465.644531 462.988281 461.347656 460.65625 459.023438 456.523438 C 452.644531 445.128906 444.921875 427.289062 444.378906 406.980469 C 444.140625 397.535156 445.65625 392.167969 447.125 386.980469 C 447.261719 386.492188 447.398438 386.003906 447.542969 385.503906 C 449.414062 378.777344 456.382812 374.832031 463.105469 376.703125 C 469.835938 378.570312 473.769531 385.539062 471.902344 392.269531 C 471.757812 392.808594 471.601562 393.339844 471.457031 393.855469 C 470.246094 398.140625 469.511719 400.722656 469.65625 406.320312 C 470.058594 421.460938 476.085938 435.253906 481.085938 444.160156 C 484.496094 450.246094 482.328125 457.953125 476.230469 461.367188 C 474.277344 462.464844 472.160156 462.988281 470.066406 462.988281 " fill-opacity="1" fill-rule="evenodd"/><g clip-path="url(#83cf7329ce)"><path fill="#fb653e" d="M 672.363281 732.15625 L 137.714844 732.15625 C 130.753906 732.15625 125.097656 726.523438 125.078125 719.5625 C 124.960938 681.464844 126.734375 586.230469 145.75 524.941406 C 150.816406 508.578125 156.980469 495.210938 165.144531 482.882812 C 171.96875 472.554688 191.664062 446.570312 226.910156 428.660156 C 259.15625 412.269531 290.003906 409.816406 310.203125 410.660156 C 313.238281 410.777344 316.125 411.996094 318.339844 414.070312 L 374.265625 466.570312 C 379.359375 471.351562 379.605469 479.351562 374.832031 484.445312 C 370.054688 489.527344 362.054688 489.785156 356.964844 485 L 304.542969 435.800781 C 287.464844 435.628906 263.390625 438.476562 238.371094 451.199219 C 208.5 466.382812 191.960938 488.164062 186.234375 496.824219 C 179.34375 507.246094 174.300781 518.230469 169.894531 532.433594 C 153.542969 585.140625 150.765625 668.40625 150.40625 706.875 L 659.683594 706.875 C 659.324219 668.40625 656.546875 585.132812 640.1875 532.433594 C 635.789062 518.230469 630.746094 507.246094 623.855469 496.832031 C 618.125 488.164062 601.589844 466.382812 571.71875 451.199219 C 546.605469 438.433594 522.453125 435.640625 505.355469 435.800781 L 449.929688 485.222656 C 444.714844 489.871094 436.734375 489.40625 432.078125 484.203125 C 427.429688 478.992188 427.894531 471.003906 433.097656 466.355469 L 491.992188 413.847656 C 494.175781 411.902344 496.964844 410.769531 499.886719 410.648438 C 520.085938 409.816406 550.933594 412.269531 583.179688 428.660156 C 618.425781 446.570312 638.113281 472.554688 644.945312 482.882812 C 653.097656 495.210938 659.261719 508.578125 664.339844 524.941406 C 683.355469 586.230469 685.128906 681.453125 685.011719 719.5625 C 684.984375 726.523438 679.335938 732.15625 672.363281 732.15625 " fill-opacity="1" fill-rule="evenodd"/></g><g clip-path="url(#b3488e4520)"><path fill="#fb653e" d="M 796.957031 732.164062 L 13.132812 732.164062 C 6.144531 732.164062 0.484375 726.503906 0.484375 719.519531 C 0.484375 712.539062 6.144531 706.882812 13.132812 706.882812 L 796.957031 706.882812 C 803.945312 706.882812 809.601562 712.539062 809.601562 719.519531 C 809.601562 726.503906 803.945312 732.164062 796.957031 732.164062 " fill-opacity="1" fill-rule="evenodd"/></g><g clip-path="url(#49586f10f0)"><path fill="#fb653e" d="M 565.363281 732.164062 L 244.714844 732.164062 C 215.34375 732.164062 191.441406 708.261719 191.441406 678.882812 L 191.441406 672.933594 C 191.441406 665.957031 197.097656 660.296875 204.085938 660.296875 L 606.003906 660.296875 C 612.992188 660.296875 618.648438 665.957031 618.648438 672.933594 L 618.648438 678.882812 C 618.648438 708.261719 594.746094 732.164062 565.363281 732.164062 Z M 217.527344 685.578125 C 220.539062 697.792969 231.589844 706.882812 244.714844 706.882812 L 565.363281 706.882812 C 578.5 706.882812 589.550781 697.785156 592.550781 685.578125 L 217.527344 685.578125 " fill-opacity="1" fill-rule="evenodd"/></g><path fill="#fb653e" d="M 578.414062 685.578125 L 231.675781 685.578125 C 224.695312 685.578125 219.039062 679.921875 219.039062 672.933594 L 219.039062 496.859375 C 219.039062 478.273438 234.164062 463.148438 252.75 463.148438 L 557.339844 463.148438 C 575.925781 463.148438 591.050781 478.273438 591.050781 496.859375 L 591.050781 672.933594 C 591.050781 679.921875 585.390625 685.578125 578.414062 685.578125 Z M 244.320312 660.296875 L 565.765625 660.296875 L 565.765625 496.859375 C 565.765625 492.210938 561.984375 488.429688 557.339844 488.429688 L 252.75 488.429688 C 248.101562 488.429688 244.320312 492.210938 244.320312 496.859375 L 244.320312 660.296875 " fill-opacity="1" fill-rule="evenodd"/><path fill="#fb653e" d="M 355.128906 622.613281 C 352.453125 622.613281 349.761719 621.761719 347.472656 620.015625 L 300.839844 584.402344 C 297.710938 582.011719 295.867188 578.300781 295.867188 574.363281 C 295.867188 570.421875 297.710938 566.707031 300.839844 564.316406 L 347.472656 528.707031 C 353.019531 524.46875 360.949219 525.535156 365.183594 531.078125 C 369.429688 536.625 368.367188 544.566406 362.808594 548.800781 L 329.339844 574.363281 L 362.820312 599.929688 C 368.367188 604.164062 369.429688 612.09375 365.183594 617.648438 C 362.699219 620.898438 358.933594 622.613281 355.128906 622.613281 " fill-opacity="1" fill-rule="evenodd"/><path fill="#fb653e" d="M 454.953125 622.613281 C 451.144531 622.613281 447.390625 620.898438 444.894531 617.640625 C 440.660156 612.09375 441.722656 604.164062 447.269531 599.929688 L 480.742188 574.363281 L 447.269531 548.800781 C 441.722656 544.566406 440.660156 536.625 444.894531 531.078125 C 449.140625 525.535156 457.070312 524.46875 462.617188 528.707031 L 509.25 564.316406 C 512.378906 566.707031 514.214844 570.421875 514.214844 574.363281 C 514.214844 578.300781 512.378906 582.011719 509.25 584.402344 L 462.617188 620.015625 C 460.328125 621.761719 457.628906 622.613281 454.953125 622.613281 " fill-opacity="1" fill-rule="evenodd"/><path fill="#fb653e" d="M 389.816406 641.523438 C 388.6875 641.523438 387.546875 641.367188 386.40625 641.050781 C 379.683594 639.175781 375.757812 632.195312 377.625 625.476562 L 408.105469 516.445312 C 409.984375 509.714844 416.953125 505.789062 423.683594 507.667969 C 430.40625 509.554688 434.332031 516.523438 432.453125 523.246094 L 401.984375 632.28125 C 400.421875 637.863281 395.339844 641.523438 389.816406 641.523438 " fill-opacity="1" fill-rule="evenodd"/></svg>